<svg xmlns="http://www.w3.org/2000/svg" xmlns:xlink="http://www.w3.org/1999/xlink" version="1.1" x="0px" y="0px" viewBox="0 0 3710 3710" style="enable-background:new 0 0 3710 3710;" xml:space="preserve">
<g id="Background">
	<g>
		<g>
			<rect style="fill:#FFFFFF;" width="3710" height="3710"></rect>
		</g>
	</g>
</g>
<g id="Illustration">
	<g>
		<linearGradient id="SVGID_1_" gradientUnits="userSpaceOnUse" x1="3582.3665" y1="3734.5293" x2="1359.821" y2="1335.5912" fill="#000000">
			<stop offset="0" style="stop-color:#299898" fill="#000000"></stop>
			<stop offset="1" style="stop-color:#2d8082" fill="#000000"></stop>
		</linearGradient>
		<path style="fill:url(#SVGID_1_);" d="M3135.114,2458.825c-284.879,665.871-402.604,599.311-1280.207,613.865    c-161.402,2.677-722.036,32.467-981.894-140.481c-556.108-370.116-579.702-1530.922-54.979-2059.688    c66.345-66.856,497.61-423.956,1143.007-417.433c472.525,4.776,804.186,271.699,844.514,304.953    c50.946,42.008,163.312,141.833,264.581,300.198C3308.084,1432.343,3313.135,2042.721,3135.114,2458.825z" data-index="0"></path>
		<g>
			<g style="opacity:0.53;">
				<rect x="452.833" y="1145.567" style="fill:#FFFFFF;" width="254.837" height="1869.325"></rect>
				<rect x="878.642" y="1145.567" style="fill:#FFFFFF;" width="254.838" height="1869.325"></rect>
				<rect x="1304.454" y="1145.567" style="fill:#FFFFFF;" width="254.837" height="1869.325"></rect>
				<rect x="1730.264" y="1145.567" style="fill:#FFFFFF;" width="254.838" height="1869.325"></rect>
				<rect x="2156.074" y="1145.567" style="fill:#FFFFFF;" width="254.837" height="1869.325"></rect>
				<rect x="2581.884" y="1145.567" style="fill:#FFFFFF;" width="254.837" height="1869.325"></rect>
				<rect x="3007.695" y="1145.567" style="fill:#FFFFFF;" width="254.838" height="1869.325"></rect>
			</g>
			<rect x="452.833" y="1808.876" style="fill:#56b1b3;" width="254.837" height="1206.016"></rect>
			<rect x="878.642" y="1650.391" style="fill:#56b1b3;" width="254.838" height="1364.501"></rect>
			<rect x="1304.454" y="1440.711" style="fill:#56b1b3;" width="254.837" height="1574.181"></rect>
			<rect x="1730.264" y="2661.017" style="fill:#56b1b3;" width="254.838" height="353.874"></rect>
			<rect x="2156.074" y="1738.804" style="fill:#56b1b3;" width="254.837" height="1276.087"></rect>
			<rect x="2581.884" y="1959.751" style="fill:#56b1b3;" width="254.837" height="1055.141"></rect>
			<rect x="3007.695" y="1321.07" style="fill:#56b1b3;" width="254.838" height="1693.822"></rect>
		</g>
		<g>
			<g>
				
					<linearGradient id="SVGID_00000069390374420055667790000009938614991578228640_" gradientUnits="userSpaceOnUse" x1="1970.5428" y1="1172.2932" x2="2130.2104" y2="986.9648" fill="#000000">
					<stop offset="0" style="stop-color:#e1473d" fill="#000000"></stop>
					<stop offset="1" style="stop-color:#E9605A" fill="#000000"></stop>
				</linearGradient>
				
					<circle style="fill:url(#SVGID_00000069390374420055667790000009938614991578228640_);" cx="2133.436" cy="983.221" r="119.038"></circle>
				
					<linearGradient id="SVGID_00000183939794396946776080000002061299967762882731_" gradientUnits="userSpaceOnUse" x1="2220.4329" y1="851.7931" x2="1748.2914" y2="1565.0645" fill="#000000">
					<stop offset="0" style="stop-color:#FF928E" fill="#000000"></stop>
					<stop offset="1" style="stop-color:#FE7062" fill="#000000"></stop>
				</linearGradient>
				
					<circle style="fill:url(#SVGID_00000183939794396946776080000002061299967762882731_);" cx="2133.435" cy="983.222" r="115.08"></circle>
				<path style="opacity:0.78;fill:#FFFFFF;" d="M2038.538,939.887c-0.676,0-1.364-0.153-2.01-0.48      c-2.204-1.111-3.088-3.8-1.975-6.004c18.953-37.552,56.842-60.881,98.882-60.881c6.715,0,13.431,0.605,19.966,1.794      c2.429,0.443,4.04,2.769,3.597,5.199c-0.441,2.429-2.761,4.033-5.199,3.597c-6.007-1.096-12.185-1.65-18.364-1.65      c-38.646,0-73.477,21.448-90.902,55.971C2041.746,938.99,2040.173,939.887,2038.538,939.887z" data-index="1"></path>
				
					<ellipse transform="matrix(0.7071 -0.7071 0.7071 0.7071 -71.4125 1799.053)" style="opacity:0.67;fill:#FFFFFF;" cx="2135.943" cy="985.729" rx="97.401" ry="97.401"></ellipse>
				<g>
					
						<linearGradient id="SVGID_00000145024749759166872150000010471729573209323445_" gradientUnits="userSpaceOnUse" x1="2206.3486" y1="872.2307" x2="1954.9434" y2="1294.2986" fill="#000000">
						<stop offset="0" style="stop-color:#FF928E" fill="#000000"></stop>
						<stop offset="1" style="stop-color:#FE7062" fill="#000000"></stop>
					</linearGradient>
					<path style="fill:url(#SVGID_00000145024749759166872150000010471729573209323445_);" d="M2126.385,1058.138v-10.597       c-11.047-0.442-21.973-3.05-29.733-6.447c-2.771-1.213-4.184-4.323-3.388-7.241l2.692-9.871       c0.987-3.621,4.925-5.493,8.387-4.043c7.698,3.228,17.203,5.78,27.453,5.78c10.64,0,18.575-3.607,18.575-11.001       c0-6.672-6.132-10.639-20.919-14.606c-21.099-5.771-36.248-14.969-36.248-33.543c0-16.772,12.264-29.576,33.544-33.002v-10.598       c0-3.41,2.764-6.174,6.174-6.174h6.227c3.409,0,6.174,2.765,6.174,6.174v9.515c10.222,0.409,17.663,2.157,23.568,4.232       c3.025,1.063,4.678,4.322,3.839,7.417l-2.475,9.129c-0.955,3.52-4.717,5.448-8.128,4.158       c-5.437-2.056-13.123-4.197-23.115-4.197c-12.624,0-16.23,5.23-16.23,9.919c0,5.771,7.574,9.738,23.985,14.788       c23.444,7.033,33.182,16.771,33.182,34.264c0,16.051-11.902,30.478-34.986,34.085v11.859c0,3.41-2.764,6.174-6.174,6.174       h-6.226C2129.149,1064.312,2126.385,1061.548,2126.385,1058.138z" data-index="2"></path>
				</g>
			</g>
			<g>
				
					<linearGradient id="SVGID_00000163055227829195991760000011030625655550868660_" gradientUnits="userSpaceOnUse" x1="2188.7119" y1="1171.1973" x2="2466.6655" y2="848.5729" fill="#000000">
					<stop offset="0" style="stop-color:#e1473d" fill="#000000"></stop>
					<stop offset="1" style="stop-color:#E9605A" fill="#000000"></stop>
				</linearGradient>
				
					<circle style="fill:url(#SVGID_00000163055227829195991760000011030625655550868660_);" cx="2472.28" cy="842.056" r="207.225"></circle>
				
					<linearGradient id="SVGID_00000093161974600204171120000009884155928805910947_" gradientUnits="userSpaceOnUse" x1="2623.7275" y1="613.2623" x2="1801.8109" y2="1854.9441" fill="#000000">
					<stop offset="0" style="stop-color:#FF928E" fill="#000000"></stop>
					<stop offset="1" style="stop-color:#FE7062" fill="#000000"></stop>
				</linearGradient>
				
					<circle style="fill:url(#SVGID_00000093161974600204171120000009884155928805910947_);" cx="2472.28" cy="842.056" r="200.334"></circle>
				<path style="opacity:0.78;fill:#FFFFFF;" d="M2307.083,763.307c-0.677,0-1.364-0.153-2.01-0.48      c-2.204-1.111-3.088-3.8-1.975-6.004c32.433-64.254,97.26-104.167,169.183-104.167c11.471,0,22.967,1.034,34.163,3.073      c2.429,0.443,4.04,2.769,3.597,5.198c-0.441,2.427-2.761,4.025-5.199,3.597c-10.67-1.944-21.625-2.929-32.561-2.929      c-68.531,0-130.299,38.032-161.203,99.257C2310.291,762.41,2308.717,763.307,2307.083,763.307z" data-index="3"></path>
				
					<ellipse transform="matrix(0.7071 -0.7071 0.7071 0.7071 126.8826 1999.1636)" style="opacity:0.67;fill:#FFFFFF;" cx="2476.645" cy="846.421" rx="169.558" ry="169.558"></ellipse>
				<g>
					
						<linearGradient id="SVGID_00000175307321488116583390000010242058592791336893_" gradientUnits="userSpaceOnUse" x1="2599.209" y1="648.8403" x2="2161.5552" y2="1383.5884" fill="#000000">
						<stop offset="0" style="stop-color:#FF928E" fill="#000000"></stop>
						<stop offset="1" style="stop-color:#FE7062" fill="#000000"></stop>
					</linearGradient>
					<path style="fill:url(#SVGID_00000175307321488116583390000010242058592791336893_);" d="M2460.006,972.473v-18.447       c-19.23-0.77-38.251-5.309-51.761-11.222c-4.824-2.112-7.283-7.525-5.897-12.606l4.686-17.183       c1.719-6.303,8.574-9.564,14.6-7.038c13.401,5.618,29.948,10.063,47.791,10.063c18.522,0,32.335-6.28,32.335-19.151       c0-11.615-10.673-18.521-36.417-25.427c-36.73-10.046-63.102-26.058-63.102-58.393c0-29.198,21.349-51.487,58.393-57.451       v-18.449c0-5.936,4.813-10.749,10.749-10.749h10.838c5.937,0,10.749,4.812,10.749,10.749v16.564       c17.794,0.712,30.748,3.755,41.027,7.367c5.267,1.85,8.145,7.524,6.684,12.911l-4.31,15.892       c-1.662,6.128-8.211,9.484-14.151,7.239c-9.464-3.579-22.845-7.306-40.239-7.306c-21.976,0-28.253,9.104-28.253,17.267       c0,10.045,13.185,16.952,41.752,25.743c40.813,12.243,57.765,29.195,57.765,59.648c0,27.941-20.719,53.056-60.903,59.335       v20.644c0,5.937-4.812,10.749-10.749,10.749h-10.839C2464.818,983.222,2460.006,978.41,2460.006,972.473z" data-index="4"></path>
				</g>
			</g>
			<g>
				
					<linearGradient id="SVGID_00000172414383193036983310000009592446945951842224_" gradientUnits="userSpaceOnUse" x1="2323.407" y1="1643.5864" x2="2609.4182" y2="1311.6096" fill="#000000">
					<stop offset="0" style="stop-color:#e1473d" fill="#000000"></stop>
					<stop offset="1" style="stop-color:#E9605A" fill="#000000"></stop>
				</linearGradient>
				
					<circle style="fill:url(#SVGID_00000172414383193036983310000009592446945951842224_);" cx="2615.195" cy="1304.904" r="213.232"></circle>
				
					<linearGradient id="SVGID_00000147916260475743318300000012710511524198962830_" gradientUnits="userSpaceOnUse" x1="2771.033" y1="1069.4775" x2="1925.2906" y2="2347.1528" fill="#000000">
					<stop offset="0" style="stop-color:#FF928E" fill="#000000"></stop>
					<stop offset="1" style="stop-color:#FE7062" fill="#000000"></stop>
				</linearGradient>
				
					<circle style="fill:url(#SVGID_00000147916260475743318300000012710511524198962830_);" cx="2615.195" cy="1304.904" r="206.142"></circle>
				<path style="opacity:0.78;fill:#FFFFFF;" d="M2445.208,1223.742c-0.677,0-1.364-0.153-2.01-0.48      c-2.205-1.111-3.089-3.8-1.975-6.004c33.351-66.069,100.012-107.114,173.971-107.114c11.803,0,23.621,1.063,35.132,3.158      c2.429,0.443,4.038,2.77,3.597,5.199c-0.441,2.427-2.757,4.029-5.199,3.597c-10.982-1.999-22.264-3.014-33.53-3.014      c-70.566,0-134.169,39.161-165.992,102.203C2448.417,1222.845,2446.843,1223.742,2445.208,1223.742z" data-index="5"></path>
				
					<ellipse transform="matrix(0.7071 -0.7071 0.7071 0.7071 -158.5941 2235.9114)" style="opacity:0.67;fill:#FFFFFF;" cx="2619.687" cy="1309.396" rx="174.474" ry="174.474"></ellipse>
				<g>
					
						<linearGradient id="SVGID_00000034073527918017716950000009907597588890970297_" gradientUnits="userSpaceOnUse" x1="2745.8035" y1="1106.0869" x2="2295.4629" y2="1862.1345" fill="#000000">
						<stop offset="0" style="stop-color:#FF928E" fill="#000000"></stop>
						<stop offset="1" style="stop-color:#FE7062" fill="#000000"></stop>
					</linearGradient>
					<path style="fill:url(#SVGID_00000034073527918017716950000009907597588890970297_);" d="M2602.565,1439.102v-18.982       c-19.788-0.792-39.36-5.463-53.261-11.548c-4.964-2.173-7.495-7.744-6.068-12.972l4.822-17.681       c1.769-6.486,8.823-9.841,15.023-7.242c13.79,5.781,30.816,10.354,49.177,10.354c19.059,0,33.273-6.462,33.273-19.707       c0-11.951-10.983-19.058-37.472-26.164c-37.795-10.337-64.932-26.813-64.932-60.086c0-30.044,21.968-52.979,60.086-59.116       v-18.984c0-6.108,4.952-11.06,11.06-11.06h11.153c6.108,0,11.06,4.952,11.06,11.06v17.044       c18.311,0.733,31.639,3.864,42.217,7.581c5.419,1.904,8.381,7.742,6.877,13.286l-4.435,16.351       c-1.71,6.306-8.449,9.76-14.56,7.449c-9.739-3.683-23.508-7.518-41.405-7.518c-22.614,0-29.073,9.368-29.073,17.767       c0,10.337,13.567,17.443,42.963,26.489c41.995,12.599,59.439,30.042,59.439,61.377c0,28.75-21.32,54.593-62.668,61.055v21.243       c0,6.108-4.952,11.06-11.06,11.06h-11.154C2607.517,1450.162,2602.565,1445.21,2602.565,1439.102z" data-index="6"></path>
				</g>
			</g>
			<g>
				
					<linearGradient id="SVGID_00000163038437549178813800000016751708778637806004_" gradientUnits="userSpaceOnUse" x1="2674.9519" y1="1262.5903" x2="2884.5103" y2="1019.3534" fill="#000000">
					<stop offset="0" style="stop-color:#e1473d" fill="#000000"></stop>
					<stop offset="1" style="stop-color:#E9605A" fill="#000000"></stop>
				</linearGradient>
				
					<circle style="fill:url(#SVGID_00000163038437549178813800000016751708778637806004_);" cx="2888.743" cy="1014.44" r="156.233"></circle>
				
					<linearGradient id="SVGID_00000032626829601892486910000010840575988847923368_" gradientUnits="userSpaceOnUse" x1="3002.9241" y1="841.9456" x2="2383.2551" y2="1778.0884" fill="#000000">
					<stop offset="0" style="stop-color:#FF928E" fill="#000000"></stop>
					<stop offset="1" style="stop-color:#FE7062" fill="#000000"></stop>
				</linearGradient>
				
					<circle style="fill:url(#SVGID_00000032626829601892486910000010840575988847923368_);" cx="2888.743" cy="1014.441" r="151.038"></circle>
				<path style="opacity:0.78;fill:#FFFFFF;" d="M2764.195,956.169c-0.677,0-1.364-0.153-2.01-0.48      c-2.205-1.111-3.088-3.8-1.975-6.004c24.638-48.814,73.889-79.138,128.533-79.138c8.725,0,17.458,0.786,25.957,2.335      c2.427,0.443,4.038,2.772,3.595,5.199c-0.445,2.431-2.752,4.04-5.201,3.597c-7.968-1.453-16.161-2.192-24.35-2.192      c-51.25,0-97.443,28.443-120.554,74.228C2767.404,955.272,2765.83,956.169,2764.195,956.169z" data-index="7"></path>
				
					<ellipse transform="matrix(0.7071 -0.7071 0.7071 0.7071 127.4125 2343.0637)" style="opacity:0.67;fill:#FFFFFF;" cx="2892.034" cy="1017.731" rx="127.835" ry="127.835"></ellipse>
				<g>
					
						<linearGradient id="SVGID_00000113324404208314051990000010560201342710371759_" gradientUnits="userSpaceOnUse" x1="2984.439" y1="868.7689" x2="2654.4783" y2="1422.718" fill="#000000">
						<stop offset="0" style="stop-color:#FF928E" fill="#000000"></stop>
						<stop offset="1" style="stop-color:#FE7062" fill="#000000"></stop>
					</linearGradient>
					<path style="fill:url(#SVGID_00000113324404208314051990000010560201342710371759_);" d="M2879.489,1112.766v-13.907       c-14.498-0.581-28.839-4.002-39.025-8.461c-3.636-1.592-5.49-5.674-4.446-9.504l3.533-12.955       c1.297-4.752,6.465-7.21,11.008-5.307c10.104,4.236,22.579,7.587,36.031,7.587c13.964,0,24.379-4.735,24.379-14.439       c0-8.757-8.047-13.964-27.456-19.17c-27.692-7.575-47.574-19.646-47.574-44.024c0-22.013,16.095-38.818,44.025-43.313v-13.91       c0-4.476,3.628-8.104,8.103-8.104h8.171c4.476,0,8.104,3.628,8.104,8.104v12.488c13.416,0.537,23.181,2.831,30.932,5.555       c3.97,1.395,6.14,5.672,5.039,9.734l-3.249,11.981c-1.253,4.62-6.19,7.151-10.668,5.458       c-7.136-2.698-17.224-5.508-30.337-5.508c-16.568,0-21.302,6.863-21.302,13.017c0,7.574,9.941,12.781,31.479,19.408       c30.77,9.231,43.55,22.012,43.55,44.971c0,21.065-15.621,40-45.917,44.735v15.564c0,4.476-3.628,8.104-8.103,8.104h-8.172       C2883.117,1120.869,2879.489,1117.241,2879.489,1112.766z" data-index="8"></path>
				</g>
			</g>
		</g>
		<g>
			
				<linearGradient id="SVGID_00000134218908508701591360000009622839465796585365_" gradientUnits="userSpaceOnUse" x1="3379.6802" y1="1100.5074" x2="2282.1121" y2="3040.2314" fill="#000000">
				<stop offset="0" style="stop-color:#FF928E" fill="#000000"></stop>
				<stop offset="1" style="stop-color:#FE7062" fill="#000000"></stop>
			</linearGradient>
			<path style="fill: url(&quot;#SVGID_00000134218908508701591360000009622839465796585365_&quot;); opacity: 1;" d="M2232.599,2930.438l529.553-1014.513     h-108.496c-20.007,0-31.01-23.261-18.32-38.727l564.398-687.887c24.461-29.814,72.782-10.904,70.511,27.593l-39.674,672.669     c-2.271,38.508-36.417,67.208-74.741,62.822l-75.644-8.657l-525.424,1137.879c-13.678,29.622-43.328,48.589-75.956,48.589     h-182.105L2232.599,2930.438z" data-index="9"></path>
			
				<linearGradient id="SVGID_00000123422143843585522080000005334237126781019545_" gradientUnits="userSpaceOnUse" x1="2443.4993" y1="3189.2717" x2="1863.6525" y2="2167.6355" fill="#000000">
				<stop offset="0" style="stop-color:#FF928E" fill="#000000"></stop>
				<stop offset="1" style="stop-color:#FE7062" fill="#000000"></stop>
			</linearGradient>
			<path style="fill:url(#SVGID_00000123422143843585522080000005334237126781019545_);" d="M1794.773,2218.914l373.854,830.47     c22.144,49.189,71.074,80.821,125.018,80.821h192.73c25.572,0,49.132-13.872,61.536-36.233l6.854-12.356l0,0     c-20.707,0-39.667-11.61-49.08-30.053l-498.116-975.986L1794.773,2218.914z" data-index="10"></path>
			
				<linearGradient id="SVGID_00000182488054061126067780000000502045867154953117_" gradientUnits="userSpaceOnUse" x1="1943.9246" y1="1915.7233" x2="1150.0842" y2="3227.2842" fill="#000000">
				<stop offset="0" style="stop-color:#FF928E" fill="#000000"></stop>
				<stop offset="1" style="stop-color:#FE7062" fill="#000000"></stop>
			</linearGradient>
			<path style="fill:url(#SVGID_00000182488054061126067780000000502045867154953117_);" d="M2057.881,2174.158L2057.881,2174.158     c-37.489-29.604-92.264-20.901-118.731,18.865l-549.67,825.838c-44.024,66.143-118.213,105.884-197.667,105.884h-77.345     l-62.946-181.328c0,0,511.004-783.531,642.712-902.057c0,0,131.163-118.213,260.487-28.835     c34.167,23.613,60.107,57.314,75.952,95.705L2057.881,2174.158z" data-index="11"></path>
			
				<linearGradient id="SVGID_00000127742026954909628460000006970312725511845304_" gradientUnits="userSpaceOnUse" x1="1172.6763" y1="2994.3384" x2="220.0772" y2="2011.2567" fill="#000000">
				<stop offset="0" style="stop-color:#FF928E" fill="#000000"></stop>
				<stop offset="1" style="stop-color:#FE7062" fill="#000000"></stop>
			</linearGradient>
			<path style="fill:url(#SVGID_00000127742026954909628460000006970312725511845304_);" d="M453.68,2455.742     c0,0,92.011-115.009,270.308-132.9c0,0,84.683,28.851,253.391,331.155c168.709,302.304,280.692,440.16,412.1,364.864     l-10.879,18.063c-35.853,59.53-100.269,95.929-169.762,95.929h-72.677c-80.018,0-149.506-123.25-196.233-188.207     C808.622,2762.115,534.34,2484.079,453.68,2455.742z" data-index="12"></path>
			<path style="opacity:0.71;fill:#FFFFFF;" d="M3206.565,1429.531c-0.196,0-0.391-0.01-0.59-0.034     c-2.842-0.322-4.884-2.885-4.56-5.727l3.721-32.845c0.32-2.841,2.899-4.907,5.727-4.56c2.842,0.322,4.884,2.885,4.561,5.727     l-3.721,32.845C3211.402,1427.579,3209.164,1429.531,3206.565,1429.531z" data-index="13"></path>
			<path style="opacity:0.71;fill:#FFFFFF;" d="M2735.419,1844.14c-1.102,0-2.215-0.351-3.155-1.075     c-2.265-1.743-2.69-4.993-0.944-7.26l466.053-605.571c5.484-7.122,14.419-9.549,22.741-6.178     c8.332,3.371,13.064,11.318,12.053,20.25l-8.224,72.589c-0.323,2.841-2.902,4.904-5.727,4.56     c-2.842-0.322-4.884-2.885-4.561-5.727l8.224-72.587c0.573-5.078-2.542-8.229-5.649-9.487c-3.104-1.255-7.533-1.154-10.654,2.895     l-466.053,605.571C2738.506,1843.446,2736.969,1844.14,2735.419,1844.14z" data-index="14"></path>
			<path style="opacity:0.71;fill:#FFFFFF;" d="M1678.13,2478.983c-0.998,0-2.005-0.286-2.892-0.885     c-2.37-1.599-2.996-4.818-1.396-7.188l241.03-357.278c8.632-12.796,22.987-19.718,38.374-18.573     c15.393,1.168,28.525,10.196,35.128,24.15c1.224,2.583,0.121,5.671-2.464,6.895c-2.582,1.229-5.669,0.12-6.893-2.466     c-4.992-10.547-14.918-17.37-26.557-18.253c-11.635-0.875-22.482,4.365-29.007,14.038l-241.03,357.278     C1681.426,2478.185,1679.791,2478.983,1678.13,2478.983z" data-index="15"></path>
			<path style="opacity:0.71;fill:#FFFFFF;" d="M1615.494,2571.826c-0.998,0-2.005-0.286-2.892-0.885     c-2.37-1.599-2.996-4.818-1.395-7.188l15.454-22.908c1.594-2.373,4.823-2.993,7.186-1.397c2.37,1.599,2.996,4.818,1.396,7.188     l-15.454,22.908C1618.791,2571.027,1617.156,2571.826,1615.494,2571.826z" data-index="16"></path>
		</g>
		<g>
			<g>
				<g>
					
						<linearGradient id="SVGID_00000107588776503625557670000015137377239618862738_" gradientUnits="userSpaceOnUse" x1="5837.3003" y1="2605.3506" x2="6776.0591" y2="2605.3506" gradientTransform="matrix(-1 0 0 1 7226.8052 0)" fill="#000000">
						<stop offset="0" style="stop-color:#005151" fill="#000000"></stop>
						<stop offset="1" style="stop-color:#00696b" fill="#000000"></stop>
					</linearGradient>
					<path style="fill:url(#SVGID_00000107588776503625557670000015137377239618862738_);" d="M1374.149,2107.898       c4.943,176.51,20.972,785.357,13.32,1001.115c-0.811,22.857-21.507,41.204-47.325,41.952       c-127.691,3.699-595.798,13.076-804.656,5.319c-43.503-1.616-78.097-32.813-78.999-71.352       c-4.341-185.27-13.916-706.362,8.844-945.074c2.728-28.601,28.083-51.377,60.344-54.235       c139.061-12.316,609.181-42.422,789.623-32.055C1347.841,2055.436,1373.342,2079.035,1374.149,2107.898z" data-index="17"></path>
					
						<linearGradient id="SVGID_00000089544805742293839060000015205328224876807590_" gradientUnits="userSpaceOnUse" x1="518.9116" y1="2260.5139" x2="1337.475" y2="2260.5139" fill="#000000">
						<stop offset="0" style="stop-color:#09c2c6" fill="#000000"></stop>
						<stop offset="1" style="stop-color:#0bd5d8" fill="#000000"></stop>
					</linearGradient>
					<path style="fill:url(#SVGID_00000089544805742293839060000015205328224876807590_);" d="M1337.475,2185.721v149.585       c0,28.686-23.254,51.939-51.939,51.939H570.851c-28.685,0-51.939-23.254-51.939-51.939v-149.585       c0-28.685,23.254-51.939,51.939-51.939h714.685C1314.221,2133.782,1337.475,2157.036,1337.475,2185.721z" data-index="18"></path>
					<g style="opacity:0.19;">
						<path style="fill:#56b1b3;" d="M555.365,2184.863c6.318-6.533,14.976-10.285,24.063-10.429l668.742-10.625        c17.878-0.285,32.963,13.237,34.63,31.039l13.895,148.363c1.138,12.148-18.847,22.376-44.327,22.686l-657.466,7.967        c-25.441,0.308-46.472-9.395-46.682-21.536l-2.48-143.067C545.584,2200.172,549.046,2191.395,555.365,2184.863z" data-index="19"></path>
					</g>
				</g>
				
					<linearGradient id="SVGID_00000023282510378685466410000006688339954051531672_" gradientUnits="userSpaceOnUse" x1="5754.2251" y1="2766.9856" x2="6383.7021" y2="2160.968" gradientTransform="matrix(-1 0 0 1 7226.8052 0)" fill="#000000">
					<stop offset="0" style="stop-color:#09c2c6" fill="#000000"></stop>
					<stop offset="1" style="stop-color:#0bd5d8" fill="#000000"></stop>
				</linearGradient>
				<path style="fill:url(#SVGID_00000023282510378685466410000006688339954051531672_);" d="M1158.804,2538.909      c0,26.391,21.394,47.784,47.784,47.784h58.172c26.391,0,47.784-21.394,47.784-47.784l0,0c0-26.39-21.393-47.784-47.784-47.784      h-58.172C1180.198,2491.125,1158.804,2512.518,1158.804,2538.909L1158.804,2538.909z" data-index="20"></path>
				
					<linearGradient id="SVGID_00000111149299058626970460000009719970837708011159_" gradientUnits="userSpaceOnUse" x1="5858.1577" y1="2874.9414" x2="6487.6348" y2="2268.9238" gradientTransform="matrix(-1 0 0 1 7226.8052 0)" fill="#000000">
					<stop offset="0" style="stop-color:#09c2c6" fill="#000000"></stop>
					<stop offset="1" style="stop-color:#0bd5d8" fill="#000000"></stop>
				</linearGradient>
				<path style="fill:url(#SVGID_00000111149299058626970460000009719970837708011159_);" d="M942.736,2538.909      c0,26.391,21.393,47.784,47.784,47.784h58.172c26.39,0,47.784-21.394,47.784-47.784l0,0c0-26.39-21.394-47.784-47.784-47.784      h-58.172C964.13,2491.125,942.736,2512.518,942.736,2538.909L942.736,2538.909z" data-index="21"></path>
				
					<linearGradient id="SVGID_00000034796748798822561100000017399364230235270301_" gradientUnits="userSpaceOnUse" x1="5958.0923" y1="2978.7458" x2="6587.5693" y2="2372.728" gradientTransform="matrix(-1 0 0 1 7226.8052 0)" fill="#000000">
					<stop offset="0" style="stop-color:#09c2c6" fill="#000000"></stop>
					<stop offset="1" style="stop-color:#0bd5d8" fill="#000000"></stop>
				</linearGradient>
				<path style="fill:url(#SVGID_00000034796748798822561100000017399364230235270301_);" d="M734.979,2538.909      c0,26.391,21.394,47.784,47.784,47.784h58.172c26.391,0,47.784-21.394,47.784-47.784l0,0c0-26.39-21.393-47.784-47.784-47.784      h-58.172C756.373,2491.125,734.979,2512.518,734.979,2538.909L734.979,2538.909z" data-index="22"></path>
				
					<linearGradient id="SVGID_00000085943489368032845740000009368263080622306953_" gradientUnits="userSpaceOnUse" x1="6673.2021" y1="2489.9824" x2="6330.7402" y2="2893.781" gradientTransform="matrix(-1 0 0 1 7226.8052 0)" fill="#000000">
					<stop offset="0" style="stop-color:#e1473d" fill="#000000"></stop>
					<stop offset="1" style="stop-color:#E9605A" fill="#000000"></stop>
				</linearGradient>
				<path style="fill:url(#SVGID_00000085943489368032845740000009368263080622306953_);" d="M524.376,2545.923      c0,26.818,21.74,48.558,48.558,48.558h56.225c26.818,0,48.558-21.74,48.558-48.558l0,0c0-26.818-21.74-48.558-48.558-48.558      h-56.225C546.116,2497.365,524.376,2519.106,524.376,2545.923L524.376,2545.923z" data-index="23"></path>
				
					<linearGradient id="SVGID_00000055687017673337530120000014740491004179068601_" gradientUnits="userSpaceOnUse" x1="5828.9634" y1="2844.6179" x2="6458.4399" y2="2238.6008" gradientTransform="matrix(-1 0 0 1 7226.8052 0)" fill="#000000">
					<stop offset="0" style="stop-color:#09c2c6" fill="#000000"></stop>
					<stop offset="1" style="stop-color:#0bd5d8" fill="#000000"></stop>
				</linearGradient>
				<path style="fill:url(#SVGID_00000055687017673337530120000014740491004179068601_);" d="M1158.804,2688.494      c0,26.391,21.394,47.784,47.784,47.784h58.172c26.391,0,47.784-21.393,47.784-47.784l0,0c0-26.391-21.393-47.784-47.784-47.784      h-58.172C1180.198,2640.71,1158.804,2662.103,1158.804,2688.494L1158.804,2688.494z" data-index="24"></path>
				
					<linearGradient id="SVGID_00000134240627894682923480000003754032660201451422_" gradientUnits="userSpaceOnUse" x1="1128.4928" y1="2448.9446" x2="966.7926" y2="2804.6843" fill="#000000">
					<stop offset="0" style="stop-color:#09c2c6" fill="#000000"></stop>
					<stop offset="1" style="stop-color:#0bd5d8" fill="#000000"></stop>
				</linearGradient>
				<path style="fill:url(#SVGID_00000134240627894682923480000003754032660201451422_);" d="M942.736,2688.494      c0,26.391,21.393,47.784,47.784,47.784h58.172c26.39,0,47.784-21.393,47.784-47.784l0,0c0-26.391-21.394-47.784-47.784-47.784      h-58.172C964.13,2640.71,942.736,2662.103,942.736,2688.494L942.736,2688.494z" data-index="25"></path>
				
					<linearGradient id="SVGID_00000092454777346613103600000003189755430052816282_" gradientUnits="userSpaceOnUse" x1="6032.8315" y1="3056.3772" x2="6662.3086" y2="2450.3599" gradientTransform="matrix(-1 0 0 1 7226.8052 0)" fill="#000000">
					<stop offset="0" style="stop-color:#09c2c6" fill="#000000"></stop>
					<stop offset="1" style="stop-color:#0bd5d8" fill="#000000"></stop>
				</linearGradient>
				<path style="fill:url(#SVGID_00000092454777346613103600000003189755430052816282_);" d="M734.979,2688.494      c0,26.391,21.394,47.784,47.784,47.784h58.172c26.391,0,47.784-21.393,47.784-47.784l0,0c0-26.391-21.393-47.784-47.784-47.784      h-58.172C756.373,2640.71,734.979,2662.103,734.979,2688.494L734.979,2688.494z" data-index="26"></path>
				
					<linearGradient id="SVGID_00000139270096998870462440000010601079451125209753_" gradientUnits="userSpaceOnUse" x1="6136.7642" y1="3164.3328" x2="6766.2412" y2="2558.3157" gradientTransform="matrix(-1 0 0 1 7226.8052 0)" fill="#000000">
					<stop offset="0" style="stop-color:#09c2c6" fill="#000000"></stop>
					<stop offset="1" style="stop-color:#0bd5d8" fill="#000000"></stop>
				</linearGradient>
				<path style="fill:url(#SVGID_00000139270096998870462440000010601079451125209753_);" d="M518.912,2688.494      c0,26.391,21.393,47.784,47.784,47.784h58.172c26.39,0,47.784-21.393,47.784-47.784l0,0c0-26.391-21.394-47.784-47.784-47.784      h-58.172C540.305,2640.71,518.912,2662.103,518.912,2688.494L518.912,2688.494z" data-index="27"></path>
				<g>
					
						<linearGradient id="SVGID_00000039130973226786628640000003726136766069974955_" gradientUnits="userSpaceOnUse" x1="5895.1548" y1="2913.3713" x2="6524.6318" y2="2307.3538" gradientTransform="matrix(-1 0 0 1 7226.8052 0)" fill="#000000">
						<stop offset="0" style="stop-color:#09c2c6" fill="#000000"></stop>
						<stop offset="1" style="stop-color:#0bd5d8" fill="#000000"></stop>
					</linearGradient>
					<path style="opacity:0.63;fill:url(#SVGID_00000039130973226786628640000003726136766069974955_);" d="M1158.804,2820.972       c0,26.391,21.394,47.784,47.784,47.784h58.172c26.391,0,47.784-21.394,47.784-47.784l0,0c0-26.39-21.393-47.784-47.784-47.784       h-58.172C1180.198,2773.188,1158.804,2794.581,1158.804,2820.972L1158.804,2820.972z" data-index="28"></path>
					
						<linearGradient id="SVGID_00000054248122076958410180000001793345044338257059_" gradientUnits="userSpaceOnUse" x1="1147.3586" y1="2565.4683" x2="969.4885" y2="2921.2078" fill="#000000">
						<stop offset="0" style="stop-color:#09c2c6" fill="#000000"></stop>
						<stop offset="1" style="stop-color:#0bd5d8" fill="#000000"></stop>
					</linearGradient>
					<path style="opacity:0.63;fill:url(#SVGID_00000054248122076958410180000001793345044338257059_);" d="M942.736,2820.972       c0,26.391,21.393,47.784,47.784,47.784h58.172c26.39,0,47.784-21.394,47.784-47.784l0,0c0-26.39-21.394-47.784-47.784-47.784       h-58.172C964.13,2773.188,942.736,2794.581,942.736,2820.972L942.736,2820.972z" data-index="29"></path>
					
						<linearGradient id="SVGID_00000100383697877768276480000013049016569058597820_" gradientUnits="userSpaceOnUse" x1="6099.0225" y1="3125.1311" x2="6728.4995" y2="2519.1133" gradientTransform="matrix(-1 0 0 1 7226.8052 0)" fill="#000000">
						<stop offset="0" style="stop-color:#09c2c6" fill="#000000"></stop>
						<stop offset="1" style="stop-color:#0bd5d8" fill="#000000"></stop>
					</linearGradient>
					<path style="opacity:0.63;fill:url(#SVGID_00000100383697877768276480000013049016569058597820_);" d="M734.979,2820.972       c0,26.391,21.394,47.784,47.784,47.784h58.172c26.391,0,47.784-21.394,47.784-47.784l0,0c0-26.39-21.393-47.784-47.784-47.784       h-58.172C756.373,2773.188,734.979,2794.581,734.979,2820.972L734.979,2820.972z" data-index="30"></path>
				</g>
				<g>
					
						<linearGradient id="SVGID_00000015348874258849396920000008963519280446518409_" gradientUnits="userSpaceOnUse" x1="5967.8174" y1="2988.8469" x2="6597.2944" y2="2382.8293" gradientTransform="matrix(-1 0 0 1 7226.8052 0)" fill="#000000">
						<stop offset="0" style="stop-color:#09c2c6" fill="#000000"></stop>
						<stop offset="1" style="stop-color:#0bd5d8" fill="#000000"></stop>
					</linearGradient>
					<path style="opacity:0.63;fill:url(#SVGID_00000015348874258849396920000008963519280446518409_);" d="M1158.804,2966.402       c0,26.391,21.394,47.784,47.784,47.784h58.172c26.391,0,47.784-21.394,47.784-47.784l0,0c0-26.39-21.393-47.784-47.784-47.784       h-58.172C1180.198,2918.618,1158.804,2940.011,1158.804,2966.402L1158.804,2966.402z" data-index="31"></path>
					
						<linearGradient id="SVGID_00000118365014028267802010000003812583992808563375_" gradientUnits="userSpaceOnUse" x1="1142.4806" y1="2731.1426" x2="953.0613" y2="3093.812" fill="#000000">
						<stop offset="0" style="stop-color:#09c2c6" fill="#000000"></stop>
						<stop offset="1" style="stop-color:#0bd5d8" fill="#000000"></stop>
					</linearGradient>
					<path style="opacity:0.63;fill:url(#SVGID_00000118365014028267802010000003812583992808563375_);" d="M942.736,2966.402       c0,26.391,21.393,47.784,47.784,47.784h58.172c26.39,0,47.784-21.394,47.784-47.784l0,0c0-26.39-21.394-47.784-47.784-47.784       h-58.172C964.13,2918.618,942.736,2940.011,942.736,2966.402L942.736,2966.402z" data-index="32"></path>
					
						<linearGradient id="SVGID_00000063623212668027162970000004088146024496646304_" gradientUnits="userSpaceOnUse" x1="6171.6846" y1="3200.6067" x2="6801.1616" y2="2594.5894" gradientTransform="matrix(-1 0 0 1 7226.8052 0)" fill="#000000">
						<stop offset="0" style="stop-color:#09c2c6" fill="#000000"></stop>
						<stop offset="1" style="stop-color:#0bd5d8" fill="#000000"></stop>
					</linearGradient>
					<path style="opacity:0.63;fill:url(#SVGID_00000063623212668027162970000004088146024496646304_);" d="M734.979,2966.402       c0,26.391,21.394,47.784,47.784,47.784h58.172c26.391,0,47.784-21.394,47.784-47.784l0,0c0-26.39-21.393-47.784-47.784-47.784       h-58.172C756.373,2918.618,734.979,2940.011,734.979,2966.402L734.979,2966.402z" data-index="33"></path>
				</g>
				
					<linearGradient id="SVGID_00000071550279994318358020000010482464748233287339_" gradientUnits="userSpaceOnUse" x1="6558.7188" y1="3000.5525" x2="6765.938" y2="2699.4983" gradientTransform="matrix(-1 0 0 1 7226.8052 0)" fill="#000000">
					<stop offset="0" style="stop-color:#09c2c6" fill="#000000"></stop>
					<stop offset="1" style="stop-color:#0bd5d8" fill="#000000"></stop>
				</linearGradient>
				<path style="fill:url(#SVGID_00000071550279994318358020000010482464748233287339_);" d="M539.687,2962.499      c0,33.405,27.08,60.484,60.484,60.484h3.686c33.404,0,60.484-27.08,60.484-60.484v-115.875c0-33.405-27.08-60.485-60.484-60.485      h-3.686c-33.404,0-60.484,27.08-60.484,60.485V2962.499z" data-index="34"></path>
			</g>
			<g>
				
					<linearGradient id="SVGID_00000166667810172323745350000012510417631182867368_" gradientUnits="userSpaceOnUse" x1="707.5294" y1="1433.1898" x2="686.8218" y2="2018.1842" fill="#000000">
					<stop offset="0" style="stop-color:#FF928E" fill="#000000"></stop>
					<stop offset="1" style="stop-color:#FE7062" fill="#000000"></stop>
				</linearGradient>
				<path style="fill:url(#SVGID_00000166667810172323745350000012510417631182867368_);" d="M703.43,2329.061l-21.709,0.236      l-0.755-69.502c-0.082-7.56,0.201-16.258,0.851-26.096c-0.372,0.544-1.745,2.207-4.118,4.987      c-2.373,2.78-7.004,7.772-13.893,14.977l-12.459-13.313l31.194-29.504l19.603-0.213L703.43,2329.061z" data-index="35"></path>
				
					<linearGradient id="SVGID_00000070096108025505321620000008830843630740532385_" gradientUnits="userSpaceOnUse" x1="788.4179" y1="1436.0527" x2="767.7103" y2="2021.0487" fill="#000000">
					<stop offset="0" style="stop-color:#FF928E" fill="#000000"></stop>
					<stop offset="1" style="stop-color:#FE7062" fill="#000000"></stop>
				</linearGradient>
				<path style="fill:url(#SVGID_00000070096108025505321620000008830843630740532385_);" d="M791.325,2268.884      c0.233,21.439-2.177,36.966-7.231,46.581c-5.053,9.615-13.305,14.484-24.753,14.609c-11.449,0.124-19.723-4.593-24.823-14.151      c-5.1-9.557-7.766-25.002-7.997-46.335c-0.232-21.385,2.218-36.938,7.351-46.663c5.133-9.724,13.289-14.646,24.468-14.768      c11.395-0.124,19.682,4.513,24.861,13.907C788.38,2231.46,791.088,2247.066,791.325,2268.884z M748.554,2269.349      c0.18,16.579,1.017,27.736,2.511,33.472s4.238,8.582,8.235,8.539c2.7-0.029,4.779-1.294,6.237-3.794      c1.458-2.499,2.48-6.63,3.065-12.388c0.586-5.759,0.815-14.442,0.689-26.054c-0.177-16.309-1.054-27.425-2.631-33.35      c-1.577-5.924-4.336-8.865-8.278-8.822c-3.996,0.043-6.678,3.03-8.045,8.958C748.971,2241.84,748.376,2252.986,748.554,2269.349      z" data-index="36"></path>
				
					<linearGradient id="SVGID_00000062898927801652178440000015387138272765360282_" gradientUnits="userSpaceOnUse" x1="862.5367" y1="1438.6775" x2="841.8292" y2="2023.672" fill="#000000">
					<stop offset="0" style="stop-color:#FF928E" fill="#000000"></stop>
					<stop offset="1" style="stop-color:#FE7062" fill="#000000"></stop>
				</linearGradient>
				<path style="fill:url(#SVGID_00000062898927801652178440000015387138272765360282_);" d="M812.544,2327.875l32.139-99.106      l-41.313,0.449l-0.212-19.522l63.508-0.69l0.162,14.905l-31.522,103.718L812.544,2327.875z" data-index="37"></path>
				
					<linearGradient id="SVGID_00000005950188784547445290000015921252784972620165_" gradientUnits="userSpaceOnUse" x1="928.0007" y1="1440.9933" x2="907.2931" y2="2025.9901" fill="#000000">
					<stop offset="0" style="stop-color:#FF928E" fill="#000000"></stop>
					<stop offset="1" style="stop-color:#FE7062" fill="#000000"></stop>
				</linearGradient>
				<path style="fill:url(#SVGID_00000005950188784547445290000015921252784972620165_);" d="M883.627,2316.003      c-0.046-4.212,1.039-7.492,3.255-9.838c2.216-2.345,5.538-3.544,9.966-3.592c4.428-0.048,7.789,1.063,10.082,3.333      c2.293,2.272,3.463,5.54,3.509,9.805c0.046,4.212-1.093,7.493-3.417,9.84c-2.324,2.346-5.619,3.545-9.885,3.591      c-4.374,0.047-7.708-1.091-10.002-3.416S883.672,2320.163,883.627,2316.003z" data-index="38"></path>
				
					<linearGradient id="SVGID_00000137850909241599612210000003052691643596059527_" gradientUnits="userSpaceOnUse" x1="985.6481" y1="1443.0358" x2="964.9406" y2="2028.0308" fill="#000000">
					<stop offset="0" style="stop-color:#FF928E" fill="#000000"></stop>
					<stop offset="1" style="stop-color:#FE7062" fill="#000000"></stop>
				</linearGradient>
				<path style="fill:url(#SVGID_00000137850909241599612210000003052691643596059527_);" d="M989.054,2325.956l-63.508,0.69      l-0.179-16.444l20.737-30.039c5.689-8.271,9.592-14.403,11.709-18.396c2.117-3.993,3.669-7.817,4.655-11.474      c0.987-3.656,1.459-7.429,1.416-11.317c-0.049-4.536-1.099-7.927-3.149-10.174c-2.05-2.246-4.695-3.352-7.935-3.316      c-2.862,0.031-5.527,0.817-7.995,2.355c-2.468,1.539-5.462,4.3-8.984,8.28l-12.454-12.827      c5.6-6.488,10.818-10.945,15.652-13.375c4.835-2.429,10.087-3.674,15.757-3.736c9.559-0.104,17.055,2.623,22.49,8.181      c5.434,5.559,8.206,13.332,8.314,23.323c0.049,4.536-0.39,8.835-1.318,12.896c-0.928,4.061-2.355,8.141-4.282,12.239      c-1.927,4.1-4.351,8.365-7.274,12.798c-2.922,4.435-10.481,14.603-22.677,30.505l0.007,0.648l38.802-0.422L989.054,2325.956z" data-index="39"></path>
			</g>
		</g>
		<g>
			<g>
				<g>
					
						<linearGradient id="SVGID_00000068653748698014641000000005061579386178293169_" gradientUnits="userSpaceOnUse" x1="1938.7198" y1="3007.1936" x2="1891.2843" y2="3256.2297" fill="#000000">
						<stop offset="0" style="stop-color:#09c2c6" fill="#000000"></stop>
						<stop offset="1" style="stop-color:#0bd5d8" fill="#000000"></stop>
					</linearGradient>
					<path style="fill:url(#SVGID_00000068653748698014641000000005061579386178293169_);" d="M1960.686,3241.146       c-24.534,2.121-67.115,5.566-100.684,7.043c-20.179,0.888-31.796-1.088-38.487-3.766c0.011,0.754,0.032,1.467,0.062,2.129       c0.159,3.532,3.029,6.358,6.597,6.557c63.43,3.541,113.875,1.225,131.834,0.132c3.714-0.226,5.926-4.262,4.027-7.427       C1963.086,3244.231,1961.935,3242.679,1960.686,3241.146z" data-index="40"></path>
					
						<linearGradient id="SVGID_00000105421903753064560420000013025095660415718312_" gradientUnits="userSpaceOnUse" x1="2962.2402" y1="3220.0049" x2="3101.4189" y2="3220.0049" gradientTransform="matrix(1 0 0 1 -1140.7335 0)" fill="#000000">
						<stop offset="0" style="stop-color:#005151" fill="#000000"></stop>
						<stop offset="1" style="stop-color:#00696b" fill="#000000"></stop>
					</linearGradient>
					<path style="fill:url(#SVGID_00000105421903753064560420000013025095660415718312_);" d="M1860.002,3248.189       c33.569-1.477,76.149-4.922,100.684-7.043c-24.122-29.594-100.684-49.541-100.684-49.541h-21.624       c-14.872,21.438-17.026,41.849-16.863,52.818C1828.206,3247.101,1839.823,3249.077,1860.002,3248.189z" data-index="41"></path>
					
						<linearGradient id="SVGID_00000091718342197154980910000005757159727996365498_" gradientUnits="userSpaceOnUse" x1="2975.4707" y1="3180.8179" x2="3015.811" y2="3180.8179" gradientTransform="matrix(1 0 0 1 -1140.7335 0)" fill="#000000">
						<stop offset="0" style="stop-color:#FEBBBA" fill="#000000"></stop>
						<stop offset="1" style="stop-color:#FF928E" fill="#000000"></stop>
					</linearGradient>
					<path style="fill:url(#SVGID_00000091718342197154980910000005757159727996365498_);" d="M1834.737,3156.304l2.024,40.043       c0.219,4.336,3.465,7.98,7.808,8.601c4.321,0.618,10.107,0.697,16.243-1.346c3.775-1.257,6.578-4.438,7.274-8.317l6.992-38.981       H1834.737z" data-index="42"></path>
				</g>
				<g>
					<g>
						
							<linearGradient id="SVGID_00000001657642700364428340000000898853216482969270_" gradientUnits="userSpaceOnUse" x1="1601.3972" y1="3038.5352" x2="1557.3499" y2="3274.0178" fill="#000000">
							<stop offset="0" style="stop-color:#09c2c6" fill="#000000"></stop>
							<stop offset="1" style="stop-color:#0bd5d8" fill="#000000"></stop>
						</linearGradient>
						<path style="fill:url(#SVGID_00000001657642700364428340000000898853216482969270_);" d="M1553.876,3247.889        c-10.64-1.484-15.453-7.011-17.472-12.92c-0.013,0.053-0.027,0.106-0.04,0.159c-1.565,6.233,2.063,12.693,9.318,15.765        c8.769,3.713,18.356,4.346,25.8,4.039c7.985-0.329,15.316-3.634,19.344-8.922l0.06-0.08        C1582.871,3249.896,1571.619,3250.363,1553.876,3247.889z" data-index="43"></path>
						
							<linearGradient id="SVGID_00000003082609353663084480000013595711883911139735_" gradientUnits="userSpaceOnUse" x1="2677.1375" y1="3202.7268" x2="2757.6938" y2="3202.7268" gradientTransform="matrix(1 0 0 1 -1140.7335 0)" fill="#000000">
							<stop offset="0" style="stop-color:#005151" fill="#000000"></stop>
							<stop offset="1" style="stop-color:#00696b" fill="#000000"></stop>
						</linearGradient>
						<path style="fill:url(#SVGID_00000003082609353663084480000013595711883911139735_);" d="M1604.039,3156.047h-17.832        c-27.163-0.555-44.22,56.736-49.803,78.922c2.018,5.909,6.832,11.436,17.472,12.92c17.743,2.475,28.995,2.008,37.011-1.958        c14.675-19.311,21.95-47.594,25.447-64.099C1620.312,3163.059,1604.039,3156.047,1604.039,3156.047z" data-index="44"></path>
					</g>
					
						<linearGradient id="SVGID_00000131333636240383477970000011910541502942730919_" gradientUnits="userSpaceOnUse" x1="2719.0093" y1="3147.1882" x2="2767.2205" y2="3147.1882" gradientTransform="matrix(1 0 0 1 -1140.7335 0)" fill="#000000">
						<stop offset="0" style="stop-color:#FEBBBA" fill="#000000"></stop>
						<stop offset="1" style="stop-color:#FF928E" fill="#000000"></stop>
					</linearGradient>
					<path style="fill:url(#SVGID_00000131333636240383477970000011910541502942730919_);" d="M1588.499,3118.88l-9.902,39.384       c-1.214,4.829,1.097,9.824,5.562,12.115c5.539,2.843,13.339,5.83,20.506,4.965c3.371-0.407,6.171-2.781,7.285-5.955       l14.538-41.436L1588.499,3118.88z" data-index="45"></path>
				</g>
				
					<linearGradient id="SVGID_00000061454197308549343320000000427485070445674149_" gradientUnits="userSpaceOnUse" x1="1711.1097" y1="3240.844" x2="1835.3629" y2="2640.2886" fill="#000000">
					<stop offset="0" style="stop-color:#005151" fill="#000000"></stop>
					<stop offset="1" style="stop-color:#00696b" fill="#000000"></stop>
				</linearGradient>
				<path style="fill:url(#SVGID_00000061454197308549343320000000427485070445674149_);" d="M1576.688,3130.264      c12.32,10.928,52.392,12.371,52.392,12.371c144.346-346.444,203.393-395.661,203.393-395.661      c-20.842,130.764-3.36,420.258-3.36,420.258c23.82,10.511,54.529,0,54.529,0c1.935-214.078,34.84-400.774,73.711-547.961      c-97.56-2.193-149.442-35.578-166.383-48.977C1709.646,2701.403,1576.688,3130.264,1576.688,3130.264z" data-index="46"></path>
				
					<linearGradient id="SVGID_00000058548261392425277350000003009414661389208492_" gradientUnits="userSpaceOnUse" x1="3325.3022" y1="2140.7773" x2="2220.0796" y2="3102.041" gradientTransform="matrix(1 0 0 1 -1140.7335 0)" fill="#000000">
					<stop offset="0" style="stop-color:#09c2c6" fill="#000000"></stop>
					<stop offset="1" style="stop-color:#0bd5d8" fill="#000000"></stop>
				</linearGradient>
				<path style="fill:url(#SVGID_00000058548261392425277350000003009414661389208492_);" d="M1815.746,2171.883      c-18.466,92.109-11.848,256.967-7.501,332.163c1.222,21.135-13.532,50.435-25.458,70.424c-1.871,3.135-0.716,7.15,2.532,8.819      c19.966,10.261,87.606,42.065,165.999,46.021c5.227,0.264,9.894-3.297,11.248-8.352      c58.15-217.125,125.692-355.869,125.692-355.869C2013.689,2146.009,1815.746,2171.883,1815.746,2171.883z" data-index="47"></path>
				
					<linearGradient id="SVGID_00000003099323246673514850000005298182896827670456_" gradientUnits="userSpaceOnUse" x1="1846.3544" y1="2295.5574" x2="1867.0635" y2="2659.1121" fill="#000000">
					<stop offset="0" style="stop-color:#09c2c6" fill="#000000"></stop>
					<stop offset="1" style="stop-color:#0bd5d8" fill="#000000"></stop>
				</linearGradient>
				<path style="fill:url(#SVGID_00000003099323246673514850000005298182896827670456_);" d="M1842.322,2738.772      c-0.819,0-1.65-0.221-2.402-0.677c-2.178-1.332-2.869-4.171-1.544-6.347c0.776-1.278,19.448-31.457,57.233-49.687      c2.296-1.102,5.061-0.149,6.174,2.153c1.108,2.298,0.144,5.065-2.156,6.171c-35.224,16.997-53.176,45.881-53.355,46.17      C1845.401,2737.982,1843.879,2738.772,1842.322,2738.772z" data-index="48"></path>
				<g>
					
						<linearGradient id="SVGID_00000111878970662327670730000002187455313923492507_" gradientUnits="userSpaceOnUse" x1="2939.8865" y1="2444.4495" x2="2768.2632" y2="2596.4258" gradientTransform="matrix(1 0 0 1 -1140.7335 0)" fill="#000000">
						<stop offset="0" style="stop-color:#FEBBBA" fill="#000000"></stop>
						<stop offset="1" style="stop-color:#FF928E" fill="#000000"></stop>
					</linearGradient>
					<path style="fill:url(#SVGID_00000111878970662327670730000002187455313923492507_);" d="M1699.919,2436.234       c5.932,42.909,23.456,89.712,58.514,139.427l13.327-10.864c0,0-15.384-62.417-6.639-133.255       C1743.495,2427.323,1717.954,2431.672,1699.919,2436.234z" data-index="49"></path>
					
						<linearGradient id="SVGID_00000153691011977113730550000002640921000519637927_" gradientUnits="userSpaceOnUse" x1="3233.1624" y1="2038.9104" x2="2132.9248" y2="2995.8381" gradientTransform="matrix(1 0 0 1 -1140.7335 0)" fill="#000000">
						<stop offset="0" style="stop-color:#09c2c6" fill="#000000"></stop>
						<stop offset="1" style="stop-color:#0bd5d8" fill="#000000"></stop>
					</linearGradient>
					<path style="fill:url(#SVGID_00000153691011977113730550000002640921000519637927_);" d="M1836.372,2285.533l-20.626-113.65       c0,0-137.807,105.338-115.827,264.351c18.035-4.562,43.576-8.91,65.202-4.692       C1771.421,2380.514,1790.24,2325.117,1836.372,2285.533z" data-index="50"></path>
				</g>
				<g>
					
						<linearGradient id="SVGID_00000085949902162044357730000004740166131550306980_" gradientUnits="userSpaceOnUse" x1="3406.1191" y1="2237.7681" x2="2305.8799" y2="3194.6973" gradientTransform="matrix(1 0 0 1 -1140.7335 0)" fill="#000000">
						<stop offset="0" style="stop-color:#09c2c6" fill="#000000"></stop>
						<stop offset="1" style="stop-color:#0bd5d8" fill="#000000"></stop>
					</linearGradient>
					<path style="fill:url(#SVGID_00000085949902162044357730000004740166131550306980_);" d="M2088.258,2265.088l-53.193,114.56       c8.601,69.163,45.755,99.068,85.816,110.539c2.498-31.521,10.469-56.988,17.865-74.603       C2087.557,2362.735,2088.258,2265.088,2088.258,2265.088z" data-index="51"></path>
					
						<linearGradient id="SVGID_00000024002850697399098410000007309215835874303116_" gradientUnits="userSpaceOnUse" x1="3261.6143" y1="2458.8247" x2="3396.7744" y2="2458.8247" gradientTransform="matrix(1 0 0 1 -1140.7335 0)" fill="#000000">
						<stop offset="0" style="stop-color:#FEBBBA" fill="#000000"></stop>
						<stop offset="1" style="stop-color:#FF928E" fill="#000000"></stop>
					</linearGradient>
					<path style="fill:url(#SVGID_00000024002850697399098410000007309215835874303116_);" d="M2138.745,2415.583       c-7.396,17.616-15.366,43.082-17.865,74.603c106.883,41.469,135.16-38.955,135.16-38.955l-19.753-3.485       C2191.68,2452.447,2160.52,2438.066,2138.745,2415.583z" data-index="52"></path>
				</g>
				
					<linearGradient id="SVGID_00000177464293570780516070000008251690939407710124_" gradientUnits="userSpaceOnUse" x1="3129.9255" y1="2150.521" x2="3128.4495" y2="2402.9231" gradientTransform="matrix(1 0 0 1 -1140.7335 0)" fill="#000000">
					<stop offset="0" style="stop-color:#FEBBBA" fill="#000000"></stop>
					<stop offset="1" style="stop-color:#FF928E" fill="#000000"></stop>
				</linearGradient>
				<path style="fill:url(#SVGID_00000177464293570780516070000008251690939407710124_);" d="M2039.249,2123.655l-25.68,94.404      c-2.885,10.605-14.356,16.3-24.561,12.22c-11.013-4.403-24.985-10.412-37.013-16.906c-12.839-6.932-16.856-23.448-8.729-35.566      l53.391-79.609L2039.249,2123.655z" data-index="53"></path>
			</g>
			
				<linearGradient id="SVGID_00000052071727297816452990000016713962011870676884_" gradientUnits="userSpaceOnUse" x1="2754.5581" y1="2557.8352" x2="3462.3335" y2="2557.8352" gradientTransform="matrix(1 0 0 1 -1140.7335 0)" fill="#000000">
				<stop offset="0" style="stop-color:#005151" fill="#000000"></stop>
				<stop offset="1" style="stop-color:#00696b" fill="#000000"></stop>
			</linearGradient>
			<path style="fill:url(#SVGID_00000052071727297816452990000016713962011870676884_);" d="M2305.028,2388.06l-658.034,239.498     c-27.598,10.045-40.79,41.47-28.632,68.204l1.996,4.39c10.757,23.654,38.715,34.029,62.299,23.119l638.943-295.578     L2305.028,2388.06z" data-index="54"></path>
			<g style="opacity:0.51;">
				<ellipse style="fill:#56b1b3;" cx="2607.487" cy="2243.995" rx="324.836" ry="318.977"></ellipse>
			</g>
			
				<linearGradient id="SVGID_00000085212651994401177380000018434475422988310939_" gradientUnits="userSpaceOnUse" x1="3386.7651" y1="2243.9946" x2="4109.6763" y2="2243.9946" gradientTransform="matrix(1 0 0 1 -1140.7335 0)" fill="#000000">
				<stop offset="0" style="stop-color:#005151" fill="#000000"></stop>
				<stop offset="1" style="stop-color:#00696b" fill="#000000"></stop>
			</linearGradient>
			<path style="fill:url(#SVGID_00000085212651994401177380000018434475422988310939_);" d="M2607.487,1889.06     c-199.626,0-361.455,158.91-361.455,354.935c0,196.026,161.829,354.936,361.455,354.936     c199.627,0,361.456-158.909,361.456-354.936C2968.943,2047.97,2807.114,1889.06,2607.487,1889.06z M2607.487,2546.791     c-170.302,0-308.359-135.566-308.359-302.797c0-167.229,138.058-302.797,308.359-302.797     c170.303,0,308.36,135.567,308.36,302.797C2915.846,2411.225,2777.79,2546.791,2607.487,2546.791z" data-index="55"></path>
			<g>
				<path style="fill:#56b1b3;" d="M2273.513,2287.964c-1.207,0-2.254-0.896-2.408-2.123c-1.079-8.458-1.831-17.019-2.248-25.448      c-0.064-1.339,0.97-2.479,2.305-2.543c1.593-0.096,2.486,0.967,2.55,2.305c0.405,8.304,1.15,16.74,2.209,25.076      c0.167,1.33-0.771,2.543-2.1,2.713C2273.719,2287.958,2273.61,2287.964,2273.513,2287.964z M2275.992,2188.716      c-0.141,0-0.282-0.013-0.43-0.039c-1.317-0.234-2.197-1.496-1.959-2.816c4.097-22.838,10.655-45.294,19.498-66.741l0.006-0.006      c52.104-126.402,175.51-208.081,314.381-208.081c64.757,0,127.702,17.989,182.048,52.024c1.137,0.713,1.477,2.209,0.764,3.346      c-0.7,1.143-2.203,1.48-3.346,0.771c-53.569-33.55-115.628-51.286-179.467-51.286c-136.899,0-258.539,80.501-309.892,205.082      c-0.006,0.007-0.006,0.01-0.006,0.013c-8.715,21.126-15.176,43.242-19.209,65.733      C2278.169,2187.891,2277.148,2188.716,2275.992,2188.716z" data-index="56"></path>
			</g>
			<g>
				
					<linearGradient id="SVGID_00000106118196138731497030000010161913418543227557_" gradientUnits="userSpaceOnUse" x1="2811.8687" y1="3979.5889" x2="2687.625" y2="4143.9531" gradientTransform="matrix(0.9897 -0.1428 0.1428 0.9897 -1279.7882 -1480.9402)" fill="#000000">
					<stop offset="0" style="stop-color:#FEBBBA" fill="#000000"></stop>
					<stop offset="1" style="stop-color:#FF928E" fill="#000000"></stop>
				</linearGradient>
				<path style="fill:url(#SVGID_00000106118196138731497030000010161913418543227557_);" d="M2095.431,2051.931      c0.234,1.621-21.419,107.729-21.419,107.729l-60.323-13.651l5.581-103.618      C2019.27,2042.391,2091.515,2024.791,2095.431,2051.931z" data-index="57"></path>
				
					<linearGradient id="SVGID_00000183961578472749959760000009181629146630195131_" gradientUnits="userSpaceOnUse" x1="1958.1294" y1="2083.1736" x2="2389.2007" y2="2137.677" fill="#000000">
					<stop offset="0" style="stop-color:#005151" fill="#000000"></stop>
					<stop offset="1" style="stop-color:#00696b" fill="#000000"></stop>
				</linearGradient>
				<path style="fill:url(#SVGID_00000183961578472749959760000009181629146630195131_);" d="M2032.838,2065.481l-7.209,54.316      c-0.092,0.697-0.092,1.385,0.008,2.08c0.609,4.258,3.776,18.752,18.408,14.607c13.277-3.761,25.45-6.996,33.858-4.424      c3.775,1.155,6.053,4.979,5.263,8.847c-1.97,9.64-6.81,31.281-13.885,49.441c-1.436,3.685-5.471,5.62-9.268,4.513      c-11.441-3.335-35.373-11.045-53.174-21.757c-2.412-1.452-3.849-4.075-3.73-6.887c0.579-13.712,2.182-55.394,0.832-67.078      c-1.267-10.967-14.726-17.537-20.574-19.892c-1.917-0.772-3.42-2.283-4.186-4.203c-2.708-6.786-6.441-22.489,13.348-28.924      c4.142-1.347,6.325-5.812,4.853-9.911c-2.931-8.16-4.167-20.612,11.142-27.473c15.56-6.973,27.181,1.322,33.456,8.063      c2.537,2.726,6.608,3.141,9.756,1.152c1.792-1.132,4.101-1.504,6.891,0.234c3.759,2.342,8.736,0.746,10.676-3.235      c3.727-7.648,11.321-15.841,26.554-13.232c27.031,4.629,30.093,34.584,22.962,52.137c-7.131,17.553-36.153,10.868-50.712,2.019      c-11.07-6.728-25.429,0.324-31.676,4.091C2034.452,2061.158,2033.142,2063.19,2032.838,2065.481z" data-index="58"></path>
				
					<linearGradient id="SVGID_00000131330518651232454740000000976708698317713816_" gradientUnits="userSpaceOnUse" x1="2629.9004" y1="4109.7524" x2="2729.554" y2="4007.5105" gradientTransform="matrix(0.9897 -0.1428 0.1428 0.9897 -1279.7882 -1480.9402)" fill="#000000">
					<stop offset="0" style="stop-color:#FEBBBA" fill="#000000"></stop>
					<stop offset="1" style="stop-color:#FF928E" fill="#000000"></stop>
				</linearGradient>
				<path style="fill:url(#SVGID_00000131330518651232454740000000976708698317713816_);" d="M2001.513,2118.943      c0,0,11.113-31.119-0.305-38.74c-11.417-7.621-28.327-3.664-24.604,18.879      C1981.235,2127.123,2001.513,2118.943,2001.513,2118.943z" data-index="59"></path>
			</g>
			
				<linearGradient id="SVGID_00000054256907280888023630000008444634416904013741_" gradientUnits="userSpaceOnUse" x1="3007.6606" y1="2520.9854" x2="2836.0376" y2="2672.9614" gradientTransform="matrix(1 0 0 1 -1140.7335 0)" fill="#000000">
				<stop offset="0" style="stop-color:#FEBBBA" fill="#000000"></stop>
				<stop offset="1" style="stop-color:#FF928E" fill="#000000"></stop>
			</linearGradient>
			<path style="fill:url(#SVGID_00000054256907280888023630000008444634416904013741_);" d="M1766.264,2562.905l62.207-5.07     l26.941,24.834c0,0-6.374,8.81-26.3,3.746c-19.926-5.064-47.221-6.306-47.221-6.306s-27.508,12.401-27.844-10.803     L1766.264,2562.905z" data-index="60"></path>
			
				<linearGradient id="SVGID_00000042003507733078138120000009861682254232247955_" gradientUnits="userSpaceOnUse" x1="3382.415" y1="2442.9509" x2="3430.8171" y2="2442.9509" gradientTransform="matrix(1 0 0 1 -1140.7335 0)" fill="#000000">
				<stop offset="0" style="stop-color:#FEBBBA" fill="#000000"></stop>
				<stop offset="1" style="stop-color:#FF928E" fill="#000000"></stop>
			</linearGradient>
			<path style="fill:url(#SVGID_00000042003507733078138120000009861682254232247955_);" d="M2248.118,2465.947     c5.38,4.203,23.812-4.572,35.09-10.638c5.497-2.957,8.159-9.384,6.272-15.334c-2.714-8.56-7.237-19.608-12.81-21.001     C2267.425,2416.663,2225.948,2448.627,2248.118,2465.947z" data-index="61"></path>
			<path style="fill:#56b1b3;" d="M1659.979,2714.065c-0.263,0-0.533-0.042-0.796-0.132c-25.702-8.888-31.682-24.074-32.17-35.249     c-0.707-16.332,9.557-31.489,25.529-37.719l79.014-30.811c1.227-0.488,2.646,0.125,3.141,1.381     c0.488,1.249-0.128,2.659-1.381,3.147l-79.014,30.808c-14.033,5.475-23.05,18.728-22.433,32.982     c0.61,14.065,10.334,24.45,28.907,30.869c1.265,0.44,1.94,1.821,1.496,3.089     C1661.925,2713.436,1660.987,2714.065,1659.979,2714.065z" data-index="62"></path>
			<path style="fill:#56b1b3;" d="M1756.777,2605.351c-0.97,0-1.888-0.588-2.261-1.545c-0.488-1.252,0.129-2.659,1.381-3.147     l10.244-3.991c1.227-0.491,2.652,0.132,3.141,1.381c0.488,1.252-0.128,2.659-1.381,3.147l-10.244,3.991     C1757.367,2605.299,1757.072,2605.351,1756.777,2605.351z" data-index="63"></path>
		</g>
	</g>
</g>
</svg>