<svg xmlns="http://www.w3.org/2000/svg" xmlns:xlink="http://www.w3.org/1999/xlink" version="1.1" x="0px" y="0px" viewBox="0 0 3710 3710" style="enable-background:new 0 0 3710 3710;" xml:space="preserve">
<g id="Background">
	<g>
		<g>
			<rect style="fill:#FFFFFF;" width="3710" height="3710"></rect>
		</g>
	</g>
</g>
<g id="Illustration">
	<g>
		<linearGradient id="SVGID_1_" gradientUnits="userSpaceOnUse" x1="3621.0876" y1="4094.6528" x2="1115.4218" y2="982.7731" fill="#000000">
			<stop offset="0" style="stop-color:#028787" fill="#000000"></stop>
			<stop offset="1" style="stop-color:#E9EFFD" fill="#000000"></stop>
		</linearGradient>
		<path style="fill:url(#SVGID_1_);" d="M2940.821,2861.149c-58.051,60.247-112.978,99.1-156.375,129.797    c-510.12,360.831-1113.728,255.651-1242.011,229.964c-189.435-37.93-555.608-111.248-820.344-418.162    c-400.524-464.335-338.157-1195.882-27.483-1678.786c56.827-88.331,357.004-578.591,967.113-657.214    c369.231-47.581,799.636,48.385,1111.324,305.817C3427.304,1312.939,3380.728,2404.59,2940.821,2861.149z" data-index="0"></path>
		<g>
			<path style="fill:#097072;" d="M3238.923,1583.707c2.442-10.396-12.183-17.307-21.138-10.045     c-90.939,73.742-309.438,294.568-254.984,680.476c68.321,484.179-48.482,660.853-193.873,768.619     c0,0,199.67-50.679,325.293-229.951C3402.654,2352.65,3195.498,1768.561,3238.923,1583.707z" data-index="1"></path>
			<path style="fill:#FFFFFF;" d="M3169.717,1734.935c-11.376,53.901-21.516,107.967-29.352,162.277     c-8.164,54.264-14.42,108.717-18.702,163.26c-4.039,54.553-6.891,109.162-7.053,163.795     c-0.447,54.63,1.825,109.215,4.327,164.013c2.147,54.778,4.67,109.951,0.659,165.515c-3.943,55.45-15.615,111.385-38.777,163.821     c-5.79,13.068-11.879,26.096-18.795,38.684c-6.649,12.705-13.952,25.158-21.51,37.493     c-15.262,24.612-32.441,48.391-51.585,70.961c-38.427,45.063-84.773,85.037-135.828,118.869     c-5.374,3.561-13.073,2.686-17.197-1.955c-4.049-4.556-3.145-11.049,1.977-14.653l0.036-0.025     c12.148-8.532,24.168-17.174,35.701-26.249c5.852-4.459,11.462-9.132,17.171-13.712c5.501-4.761,11.22-9.34,16.545-14.243     c21.679-19.296,41.764-39.883,59.985-61.65c36.651-43.333,65.992-91.619,88.222-141.677     c10.79-25.146,19.417-50.933,25.714-77.206c6.275-26.279,10.222-53.014,12.405-79.965c4.372-53.931,2.397-108.558,0.706-163.346     c-1.609-54.802-2.789-109.882-1.343-164.918c0.637-27.516,1.847-55.02,3.626-82.49c0.798-13.739,1.904-27.463,2.981-41.185     c1.23-13.714,2.547-27.42,3.994-41.114c5.903-54.77,13.739-109.358,23.561-163.655c10.123-54.257,21.911-108.263,36.087-161.786     c0.406-1.53,2.17-2.486,3.941-2.136C3168.934,1731.996,3170.027,1733.451,3169.717,1734.935z" data-index="2"></path>
		</g>
		<g>
			<path style="fill:#097072;" d="M1466.819,2901.633c0,0,58.77-230.587-116.255-475.273     c-162.39-227.028-570.215-753.786-619.436-1036.955c-2.179-12.544-22.004-9.821-25.856,3.583     c-41.329,143.779-115.674,505.575,41.858,876.379C950.274,2747.537,1466.819,2901.633,1466.819,2901.633z" data-index="3"></path>
			<path style="opacity:0.45;fill:#FFFFFF;" d="M746.973,1651.113c0,0-0.704,5.461-1.231,15.771     c-0.526,10.303-0.842,25.442-0.262,44.674c0.647,19.228,2.358,42.551,5.936,69.083c3.649,26.515,8.878,56.279,16.636,88.269     c7.738,31.99,18.141,66.148,31.333,101.444c13.278,35.258,29.035,71.785,47.804,108.344     c18.772,36.545,40.14,73.302,63.99,109.263c6.081,8.91,12.188,17.855,18.313,26.827c6.389,8.784,12.802,17.595,19.225,26.423     c13.027,17.547,26.392,35.183,39.778,52.58c26.791,34.903,54.217,69.355,81.468,103.046     c27.254,33.693,54.529,66.496,81.182,98.037c53.056,63.291,103.721,121.493,145.599,172.824     c20.952,25.654,39.349,49.88,54.934,71.886c15.569,22.021,28.106,41.988,37.434,59.001c9.354,17.008,15.425,31.036,19.342,40.659     c1.939,4.822,3.196,8.613,4.149,11.12c0.922,2.522,1.399,3.823,1.399,3.823c0.325,0.892-0.134,1.879-1.026,2.204     c-0.872,0.319-1.835-0.114-2.183-0.968l-0.03-0.08c0,0-0.513-1.27-1.509-3.731c-1.026-2.447-2.388-6.141-4.464-10.837     c-4.152-9.392-10.723-22.959-20.362-39.537c-9.626-16.582-22.512-36.035-38.49-57.5c-15.918-21.514-35.039-44.933-56.189-70.26     c-42.431-50.564-93.944-107.997-147.923-170.68c-26.889-31.423-54.428-64.127-81.964-97.736     c-27.553-33.601-54.914-68.235-81.873-103.212c-13.506-17.534-26.778-35.024-39.936-52.722     c-6.453-8.956-12.889-17.894-19.309-26.806c-6.144-9.107-12.269-18.187-18.366-27.23c-23.9-36.507-45.439-73.756-63.859-111.019     c-18.453-37.236-34.204-74.285-46.67-110.278c-12.544-35.962-22.29-70.68-29.384-103.127     c-7.134-32.44-11.809-62.566-14.402-89.403c-2.677-26.83-3.582-50.33-3.562-69.663c0.01-19.34,1.107-34.508,2.096-44.805     c1.003-10.301,1.959-15.746,1.959-15.746c0.017-0.116,0.128-0.195,0.242-0.176     C746.909,1650.895,746.986,1651.001,746.973,1651.113z" data-index="4"></path>
		</g>
		<g>
			<path style="fill:#0a7477;" d="M1155.417,841.515c5.53-14.756,27.212-12.286,29.213,3.344     c19.34,151.11,82.464,545.757,235.601,772.801c249.343,369.679,369.277,928,138.446,1174.031     C1558.676,2791.691,552.974,2449.242,1155.417,841.515z" data-index="5"></path>
			<path style="opacity:0.43;fill:#FFFFFF;" d="M1157.89,1053.351c0,0-0.03,1.574-0.084,4.624c0.07,3.027,0.067,7.395,0.272,13.338     c0.278,11.806,1.026,29.135,2.106,51.174c1.194,22.038,2.72,48.795,4.997,79.453c2.106,30.669,5.202,65.216,8.455,102.905     c3.552,37.664,7.499,78.46,12.571,121.509c4.813,43.078,10.887,88.383,17.276,135.227c6.721,46.797,13.902,95.124,22.398,144.029     c2.106,12.228,4.223,24.506,6.342,36.819c2.291,12.283,4.588,24.601,6.889,36.945c4.437,24.719,9.643,49.385,14.596,74.102     c4.924,24.723,10.706,49.261,15.884,73.828c5.611,24.469,11.296,48.824,17.072,72.951c3.049,12.023,6.087,23.999,9.109,35.915     c3.065,11.905,5.903,23.807,9.24,35.499c3.227,11.721,6.433,23.371,9.616,34.939c1.593,5.783,3.176,11.546,4.756,17.288     c1.694,5.707,3.381,11.392,5.061,17.054c3.381,11.317,6.735,22.54,10.055,33.657c1.67,5.555,3.334,11.084,4.991,16.584     c1.774,5.463,3.538,10.898,5.293,16.304c3.491,10.819,6.943,21.521,10.354,32.093c1.717,5.283,3.341,10.562,5.101,15.757     c1.808,5.178,3.606,10.323,5.39,15.433c3.568,10.221,7.09,20.302,10.558,30.232c1.734,4.966,3.458,9.894,5.165,14.783     c1.831,4.842,3.649,9.645,5.453,14.407c7.335,19.002,14.063,37.512,21.174,55.017c7.258,17.447,14.214,34.166,20.831,50.068     c6.835,15.806,13.741,30.613,20.003,44.634c3.173,6.992,6.245,13.759,9.21,20.292c3.19,6.425,6.262,12.619,9.213,18.57     c5.906,11.906,11.333,22.841,16.233,32.719c2.371,4.982,4.947,9.52,7.295,13.831c2.348,4.312,4.548,8.354,6.597,12.115     c4.089,7.528,7.563,13.932,10.384,19.124c5.641,10.387,8.65,15.927,8.65,15.927l0.034,0.064c0.453,0.833,0.144,1.875-0.691,2.327     c-0.818,0.446-1.845,0.151-2.307-0.655c0,0-3.139-5.48-9.029-15.756c-2.948-5.139-6.58-11.478-10.853-18.93     c-2.13-3.729-4.421-7.737-6.865-12.013c-2.428-4.284-5.095-8.795-7.557-13.746c-5.081-9.822-10.713-20.695-16.84-32.533     c-3.062-5.921-6.252-12.083-9.562-18.475c-3.086-6.5-6.285-13.235-9.586-20.192c-6.507-13.963-13.751-28.683-20.801-44.462     c-6.805-15.888-13.963-32.593-21.428-50.024c-7.318-17.493-14.264-35.988-21.824-54.984c-1.861-4.761-3.736-9.563-5.628-14.403     c-1.764-4.887-3.542-9.813-5.333-14.776c-3.585-9.928-7.224-20.008-10.914-30.226c-14.613-40.925-28.633-84.57-42.112-130.011     c-1.704-5.675-3.414-11.373-5.135-17.093c-1.603-5.753-3.217-11.528-4.833-17.323c-3.233-11.592-6.49-23.267-9.767-35.013     c-3.384-11.718-6.275-23.643-9.388-35.572c-3.075-11.941-6.164-23.941-9.264-35.99c-5.876-24.174-11.662-48.577-17.37-73.096     c-2.673-12.301-5.35-24.625-8.029-36.961c-2.663-12.34-5.39-24.68-7.774-37.089c-4.89-24.793-10.032-49.537-14.405-74.326     c-2.271-12.379-4.538-24.732-6.795-37.05c-2.089-12.347-4.172-24.657-6.248-36.919c-8.368-49.037-15.418-97.482-22.012-144.389     c-6.175-46.965-11.712-92.42-16.19-135.605c-4.689-43.162-8.274-84.055-11.491-121.804     c-6.054-75.535-9.126-138.617-10.756-182.784c-0.728-22.092-1.197-39.448-1.288-51.302c-0.114-5.884-0.037-10.588-0.047-13.673     c0.104-3.061,0.161-4.64,0.161-4.64c0.03-0.946,0.825-1.686,1.771-1.654c0.936,0.032,1.67,0.81,1.654,1.742L1157.89,1053.351z" data-index="6"></path>
		</g>
		<g>
			
				<linearGradient id="SVGID_00000103949859693063535960000014193453553406530199_" gradientUnits="userSpaceOnUse" x1="2200.5015" y1="2942.5647" x2="2205.3772" y2="432.5795" fill="#000000">
				<stop offset="0" style="stop-color:#09005D" fill="#000000"></stop>
				<stop offset="1" style="stop-color:#054142" fill="#000000"></stop>
			</linearGradient>
			<path style="fill:url(#SVGID_00000103949859693063535960000014193453553406530199_);" d="M2845.048,879.316L1541.521,908.85     c-71.914,1.629-129.937,59.33-131.966,131.234l-53.401,1892.048c-1.588,56.268,43.729,102.673,100.018,102.421l1494.62-6.696     c52.892-0.237,95.303-43.814,94.104-96.693l-43.094-1902.038C2999.885,944.471,2929.703,877.398,2845.048,879.316z" data-index="7"></path>
			<g>
				
					<linearGradient id="SVGID_00000156546599153928158960000011769162130442385827_" gradientUnits="userSpaceOnUse" x1="-803.6974" y1="3491.303" x2="717.0319" y2="1247.6929" gradientTransform="matrix(-0.9997 0.0227 0.0227 0.9997 2346.1978 -58.4538)" fill="#000000">
					<stop offset="0" style="stop-color:#0a8f91" fill="#000000"></stop>
					<stop offset="1" style="stop-color:#56b1b3" fill="#000000"></stop>
				</linearGradient>
				<path style="fill:url(#SVGID_00000156546599153928158960000011769162130442385827_);" d="M2841.177,885.502      c-177.461,28.173-787.894,116.701-1294.871,89.317c-23.12-1.249-42.754,16.692-43.458,39.835l-57.882,1900.579      c-0.793,26.06,19.587,47.868,45.642,48.818c213.14,7.774,1090.846,36.608,1402.775-3.226      c18.985-2.425,33.066-18.774,32.746-37.909l-33.445-1994.15C2892.228,901.677,2867.934,881.254,2841.177,885.502z" data-index="8"></path>
				<path style="fill:#097072;" d="M2823.226,935.175c-170.779,27.112-758.225,112.306-1246.111,85.954      c-22.249-1.202-41.144,16.064-41.822,38.335l-55.702,1829.011c-0.764,25.079,18.849,46.065,43.923,46.979      c205.114,7.481,1049.77,35.229,1349.953-3.104c18.27-2.333,31.821-18.066,31.512-36.482L2872.792,976.81      C2872.356,950.742,2848.976,931.088,2823.226,935.175z" data-index="9"></path>
				<path style="opacity:0.78;fill:#FFFFFF;" d="M2717.403,1121.248l-9.32,392.063c-0.31,13.04-10.598,23.635-23.625,24.298      c-72.488,3.689-298.382,14.323-426.151,10.561c-14.453-0.426-26.138-11.845-26.944-26.282      c-4.098-73.394-14.266-287.052,0.447-376.798c2.376-14.497,14.545-25.356,29.211-26.202l428.385-24.707      C2704.853,1093.292,2717.771,1105.779,2717.403,1121.248z" data-index="10"></path>
				
					<linearGradient id="SVGID_00000011734640997246569540000007443669377859421355_" gradientUnits="userSpaceOnUse" x1="3.3145" y1="1177.741" x2="-632.1414" y2="2123.7844" gradientTransform="matrix(-0.9997 0.0227 0.0227 0.9997 2346.1978 -58.4538)" fill="#000000">
					<stop offset="0" style="stop-color:#0a8f91" fill="#000000"></stop>
					<stop offset="1" style="stop-color:#56b1b3" fill="#000000"></stop>
				</linearGradient>
				
					<circle style="fill:url(#SVGID_00000011734640997246569540000007443669377859421355_);" cx="2473.878" cy="1266.861" r="84.214"></circle>
				
					<linearGradient id="SVGID_00000174586812859099288950000018226130888833901740_" gradientUnits="userSpaceOnUse" x1="111.8512" y1="1250.6235" x2="-523.6289" y2="2196.7029" gradientTransform="matrix(-0.9997 0.0227 0.0227 0.9997 2346.1978 -58.4538)" fill="#000000">
					<stop offset="0" style="stop-color:#0a8f91" fill="#000000"></stop>
					<stop offset="1" style="stop-color:#56b1b3" fill="#000000"></stop>
				</linearGradient>
				<path style="fill:url(#SVGID_00000174586812859099288950000018226130888833901740_);" d="M2607.362,1511.151l-268.227,6.077      c-16.444,0.373-26.709-17.563-18.168-31.62c21.976-36.166,68.458-89.62,151.066-89.127      c79.618,0.475,127.849,46.715,152.326,80.106C2634.749,1490.762,2624.933,1510.752,2607.362,1511.151z" data-index="11"></path>
				<g style="opacity:0.6;">
					<path style="fill:#FFFFFF;" d="M1644.028,1179.677c-7.554,0.171-13.696-5.605-13.648-12.836       c0.047-7.231,6.263-13.397,13.813-13.703l473.018-19.154c7.55-0.306,11.805,5.32,9.458,12.502l-3.062,9.365       c-2.348,7.182-10.449,13.198-18.003,13.369L1644.028,1179.677z" data-index="12"></path>
				</g>
				<g style="opacity:0.6;">
					<path style="fill:#FFFFFF;" d="M2118.864,1206.996c7.55-0.306,11.805,5.32,9.458,12.502l-3.062,9.365       c-2.348,7.182-10.449,13.198-18.003,13.369l-461.575,10.458c-7.554,0.171-13.696-5.605-13.648-12.836       c0.047-7.231,6.263-13.397,13.813-13.703L2118.864,1206.996z" data-index="13"></path>
				</g>
				<g style="opacity:0.6;">
					<path style="fill:#FFFFFF;" d="M2120.542,1281.07c7.55-0.306,11.805,5.32,9.458,12.502l-3.062,9.365       c-2.348,7.182-10.449,13.198-18.003,13.369l-461.574,10.458c-7.554,0.171-13.696-5.605-13.648-12.836       c0.047-7.231,6.263-13.397,13.813-13.703L2120.542,1281.07z" data-index="14"></path>
				</g>
				<path style="opacity:0.6;fill:#FFFFFF;" d="M1812.737,1352.926c-36.323-1.957-104.255-1.707-141.645-1.382      c-15.843,0.137-29.491,11.181-32.856,26.663c-6.536,30.07-15.311,82.224-12.812,137.216      c0.748,16.469,14.543,29.317,31.021,28.766l137.901-4.61c16.958-0.567,30.747-13.854,31.943-30.779l9.187-130.036      C1836.425,1365.313,1826.201,1353.652,1812.737,1352.926z" data-index="15"></path>
				<g style="opacity:0.6;">
					<path style="fill:#FFFFFF;" d="M1898.609,1417.01c-7.554,0.171-13.783-5.603-13.842-12.832s6.063-13.505,13.606-13.949       l219.831-12.917c7.543-0.443,12.792,5.307,11.665,12.778l-1.232,8.17c-1.127,7.471-8.229,13.724-15.783,13.895       L1898.609,1417.01z" data-index="16"></path>
				</g>
				<g style="opacity:0.6;">
					<path style="fill:#FFFFFF;" d="M2120.704,1463.289c7.554-0.167,12.59,5.771,11.19,13.196l-1.53,8.119       c-1.399,7.425-8.726,13.414-16.281,13.309l-214.279-2.984c-7.555-0.105-13.569-6.103-13.364-13.329       c0.205-7.226,6.553-13.275,14.107-13.442L2120.704,1463.289z" data-index="17"></path>
				</g>
				<g style="opacity:0.6;">
					<path style="fill:#FFFFFF;" d="M1609.79,1685.022c-7.554,0.171-13.478-5.61-13.164-12.847       c0.313-7.237,6.749-13.347,14.301-13.578l1104.273-33.729c7.552-0.231,9.991,4.503,5.419,10.519l-10.606,13.958       c-4.572,6.016-14.492,11.078-22.046,11.249L1609.79,1685.022z" data-index="18"></path>
				</g>
				<g style="opacity:0.6;">
					<path style="fill:#FFFFFF;" d="M2716.854,1697.881c7.552-0.231,9.991,4.503,5.42,10.519l-10.607,13.958       c-4.571,6.016-14.492,11.078-22.046,11.249l-1078.177,24.428c-7.554,0.171-13.478-5.61-13.164-12.847       c0.313-7.237,6.749-13.347,14.301-13.578L2716.854,1697.881z" data-index="19"></path>
				</g>
				<path style="opacity:0.25;fill:#FFFFFF;" d="M2723.048,1819.721c-26.527-1.43-76.14-1.247-103.447-1.01      c-11.571,0.1-21.538,8.165-23.996,19.473c-4.773,21.961-11.182,60.051-9.357,100.212c0.547,12.028,10.622,21.411,22.656,21.009      l100.712-3.367c12.385-0.414,22.456-10.118,23.329-22.479l6.709-94.968C2740.348,1828.767,2732.882,1820.251,2723.048,1819.721z      " data-index="20"></path>
				<g style="opacity:0.6;">
					<path style="fill:#FFFFFF;" d="M2539.175,1862.757c7.54-0.486,12.93,5.248,11.977,12.744l-2.46,19.353       c-0.953,7.495-7.913,13.768-15.467,13.939l-247.735,5.613c-7.554,0.171-13.797-5.87-13.875-13.426l-0.073-7.213       c-0.077-7.555,6.029-14.135,13.57-14.621L2539.175,1862.757z" data-index="21"></path>
				</g>
				<path style="opacity:0.25;fill:#FFFFFF;" d="M2174.245,1832.155c-26.528-1.43-76.14-1.247-103.447-1.01      c-11.571,0.1-21.538,8.165-23.996,19.473c-4.774,21.961-11.182,60.05-9.357,100.212c0.547,12.028,10.622,21.411,22.655,21.009      l100.713-3.367c12.385-0.414,22.455-10.118,23.329-22.479l6.709-94.968C2191.546,1841.201,2184.079,1832.685,2174.245,1832.155z      " data-index="22"></path>
				<g style="opacity:0.6;">
					<path style="fill:#FFFFFF;" d="M1990.373,1875.191c7.54-0.486,12.93,5.248,11.977,12.744l-2.46,19.353       c-0.953,7.496-7.912,13.768-15.466,13.939l-247.735,5.613c-7.554,0.171-13.797-5.87-13.874-13.426l-0.074-7.213       c-0.077-7.555,6.029-14.135,13.569-14.621L1990.373,1875.191z" data-index="23"></path>
				</g>
				<g style="opacity:0.6;">
					<path style="fill:#FFFFFF;" d="M1679.865,2171.531c-7.554,0.171-13.489-5.61-13.189-12.846       c0.3-7.237,6.725-13.348,14.277-13.58l1072.583-33.005c7.552-0.232,10.059,4.551,5.571,10.629l-10.125,13.713       c-4.488,6.078-14.341,11.192-21.894,11.363L1679.865,2171.531z" data-index="24"></path>
				</g>
				<g style="opacity:0.6;">
					<path style="fill:#FFFFFF;" d="M2755.191,2185.112c7.552-0.232,10.059,4.551,5.571,10.629l-10.125,13.713       c-4.488,6.078-14.341,11.192-21.895,11.363l-1047.223,23.727c-7.554,0.171-13.489-5.61-13.189-12.846       c0.3-7.237,6.725-13.348,14.277-13.58L2755.191,2185.112z" data-index="25"></path>
				</g>
				<g style="opacity:0.6;">
					<path style="fill:#FFFFFF;" d="M2756.869,2259.186c7.552-0.232,10.059,4.551,5.571,10.629l-10.125,13.713       c-4.488,6.078-14.341,11.192-21.894,11.363l-1047.224,23.727c-7.554,0.171-13.489-5.61-13.189-12.846       c0.3-7.237,6.725-13.348,14.277-13.58L2756.869,2259.186z" data-index="26"></path>
				</g>
			</g>
			
				<linearGradient id="SVGID_00000068645516344096979630000000760576494289071524_" gradientUnits="userSpaceOnUse" x1="2351.3218" y1="474.4271" x2="1705.5967" y2="1323.8634" gradientTransform="matrix(0.9997 -0.0227 0.0227 0.9997 40.3411 -6.8477)" fill="#000000">
				<stop offset="0" style="stop-color:#09005D" fill="#000000"></stop>
				<stop offset="1" style="stop-color:#054142" fill="#000000"></stop>
			</linearGradient>
			<path style="fill:url(#SVGID_00000068645516344096979630000000760576494289071524_);" d="M2108.153,823.924l147.603-16.477     l9.355-135.945c1.882-27.354-15.733-52.351-42.199-59.513c-29.014-7.851-69.969-7.573-116.313,26.25     C2015.715,704.573,2108.153,823.924,2108.153,823.924z M2136.407,710.171c-0.461-20.368,15.676-37.253,36.043-37.715     c20.368-0.461,37.253,15.676,37.714,36.044c0.461,20.368-15.675,37.253-36.043,37.714     C2153.754,746.675,2136.868,730.539,2136.407,710.171z" data-index="27"></path>
			<path style="fill:#097072;" d="M2239.36,750.708c-1.966-0.137-3.452-1.839-3.315-3.806l1.49-21.65     c0.134-1.97,1.799-3.462,3.806-3.319c1.966,0.137,3.452,1.84,3.315,3.806l-1.49,21.65c-0.127,1.858-1.652,3.284-3.476,3.325     C2239.582,750.716,2239.472,750.716,2239.36,750.708z M2242.28,708.281c-1.966-0.137-3.452-1.839-3.315-3.806l1.132-16.436     c1.56-22.67-13.141-43.409-34.952-49.314c-16.629-4.498-33.667-4.806-50.65-0.927c-1.936,0.427-3.835-0.764-4.275-2.683     c-0.439-1.922,0.762-3.839,2.684-4.277c18.129-4.149,36.334-3.815,54.105,0.996c25.091,6.792,42.003,30.634,40.208,56.692     l-1.132,16.435c-0.127,1.858-1.652,3.284-3.476,3.326C2242.501,708.29,2242.391,708.289,2242.28,708.281z" data-index="28"></path>
			
				<linearGradient id="SVGID_00000080887319384809186460000015699739450864328383_" gradientUnits="userSpaceOnUse" x1="466.6511" y1="546.4684" x2="-133.1332" y2="1335.4706" gradientTransform="matrix(-0.9997 0.0227 0.0227 0.9997 2346.1978 -58.4538)" fill="#000000">
				<stop offset="0" style="stop-color:#09005D" fill="#000000"></stop>
				<stop offset="1" style="stop-color:#054142" fill="#000000"></stop>
			</linearGradient>
			<path style="fill:url(#SVGID_00000080887319384809186460000015699739450864328383_);" d="M2459.601,890.546l-1.545-68.207     c-0.533-23.546-20.475-41.961-43.989-40.622l-469.894,26.766c-20.854,1.188-37.381,18.044-38.159,38.917l-2.445,65.626     L2459.601,890.546z" data-index="29"></path>
			<path style="fill:#097072;" d="M2282.348,810.416l20.224-0.458c1.971-0.045,3.532-1.677,3.488-3.65     c-0.045-1.972-1.679-3.532-3.65-3.488l-20.224,0.458c-1.971,0.045-3.532,1.677-3.488,3.65     C2278.743,808.9,2280.377,810.46,2282.348,810.416z" data-index="30"></path>
			<path style="fill:#097072;" d="M2433.662,869.705c1.971-0.045,3.533-1.677,3.488-3.65l-0.625-27.593     c-0.483-21.319-18.22-38.269-39.54-37.786l-74.351,1.685c-1.971,0.045-3.533,1.677-3.488,3.65     c0.045,1.973,1.679,3.533,3.65,3.488l74.351-1.685c17.383-0.394,31.846,13.429,32.24,30.81l0.625,27.593     C2430.057,868.19,2431.691,869.75,2433.662,869.705z" data-index="31"></path>
			
				<linearGradient id="SVGID_00000016044395560079983970000004868205058576892557_" gradientUnits="userSpaceOnUse" x1="2191.604" y1="1050.2749" x2="2172.1094" y2="177.8676" fill="#000000">
				<stop offset="0" style="stop-color:#09005D" fill="#000000"></stop>
				<stop offset="1" style="stop-color:#054142" fill="#000000"></stop>
			</linearGradient>
			<path style="fill:url(#SVGID_00000016044395560079983970000004868205058576892557_);" d="M2606.385,862.245l-822.336,18.609     c-29.569,0.669-54.367,22.521-58.75,51.77l-0.605,4.036c-4.802,32.039,20.43,60.67,52.818,59.937l843.668-19.115     c19.383-0.439,34.462-16.995,33.093-36.334l-2.67-37.719C2649.932,879.835,2630.031,861.71,2606.385,862.245z" data-index="32"></path>
		</g>
		<g>
			<g>
				
					<linearGradient id="SVGID_00000165232458115475031430000008080713628581714573_" gradientUnits="userSpaceOnUse" x1="1743.7715" y1="2385.8042" x2="1948.25" y2="2385.8042" fill="#000000">
					<stop offset="0" style="stop-color:#0a8f91" fill="#000000"></stop>
					<stop offset="1" style="stop-color:#56b1b3" fill="#000000"></stop>
				</linearGradient>
				<path style="fill:url(#SVGID_00000165232458115475031430000008080713628581714573_);" d="M1947.208,2508.097l-109.587-266.139      c-2.12-5.147-7.136-8.507-12.702-8.507h-67.396c-10.009,0-16.658,10.361-12.487,19.46l127.065,277.232      c2.699,5.888,9.144,9.091,15.467,7.686l49.917-11.093C1945.809,2524.886,1950.455,2515.98,1947.208,2508.097z" data-index="33"></path>
				<g>
					
						<linearGradient id="SVGID_00000101071597476109946460000005994556126232249485_" gradientUnits="userSpaceOnUse" x1="3527.842" y1="1514.0132" x2="2621.1458" y2="2455.0554" fill="#000000">
						<stop offset="0" style="stop-color:#09005D" fill="#000000"></stop>
						<stop offset="1" style="stop-color:#054142" fill="#000000"></stop>
					</linearGradient>
					
						<rect x="2083.588" y="2821.726" style="fill:url(#SVGID_00000101071597476109946460000005994556126232249485_);" width="32.272" height="349.005"></rect>
					
						<linearGradient id="SVGID_00000107575186868713012890000006368559630799055234_" gradientUnits="userSpaceOnUse" x1="3639.7734" y1="1569.5757" x2="2718.1514" y2="2526.1089" fill="#000000">
						<stop offset="0" style="stop-color:#09005D" fill="#000000"></stop>
						<stop offset="1" style="stop-color:#054142" fill="#000000"></stop>
					</linearGradient>
					<path style="fill:url(#SVGID_00000107575186868713012890000006368559630799055234_);" d="M2241.053,3177.46h-282.658v-17.635       c0-1.863,1.51-3.373,3.373-3.373h275.913c1.863,0,3.373,1.51,3.373,3.373V3177.46z" data-index="34"></path>
					
						<linearGradient id="SVGID_00000088105312641882839500000004399587475078300342_" gradientUnits="userSpaceOnUse" x1="3429.6521" y1="1419.4126" x2="2522.9565" y2="2360.4541" fill="#000000">
						<stop offset="0" style="stop-color:#09005D" fill="#000000"></stop>
						<stop offset="1" style="stop-color:#054142" fill="#000000"></stop>
					</linearGradient>
					<path style="fill:url(#SVGID_00000088105312641882839500000004399587475078300342_);" d="M2283.003,2809.613       c0,19.088-15.618,34.706-34.706,34.706h-285.977c-19.088,0-34.706-15.617-34.706-34.706v-31.381       c0-19.088,15.618-34.706,34.706-34.706h285.977c19.088,0,34.706,15.618,34.706,34.706V2809.613z" data-index="35"></path>
				</g>
				<g>
					
						<linearGradient id="SVGID_00000154390859391326242760000013216725106791370147_" gradientUnits="userSpaceOnUse" x1="3897.5972" y1="2875.3381" x2="4127.0645" y2="2875.3381" gradientTransform="matrix(1 0 0 1 -2209.3643 0)" fill="#000000">
						<stop offset="0" style="stop-color:#febbba" fill="#000000"></stop>
						<stop offset="1" style="stop-color:#ff928e" fill="#000000"></stop>
					</linearGradient>
					<path style="fill:url(#SVGID_00000154390859391326242760000013216725106791370147_);" d="M1861.475,2589.02       c0,0-47.955,7.434-101.873,43.477c-8.485,5.672-13.14,15.561-11.861,25.687c6.456,51.139,33.001,216.664,120.535,378.331       c4.615,8.525,5.942,18.449,3.905,27.927l-15.207,70.772l-28.202,26.444h72.642l48.366-130.889l-20.682-6.54       c-16.035-5.071-27.038-19.82-27.328-36.635l-2.427-140.408c2.07-62.555-38.356-105.716-38.356-105.716l116.012-5.644       L1861.475,2589.02z" data-index="36"></path>
					
						<linearGradient id="SVGID_00000086684138784986160490000014581273215074644905_" gradientUnits="userSpaceOnUse" x1="-1692.3774" y1="6811.7515" x2="-924.8149" y2="6322.3662" gradientTransform="matrix(1 0 0 1 -2209.3643 0)" fill="#000000">
						<stop offset="0" style="stop-color:#53d8ff" fill="#000000"></stop>
						<stop offset="1" style="stop-color:#005e75" fill="#000000"></stop>
					</linearGradient>
					<path style="fill:url(#SVGID_00000086684138784986160490000014581273215074644905_);" d="M1800.406,3174.425       c-6.616,8.658,71.203,20.083,110.519,1.146c0,0,54.5-94.823,54.5-143.645c0,0-4.326-9.955-36.327-7.698       c0,0-18.299,112.276-37.622,124.852c-19.322,12.577-54.06,1.272-54.06,1.272S1810.167,3161.65,1800.406,3174.425z" data-index="37"></path>
					
						<linearGradient id="SVGID_00000180365295709893667750000014669165087261348998_" gradientUnits="userSpaceOnUse" x1="-2597.6614" y1="2971.3765" x2="-2301.1677" y2="2461.407" gradientTransform="matrix(-1 0 0 1 -859.4504 0)" fill="#000000">
						<stop offset="0" style="stop-color:#febbba" fill="#000000"></stop>
						<stop offset="1" style="stop-color:#ff928e" fill="#000000"></stop>
					</linearGradient>
					<path style="fill:url(#SVGID_00000180365295709893667750000014669165087261348998_);" d="M1962.321,2743.526       c-0.617-1.068-124.904-14.944-124.904-14.944s4.068,37.79-8.645,89.811c-12.712,52.021-195.193,277.405-195.193,277.405       l19.134,60.656c-59.159,20.608-117.352,23.902-174.614,10.504l118.579-71.159c0,0,110.976-378.185,178.951-445.652       l124.584-43.102L1962.321,2743.526z" data-index="38"></path>
					
						<linearGradient id="SVGID_00000011011636701560447910000004999322067612673411_" gradientUnits="userSpaceOnUse" x1="2901.782" y1="1629.4374" x2="2269.8428" y2="2391.8862" fill="#000000">
						<stop offset="0" style="stop-color:#ff928e" fill="#000000"></stop>
						<stop offset="1" style="stop-color:#FE7062" fill="#000000"></stop>
					</linearGradient>
					<path style="fill:url(#SVGID_00000011011636701560447910000004999322067612673411_);" d="M2241.053,2523.474       c0,0,71.608,106.508,77.484,155.091s-19.615,68.325-94.75,71.581c-75.135,3.255-275.714,3.203-275.714,3.203l-171.192-146.305       c0,0,124.757-44.517,157.193-57.104C1966.51,2537.352,2241.053,2523.474,2241.053,2523.474z" data-index="39"></path>
					
						<linearGradient id="SVGID_00000134226849543337112190000016701862577097642382_" gradientUnits="userSpaceOnUse" x1="-1762.8707" y1="6701.1997" x2="-995.308" y2="6211.8145" gradientTransform="matrix(1 0 0 1 -2209.3643 0)" fill="#000000">
						<stop offset="0" style="stop-color:#53d8ff" fill="#000000"></stop>
						<stop offset="1" style="stop-color:#005e75" fill="#000000"></stop>
					</linearGradient>
					<path style="fill:url(#SVGID_00000134226849543337112190000016701862577097642382_);" d="M1645.482,3136.026       c0,0,20.599,19.952,6.684,42.151c0,0-163.183,28.925-207.488,15.801c0,0,9.199-20.998,59.089-44.898l-3.681,2.826       c-4.658,3.576-1.926,11.025,3.937,10.691C1536.897,3160.722,1604.932,3154.7,1645.482,3136.026z" data-index="40"></path>
				</g>
				<g>
					
						<linearGradient id="SVGID_00000116919227516952231240000001033598251532796844_" gradientUnits="userSpaceOnUse" x1="1927.429" y1="1779.5605" x2="2071.6758" y2="2267.2517" fill="#000000">
						<stop offset="0" style="stop-color:#ff928e" fill="#000000"></stop>
						<stop offset="1" style="stop-color:#FE7062" fill="#000000"></stop>
					</linearGradient>
					<path style="fill:url(#SVGID_00000116919227516952231240000001033598251532796844_);" d="M2047.398,2509.375       c0,0-83.387-79.402-124.434-131.993c-22.188-28.428-29.156-65.853-18.895-100.424c18.74-63.136,52.044-128.528,55.081-138.706       c4.655-15.6,98.155-14.951,98.155-14.951s183.987,119.41,256.276,321.681l-81.185,25.275c0,0-48.04-80.595-95.505-131.836       c0,0,82.132,108.5,85.025,152.917L2047.398,2509.375z" data-index="41"></path>
					
						<linearGradient id="SVGID_00000047029129660976885880000016005604784669837712_" gradientUnits="userSpaceOnUse" x1="4231.3462" y1="2226.4314" x2="4207.1265" y2="2071.0215" gradientTransform="matrix(1 0 0 1 -2209.3643 0)" fill="#000000">
						<stop offset="0" style="stop-color:#febbba" fill="#000000"></stop>
						<stop offset="1" style="stop-color:#ff928e" fill="#000000"></stop>
					</linearGradient>
					<path style="fill:url(#SVGID_00000047029129660976885880000016005604784669837712_);" d="M1947.843,2051.067       c0.976,3.243,25.38,84.145,27.289,85.824c1.909,1.679,53.519,4.455,77.811-12.147l-41.213-86.274L1947.843,2051.067z" data-index="42"></path>
					
						<linearGradient id="SVGID_00000155848016446188578850000007986214212035843462_" gradientUnits="userSpaceOnUse" x1="4799.0474" y1="3666.8218" x2="4990.8242" y2="3797.085" gradientTransform="matrix(0.9089 -0.4171 0.4171 0.9089 -4011.5479 670.3953)" fill="#000000">
						<stop offset="0" style="stop-color:#febbba" fill="#000000"></stop>
						<stop offset="1" style="stop-color:#ff928e" fill="#000000"></stop>
					</linearGradient>
					<path style="fill:url(#SVGID_00000155848016446188578850000007986214212035843462_);" d="M1917.689,1932.385       c0,0-28.938,31.629-29.539,94.697s28.615,78.652,53.016,71.433c24.402-7.219,58.408-23.432,79.245-73.557       C2041.247,1974.833,1956.104,1893.005,1917.689,1932.385z" data-index="43"></path>
					
						<linearGradient id="SVGID_00000135681181444545409680000010912178877766464657_" gradientUnits="userSpaceOnUse" x1="5133.7324" y1="3422.1108" x2="4812.0791" y2="3756.7605" gradientTransform="matrix(0.9089 -0.4171 0.4171 0.9089 -4011.5479 670.3953)" fill="#000000">
						<stop offset="0" style="stop-color:#09005D" fill="#000000"></stop>
						<stop offset="1" style="stop-color:#054142" fill="#000000"></stop>
					</linearGradient>
					<path style="fill:url(#SVGID_00000135681181444545409680000010912178877766464657_);" d="M1983.359,2008.439       c0,0-7.746-88.312-75.435-58.332l-10.753,18.331c0,0-43.994-30.744-12.695-69.421c31.299-38.678,99.961-48.542,142.254-1.87       c42.293,46.672,48.377,86.551,31.678,125.832c-16.699,39.28-42.111,15.094-42.111,15.094s4.411-31.595-7.946-41.746       c-12.357-10.15-19.786,12.353-19.786,12.353L1983.359,2008.439z" data-index="44"></path>
					
						<linearGradient id="SVGID_00000042704565810315733150000012671105139843694254_" gradientUnits="userSpaceOnUse" x1="4810.5435" y1="3649.8972" x2="5002.3188" y2="3780.1597" gradientTransform="matrix(0.9089 -0.4171 0.4171 0.9089 -4011.5479 670.3953)" fill="#000000">
						<stop offset="0" style="stop-color:#febbba" fill="#000000"></stop>
						<stop offset="1" style="stop-color:#ff928e" fill="#000000"></stop>
					</linearGradient>
					<path style="fill:url(#SVGID_00000042704565810315733150000012671105139843694254_);" d="M1994.783,2013.428       c0,0-4.248-45.373,21.162-38.189c25.41,7.185,1.726,42.921-8.182,55.523L1994.783,2013.428z" data-index="45"></path>
					
						<linearGradient id="SVGID_00000111911458378918607300000009040387272955805119_" gradientUnits="userSpaceOnUse" x1="4370.3916" y1="2495.5249" x2="4825.2598" y2="2495.5249" gradientTransform="matrix(1 0 0 1 -2209.3643 0)" fill="#000000">
						<stop offset="0" style="stop-color:#febbba" fill="#000000"></stop>
						<stop offset="1" style="stop-color:#ff928e" fill="#000000"></stop>
					</linearGradient>
					<path style="fill:url(#SVGID_00000111911458378918607300000009040387272955805119_);" d="M1877.518,2515.27l61.266-59.052       l84.754,35.804c0,0,84.363,13.07,132.648,0c48.284-13.071,48.284-13.071,48.284-13.071l109.112-33.969l17.137,48.431       c4.351,12.296-0.021,25.947-10.654,33.502c-9.44,6.708-20.505,14.08-27.557,17.165c-14.369,6.286-354.213-4.349-354.213-4.349       L1877.518,2515.27z" data-index="46"></path>
					
						<linearGradient id="SVGID_00000116934458902756090700000005386478181280777606_" gradientUnits="userSpaceOnUse" x1="5276.6997" y1="3559.5212" x2="4955.0483" y2="3894.1685" gradientTransform="matrix(0.9089 -0.4171 0.4171 0.9089 -4011.5479 670.3953)" fill="#000000">
						<stop offset="0" style="stop-color:#09005D" fill="#000000"></stop>
						<stop offset="1" style="stop-color:#054142" fill="#000000"></stop>
					</linearGradient>
					<path style="fill:url(#SVGID_00000116934458902756090700000005386478181280777606_);" d="M2025.381,1908.121       c-12.706-4.867-13.935-22.374-2.591-29.888c36.618-24.252,99.631-45.573,163.637,27.264       c72.1,82.047,112.442,121.096,135.28,120.718c14.998-0.248,23.751,16.71,13.878,28.002c-7.3,8.349-19.791,15.854-40.535,20.356       C2135.037,2109.301,2099.908,1936.668,2025.381,1908.121z" data-index="47"></path>
				</g>
				<g>
					<g>
						
							<linearGradient id="SVGID_00000021108899577255979080000006149654808629486744_" gradientUnits="userSpaceOnUse" x1="3116.8018" y1="2881.9265" x2="3415.7922" y2="2881.9265" gradientTransform="matrix(1 0 0 1 -2209.3643 0)" fill="#000000">
							<stop offset="0" style="stop-color:#0a8f91" fill="#000000"></stop>
							<stop offset="1" style="stop-color:#56b1b3" fill="#000000"></stop>
						</linearGradient>
						<path style="fill:url(#SVGID_00000021108899577255979080000006149654808629486744_);" d="M920.449,3196.417        c-1.716,0-3.459-0.327-5.137-1.012c-6.603-2.705-9.653-9.994-6.813-16.281l272.954-604.192        c2.839-6.284,10.49-9.187,17.099-6.487c6.603,2.705,9.653,9.994,6.813,16.281l-272.954,604.191        C930.293,3193.608,925.493,3196.417,920.449,3196.417z" data-index="48"></path>
						
							<linearGradient id="SVGID_00000150809056417542512090000002719900202514808237_" gradientUnits="userSpaceOnUse" x1="3151.3293" y1="2881.9253" x2="3450.3201" y2="2881.9253" gradientTransform="matrix(1 0 0 1 -2209.3643 0)" fill="#000000">
							<stop offset="0" style="stop-color:#0a8f91" fill="#000000"></stop>
							<stop offset="1" style="stop-color:#56b1b3" fill="#000000"></stop>
						</linearGradient>
						<path style="fill:url(#SVGID_00000150809056417542512090000002719900202514808237_);" d="M1227.944,3196.417        c-5.044,0-9.844-2.808-11.962-7.499l-272.954-604.191c-2.841-6.287,0.21-13.576,6.813-16.281        c6.598-2.705,14.256,0.198,17.099,6.487l272.954,604.192c2.84,6.287-0.21,13.576-6.813,16.281        C1231.405,3196.09,1229.66,3196.417,1227.944,3196.417z" data-index="49"></path>
						
							<linearGradient id="SVGID_00000029017851588226184870000013188696568797733512_" gradientUnits="userSpaceOnUse" x1="4239.7456" y1="2881.9265" x2="4538.7358" y2="2881.9265" gradientTransform="matrix(1 0 0 1 -2209.3643 0)" fill="#000000">
							<stop offset="0" style="stop-color:#0a8f91" fill="#000000"></stop>
							<stop offset="1" style="stop-color:#56b1b3" fill="#000000"></stop>
						</linearGradient>
						<path style="fill:url(#SVGID_00000029017851588226184870000013188696568797733512_);" d="M2043.393,3196.417        c-1.716,0-3.459-0.327-5.137-1.012c-6.603-2.705-9.653-9.994-6.813-16.281l272.954-604.192        c2.841-6.284,10.487-9.187,17.099-6.487c6.603,2.705,9.653,9.994,6.812,16.281l-272.954,604.191        C2053.237,3193.608,2048.437,3196.417,2043.393,3196.417z" data-index="50"></path>
						
							<linearGradient id="SVGID_00000119113369157800387900000011320682088393021094_" gradientUnits="userSpaceOnUse" x1="4274.2715" y1="2881.9253" x2="4573.2617" y2="2881.9253" gradientTransform="matrix(1 0 0 1 -2209.3643 0)" fill="#000000">
							<stop offset="0" style="stop-color:#0a8f91" fill="#000000"></stop>
							<stop offset="1" style="stop-color:#56b1b3" fill="#000000"></stop>
						</linearGradient>
						<path style="fill:url(#SVGID_00000119113369157800387900000011320682088393021094_);" d="M2350.885,3196.417        c-5.043,0-9.844-2.808-11.962-7.499l-272.954-604.191c-2.841-6.287,0.209-13.576,6.812-16.281        c6.599-2.705,14.256,0.198,17.099,6.487l272.954,604.192c2.841,6.287-0.209,13.576-6.812,16.281        C2354.347,3196.09,2352.601,3196.417,2350.885,3196.417z" data-index="51"></path>
					</g>
					
						<linearGradient id="SVGID_00000079469523599034080620000012597799083313553579_" gradientUnits="userSpaceOnUse" x1="3029.811" y1="2573.3875" x2="4647.8853" y2="2573.3875" gradientTransform="matrix(1 0 0 1 -2209.3643 0)" fill="#000000">
						<stop offset="0" style="stop-color:#0a8f91" fill="#000000"></stop>
						<stop offset="1" style="stop-color:#56b1b3" fill="#000000"></stop>
					</linearGradient>
					<path style="fill:url(#SVGID_00000079469523599034080620000012597799083313553579_);" d="M2438.236,2556.092       c0.889-4.029-0.321-8.196-3.298-11.362c-2.976-3.166-7.408-4.999-12.086-4.999H838.479c-6.151,0-11.877,2.75-15.191,7.297       c-3.314,4.547-3.758,10.262-1.179,15.162l17.169,32.605c3.932,7.467,12.45,12.248,21.824,12.248H2411.98       c8.72,0,16.215-5.426,17.871-12.938L2438.236,2556.092z" data-index="52"></path>
				</g>
			</g>
			<g>
				<g>
					<path style="fill:#097072;" d="M640.355,2766.831c-9.572,14.163-47.614,334.848-53.568,453.287       c-0.403,8.01,6.004,14.688,14.024,14.688l0,0c6.916,0,12.801-5.038,13.867-11.871l69.582-445.904L640.355,2766.831z" data-index="53"></path>
					<path style="fill:#097072;" d="M946.216,2766.831c9.572,14.163,47.614,334.848,53.568,453.287       c0.403,8.01-6.004,14.688-14.024,14.688l0,0c-6.916,0-12.801-5.038-13.867-11.871l-69.582-445.904L946.216,2766.831z" data-index="54"></path>
					<path style="fill:#097072;" d="M582.808,2741.802l-0.032,3.496c-0.23,25.159,21.444,45.795,48.582,46.256l321.624,5.471       c26.748,0.455,49.044-18.875,50.342-43.643l0.168-3.2c1.354-25.831-20.582-47.593-48.477-48.093l-321.759-5.767       C605.716,2695.83,583.041,2716.272,582.808,2741.802z" data-index="55"></path>
				</g>
				<g>
					<g>
						
							<linearGradient id="SVGID_00000039127985819020031650000002525935741288503996_" gradientUnits="userSpaceOnUse" x1="4511.5947" y1="3167.7576" x2="4719.9629" y2="3167.7576" gradientTransform="matrix(1 0 0 1 -3467.8711 0)" fill="#000000">
							<stop offset="0" style="stop-color:#0a8f91" fill="#000000"></stop>
							<stop offset="1" style="stop-color:#56b1b3" fill="#000000"></stop>
						</linearGradient>
						<path style="fill:url(#SVGID_00000039127985819020031650000002525935741288503996_);" d="M1127.512,3168.631        c-51.081,0-73.683-4.382-83.788-8.379c1.964,8.389,9.435,15.011,18.877,15.011h180.711c6.086,0,9.927-5.825,8.472-11.099        C1231.184,3165.82,1187.433,3168.631,1127.512,3168.631z" data-index="56"></path>
						
							<linearGradient id="SVGID_00000165943356309639878090000001895067575955368350_" gradientUnits="userSpaceOnUse" x1="4672.1338" y1="2767.0901" x2="4615.2021" y2="3160.4375" gradientTransform="matrix(1 0 0 1 -3467.8711 0)" fill="#000000">
							<stop offset="0" style="stop-color:#09005D" fill="#000000"></stop>
							<stop offset="1" style="stop-color:#054142" fill="#000000"></stop>
						</linearGradient>
						<path style="fill:url(#SVGID_00000165943356309639878090000001895067575955368350_);" d="M1251.784,3164.164        c-0.293-1.063-0.724-2.11-1.48-3.076c-13.765-17.575-41.417-45.176-79.033-44.646c-55.105,0.776-74.318,6.754-117.139,0.336        l-10.102,33.485c-1.029,3.413-1.047,6.822-0.306,9.989c10.105,3.997,32.707,8.379,83.788,8.379        C1187.433,3168.631,1231.184,3165.82,1251.784,3164.164z" data-index="57"></path>
					</g>
					
						<linearGradient id="SVGID_00000143596081686294258050000001632491905695612300_" gradientUnits="userSpaceOnUse" x1="4522.0034" y1="3104.9653" x2="4578.3813" y2="3104.9653" gradientTransform="matrix(1 0 0 1 -3467.8711 0)" fill="#000000">
						<stop offset="0" style="stop-color:#febbba" fill="#000000"></stop>
						<stop offset="1" style="stop-color:#ff928e" fill="#000000"></stop>
					</linearGradient>
					<path style="fill:url(#SVGID_00000143596081686294258050000001632491905695612300_);" d="M1066.532,3080.695l-12.4,42.174       c0,0,27.471,12.506,51.633,2.466l4.745-36.539L1066.532,3080.695z" data-index="58"></path>
					<g>
						
							<linearGradient id="SVGID_00000037656288892870919220000017200395865946093960_" gradientUnits="userSpaceOnUse" x1="4838.4087" y1="3126.4641" x2="5006.6421" y2="3126.4641" gradientTransform="matrix(1 0 0 1 -3467.8711 0)" fill="#000000">
							<stop offset="0" style="stop-color:#0a8f91" fill="#000000"></stop>
							<stop offset="1" style="stop-color:#56b1b3" fill="#000000"></stop>
						</linearGradient>
						<path style="fill:url(#SVGID_00000037656288892870919220000017200395865946093960_);" d="M1441.077,3142.071        c-39.82,31.995-60.171,42.752-70.539,45.98c6.76,5.278,16.713,5.736,24.073-0.177l140.871-113.189        c4.744-3.812,4.107-10.737-0.314-13.918C1520.142,3074.955,1487.788,3104.539,1441.077,3142.071z" data-index="59"></path>
						
							<linearGradient id="SVGID_00000065771512518218072880000016967294216395769773_" gradientUnits="userSpaceOnUse" x1="4954.1274" y1="2807.9045" x2="4897.1958" y2="3201.2517" gradientTransform="matrix(1 0 0 1 -3467.8711 0)" fill="#000000">
							<stop offset="0" style="stop-color:#09005D" fill="#000000"></stop>
							<stop offset="1" style="stop-color:#054142" fill="#000000"></stop>
						</linearGradient>
						<path style="fill:url(#SVGID_00000065771512518218072880000016967294216395769773_);" d="M1535.167,3060.768        c-0.892-0.641-1.88-1.184-3.071-1.459c-21.687-5.013-60.448-9.107-89.441,14.864c-42.473,35.117-53.723,51.789-91.105,73.631        l12.999,32.306c1.326,3.292,3.436,5.949,5.988,7.941c10.369-3.229,30.719-13.985,70.539-45.98        C1487.788,3104.539,1520.142,3074.955,1535.167,3060.768z" data-index="60"></path>
					</g>
					
						<linearGradient id="SVGID_00000178895394066739440040000015526370701944635273_" gradientUnits="userSpaceOnUse" x1="1052.1974" y1="2635.5015" x2="640.0828" y2="3475.1846" fill="#000000">
						<stop offset="0" style="stop-color:#09005D" fill="#000000"></stop>
						<stop offset="1" style="stop-color:#054142" fill="#000000"></stop>
					</linearGradient>
					<path style="fill:url(#SVGID_00000178895394066739440040000015526370701944635273_);" d="M801.266,2600.195       c0,0,305.826,24.971,368.564,54.505c62.738,29.534-51.198,443.466-51.198,443.466s-17.079,8.22-55.084-3.594       c0,0,38.972-305.466,9.973-371.703l-331.131-54.161L801.266,2600.195z" data-index="61"></path>
					
						<linearGradient id="SVGID_00000127042306974576463620000010534126743589987712_" gradientUnits="userSpaceOnUse" x1="4789.0356" y1="3109.7104" x2="4856.3433" y2="3109.7104" gradientTransform="matrix(1 0 0 1 -3467.8711 0)" fill="#000000">
						<stop offset="0" style="stop-color:#febbba" fill="#000000"></stop>
						<stop offset="1" style="stop-color:#ff928e" fill="#000000"></stop>
					</linearGradient>
					<path style="fill:url(#SVGID_00000127042306974576463620000010534126743589987712_);" d="M1321.165,3089.658       c2.84,2.588,30.386,58.146,30.386,58.146s30.667-6.635,36.921-26.042l-27.594-50.144L1321.165,3089.658z" data-index="62"></path>
					
						<linearGradient id="SVGID_00000138565528179723165140000016729473736542109618_" gradientUnits="userSpaceOnUse" x1="5134.6646" y1="2076.1724" x2="4644.7065" y2="2631.6882" gradientTransform="matrix(1 0 0 1 -3467.8711 0)" fill="#000000">
						<stop offset="0" style="stop-color:#09005D" fill="#000000"></stop>
						<stop offset="1" style="stop-color:#054142" fill="#000000"></stop>
					</linearGradient>
					<path style="fill:url(#SVGID_00000138565528179723165140000016729473736542109618_);" d="M617.07,2597.639       c0,0-9.966,23.98-9.559,55.849c0.562,44.072,35.994,79.835,80.015,82.032l361.536,16.487       c7.635,0.348,14.095,5.632,16.008,13.032c8.495,32.862,50.022,133.775,253.012,335.138c5.401,5.358,13.814,6.269,20.246,2.207       l28.896-18.253c3.033-1.916,4.002-5.893,2.189-8.989l-210.505-359.469c-11.057-18.246-28.829-31.427-49.5-36.711       l-308.141-78.767L617.07,2597.639z" data-index="63"></path>
					
						<linearGradient id="SVGID_00000060713731996615956060000003340675167057462184_" gradientUnits="userSpaceOnUse" x1="6160.8491" y1="-10448.8184" x2="5702.3716" y2="-9691.5586" gradientTransform="matrix(-1 0 0 1 -859.4504 0)" fill="#000000">
						<stop offset="0" style="stop-color:#ff928e" fill="#000000"></stop>
						<stop offset="1" style="stop-color:#FE7062" fill="#000000"></stop>
					</linearGradient>
					<path style="fill:url(#SVGID_00000060713731996615956060000003340675167057462184_);" d="M616.094,2596.579       c0,0-3.584-179.192,32.238-347.83c13.228-62.273,47.655-118.027,97.661-157.427l16.729-13.181l83.788,34.039l43.059,74.401       c23.704,47.407,17.883,150.368,0,200.264c-29.902,83.43-53.814,169.886-64.006,212.353       C825.563,2599.197,686.79,2617.525,616.094,2596.579z" data-index="64"></path>
					
						<linearGradient id="SVGID_00000125596672515832883040000003724123208672244127_" gradientUnits="userSpaceOnUse" x1="4222.7388" y1="2037.0547" x2="4343.1841" y2="2037.0547" gradientTransform="matrix(1 0 0 1 -3467.8711 0)" fill="#000000">
						<stop offset="0" style="stop-color:#febbba" fill="#000000"></stop>
						<stop offset="1" style="stop-color:#ff928e" fill="#000000"></stop>
					</linearGradient>
					<path style="fill:url(#SVGID_00000125596672515832883040000003724123208672244127_);" d="M820.327,1944.605l-65.459,151.865       c0,0,20.947,47.131,94.261,28.802l26.184-104.735L820.327,1944.605z" data-index="65"></path>
					<g>
						
							<linearGradient id="SVGID_00000114069176630389270670000000486981827687058339_" gradientUnits="userSpaceOnUse" x1="3350.5874" y1="4640.3643" x2="3178.925" y2="4867.4595" gradientTransform="matrix(0.9372 -0.3487 0.3487 0.9372 -3839.4404 -1292.5793)" fill="#000000">
							<stop offset="0" style="stop-color:#febbba" fill="#000000"></stop>
							<stop offset="1" style="stop-color:#ff928e" fill="#000000"></stop>
						</linearGradient>
						<path style="fill:url(#SVGID_00000114069176630389270670000000486981827687058339_);" d="M950.051,1875.343        c0.789,2.121,2.523,151.74,2.523,151.74l-85.451-0.825l-22.712-141.564C844.411,1884.694,936.839,1839.834,950.051,1875.343z" data-index="66"></path>
						
							<linearGradient id="SVGID_00000129903856886682337090000003441913218113189813_" gradientUnits="userSpaceOnUse" x1="3219.4866" y1="4695.1445" x2="3424.5398" y2="4695.1445" gradientTransform="matrix(0.9372 -0.3487 0.3487 0.9372 -3839.4404 -1292.5793)" fill="#000000">
							<stop offset="0" style="stop-color:#09005D" fill="#000000"></stop>
							<stop offset="1" style="stop-color:#054142" fill="#000000"></stop>
						</linearGradient>
						<path style="fill:url(#SVGID_00000129903856886682337090000003441913218113189813_);" d="M869.474,1911.916l6.12,75.458        c0.079,0.968,0.28,1.896,0.618,2.807c2.065,5.572,10.573,24.222,29.123,14.353c16.832-8.955,32.327-16.877,44.434-15.858        c5.436,0.457,9.628,4.957,9.69,10.411c0.154,13.594-0.065,44.233-4.318,70.823c-0.863,5.396-5.748,9.188-11.199,8.801        c-16.424-1.165-50.995-4.59-78.162-13.86c-3.682-1.256-6.387-4.379-7.048-8.212c-3.221-18.687-13.224-75.446-18.458-90.831        c-4.913-14.441-25.007-19.384-33.592-20.859c-2.815-0.483-5.285-2.084-6.88-4.454c-5.638-8.373-15.264-28.49,9.582-42.958        c5.2-3.028,6.845-9.696,3.66-14.801c-6.34-10.164-11.645-26.62,7.027-40.355c18.979-13.96,37.094-6.15,47.536,1.122        c4.222,2.94,9.842,2.313,13.512-1.292c2.09-2.053,5.099-3.228,9.374-1.696c5.76,2.065,12.016-1.544,13.473-7.486        c2.8-11.417,10.664-24.698,31.998-25.622c37.857-1.639,50.737,37.92,46.23,63.707c-4.506,25.787-45.651,25.231-67.896,17.531        c-16.914-5.855-34.247,7.861-41.583,14.772C870.392,1905.606,869.216,1908.733,869.474,1911.916z" data-index="67"></path>
						
							<linearGradient id="SVGID_00000057869616172656666320000004285026599541525680_" gradientUnits="userSpaceOnUse" x1="3099.1697" y1="4820.2056" x2="3236.8567" y2="4678.9424" gradientTransform="matrix(0.9372 -0.3487 0.3487 0.9372 -3839.4404 -1292.5793)" fill="#000000">
							<stop offset="0" style="stop-color:#febbba" fill="#000000"></stop>
							<stop offset="1" style="stop-color:#ff928e" fill="#000000"></stop>
						</linearGradient>
						<path style="fill:url(#SVGID_00000057869616172656666320000004285026599541525680_);" d="M842.778,1993.26        c0,0,5.923-45.27-11.721-52.229c-17.643-6.959-39.325,3.321-27.716,32.678C817.781,2010.227,842.778,1993.26,842.778,1993.26z        " data-index="68"></path>
					</g>
					
						<linearGradient id="SVGID_00000161628463452580821520000004125268673844242336_" gradientUnits="userSpaceOnUse" x1="6083.4648" y1="-10495.6611" x2="5624.9883" y2="-9738.4033" gradientTransform="matrix(-1 0 0 1 -859.4504 0)" fill="#000000">
						<stop offset="0" style="stop-color:#ff928e" fill="#000000"></stop>
						<stop offset="1" style="stop-color:#FE7062" fill="#000000"></stop>
					</linearGradient>
					<path style="fill:url(#SVGID_00000161628463452580821520000004125268673844242336_);" d="M1022.009,2452.655       c-215.794,67.744-204.314-235.983-205.712-238.12c-85.546-130.724-133.582,43.482-125.292,68.04       c75.876,274.701,267.153,261.101,341.685,207.14C1023.409,2475.277,1021.292,2462.571,1022.009,2452.655z" data-index="69"></path>
					
						<linearGradient id="SVGID_00000098914762875273508020000016465146560993327011_" gradientUnits="userSpaceOnUse" x1="-189.2071" y1="7042.7749" x2="732.8975" y2="5672.4976" gradientTransform="matrix(0.9551 0.2964 -0.2964 0.9551 -2088.5251 -175.8474)" fill="#000000">
						<stop offset="0" style="stop-color:#E1473D" fill="#000000"></stop>
						<stop offset="1" style="stop-color:#E9605A" fill="#000000"></stop>
					</linearGradient>
					<path style="fill:url(#SVGID_00000098914762875273508020000016465146560993327011_);" d="M856.587,2405.804       c-1.191-0.37-2.264-1.146-2.99-2.277c-32.696-50.951-41.922-121.751-43.906-172.173c-0.119-3.029,2.241-5.582,5.27-5.701       c3.031-0.12,5.583,2.238,5.701,5.27c1.58,40.164,9.159,115.225,42.177,166.675c1.637,2.551,0.895,5.947-1.656,7.586       C859.762,2406.093,858.082,2406.267,856.587,2405.804z" data-index="70"></path>
					
						<linearGradient id="SVGID_00000132810077485741977220000001522846107860592026_" gradientUnits="userSpaceOnUse" x1="-199.7449" y1="7035.6826" x2="722.361" y2="5665.4028" gradientTransform="matrix(0.9551 0.2964 -0.2964 0.9551 -2088.5251 -175.8474)" fill="#000000">
						<stop offset="0" style="stop-color:#E1473D" fill="#000000"></stop>
						<stop offset="1" style="stop-color:#E9605A" fill="#000000"></stop>
					</linearGradient>
					<path style="fill:url(#SVGID_00000132810077485741977220000001522846107860592026_);" d="M796.326,2474.824       c-0.676-0.209-1.321-0.554-1.897-1.036c-49.318-41.329-86.477-106.272-110.44-193.027c-0.807-2.923,0.908-5.947,3.83-6.754       c2.924-0.804,5.946,0.91,6.754,3.831c23.359,84.568,59.328,147.663,106.909,187.535c2.323,1.948,2.628,5.411,0.682,7.735       C800.698,2474.854,798.376,2475.46,796.326,2474.824z" data-index="71"></path>
					
						<linearGradient id="SVGID_00000054965921374284334640000001756217719737275556_" gradientUnits="userSpaceOnUse" x1="1355.4916" y1="1720.5686" x2="1149.4349" y2="2256.3162" fill="#000000">
						<stop offset="0" style="stop-color:#febbba" fill="#000000"></stop>
						<stop offset="1" style="stop-color:#ff928e" fill="#000000"></stop>
					</linearGradient>
					<path style="fill:url(#SVGID_00000054965921374284334640000001756217719737275556_);" d="M1149.037,2389.238       c0,0-3.503,5.596-28.768,25.172c-25.265,19.575-50.703,30.872-31.388,3.968s9.915-40.788-12.126-11.806       c-22.042,28.982-37.8,40.177-37.8,40.177c-5.801,2.221-11.444,4.179-16.945,5.906c-0.717,9.916,1.4,22.622,10.681,37.061       c8.742-2.891,13.681-5.025,13.681-5.025s66.829-12.16,81.143-40.617C1141.827,2415.616,1149.037,2389.238,1149.037,2389.238z" data-index="72"></path>
				</g>
			</g>
		</g>
		<g>
			<path style="fill:#FFFFFF;" d="M1637.281,2247.257c0,0-553.396-273.428-372.416-474.747     c180.98-201.319,518.386-120.851,535.479,91.037C1817.438,2075.437,1406.77,2025.726,1637.281,2247.257z" data-index="73"></path>
			<g>
				<path style="fill:#097072;" d="M1311.679,1830.088h244.23c3.081,0,5.58-2.495,5.58-5.58c0-3.084-2.498-5.58-5.58-5.58h-244.23      c-3.081,0-5.58,2.495-5.58,5.58C1306.099,1827.592,1308.598,1830.088,1311.679,1830.088z" data-index="74"></path>
				<path style="fill:#097072;" d="M1628.43,1830.088h72.469c3.081,0,5.58-2.495,5.58-5.58c0-3.084-2.498-5.58-5.58-5.58h-72.469      c-3.081,0-5.579,2.495-5.579,5.58C1622.85,1827.592,1625.348,1830.088,1628.43,1830.088z" data-index="75"></path>
				<path style="fill:#097072;" d="M1303.451,1879.53h91.706c3.081,0,5.579-2.496,5.579-5.58s-2.498-5.58-5.579-5.58h-91.706      c-3.081,0-5.579,2.495-5.579,5.58S1300.37,1879.53,1303.451,1879.53z" data-index="76"></path>
				<path style="fill:#097072;" d="M1529.72,1879.53h162.951c3.081,0,5.58-2.496,5.58-5.58s-2.498-5.58-5.58-5.58H1529.72      c-3.081,0-5.579,2.495-5.579,5.58S1526.638,1879.53,1529.72,1879.53z" data-index="77"></path>
				<path style="fill:#097072;" d="M1295.224,1928.978h243.781c3.081,0,5.579-2.495,5.579-5.579c0-3.084-2.498-5.58-5.579-5.58      h-243.781c-3.082,0-5.58,2.495-5.58,5.58C1289.644,1926.482,1292.142,1928.978,1295.224,1928.978z" data-index="78"></path>
				<path style="fill:#097072;" d="M1600.047,1928.978h84.396c3.081,0,5.579-2.495,5.579-5.579c0-3.084-2.498-5.58-5.579-5.58      h-84.396c-3.081,0-5.579,2.495-5.579,5.58C1594.468,1926.482,1596.966,1928.978,1600.047,1928.978z" data-index="79"></path>
			</g>
		</g>
	</g>
</g>
</svg>