<?xml version="1.0"?>
<svg xmlns="http://www.w3.org/2000/svg" xmlns:xlink="http://www.w3.org/1999/xlink" version="1.1" x="0px" y="0px" viewBox="0 0 3710 3710" style="enable-;background-color:transparent;" xml:space="preserve">
<g id="Background">
	<g>
		<g>
			<rect style="fill:none;" width="3710" height="3710" fill="none"/>
		</g>
	</g>
</g>
<g id="Illustration">
	<g>
		<linearGradient id="SVGID_1_" gradientUnits="userSpaceOnUse" x1="3594.2234" y1="4043.4158" x2="1160.0787" y2="1020.3609" fill="#000000">
			<stop offset="0" style="stop-color:#56b1b3" fill="#000000"/>
			<stop offset="1" style="stop-color:#faffff" fill="#000000"/>
		</linearGradient>
		<path style="fill:url(#SVGID_1_);" d="M2924.575,2851.232c-55.911,58.861-108.814,96.82-150.612,126.81    c-491.321,352.528-1072.684,249.768-1196.24,224.673c-182.453-37.057-535.132-108.688-790.112-408.54    c-385.764-453.65-325.695-1168.364-26.47-1640.156c54.733-86.299,343.848-565.278,931.472-642.091    c355.624-46.486,770.168,47.271,1070.369,298.78C3393.13,1338.647,3348.271,2405.179,2924.575,2851.232z"/>
		<g>
			<g>
				<path style="fill:#56b1b3;" d="M1172.914,1565.313c10.251,109.564,34.319,254.418,63.245,379.244h18.165      c-37.403-150.632-71.826-356.923-61.69-594.722c10.224-239.804,67.888-530.963-39.639-670.049      c-89.491-115.757-469.234-133.062-594.107-135.61c-15.603-0.318-24.536,17.988-14.824,30.432      c47.873,61.351,148.119,203.436,156.852,327.508c11.512,163.535,136.301,291.891,260.298,345.322      C1085.211,1300.87,1151.986,1341.626,1172.914,1565.313z"/>
				<path style="fill:none;" d="M715.018,645.263c76.81,19.855,149.459,55.543,213.022,104.425      c31.842,24.345,60.699,52.951,85.584,84.885c24.62,32.115,45.292,67.69,59.643,105.899l5.313,14.347      c1.739,4.793,3.038,9.738,4.575,14.601c1.416,4.88,3.019,9.803,4.277,14.646l3.795,14.533      c5.102,19.367,10.112,38.76,14.926,58.204c9.687,38.873,18.763,77.907,27.245,117.073      c16.999,78.333,31.625,157.182,41.488,236.914c0.237,1.913-1.094,3.659-2.973,3.9c-1.813,0.233-3.474-1.021-3.8-2.829      l-0.019-0.107c-7.011-39.245-14.767-78.495-23.252-117.512c-8.309-39.068-17.081-78.033-26.272-116.893l-13.968-58.243      l-14.612-58.08c-4.857-19.363-9.909-38.676-15.054-57.963l-3.826-14.474c-1.27-4.83-2.794-9.406-4.176-14.121      c-1.453-4.668-2.66-9.422-4.307-14.024l-5.022-13.777c-13.482-36.756-33.36-70.792-56.531-102.153      c-11.926-15.43-24.404-30.506-38.252-44.28l-5.094-5.262l-5.293-5.058c-3.544-3.357-7.003-6.811-10.617-10.095      c-7.319-6.465-14.563-13.031-22.227-19.099c-30.208-24.849-63.39-45.936-97.871-64.431      c-34.486-18.446-70.77-34.034-108.007-45.579l-0.172-0.054c-1.454-0.45-2.273-2.015-1.831-3.496      C712.138,645.727,713.604,644.9,715.018,645.263z"/>
			</g>
			<g>
				<path style="fill:#84bebf;" d="M1176.494,1713.712c64.946,97.115,56.607,151.454,58.603,197.478      c0.353,8.171,0.795,19.722,1.724,33.368h17.734c-3.621-18.736-6.19-37.623-7.109-56.151      c-6.316-127.111-34.47-344.063-142.096-473.842c-107.625-129.78-225.484-141.62-373.991-23.638      c-123.758,98.317-200.954,147.933-246.228,157.157c-11.209,2.284-16.93,15.173-11.475,25.406      c29.037,54.463,111.134,179.565,248.974,170.757C898.458,1733.013,1111.548,1616.597,1176.494,1713.712z"/>
				<path style="fill:none;" d="M781.667,1547.234c9.726-9.432,20.03-17.926,30.664-26.127      c10.629-8.175,21.584-15.961,32.988-23.064c22.73-14.295,46.987-26.497,72.819-34.899c12.919-4.152,26.225-7.355,39.835-9.121      c13.608-1.677,27.516-1.908,41.315-0.163c3.433,0.567,6.902,0.899,10.305,1.677c3.376,0.811,6.868,1.472,10.145,2.427      l19.381,6.123l18.965,7.509l18.383,8.995c24.094,12.934,45.894,30.407,64.033,50.994c18.281,20.527,32.581,44.182,44.348,68.682      l4.416,9.206c1.516,3.049,2.616,6.275,3.943,9.402c2.5,6.317,5.193,12.56,7.524,18.929l6.525,19.265      c2.311,6.377,3.784,13.004,5.651,19.507c7.369,26.051,12.445,52.611,16.83,79.197c0.244,1.484-0.738,2.888-2.195,3.137      c-1.391,0.239-2.711-0.662-3.041-2.036l-0.021-0.088c-6.193-26.055-12.149-52.148-20.666-77.389      c-3.862-12.753-8.761-25.089-13.316-37.538c-2.454-6.149-5.253-12.14-7.856-18.212c-1.376-2.999-2.532-6.112-4.087-9.015      l-4.53-8.775c-11.991-23.414-26.548-45.355-43.934-64.546c-17.399-19.189-38.047-35.023-60.658-47.148l-17.338-8.37      l-17.964-7.001l-18.453-5.72c-3.064-0.886-6.069-1.471-9.105-2.231c-3.028-0.725-6.151-1.024-9.221-1.567      c-12.384-1.654-25.053-1.554-37.635-0.092c-12.6,1.372-25.141,4.073-37.458,7.742c-24.671,7.318-48.461,18.235-71.315,30.947      c-11.383,6.448-22.662,13.183-33.612,20.479c-10.914,7.305-21.7,15.019-31.977,23.123l-0.068,0.052      c-1.214,0.958-2.961,0.732-3.901-0.505C780.507,1549.864,780.653,1548.225,781.667,1547.234z"/>
			</g>
		</g>
		<g>
			
				<linearGradient id="SVGID_00000067223779138608617940000007493714853089316794_" gradientUnits="userSpaceOnUse" x1="2051.543" y1="3064.3999" x2="1916.2687" y2="-939.7878" fill="#000000">
				<stop offset="0" style="stop-color:#104a4c" fill="#000000"/>
				<stop offset="1" style="stop-color:#052828" fill="#000000"/>
			</linearGradient>
			<path style="fill:url(#SVGID_00000067223779138608617940000007493714853089316794_);" d="M1099.83,954.849     c0-95.521,77.435-172.955,172.956-172.955h1470.821c81.144,0,148.054,63.59,152.179,144.629l108.568,2132.415     c3.229,63.416-46.692,116.907-110.18,118.062l-1685.746,30.638c-59.655,1.084-108.598-46.977-108.598-106.642V954.849z"/>
			
				<linearGradient id="SVGID_00000158007545012985416110000010952110231230337210_" gradientUnits="userSpaceOnUse" x1="775.9715" y1="2700.0469" x2="2309.1116" y2="3674.0435" fill="#000000">
				<stop offset="0" style="stop-color:#A737D5" fill="#000000"/>
				<stop offset="1" style="stop-color:#EF497A" fill="#000000"/>
			</linearGradient>
			<path style="fill:url(#SVGID_00000158007545012985416110000010952110231230337210_);" d="M1454.804,3171.386h-0.053     l-188.625-2.438c-63.073-0.818-114.385-52.799-114.385-115.873v-284.789c0-2.226,1.803-4.027,4.027-4.027     c2.224,0,4.027,1.801,4.027,4.027v284.789c0,58.69,47.745,107.056,106.435,107.819l188.623,2.439     c2.224,0.027,4.003,1.856,3.976,4.078C1458.799,3169.616,1457.002,3171.386,1454.804,3171.386z"/>
			
				<linearGradient id="SVGID_00000031200697889112972790000010822546403101462164_" gradientUnits="userSpaceOnUse" x1="904.6595" y1="2497.4824" x2="2437.7979" y2="3471.478" fill="#000000">
				<stop offset="0" style="stop-color:#A737D5" fill="#000000"/>
				<stop offset="1" style="stop-color:#EF497A" fill="#000000"/>
			</linearGradient>
			<path style="fill:url(#SVGID_00000031200697889112972790000010822546403101462164_);" d="M1155.768,2684.098     c-2.224,0-4.027-1.801-4.027-4.027v-46.121c0-2.226,1.803-4.027,4.027-4.027c2.224,0,4.027,1.801,4.027,4.027v46.121     C1159.795,2682.297,1157.992,2684.098,1155.768,2684.098z"/>
			<g>
				<path style="fill:#56b1b3;" d="M1220.327,814.716c-0.18-30.561,26.697-54.214,56.981-50.107      c200.854,27.238,891.538,111.479,1462.587,67.643c26.042-1.999,48.643,17.732,50.029,43.814l113.839,2141.92      c1.561,29.369-20.866,54.484-50.225,56.221c-240.173,14.213-1229.279,69.157-1582.078,32.205      c-21.472-2.25-37.771-20.327-37.898-41.917L1220.327,814.716z"/>
				<path style="fill:#84bebf;" d="M1243.986,868.391c-0.173-29.41,25.692-52.173,54.836-48.22      c193.291,26.212,857.966,107.281,1407.513,65.095c25.061-1.924,46.811,17.065,48.144,42.164l109.552,2061.265      c1.502,28.263-20.08,52.433-48.334,54.105c-231.129,13.678-1182.99,66.553-1522.504,30.992      c-20.664-2.164-36.349-19.562-36.471-40.338L1243.986,868.391z"/>
				<path style="opacity:0.58;fill:none;" d="M2674.907,1175.787H1382.96c-5.756,0-10.422-4.667-10.422-10.423v-155.877      c0-5.756,4.666-10.422,10.422-10.422h1291.948c5.756,0,10.423,4.666,10.423,10.422v155.877      C2685.33,1171.121,2680.664,1175.787,2674.907,1175.787z"/>
				<path style="opacity:0.58;fill:none;" d="M2701.029,2003.009H1375.494c-3.237,0-5.862-2.624-5.862-5.862v-76.638      c0-3.237,2.624-5.862,5.862-5.862h1325.535c3.237,0,5.862,2.624,5.862,5.862v76.638      C2706.89,2000.384,2704.266,2003.009,2701.029,2003.009z"/>
				<path style="opacity:0.58;fill:none;" d="M2702.611,2139.337H1373.912c-2.364,0-4.279-1.916-4.279-4.28v-79.802      c0-2.364,1.916-4.279,4.279-4.279h1328.699c2.364,0,4.28,1.916,4.28,4.279v79.802      C2706.89,2137.421,2704.974,2139.337,2702.611,2139.337z"/>
				<path style="opacity:0.58;fill:none;" d="M2730.782,2917.762H1375.904c-2.85,0-5.161-2.311-5.161-5.161v-78.039      c0-2.85,2.311-5.161,5.161-5.161h1354.878c2.85,0,5.161,2.311,5.161,5.161v78.039      C2735.943,2915.452,2733.632,2917.762,2730.782,2917.762z"/>
				<path style="opacity:0.25;fill:none;" d="M2673.347,1822.081H1401.691c-17.706,0-32.059-14.353-32.059-32.059v-476.147      c0-17.706,14.353-32.059,32.059-32.059h1250.094c17.142,0,31.25,13.484,32.026,30.609l21.562,476.147      C2706.2,1806.828,2691.622,1822.081,2673.347,1822.081z"/>
				<path style="fill:none;" d="M2674.09,1827.131H1402.433c-20.461,0-37.108-16.647-37.108-37.108v-476.148      c0-20.461,16.647-37.108,37.108-37.108h1250.095c19.885,0,36.171,15.563,37.069,35.43l21.562,476.146      c0.463,10.222-3.176,19.925-10.244,27.32C2693.844,1823.058,2684.321,1827.131,2674.09,1827.131z M1402.433,1286.865      c-14.892,0-27.009,12.116-27.009,27.009v476.148c0,14.894,12.117,27.009,27.009,27.009H2674.09      c7.446,0,14.379-2.964,19.524-8.347s7.794-12.446,7.459-19.886l-21.562-476.146c-0.657-14.461-12.509-25.788-26.983-25.788      H1402.433z"/>
				<path style="opacity:0.25;fill:none;" d="M2693.673,2775.502H1411.406c-22.457,0-40.663-18.205-40.663-40.663V2275.9      c0-22.458,18.205-40.663,40.663-40.663h1264.477c21.844,0,39.786,17.259,40.632,39.087l17.791,458.939      C2735.199,2756.322,2716.749,2775.502,2693.673,2775.502z"/>
				<path style="fill:none;" d="M2693.673,2780.551H1411.407c-25.208,0-45.715-20.507-45.715-45.711v-458.94      c0-25.204,20.507-45.711,45.715-45.711h1264.474c24.659,0,44.725,19.302,45.679,43.941l17.791,458.94      c0.487,12.537-4.037,24.419-12.735,33.459C2717.921,2775.572,2706.221,2780.551,2693.673,2780.551z M1411.407,2240.287      c-19.639,0-35.616,15.975-35.616,35.612v458.94c0,19.637,15.977,35.613,35.616,35.613h1282.266      c9.773,0,18.889-3.879,25.665-10.924c6.779-7.043,10.3-16.301,9.921-26.067l-17.791-458.94      c-0.743-19.197-16.375-34.233-35.586-34.233H1411.407z"/>
				
					<rect x="1765.14" y="1281.779" transform="matrix(0.9999 -0.0166 0.0166 0.9999 -25.5417 29.6264)" style="fill:none;" width="10.1" height="540.34"/>
				
					<rect x="2257.184" y="1281.717" transform="matrix(0.9996 -0.027 0.027 0.9996 -41.0605 61.6193)" style="fill:none;" width="10.096" height="540.462"/>
				
					<rect x="1770.142" y="1440.784" transform="matrix(0.9999 -0.0143 0.0143 0.9999 -20.4713 32.0784)" style="fill:none;" width="920.197" height="10.1"/>
				<rect x="1772.433" y="1651.177" style="fill:none;" width="925.734" height="10.099"/>
				
					<rect x="1498.914" y="2500.32" transform="matrix(0.0124 -0.9999 0.9999 0.0124 -757.9882 4243.3184)" style="fill:none;" width="540.306" height="10.1"/>
				<rect x="1775.8" y="2361.467" style="fill:none;" width="945.931" height="10.099"/>
				<rect x="1769.067" y="2486.021" style="fill:none;" width="956.03" height="10.099"/>
				
					<rect x="2245.428" y="2155.589" transform="matrix(0.0125 -0.9999 0.9999 0.0125 -413.2935 4853.3467)" style="fill:none;" width="10.1" height="960.648"/>
			</g>
			
				<linearGradient id="SVGID_00000079469844576286589140000000613866088725898931_" gradientUnits="userSpaceOnUse" x1="2263.5154" y1="271.6036" x2="1586.9899" y2="1161.5573" fill="#000000">
				<stop offset="0" style="stop-color:#104a4c" fill="#000000"/>
				<stop offset="1" style="stop-color:#052828" fill="#000000"/>
			</linearGradient>
			<path style="fill:url(#SVGID_00000079469844576286589140000000613866088725898931_);" d="M2099.417,491.149     c-53.128-36.961-99.324-36.228-131.843-26.632c-29.665,8.753-48.892,37.394-46.07,68.194l14.024,153.074l166.883,14.81     C2102.411,700.596,2203.61,563.634,2099.417,491.149z M2026.028,614.643c-22.981,0-41.611-18.63-41.611-41.612     c0-22.982,18.63-41.612,41.611-41.612c22.982,0,41.612,18.63,41.612,41.612C2067.64,596.013,2049.01,614.643,2026.028,614.643z"/>
			<path style="fill:#84bebf;" d="M1952.198,621.394c-2.059,0-3.814-1.569-4.005-3.661l-2.234-24.378     c-0.204-2.214,1.428-4.173,3.642-4.377c2.259-0.212,4.176,1.428,4.377,3.646l2.234,24.378c0.205,2.214-1.427,4.172-3.642,4.377     C1952.444,621.39,1952.32,621.394,1952.198,621.394z M1947.821,573.621c-2.059,0-3.814-1.569-4.005-3.661l-1.697-18.506     c-2.69-29.341,15.773-56.661,43.898-64.962c19.918-5.879,40.44-6.721,60.992-2.505c2.178,0.444,3.582,2.576,3.136,4.754     c-0.446,2.175-2.558,3.567-4.753,3.134c-19.252-3.94-38.458-3.158-57.097,2.34c-24.447,7.216-40.496,30.98-38.157,56.507     l1.697,18.506c0.205,2.214-1.427,4.173-3.641,4.377C1948.067,573.617,1947.943,573.621,1947.821,573.621z"/>
			
				<linearGradient id="SVGID_00000042734441680092644570000013197630738903895992_" gradientUnits="userSpaceOnUse" x1="2337.7251" y1="328.0146" x2="1661.1989" y2="1217.969" fill="#000000">
				<stop offset="0" style="stop-color:#104a4c" fill="#000000"/>
				<stop offset="1" style="stop-color:#052828" fill="#000000"/>
			</linearGradient>
			<path style="fill:url(#SVGID_00000042734441680092644570000013197630738903895992_);" d="M1707.764,784.71v-76.961     c0-26.567,22.019-47.845,48.571-46.935l530.612,18.18c23.548,0.806,42.618,19.394,44.029,42.914l4.434,73.948L1707.764,784.71z"/>
			<path style="fill:#84bebf;" d="M1905.615,689.812h-22.819c-2.224,0-4.027-1.801-4.027-4.027c0-2.226,1.803-4.027,4.027-4.027     h22.819c2.224,0,4.027,1.801,4.027,4.027C1909.642,688.011,1907.839,689.812,1905.615,689.812z"/>
			<path style="fill:#84bebf;" d="M1736.483,760.543c-2.224,0-4.027-1.801-4.027-4.027v-31.134c0-24.056,19.57-43.624,43.626-43.624     h83.893c2.224,0,4.027,1.801,4.027,4.027c0,2.226-1.803,4.027-4.027,4.027h-83.893c-19.614,0-35.572,15.958-35.572,35.57v31.134     C1740.51,758.742,1738.707,760.543,1736.483,760.543z"/>
			
				<linearGradient id="SVGID_00000124857280022099979120000006443304561571210646_" gradientUnits="userSpaceOnUse" x1="2252.4709" y1="382.452" x2="1785.3441" y2="1240.192" fill="#000000">
				<stop offset="0" style="stop-color:#56b1b3" fill="#000000"/>
				<stop offset="1" style="stop-color:#56b1b3" fill="#000000"/>
			</linearGradient>
			<path style="fill:url(#SVGID_00000124857280022099979120000006443304561571210646_);" d="M1491.561,804.143     c1.281-26.65,23.261-47.6,49.942-47.601l927.875-0.025c33.364-0.001,61.887,24.009,67.579,56.883l0.785,4.537     c6.233,36.009-21.49,68.944-58.034,68.944h-951.945c-21.87,0-39.299-18.286-38.249-40.131L1491.561,804.143z"/>
		</g>
		<g>
			<g>
				<g>
					
						<linearGradient id="SVGID_00000063633342442597567370000014822193755685622172_" gradientUnits="userSpaceOnUse" x1="2884.9663" y1="-2210.7903" x2="2783.9817" y2="-1822.0004" gradientTransform="matrix(0.9651 -0.2618 0.2618 0.9651 -1163.5303 186.1516)" fill="#000000">
						<stop offset="0" style="stop-color:#f97415" fill="#000000"/>
						<stop offset="1" style="stop-color:#f97415" fill="#000000"/>
					</linearGradient>
					
						<circle style="fill:url(#SVGID_00000063633342442597567370000014822193755685622172_);" cx="1086.872" cy="1467.619" r="132.035"/>
					
						<linearGradient id="SVGID_00000139294949374744410750000006883377612688800921_" gradientUnits="userSpaceOnUse" x1="2884.9661" y1="-2210.7893" x2="2783.9819" y2="-1822.0012" gradientTransform="matrix(0.9651 -0.2618 0.2618 0.9651 -1163.5303 186.1516)" fill="#000000">
						<stop offset="0" style="stop-color:#FF928E" fill="#000000"/>
						<stop offset="1" style="stop-color:#f97415" fill="#000000"/>
					</linearGradient>
					
						<circle style="fill:url(#SVGID_00000139294949374744410750000006883377612688800921_);" cx="1086.872" cy="1467.619" r="127.644"/>
					<path style="opacity:0.58;fill:none;" d="M972.52,1448.124c-0.623,0.169-1.296,0.2-1.973,0.06       c-2.31-0.475-3.797-2.732-3.321-5.038c9.333-45.453,42.93-81.225,87.678-93.365c7.141-1.937,14.467-3.234,21.773-3.855       c2.347-0.2,4.413,1.541,4.614,3.889c0.201,2.351-1.526,4.431-3.892,4.615c-6.794,0.582-13.611,1.788-20.26,3.591       c-41.62,11.291-72.869,44.565-81.552,86.84C975.252,1446.493,974.027,1447.715,972.52,1448.124z"/>
					
						<ellipse transform="matrix(0.7071 -0.7071 0.7071 0.7071 -719.81 1201.3759)" style="opacity:0.78;fill:none;" cx="1090.284" cy="1469.575" rx="108.036" ry="108.035"/>
					<g>
						
							<linearGradient id="SVGID_00000081638044167541056800000000805297754890797464_" gradientUnits="userSpaceOnUse" x1="2889.8765" y1="-2209.5205" x2="2788.8921" y2="-1820.7314" gradientTransform="matrix(0.9651 -0.2618 0.2618 0.9651 -1163.5303 186.1516)" fill="#000000">
							<stop offset="0" style="stop-color:#FF928E" fill="#000000"/>
							<stop offset="1" style="stop-color:#f97415" fill="#000000"/>
						</linearGradient>
						<path style="fill:url(#SVGID_00000081638044167541056800000000805297754890797464_);" d="M1101.08,1549.864l-3.077-11.343        c-11.954,2.735-24.408,3.117-33.702,1.733c-3.318-0.493-5.734-3.413-5.729-6.767l0.015-11.349        c0.005-4.163,3.677-7.311,7.804-6.764c9.178,1.219,20.094,1.192,31.066-1.785c11.39-3.09,18.837-9.255,16.689-17.171        c-1.937-7.142-9.653-9.608-26.636-9.561c-24.262-0.05-43.15-5.497-48.544-25.381c-4.871-17.954,4.539-35.222,26.324-45.069        l-3.078-11.345c-0.99-3.65,1.166-7.412,4.816-8.403l6.665-1.808c3.65-0.99,7.412,1.167,8.402,4.817l2.763,10.186        c11.061-2.531,19.534-2.82,26.458-2.314c3.547,0.259,6.264,3.268,6.264,6.825l0.001,10.491c0,4.046-3.467,7.202-7.494,6.812        c-6.417-0.622-15.267-0.681-25.963,2.22c-13.514,3.666-15.856,10.312-14.494,15.331c1.676,6.177,10.936,8.225,29.97,8.865        c27.139,0.72,40.391,8.317,45.472,27.043c4.661,17.182-3.891,36.083-27.554,46.647l3.444,12.695        c0.99,3.651-1.166,7.412-4.816,8.402l-6.666,1.808C1105.832,1555.671,1102.07,1553.515,1101.08,1549.864z"/>
					</g>
				</g>
				<g>
					
						<linearGradient id="SVGID_00000085946234318476995090000010190626958591904173_" gradientUnits="userSpaceOnUse" x1="3139.166" y1="-2144.7698" x2="3038.1819" y2="-1755.9812" gradientTransform="matrix(0.9651 -0.2618 0.2618 0.9651 -1163.5303 186.1516)" fill="#000000">
						<stop offset="0" style="stop-color:#f97415" fill="#000000"/>
						<stop offset="1" style="stop-color:#f97415" fill="#000000"/>
					</linearGradient>
					
						<circle style="fill:url(#SVGID_00000085946234318476995090000010190626958591904173_);" cx="1345.489" cy="1093.744" r="215.481"/>
					
						<linearGradient id="SVGID_00000036949775292782204260000006920281218196559002_" gradientUnits="userSpaceOnUse" x1="3139.1663" y1="-2144.7695" x2="3038.1819" y2="-1755.9812" gradientTransform="matrix(0.9651 -0.2618 0.2618 0.9651 -1163.5303 186.1516)" fill="#000000">
						<stop offset="0" style="stop-color:#FF928E" fill="#000000"/>
						<stop offset="1" style="stop-color:#f97415" fill="#000000"/>
					</linearGradient>
					
						<circle style="fill:url(#SVGID_00000036949775292782204260000006920281218196559002_);" cx="1345.489" cy="1093.744" r="208.316"/>
					<path style="opacity:0.58;fill:none;" d="M1158.094,1059.066c-0.585,0.158-1.215,0.188-1.849,0.056       c-2.166-0.445-3.56-2.561-3.114-4.723c15.006-73.075,69.019-130.593,140.963-150.11c11.481-3.115,23.259-5.2,35.008-6.193       c2.202-0.189,4.139,1.444,4.326,3.649c0.186,2.201-1.438,4.16-3.65,4.323c-11.27,0.956-22.572,2.957-33.589,5.945       c-69.011,18.721-120.823,73.898-135.221,143.992C1160.655,1057.537,1159.507,1058.683,1158.094,1059.066z"/>
					
						<ellipse transform="matrix(0.7071 -0.7071 0.7071 0.7071 -379.935 1276.6272)" style="opacity:0.78;fill:none;" cx="1351.058" cy="1096.936" rx="176.314" ry="176.313"/>
					<g>
						
							<linearGradient id="SVGID_00000169515673690004960700000002776178388084363666_" gradientUnits="userSpaceOnUse" x1="3147.1758" y1="-2142.6831" x2="3046.1917" y2="-1753.8954" gradientTransform="matrix(0.9651 -0.2618 0.2618 0.9651 -1163.5303 186.1516)" fill="#000000">
							<stop offset="0" style="stop-color:#FF928E" fill="#000000"/>
							<stop offset="1" style="stop-color:#f97415" fill="#000000"/>
						</linearGradient>
						<path style="fill:url(#SVGID_00000169515673690004960700000002776178388084363666_);" d="M1368.676,1227.967l-5.022-18.513        c-19.509,4.463-39.833,5.086-55.001,2.83c-5.416-0.806-9.358-5.569-9.35-11.046l0.025-18.52        c0.009-6.794,6.001-11.932,12.737-11.038c14.978,1.99,32.794,1.945,50.7-2.913c18.589-5.043,30.742-15.106,27.237-28.023        c-3.162-11.656-15.754-15.681-43.47-15.604c-39.596-0.082-70.421-8.971-79.224-41.422        c-7.949-29.302,7.408-57.483,42.96-73.553l-5.023-18.515c-1.616-5.957,1.903-12.097,7.86-13.713l10.877-2.951        c5.958-1.616,12.097,1.903,13.714,7.86l4.51,16.623c18.052-4.13,31.879-4.603,43.179-3.776        c5.79,0.423,10.222,5.333,10.222,11.138l0.001,17.122c0.001,6.602-5.658,11.754-12.23,11.117        c-10.472-1.015-24.916-1.112-42.371,3.623c-22.054,5.983-25.876,16.828-23.653,25.02c2.735,10.081,17.847,13.423,48.91,14.468        c44.292,1.176,65.919,13.574,74.21,44.135c7.607,28.041-6.349,58.886-44.967,76.128l5.62,20.718        c1.616,5.958-1.903,12.097-7.86,13.714l-10.878,2.951C1376.432,1237.444,1370.293,1233.925,1368.676,1227.967z"/>
					</g>
				</g>
				<g>
					
						<linearGradient id="SVGID_00000119833247622714409840000008981697780832127152_" gradientUnits="userSpaceOnUse" x1="3395.502" y1="-2078.187" x2="3294.5176" y2="-1689.3983" gradientTransform="matrix(0.9651 -0.2618 0.2618 0.9651 -1163.5303 186.1516)" fill="#000000">
						<stop offset="0" style="stop-color:#f97415" fill="#000000"/>
						<stop offset="1" style="stop-color:#f97415" fill="#000000"/>
					</linearGradient>
					
						<circle style="fill:url(#SVGID_00000119833247622714409840000008981697780832127152_);" cx="1614.923" cy="1519.334" r="221.727"/>
					
						<linearGradient id="SVGID_00000026859853745208742700000010321144885052767670_" gradientUnits="userSpaceOnUse" x1="3395.5017" y1="-2078.1863" x2="3294.5173" y2="-1689.3977" gradientTransform="matrix(0.9651 -0.2618 0.2618 0.9651 -1163.5303 186.1516)" fill="#000000">
						<stop offset="0" style="stop-color:#FF928E" fill="#000000"/>
						<stop offset="1" style="stop-color:#f97415" fill="#000000"/>
					</linearGradient>
					
						<circle style="fill:url(#SVGID_00000026859853745208742700000010321144885052767670_);" cx="1614.923" cy="1519.334" r="214.354"/>
					<path style="opacity:0.58;fill:none;" d="M1422.066,1483.539c-0.585,0.159-1.214,0.188-1.849,0.057       c-2.166-0.445-3.56-2.561-3.114-4.723c15.431-75.149,70.979-134.299,144.966-154.37c11.806-3.203,23.918-5.347,36.003-6.37       c2.203-0.188,4.14,1.444,4.327,3.649c0.186,2.201-1.428,4.145-3.65,4.323c-11.606,0.987-23.243,3.046-34.584,6.123       c-71.055,19.276-124.401,76.083-139.223,148.253C1424.628,1482.01,1423.479,1483.156,1422.066,1483.539z"/>
					
						<ellipse transform="matrix(0.0106 -0.9999 0.9999 0.0106 80.8695 3126.9739)" style="opacity:0.78;fill:none;" cx="1620.654" cy="1522.62" rx="181.424" ry="181.425"/>
					<g>
						
							<linearGradient id="SVGID_00000134226487667817861250000016206883383914809759_" gradientUnits="userSpaceOnUse" x1="3403.7468" y1="-2076.0525" x2="3302.7627" y2="-1687.2646" gradientTransform="matrix(0.9651 -0.2618 0.2618 0.9651 -1163.5303 186.1516)" fill="#000000">
							<stop offset="0" style="stop-color:#FF928E" fill="#000000"/>
							<stop offset="1" style="stop-color:#f97415" fill="#000000"/>
						</linearGradient>
						<path style="fill:url(#SVGID_00000134226487667817861250000016206883383914809759_);" d="M1638.783,1657.449l-5.168-19.05        c-20.075,4.592-40.988,5.234-56.595,2.911c-5.573-0.829-9.63-5.731-9.621-11.366l0.026-19.057        c0.009-6.991,6.175-12.278,13.105-11.358c15.413,2.047,33.745,2.002,52.171-2.997c19.127-5.189,31.632-15.543,28.026-28.836        c-3.254-11.994-16.21-16.136-44.729-16.056c-40.745-0.084-72.463-9.231-81.521-42.623        c-8.18-30.151,7.623-59.149,44.206-75.685l-5.168-19.051c-1.663-6.13,1.959-12.448,8.089-14.11l11.192-3.036        c6.13-1.663,12.448,1.958,14.11,8.088l4.64,17.105c18.576-4.25,32.804-4.736,44.432-3.885        c5.957,0.435,10.518,5.488,10.519,11.461l0.002,17.617c0,6.794-5.823,12.095-12.584,11.44        c-10.776-1.045-25.638-1.145-43.599,3.728c-22.694,6.156-26.626,17.316-24.34,25.745        c2.814,10.374,18.365,13.812,50.328,14.887c45.575,1.21,67.83,13.967,76.36,45.414c7.827,28.853-6.532,60.593-46.27,78.335        l5.783,21.319c1.663,6.13-1.958,12.448-8.089,14.111l-11.194,3.037C1646.764,1667.201,1640.446,1663.579,1638.783,1657.449z"/>
					</g>
				</g>
				<g>
					
						<linearGradient id="SVGID_00000142177400837496481420000013074603318021629622_" gradientUnits="userSpaceOnUse" x1="3565.0437" y1="-2034.1451" x2="3464.0593" y2="-1645.3558" gradientTransform="matrix(0.9651 -0.2618 0.2618 0.9651 -1163.5303 186.1516)" fill="#000000">
						<stop offset="0" style="stop-color:#f97415" fill="#000000"/>
						<stop offset="1" style="stop-color:#f97415" fill="#000000"/>
					</linearGradient>
					
						<circle style="fill:url(#SVGID_00000142177400837496481420000013074603318021629622_);" cx="1785.48" cy="1090.473" r="177.329"/>
					
						<linearGradient id="SVGID_00000067196565125931654050000005912506090342607266_" gradientUnits="userSpaceOnUse" x1="3565.0471" y1="-2034.1587" x2="3464.0625" y2="-1645.3688" gradientTransform="matrix(0.9651 -0.2618 0.2618 0.9651 -1163.5303 186.1516)" fill="#000000">
						<stop offset="0" style="stop-color:#FF928E" fill="#000000"/>
						<stop offset="1" style="stop-color:#f97415" fill="#000000"/>
					</linearGradient>
					
						<circle style="fill:url(#SVGID_00000067196565125931654050000005912506090342607266_);" cx="1785.48" cy="1090.474" r="171.433"/>
					<path style="opacity:0.58;fill:none;" d="M1631.544,1062.972c-0.638,0.173-1.325,0.205-2.019,0.062       c-2.364-0.486-3.885-2.796-3.399-5.156c12.432-60.536,57.179-108.185,116.776-124.352c9.498-2.577,19.255-4.304,29.002-5.132       c2.401-0.205,4.516,1.577,4.721,3.979c0.203,2.402-1.552,4.544-3.983,4.722c-9.223,0.787-18.459,2.422-27.453,4.862       c-56.396,15.299-98.741,60.391-110.507,117.675C1634.34,1061.303,1633.086,1062.553,1631.544,1062.972z"/>
					
						<ellipse transform="matrix(0.7071 -0.7071 0.7071 0.7071 -248.6413 1585.9279)" style="opacity:0.78;fill:none;" cx="1790.064" cy="1093.1" rx="145.097" ry="145.097"/>
					<g>
						
							<linearGradient id="SVGID_00000158739659466022142780000013474317503374463625_" gradientUnits="userSpaceOnUse" x1="3571.6365" y1="-2032.4316" x2="3470.6523" y2="-1643.6436" gradientTransform="matrix(0.9651 -0.2618 0.2618 0.9651 -1163.5303 186.1516)" fill="#000000">
							<stop offset="0" style="stop-color:#FF928E" fill="#000000"/>
							<stop offset="1" style="stop-color:#f97415" fill="#000000"/>
						</linearGradient>
						<path style="fill:url(#SVGID_00000158739659466022142780000013474317503374463625_);" d="M1804.563,1200.932l-4.133-15.235        c-16.055,3.672-32.781,4.186-45.263,2.328c-4.457-0.663-7.701-4.584-7.695-9.09l0.02-15.241        c0.008-5.591,4.939-9.819,10.481-9.084c12.327,1.637,26.989,1.601,41.724-2.396c15.297-4.15,25.298-12.431,22.414-23.062        c-2.602-9.592-12.964-12.905-35.773-12.841c-32.586-0.068-57.953-7.383-65.197-34.088        c-6.542-24.114,6.096-47.305,35.354-60.529l-4.133-15.237c-1.33-4.903,1.566-9.956,6.468-11.285l8.951-2.429        c4.903-1.33,9.956,1.567,11.286,6.469l3.711,13.68c14.856-3.398,26.235-3.788,35.534-3.107        c4.764,0.348,8.412,4.389,8.413,9.166l0.001,14.09c0,5.433-4.656,9.673-10.065,9.149c-8.618-0.835-20.504-0.915-34.869,2.982        c-18.15,4.924-21.295,13.848-19.466,20.59c2.251,8.297,14.687,11.047,40.251,11.906c36.449,0.968,54.248,11.17,61.07,36.321        c6.26,23.076-5.225,48.46-37.006,62.649l4.625,17.05c1.33,4.903-1.566,9.955-6.469,11.285l-8.952,2.429        C1810.946,1208.731,1805.893,1205.835,1804.563,1200.932z"/>
					</g>
				</g>
			</g>
		</g>
		<g>
			<g>
				<g>
					
						<linearGradient id="SVGID_00000086689371676017743310000000801091623208101028_" gradientUnits="userSpaceOnUse" x1="446.9284" y1="2533.135" x2="1656.2294" y2="2533.135" fill="#000000">
						<stop offset="0" style="stop-color:#104a4c" fill="#000000"/>
						<stop offset="1" style="stop-color:#052828" fill="#000000"/>
					</linearGradient>
					<path style="fill:url(#SVGID_00000086689371676017743310000000801091623208101028_);" d="M466.71,1892.321       c-6.367,227.378-27.016,1011.69-17.159,1289.627c1.044,29.445,27.706,53.078,60.964,54.042       c164.49,4.765,767.501,16.844,1036.551,6.851c56.039-2.082,100.604-42.269,101.766-91.915       c5.592-238.663,17.926-909.929-11.392-1217.436c-3.514-36.844-36.177-66.184-77.734-69.865       c-179.137-15.865-784.741-54.648-1017.185-41.293C500.599,1824.739,467.75,1855.14,466.71,1892.321z"/>
					<path style="fill:#84bebf;" d="M513.953,1992.572v192.694c0,36.952,29.956,66.908,66.908,66.908h920.651       c36.952,0,66.907-29.956,66.907-66.908v-192.694c0-36.952-29.956-66.908-66.907-66.908H580.861       C543.909,1925.665,513.953,1955.62,513.953,1992.572z"/>
					<path style="opacity:0.2;fill:none;" d="M1521.461,1991.467c-8.139-8.416-19.292-13.25-30.998-13.434l-861.468-13.688       c-23.031-0.367-42.462,17.052-44.61,39.984l-17.9,191.12c-1.466,15.649,24.279,28.825,57.101,29.224l846.942,10.262       c32.772,0.397,59.864-12.102,60.135-27.743l3.194-184.298C1534.06,2011.188,1529.601,1999.881,1521.461,1991.467z"/>
				</g>
				
					<linearGradient id="SVGID_00000108283567482014569190000007498203079725693116_" gradientUnits="userSpaceOnUse" x1="339.912" y1="2741.3518" x2="1150.7988" y2="1960.6853" fill="#000000">
					<stop offset="0" style="stop-color:#56b1b3" fill="#000000"/>
					<stop offset="1" style="stop-color:#56b1b3" fill="#000000"/>
				</linearGradient>
				<path style="fill:url(#SVGID_00000108283567482014569190000007498203079725693116_);" d="M744.116,2447.545      c0,33.996-27.559,61.555-61.555,61.555h-74.937c-33.996,0-61.555-27.559-61.555-61.555l0,0      c0-33.996,27.559-61.555,61.555-61.555h74.937C716.557,2385.99,744.116,2413.549,744.116,2447.545L744.116,2447.545z"/>
				
					<linearGradient id="SVGID_00000078014061186398643330000014635167461313596063_" gradientUnits="userSpaceOnUse" x1="473.7971" y1="2880.4194" x2="1284.6836" y2="2099.7532" fill="#000000">
					<stop offset="0" style="stop-color:#56b1b3" fill="#000000"/>
					<stop offset="1" style="stop-color:#56b1b3" fill="#000000"/>
				</linearGradient>
				<path style="fill:url(#SVGID_00000078014061186398643330000014635167461313596063_);" d="M1022.452,2447.545      c0,33.996-27.559,61.555-61.555,61.555H885.96c-33.996,0-61.555-27.559-61.555-61.555l0,0c0-33.996,27.559-61.555,61.555-61.555      h74.937C994.893,2385.99,1022.452,2413.549,1022.452,2447.545L1022.452,2447.545z"/>
				
					<linearGradient id="SVGID_00000097475754175731283160000001581311147319016623_" gradientUnits="userSpaceOnUse" x1="602.5317" y1="3014.1394" x2="1413.4186" y2="2233.4729" fill="#000000">
					<stop offset="0" style="stop-color:#56b1b3" fill="#000000"/>
					<stop offset="1" style="stop-color:#56b1b3" fill="#000000"/>
				</linearGradient>
				<path style="fill:url(#SVGID_00000097475754175731283160000001581311147319016623_);" d="M1290.083,2447.545      c0,33.996-27.559,61.555-61.555,61.555h-74.937c-33.996,0-61.555-27.559-61.555-61.555l0,0      c0-33.996,27.559-61.555,61.555-61.555h74.937C1262.524,2385.99,1290.083,2413.549,1290.083,2447.545L1290.083,2447.545z"/>
				
					<linearGradient id="SVGID_00000045602574765010162090000005048545730742009018_" gradientUnits="userSpaceOnUse" x1="1828.1448" y1="1474.6632" x2="1570.6356" y2="2166.4043" fill="#000000">
					<stop offset="0" style="stop-color:#FF928E" fill="#000000"/>
					<stop offset="1" style="stop-color:#f97415" fill="#000000"/>
				</linearGradient>
				<path style="fill:url(#SVGID_00000045602574765010162090000005048545730742009018_);" d="M1561.38,2456.582      c0,34.547-28.005,62.552-62.552,62.552H1426.4c-34.547,0-62.552-28.006-62.552-62.552l0,0c0-34.546,28.006-62.552,62.552-62.552      h72.428C1533.374,2394.03,1561.38,2422.035,1561.38,2456.582L1561.38,2456.582z"/>
				
					<linearGradient id="SVGID_00000099657930565757709060000007613914445536823711_" gradientUnits="userSpaceOnUse" x1="436.1891" y1="2841.3572" x2="1247.0753" y2="2060.6912" fill="#000000">
					<stop offset="0" style="stop-color:#56b1b3" fill="#000000"/>
					<stop offset="1" style="stop-color:#56b1b3" fill="#000000"/>
				</linearGradient>
				<path style="fill:url(#SVGID_00000099657930565757709060000007613914445536823711_);" d="M744.116,2640.24      c0,33.996-27.559,61.555-61.555,61.555h-74.937c-33.996,0-61.555-27.559-61.555-61.555l0,0      c0-33.996,27.559-61.555,61.555-61.555h74.937C716.557,2578.685,744.116,2606.243,744.116,2640.24L744.116,2640.24z"/>
				
					<linearGradient id="SVGID_00000149371102179706455990000004609775708050025369_" gradientUnits="userSpaceOnUse" x1="570.0743" y1="2980.4246" x2="1380.9602" y2="2199.759" fill="#000000">
					<stop offset="0" style="stop-color:#56b1b3" fill="#000000"/>
					<stop offset="1" style="stop-color:#56b1b3" fill="#000000"/>
				</linearGradient>
				<path style="fill:url(#SVGID_00000149371102179706455990000004609775708050025369_);" d="M1022.452,2640.24      c0,33.996-27.559,61.555-61.555,61.555H885.96c-33.996,0-61.555-27.559-61.555-61.555l0,0c0-33.996,27.559-61.555,61.555-61.555      h74.937C994.893,2578.685,1022.452,2606.243,1022.452,2640.24L1022.452,2640.24z"/>
				
					<linearGradient id="SVGID_00000160181518863064690480000007254063700909743798_" gradientUnits="userSpaceOnUse" x1="698.8103" y1="3114.1433" x2="1509.6965" y2="2333.4775" fill="#000000">
					<stop offset="0" style="stop-color:#56b1b3" fill="#000000"/>
					<stop offset="1" style="stop-color:#56b1b3" fill="#000000"/>
				</linearGradient>
				<path style="fill:url(#SVGID_00000160181518863064690480000007254063700909743798_);" d="M1290.083,2640.24      c0,33.996-27.559,61.555-61.555,61.555h-74.937c-33.996,0-61.555-27.559-61.555-61.555l0,0      c0-33.996,27.559-61.555,61.555-61.555h74.937C1262.524,2578.685,1290.083,2606.243,1290.083,2640.24L1290.083,2640.24z"/>
				
					<linearGradient id="SVGID_00000144313477156864774930000005850291804585926562_" gradientUnits="userSpaceOnUse" x1="832.6954" y1="3253.2109" x2="1643.5817" y2="2472.5449" fill="#000000">
					<stop offset="0" style="stop-color:#56b1b3" fill="#000000"/>
					<stop offset="1" style="stop-color:#56b1b3" fill="#000000"/>
				</linearGradient>
				<path style="fill:url(#SVGID_00000144313477156864774930000005850291804585926562_);" d="M1568.419,2640.24      c0,33.996-27.559,61.555-61.555,61.555h-74.937c-33.996,0-61.555-27.559-61.555-61.555l0,0      c0-33.996,27.559-61.555,61.555-61.555h74.937C1540.86,2578.685,1568.419,2606.243,1568.419,2640.24L1568.419,2640.24z"/>
				<g>
					
						<linearGradient id="SVGID_00000062895410529173247920000001232102043201948815_" gradientUnits="userSpaceOnUse" x1="521.4561" y1="2929.9246" x2="1332.343" y2="2149.2581" fill="#000000">
						<stop offset="0" style="stop-color:#56b1b3" fill="#000000"/>
						<stop offset="1" style="stop-color:#56b1b3" fill="#000000"/>
					</linearGradient>
					<path style="opacity:0.63;fill:url(#SVGID_00000062895410529173247920000001232102043201948815_);" d="M744.116,2810.896       c0,33.996-27.559,61.555-61.555,61.555h-74.937c-33.996,0-61.555-27.559-61.555-61.555l0,0       c0-33.996,27.559-61.555,61.555-61.555h74.937C716.557,2749.341,744.116,2776.9,744.116,2810.896L744.116,2810.896z"/>
					
						<linearGradient id="SVGID_00000154406186939744009260000000474546502942428589_" gradientUnits="userSpaceOnUse" x1="655.3408" y1="3068.9927" x2="1466.2273" y2="2288.3264" fill="#000000">
						<stop offset="0" style="stop-color:#56b1b3" fill="#000000"/>
						<stop offset="1" style="stop-color:#56b1b3" fill="#000000"/>
					</linearGradient>
					<path style="opacity:0.63;fill:url(#SVGID_00000154406186939744009260000000474546502942428589_);" d="M1022.452,2810.896       c0,33.996-27.559,61.555-61.555,61.555H885.96c-33.996,0-61.555-27.559-61.555-61.555l0,0       c0-33.996,27.559-61.555,61.555-61.555h74.937C994.893,2749.341,1022.452,2776.9,1022.452,2810.896L1022.452,2810.896z"/>
					
						<linearGradient id="SVGID_00000098207442185450570300000016326585136784967611_" gradientUnits="userSpaceOnUse" x1="784.0768" y1="3202.7114" x2="1594.9636" y2="2422.0449" fill="#000000">
						<stop offset="0" style="stop-color:#56b1b3" fill="#000000"/>
						<stop offset="1" style="stop-color:#56b1b3" fill="#000000"/>
					</linearGradient>
					<path style="opacity:0.63;fill:url(#SVGID_00000098207442185450570300000016326585136784967611_);" d="M1290.083,2810.896       c0,33.996-27.559,61.555-61.555,61.555h-74.937c-33.996,0-61.555-27.559-61.555-61.555l0,0       c0-33.996,27.559-61.555,61.555-61.555h74.937C1262.524,2749.341,1290.083,2776.9,1290.083,2810.896L1290.083,2810.896z"/>
				</g>
				<g>
					
						<linearGradient id="SVGID_00000000918190563356678390000009754366333976839310_" gradientUnits="userSpaceOnUse" x1="615.0596" y1="3027.1514" x2="1425.9465" y2="2246.4849" fill="#000000">
						<stop offset="0" style="stop-color:#56b1b3" fill="#000000"/>
						<stop offset="1" style="stop-color:#56b1b3" fill="#000000"/>
					</linearGradient>
					<path style="opacity:0.63;fill:url(#SVGID_00000000918190563356678390000009754366333976839310_);" d="M744.116,2998.238       c0,33.996-27.559,61.555-61.555,61.555h-74.937c-33.996,0-61.555-27.559-61.555-61.555l0,0       c0-33.996,27.559-61.555,61.555-61.555h74.937C716.557,2936.683,744.116,2964.242,744.116,2998.238L744.116,2998.238z"/>
					
						<linearGradient id="SVGID_00000073696391080348820920000000599163754018284165_" gradientUnits="userSpaceOnUse" x1="748.9445" y1="3166.219" x2="1559.8311" y2="2385.553" fill="#000000">
						<stop offset="0" style="stop-color:#56b1b3" fill="#000000"/>
						<stop offset="1" style="stop-color:#56b1b3" fill="#000000"/>
					</linearGradient>
					<path style="opacity:0.63;fill:url(#SVGID_00000073696391080348820920000000599163754018284165_);" d="M1022.452,2998.238       c0,33.996-27.559,61.555-61.555,61.555H885.96c-33.996,0-61.555-27.559-61.555-61.555l0,0       c0-33.996,27.559-61.555,61.555-61.555h74.937C994.893,2936.683,1022.452,2964.242,1022.452,2998.238L1022.452,2998.238z"/>
					
						<linearGradient id="SVGID_00000033343597365623293700000014361284909461294262_" gradientUnits="userSpaceOnUse" x1="877.6796" y1="3299.9387" x2="1688.5664" y2="2519.2722" fill="#000000">
						<stop offset="0" style="stop-color:#56b1b3" fill="#000000"/>
						<stop offset="1" style="stop-color:#56b1b3" fill="#000000"/>
					</linearGradient>
					<path style="opacity:0.63;fill:url(#SVGID_00000033343597365623293700000014361284909461294262_);" d="M1290.083,2998.238       c0,33.996-27.559,61.555-61.555,61.555h-74.937c-33.996,0-61.555-27.559-61.555-61.555l0,0       c0-33.996,27.559-61.555,61.555-61.555h74.937C1262.524,2936.683,1290.083,2964.242,1290.083,2998.238L1290.083,2998.238z"/>
				</g>
				
					<linearGradient id="SVGID_00000022533201212535695930000013309552109452958605_" gradientUnits="userSpaceOnUse" x1="1376.2537" y1="3042.2307" x2="1643.1915" y2="2654.4153" fill="#000000">
					<stop offset="0" style="stop-color:#56b1b3" fill="#000000"/>
					<stop offset="1" style="stop-color:#56b1b3" fill="#000000"/>
				</linearGradient>
				<path style="fill:url(#SVGID_00000022533201212535695930000013309552109452958605_);" d="M1541.656,2993.21      c0,43.031-34.884,77.915-77.915,77.915h-4.748c-43.031,0-77.915-34.884-77.915-77.915v-149.269      c0-43.031,34.884-77.916,77.915-77.916h4.748c43.031,0,77.915,34.884,77.915,77.916V2993.21z"/>
			</g>
			<g style="opacity:0.7;">
				<path style="fill:none;" d="M1434.604,2019.335c0,7.391-5.991,13.381-13.381,13.381h-37.468      c-7.391,0-13.382-5.991-13.382-13.381l0,0c0-7.39,5.991-13.382,13.382-13.382h37.468      C1428.613,2005.954,1434.604,2011.945,1434.604,2019.335L1434.604,2019.335z"/>
				<path style="fill:none;" d="M1434.604,2201.324c0,7.39-5.991,13.382-13.381,13.382h-37.468      c-7.391,0-13.382-5.991-13.382-13.382l0,0c0-7.39,5.991-13.381,13.382-13.381h37.468      C1428.613,2187.943,1434.604,2193.934,1434.604,2201.324L1434.604,2201.324z"/>
				<path style="fill:none;" d="M1375.725,2094.272c0,7.391-5.991,13.382-13.382,13.382l0,0c-7.391,0-13.381-5.991-13.381-13.382      v-37.468c0-7.391,5.991-13.382,13.381-13.382l0,0c7.39,0,13.382,5.991,13.382,13.382V2094.272z"/>
				<path style="fill:none;" d="M1375.725,2169.209c0,7.39-5.991,13.382-13.382,13.382l0,0c-7.391,0-13.381-5.991-13.381-13.382      v-37.468c0-7.39,5.991-13.382,13.381-13.382l0,0c7.39,0,13.382,5.991,13.382,13.382V2169.209z"/>
				<path style="fill:none;" d="M1466.719,2094.272c0,7.391-5.991,13.382-13.382,13.382l0,0c-7.391,0-13.381-5.991-13.381-13.382      v-37.468c0-7.391,5.991-13.382,13.381-13.382l0,0c7.391,0,13.382,5.991,13.382,13.382V2094.272z"/>
				<path style="fill:none;" d="M1466.719,2169.209c0,7.39-5.991,13.382-13.382,13.382l0,0c-7.391,0-13.381-5.991-13.381-13.382      v-37.468c0-7.39,5.991-13.382,13.381-13.382l0,0c7.391,0,13.382,5.991,13.382,13.382V2169.209z"/>
			</g>
		</g>
		<g>
			<g>
				<g>
					
						<linearGradient id="SVGID_00000029030321407927786670000014987508419900951458_" gradientUnits="userSpaceOnUse" x1="-2748.0479" y1="3243.6377" x2="-2609.9194" y2="3243.6377" gradientTransform="matrix(-1 0 0 1 83.0112 0)" fill="#000000">
						<stop offset="0" style="stop-color:#56b1b3" fill="#000000"/>
						<stop offset="1" style="stop-color:#56b1b3" fill="#000000"/>
					</linearGradient>
					<path style="fill:url(#SVGID_00000029030321407927786670000014987508419900951458_);" d="M2696.831,3236.957       c23.663,2.045,64.731,5.368,97.108,6.793c19.462,0.857,30.667-1.049,37.12-3.633c-0.011,0.728-0.031,1.415-0.06,2.053       c-0.153,3.407-2.921,6.133-6.363,6.325c-61.177,3.414-109.831,1.182-127.152,0.127c-3.581-0.218-5.716-4.11-3.885-7.164       C2694.516,3239.932,2695.626,3238.436,2696.831,3236.957z"/>
					
						<linearGradient id="SVGID_00000121242473803501448440000003245041568862337933_" gradientUnits="userSpaceOnUse" x1="-2748.0557" y1="3216.5662" x2="-2613.8201" y2="3216.5662" gradientTransform="matrix(-1 0 0 1 83.0112 0)" fill="#000000">
						<stop offset="0" style="stop-color:#104a4c" fill="#000000"/>
						<stop offset="1" style="stop-color:#052828" fill="#000000"/>
					</linearGradient>
					<path style="fill:url(#SVGID_00000121242473803501448440000003245041568862337933_);" d="M2793.939,3243.75       c-32.377-1.425-73.445-4.747-97.108-6.793c23.264-28.543,97.108-47.782,97.108-47.782h20.855       c14.344,20.677,16.421,40.363,16.264,50.942C2824.606,3242.7,2813.401,3244.606,2793.939,3243.75z"/>
					
						<linearGradient id="SVGID_00000085973567962606618370000013753781768682830752_" gradientUnits="userSpaceOnUse" x1="-2735.2952" y1="3178.771" x2="-2696.3872" y2="3178.771" gradientTransform="matrix(-1 0 0 1 83.0112 0)" fill="#000000">
						<stop offset="0" style="stop-color:#febbba" fill="#000000"/>
						<stop offset="1" style="stop-color:#FF928E" fill="#000000"/>
					</linearGradient>
					<path style="fill:url(#SVGID_00000085973567962606618370000013753781768682830752_);" d="M2818.306,3155.127l-1.952,38.621       c-0.211,4.182-3.342,7.697-7.53,8.296c-4.167,0.596-9.748,0.672-15.667-1.298c-3.641-1.212-6.344-4.28-7.016-8.022       l-6.744-37.596H2818.306z"/>
				</g>
				<g>
					<g>
						
							<linearGradient id="SVGID_00000183230467946593468380000006785646446437933447_" gradientUnits="userSpaceOnUse" x1="-3023.4182" y1="3240.6589" x2="-2970.4854" y2="3240.6589" gradientTransform="matrix(-1 0 0 1 83.0112 0)" fill="#000000">
							<stop offset="0" style="stop-color:#56b1b3" fill="#000000"/>
							<stop offset="1" style="stop-color:#56b1b3" fill="#000000"/>
						</linearGradient>
						<path style="fill:url(#SVGID_00000183230467946593468380000006785646446437933447_);" d="M3089.193,3243.46        c10.261-1.431,14.904-6.762,16.851-12.461c0.013,0.051,0.026,0.103,0.039,0.153c1.51,6.011-1.99,12.242-8.987,15.205        c-8.458,3.581-17.704,4.192-24.883,3.896c-7.702-0.318-14.772-3.505-18.658-8.606l-0.058-0.076        C3061.227,3245.396,3072.08,3245.847,3089.193,3243.46z"/>
						
							<linearGradient id="SVGID_00000034053348570658247410000014504508268585460097_" gradientUnits="userSpaceOnUse" x1="-3023.0332" y1="3199.9019" x2="-2945.3376" y2="3199.9019" gradientTransform="matrix(-1 0 0 1 83.0112 0)" fill="#000000">
							<stop offset="0" style="stop-color:#104a4c" fill="#000000"/>
							<stop offset="1" style="stop-color:#052828" fill="#000000"/>
						</linearGradient>
						<path style="fill:url(#SVGID_00000034053348570658247410000014504508268585460097_);" d="M3040.811,3154.88h17.199        c26.198-0.535,42.649,54.721,48.034,76.119c-1.947,5.699-6.59,11.03-16.851,12.461c-17.114,2.387-27.966,1.936-35.697-1.889        c-14.154-18.625-21.171-45.904-24.544-61.823C3025.117,3161.643,3040.811,3154.88,3040.811,3154.88z"/>
					</g>
					
						<linearGradient id="SVGID_00000173141477945356386310000001781117972403618958_" gradientUnits="userSpaceOnUse" x1="-2982.6484" y1="3146.3359" x2="-2936.1494" y2="3146.3359" gradientTransform="matrix(-1 0 0 1 83.0112 0)" fill="#000000">
						<stop offset="0" style="stop-color:#febbba" fill="#000000"/>
						<stop offset="1" style="stop-color:#FF928E" fill="#000000"/>
					</linearGradient>
					<path style="fill:url(#SVGID_00000173141477945356386310000001781117972403618958_);" d="M3055.799,3119.033l9.551,37.985       c1.171,4.657-1.058,9.475-5.364,11.685c-5.342,2.741-12.865,5.623-19.778,4.789c-3.251-0.393-5.952-2.682-7.026-5.744       l-14.021-39.965L3055.799,3119.033z"/>
				</g>
				
					<linearGradient id="SVGID_00000172410810651002343780000008302086579889999783_" gradientUnits="userSpaceOnUse" x1="2259.3469" y1="3858.6416" x2="2966.2722" y2="2754.4937" fill="#000000">
					<stop offset="0" style="stop-color:#56b1b3" fill="#000000"/>
					<stop offset="1" style="stop-color:#56b1b3" fill="#000000"/>
				</linearGradient>
				<path style="fill:url(#SVGID_00000172410810651002343780000008302086579889999783_);" d="M3067.191,3130.013      c-11.883,10.54-50.531,11.932-50.531,11.932c-139.219-334.14-196.169-381.609-196.169-381.609      c20.103,126.119,3.241,405.333,3.241,405.333c-22.974,10.137-52.592,0-52.592,0c-1.866-206.475-33.602-386.541-71.094-528.5      c94.095-2.115,144.135-34.314,160.473-47.238C2938.955,2716.383,3067.191,3130.013,3067.191,3130.013z"/>
				
					<linearGradient id="SVGID_00000148637697100295711010000006777482053368258483_" gradientUnits="userSpaceOnUse" x1="-332.8573" y1="-6563.3184" x2="-433.8416" y2="-6174.5298" gradientTransform="matrix(-1 0 0 1 83.0112 0)" fill="#000000">
					<stop offset="0" style="stop-color:#FF928E" fill="#000000"/>
					<stop offset="1" style="stop-color:#f97415" fill="#000000"/>
				</linearGradient>
				<path style="fill:url(#SVGID_00000148637697100295711010000006777482053368258483_);" d="M2836.623,2205.668      c17.81,88.837,11.427,247.84,7.235,320.366c-1.178,20.385,13.052,48.644,24.553,67.923c1.804,3.024,0.691,6.896-2.441,8.505      c-19.257,9.897-84.494,40.571-160.103,44.387c-5.042,0.254-9.543-3.18-10.849-8.055      c-56.085-209.414-121.228-343.231-121.228-343.231C2645.71,2180.713,2836.623,2205.668,2836.623,2205.668z"/>
				
					<linearGradient id="SVGID_00000132798679571652705450000010528824846328108983_" gradientUnits="userSpaceOnUse" x1="-2825.9529" y1="2974.1357" x2="-2803.6719" y2="2929.5737" gradientTransform="matrix(-1 0 0 1 83.0112 0)" fill="#000000">
					<stop offset="0" style="stop-color:#56b1b3" fill="#000000"/>
					<stop offset="1" style="stop-color:#56b1b3" fill="#000000"/>
				</linearGradient>
				<path style="fill:url(#SVGID_00000132798679571652705450000010528824846328108983_);" d="M2810.991,2752.424      c0.79,0,1.591-0.213,2.316-0.653c2.101-1.284,2.767-4.023,1.489-6.122c-0.749-1.232-18.758-30.34-55.2-47.922      c-2.214-1.062-4.881-0.144-5.954,2.077c-1.069,2.216-0.139,4.885,2.079,5.952c33.974,16.393,51.288,44.251,51.46,44.53      C2808.021,2751.662,2809.489,2752.424,2810.991,2752.424z"/>
				<g>
					
						<linearGradient id="SVGID_00000031207067282082400280000018050300739142037380_" gradientUnits="userSpaceOnUse" x1="-2769.6155" y1="2468.5544" x2="-2935.1438" y2="2615.1333" gradientTransform="matrix(-1 0 0 1 83.0112 0)" fill="#000000">
						<stop offset="0" style="stop-color:#febbba" fill="#000000"/>
						<stop offset="1" style="stop-color:#FF928E" fill="#000000"/>
					</linearGradient>
					<path style="fill:url(#SVGID_00000031207067282082400280000018050300739142037380_);" d="M2948.337,2460.631       c-5.721,41.385-22.623,86.526-56.436,134.475l-12.853-10.479c0,0,14.837-60.2,6.403-128.522       C2906.308,2452.037,2930.942,2456.231,2948.337,2460.631z"/>
					
						<linearGradient id="SVGID_00000062913079265573095150000008509033653478171830_" gradientUnits="userSpaceOnUse" x1="-474.4008" y1="-6600.0771" x2="-575.385" y2="-6211.2886" gradientTransform="matrix(-1 0 0 1 83.0112 0)" fill="#000000">
						<stop offset="0" style="stop-color:#FF928E" fill="#000000"/>
						<stop offset="1" style="stop-color:#f97415" fill="#000000"/>
					</linearGradient>
					<path style="fill:url(#SVGID_00000062913079265573095150000008509033653478171830_);" d="M2816.73,2315.282l19.893-109.614       c0,0,132.913,101.597,111.714,254.962c-17.395-4.4-42.029-8.594-62.886-4.525       C2879.374,2406.89,2861.223,2353.461,2816.73,2315.282z"/>
				</g>
				<g>
					
						<linearGradient id="SVGID_00000055679259794419731670000017408157037979659189_" gradientUnits="userSpaceOnUse" x1="-168.2478" y1="-6520.5576" x2="-269.2319" y2="-6131.7695" gradientTransform="matrix(-1 0 0 1 83.0112 0)" fill="#000000">
						<stop offset="0" style="stop-color:#FF928E" fill="#000000"/>
						<stop offset="1" style="stop-color:#f97415" fill="#000000"/>
					</linearGradient>
					<path style="fill:url(#SVGID_00000055679259794419731670000017408157037979659189_);" d="M2573.789,2295.563l51.304,110.491       c-8.295,66.707-44.13,95.55-82.768,106.613c-2.41-30.402-10.097-54.964-17.23-71.953       C2574.465,2389.742,2573.789,2295.563,2573.789,2295.563z"/>
					
						<linearGradient id="SVGID_00000179606579221318402580000012929855198679060143_" gradientUnits="userSpaceOnUse" x1="-2459.3142" y1="2482.4192" x2="-2328.9539" y2="2482.4192" gradientTransform="matrix(-1 0 0 1 83.0112 0)" fill="#000000">
						<stop offset="0" style="stop-color:#febbba" fill="#000000"/>
						<stop offset="1" style="stop-color:#FF928E" fill="#000000"/>
					</linearGradient>
					<path style="fill:url(#SVGID_00000179606579221318402580000012929855198679060143_);" d="M2525.095,2440.714       c7.133,16.99,14.82,41.552,17.23,71.953c-103.087,39.997-130.36-37.571-130.36-37.571l19.052-3.361       C2474.04,2476.268,2504.094,2462.397,2525.095,2440.714z"/>
				</g>
				
					<linearGradient id="SVGID_00000175321348751374406330000009270789980681504696_" gradientUnits="userSpaceOnUse" x1="-2586.0273" y1="2134.0498" x2="-2587.4512" y2="2377.4875" gradientTransform="matrix(-1 0 0 1 83.0112 0)" fill="#000000">
					<stop offset="0" style="stop-color:#febbba" fill="#000000"/>
					<stop offset="1" style="stop-color:#FF928E" fill="#000000"/>
				</linearGradient>
				<path style="fill:url(#SVGID_00000175321348751374406330000009270789980681504696_);" d="M2621.058,2159.153l24.768,91.051      c2.782,10.228,13.846,15.721,23.689,11.786c10.622-4.246,24.098-10.042,35.699-16.306c12.383-6.686,16.257-22.615,8.419-34.303      l-51.494-76.781L2621.058,2159.153z"/>
			</g>
			<g>
				
					<linearGradient id="SVGID_00000080207288093079249520000014672158493997725863_" gradientUnits="userSpaceOnUse" x1="-2854.3848" y1="3200.3179" x2="-2974.2161" y2="3358.845" gradientTransform="matrix(-0.9897 -0.1428 -0.1428 0.9897 222.066 -1480.9402)" fill="#000000">
					<stop offset="0" style="stop-color:#febbba" fill="#000000"/>
					<stop offset="1" style="stop-color:#FF928E" fill="#000000"/>
				</linearGradient>
				<path style="fill:url(#SVGID_00000080207288093079249520000014672158493997725863_);" d="M2566.871,2089.977      c-0.226,1.563,20.658,103.903,20.658,103.903l58.181-13.167l-5.383-99.938C2640.327,2080.776,2570.647,2063.8,2566.871,2089.977      z"/>
				
					<linearGradient id="SVGID_00000134210973871438763410000018252598861664316047_" gradientUnits="userSpaceOnUse" x1="-2945.9019" y1="3238.5583" x2="-2802.7615" y2="3238.5583" gradientTransform="matrix(-0.9897 -0.1428 -0.1428 0.9897 222.066 -1480.9402)" fill="#000000">
					<stop offset="0" style="stop-color:#104a4c" fill="#000000"/>
					<stop offset="1" style="stop-color:#052828" fill="#000000"/>
				</linearGradient>
				<path style="fill:url(#SVGID_00000134210973871438763410000018252598861664316047_);" d="M2627.241,2103.045l6.953,52.387      c0.089,0.672,0.089,1.335-0.008,2.006c-0.587,4.106-3.641,18.086-17.754,14.088c-12.806-3.627-24.546-6.747-32.656-4.266      c-3.641,1.114-5.838,4.802-5.076,8.533c1.9,9.298,6.569,30.17,13.391,47.686c1.385,3.554,5.277,5.42,8.939,4.353      c11.034-3.217,34.117-10.653,51.285-20.984c2.326-1.4,3.712-3.93,3.598-6.643c-0.558-13.225-2.105-53.427-0.803-64.696      c1.222-10.577,14.203-16.914,19.843-19.186c1.849-0.745,3.299-2.202,4.037-4.053c2.612-6.545,6.212-21.69-12.874-27.897      c-3.995-1.299-6.1-5.605-4.68-9.559c2.826-7.87,4.019-19.88-10.747-26.497c-15.008-6.726-26.216,1.274-32.268,7.776      c-2.447,2.629-6.374,3.03-9.41,1.111c-1.729-1.092-3.955-1.45-6.646,0.226c-3.625,2.259-8.426,0.719-10.297-3.121      c-3.594-7.377-10.918-15.278-25.611-12.762c-26.072,4.465-29.025,33.356-22.147,50.285c6.877,16.93,34.869,10.482,48.911,1.947      c10.677-6.49,24.526,0.312,30.551,3.946C2625.685,2098.876,2626.948,2100.836,2627.241,2103.045z"/>
				
					<linearGradient id="SVGID_00000107564019960155378600000010926162511541985155_" gradientUnits="userSpaceOnUse" x1="-3029.8904" y1="3325.8586" x2="-2933.7759" y2="3227.248" gradientTransform="matrix(-0.9897 -0.1428 -0.1428 0.9897 222.066 -1480.9402)" fill="#000000">
					<stop offset="0" style="stop-color:#febbba" fill="#000000"/>
					<stop offset="1" style="stop-color:#FF928E" fill="#000000"/>
				</linearGradient>
				<path style="fill:url(#SVGID_00000107564019960155378600000010926162511541985155_);" d="M2657.454,2154.608      c0,0-10.718-30.014,0.293-37.364s27.321-3.534,23.73,18.208C2677.011,2162.498,2657.454,2154.608,2657.454,2154.608z"/>
			</g>
			
				<linearGradient id="SVGID_00000001641393706812450300000004558433090880150657_" gradientUnits="userSpaceOnUse" x1="-2342.8035" y1="2467.1091" x2="-2296.1204" y2="2467.1091" gradientTransform="matrix(-1 0 0 1 83.0112 0)" fill="#000000">
				<stop offset="0" style="stop-color:#febbba" fill="#000000"/>
				<stop offset="1" style="stop-color:#FF928E" fill="#000000"/>
			</linearGradient>
			<path style="fill:url(#SVGID_00000001641393706812450300000004558433090880150657_);" d="M2419.607,2489.289     c-5.189,4.054-22.966-4.409-33.844-10.261c-5.302-2.851-7.869-9.051-6.049-14.789c2.618-8.256,6.98-18.912,12.354-20.255     C2400.985,2441.755,2440.99,2472.584,2419.607,2489.289z"/>
			<g>
				<g>
					
						<linearGradient id="SVGID_00000071555146235204359700000010617348084587327132_" gradientUnits="userSpaceOnUse" x1="-2091.5354" y1="2243.2424" x2="-3595.1584" y2="3340.1094" gradientTransform="matrix(-1 0 0 1 83.0112 0)" fill="#000000">
						<stop offset="0" style="stop-color:#f97415" fill="#000000"/>
						<stop offset="1" style="stop-color:#f97415" fill="#000000"/>
					</linearGradient>
					<path style="fill:url(#SVGID_00000071555146235204359700000010617348084587327132_);" d="M3235.515,2728.318L2198.863,2359.63       l-54.846,152.35l1036.293,378.987c22.01,8.05,46.574-0.878,58.369-21.13c12.114-20.803,23.69-53.307,24.388-101.992       C3263.321,2750.145,3252.194,2734.25,3235.515,2728.318z"/>
					<g>
						
							<linearGradient id="SVGID_00000172428263312793353790000005853791018222154670_" gradientUnits="userSpaceOnUse" x1="1870.0573" y1="2366.2432" x2="2021.3512" y2="2366.2432" fill="#000000">
							<stop offset="0" style="stop-color:#f97415" fill="#000000"/>
							<stop offset="1" style="stop-color:#f97415" fill="#000000"/>
						</linearGradient>
						<path style="fill:url(#SVGID_00000172428263312793353790000005853791018222154670_);" d="M1878.155,2320.254l143.196,17.581        c-0.151,19.709-6.605,45.206-28.45,74.458l-119.587-78.887C1866.965,2329.218,1870.606,2319.327,1878.155,2320.254z"/>
						
							<linearGradient id="SVGID_00000041991905434251470350000012649138756835731602_" gradientUnits="userSpaceOnUse" x1="270.8918" y1="-6406.5098" x2="169.9077" y2="-6017.7212" gradientTransform="matrix(-1 0 0 1 83.0112 0)" fill="#000000">
							<stop offset="0" style="stop-color:#febbba" fill="#000000"/>
							<stop offset="1" style="stop-color:#FF928E" fill="#000000"/>
						</linearGradient>
						<path style="fill:url(#SVGID_00000041991905434251470350000012649138756835731602_);" d="M2198.863,2359.63        c6.56,95.478-54.846,152.35-54.846,152.35l-151.117-99.687c21.845-29.252,28.299-54.75,28.45-74.458L2198.863,2359.63z"/>
					</g>
				</g>
				
					<linearGradient id="SVGID_00000031928274106317214160000001912078188270321827_" gradientUnits="userSpaceOnUse" x1="-2312.8486" y1="2256.6724" x2="-2974.6411" y2="2936.7974" gradientTransform="matrix(-1 0 0 1 83.0112 0)" fill="#000000">
					<stop offset="0" style="stop-color:#febbba" fill="#000000"/>
					<stop offset="1" style="stop-color:#FF928E" fill="#000000"/>
				</linearGradient>
				<path style="fill:url(#SVGID_00000031928274106317214160000001912078188270321827_);" d="M3222.655,2775.037      c1.256,0,2.431-0.78,2.871-2.033c0.563-1.586-0.271-3.327-1.857-3.886l-991.798-350.509c-1.592-0.559-3.33,0.271-3.886,1.857      c-0.562,1.586,0.271,3.327,1.857,3.886l991.798,350.509C3221.977,2774.98,3222.319,2775.037,3222.655,2775.037z"/>
				
					<linearGradient id="SVGID_00000049194970022086047190000005991754648064635569_" gradientUnits="userSpaceOnUse" x1="-2295.7383" y1="2316.4407" x2="-2957.5322" y2="2996.5671" gradientTransform="matrix(-1 0 0 1 83.0112 0)" fill="#000000">
					<stop offset="0" style="stop-color:#febbba" fill="#000000"/>
					<stop offset="1" style="stop-color:#FF928E" fill="#000000"/>
				</linearGradient>
				<path style="fill:url(#SVGID_00000049194970022086047190000005991754648064635569_);" d="M3205.545,2834.807      c1.256,0,2.431-0.78,2.872-2.032c0.562-1.585-0.271-3.326-1.857-3.886l-991.798-350.512c-1.592-0.559-3.327,0.268-3.886,1.857      c-0.563,1.586,0.271,3.327,1.857,3.886l991.798,350.512C3204.867,2834.75,3205.21,2834.807,3205.545,2834.807z"/>
			</g>
			
				<linearGradient id="SVGID_00000103979787424241907020000013504629115878146488_" gradientUnits="userSpaceOnUse" x1="-2704.248" y1="2542.3723" x2="-2869.7764" y2="2688.9514" gradientTransform="matrix(-1 0 0 1 83.0112 0)" fill="#000000">
				<stop offset="0" style="stop-color:#febbba" fill="#000000"/>
				<stop offset="1" style="stop-color:#FF928E" fill="#000000"/>
			</linearGradient>
			<path style="fill:url(#SVGID_00000103979787424241907020000013504629115878146488_);" d="M2884.348,2582.803l-59.998-4.89     l-25.984,23.952c0,0,6.147,8.498,25.366,3.614s45.545-6.083,45.545-6.083s26.531,11.961,26.854-10.419L2884.348,2582.803z"/>
		</g>
	</g>
</g>
</svg>
