<?xml version="1.0"?>
<svg xmlns="http://www.w3.org/2000/svg" xmlns:xlink="http://www.w3.org/1999/xlink" version="1.1" x="0px" y="0px" viewBox="0 0 3710 3710" style="enable-;background-color:transparent;" xml:space="preserve">
<g id="Background">
	<g>
		<g>
			<rect style="fill:none;" width="3710" height="3710" fill="none"/>
		</g>
	</g>
</g>
<g id="Illustration">
	<g>
		<linearGradient id="SVGID_1_" gradientUnits="userSpaceOnUse" x1="3332.2576" y1="3563.447" x2="1353.3154" y2="1427.4458" fill="#56b1b3">
			<stop offset="0" style="stop-color:#56b1b3" fill="#56b1b3"/>
			<stop offset="1" style="stop-color:#ffffff" fill="#56b1b3"/>
		</linearGradient>
		<path style="fill:url(#SVGID_1_);" d="M3063.625,2343.618c-273.541,632.295-995.599,903.88-1561.343,857.574    c-154.471-12.643-465.27-38.082-707.946-265.032c-466.04-435.844-394.266-1346.878,51.869-1883.245    c57.453-69.073,455.133-531.854,1074.843-525.66c453.718,4.536,772.178,257.999,810.902,289.576    c48.918,39.89,156.812,134.681,254.051,285.061C3214.477,1455.232,3234.56,1948.497,3063.625,2343.618z"/>
		<g>
			<path style="fill:#425454;" d="M2878.863,957.672c16.819-26.679,58.159-11.644,53.964,19.613     c-21.622,161.109-47.314,442.321,3.356,626.111c74.503,270.238,208.426,1065.138-546.915,1266.374     C2389.268,2869.771,2461.209,1620.168,2878.863,957.672z"/>
			<path style="fill:#56b1b3;" d="M2815.081,1291.651c0,0-0.697,1.505-1.851,4.394c-1.169,2.882-2.855,7.276-4.804,13.052     c-4.026,11.521-9.007,28.771-14.032,50.993c-4.978,22.227-9.948,49.475-13.399,81.005c-3.473,31.505-6.123,67.209-6.244,106.226     c-0.59,19.49,0.574,39.817,0.835,60.818c0.445,10.501,1.185,21.176,1.774,32.01c0.314,5.416,0.629,10.874,0.948,16.371     c0.414,5.492,1.017,11.016,1.522,16.579c1.055,11.122,2.125,22.396,3.208,33.808c0.556,5.415,1.409,11.417,2.095,17.152     c0.709,5.796,1.342,11.694,2.211,17.431c3.143,23.048,6.93,46.885,10.963,71.062c3.992,24.198,8.323,48.837,12.272,73.909     c1.928,12.552,3.934,25.158,5.703,37.911c0.908,6.368,1.818,12.751,2.731,19.15c0.823,6.421,1.646,12.857,2.473,19.306     c1.763,12.874,3.011,25.907,4.469,38.938c1.397,13.044,2.321,26.203,3.505,39.347c0.748,13.2,1.621,26.414,2.009,39.68     l0.441,19.918l0.2,9.965l-0.118,9.978c-0.321,53.189-4.875,106.563-14.893,158.153c-10.059,51.572-25.314,101.24-44.44,147.383     c-2.376,5.774-4.741,11.524-7.097,17.251c-2.67,5.583-5.329,11.141-7.975,16.673c-5.343,11.032-10.301,22.123-16.292,32.535     c-5.812,10.496-11.27,21.042-17.193,31.146c-6.136,9.971-12.196,19.823-18.176,29.542     c-24.831,38.251-50.681,72.789-76.62,102.773c-6.435,7.536-12.735,14.914-18.893,22.127     c-6.512,6.885-12.874,13.611-19.075,20.169c-6.202,6.547-12.243,12.923-18.117,19.123c-6.134,5.936-12.093,11.702-17.866,17.29     c-22.699,22.743-44.232,40.662-61.434,55.934c-8.497,7.759-16.791,13.87-23.701,19.529c-6.977,5.576-12.912,10.318-17.724,14.164     c-9.616,7.683-14.744,11.781-14.744,11.781c-0.729,0.581-1.791,0.464-2.373-0.265c-0.557-0.698-0.473-1.699,0.173-2.295     l0.053-0.048c0,0,4.828-4.431,13.882-12.74c4.523-4.151,10.1-9.272,16.658-15.291c3.276-3.006,6.797-6.238,10.554-9.686     c1.86-1.742,3.853-3.458,5.798-5.341c1.93-1.899,3.916-3.852,5.957-5.859c8.157-8.021,17.186-16.904,27.017-26.572     c2.456-2.415,4.961-4.879,7.516-7.391c2.541-2.524,4.963-5.265,7.525-7.959c5.1-5.408,10.383-11.011,15.841-16.799     c5.448-5.788,11.069-11.762,16.857-17.912c5.512-6.393,11.181-12.971,17-19.722c5.812-6.744,11.775-13.662,17.877-20.743     c5.799-7.322,11.732-14.814,17.792-22.466c3.028-3.823,6.087-7.685,9.177-11.585c1.545-1.95,3.098-3.91,4.657-5.878     c1.462-2.042,2.932-4.093,4.408-6.156c5.9-8.239,11.91-16.635,18.024-25.175c6.311-8.398,11.823-17.548,17.731-26.62     c2.944-4.54,5.911-9.115,8.898-13.725c1.496-2.3,2.999-4.61,4.507-6.928c1.439-2.359,2.79-4.783,4.196-7.183     c5.577-9.627,11.23-19.384,16.954-29.261c5.506-9.99,10.532-20.39,15.914-30.735c5.562-10.26,10.074-21.161,14.972-31.992     c2.424-5.427,4.859-10.877,7.305-16.353c2.18-5.585,4.37-11.194,6.57-16.826c17.797-44.958,31.742-93.118,40.651-143.034     c9.094-49.883,13.455-101.433,13.427-153.104c0.013-51.677-3.964-103.436-10.083-154.289c-0.774-6.359-1.547-12.704-2.317-19.034     c-0.863-6.33-1.724-12.646-2.583-18.945c-1.666-12.598-3.583-25.142-5.417-37.608c-3.717-25.01-7.389-49.718-11-74.018     c-3.597-24.393-6.959-48.375-9.759-72.274c-1.444-11.973-2.473-23.277-3.499-35.166c-0.742-11.638-1.476-23.134-2.198-34.476     c-0.337-5.671-0.773-11.293-1.021-16.889c-0.151-5.603-0.301-11.166-0.449-16.686c-0.261-11.041-0.672-21.903-0.791-32.594     c0.266-21.398,0.255-42.056,1.619-61.869c0.266-4.951,0.528-9.851,0.789-14.698c0.13-2.422,0.259-4.832,0.388-7.228     c0.213-2.392,0.423-4.771,0.633-7.135c0.863-9.453,1.705-18.688,2.527-27.691c0.861-8.995,2.282-17.711,3.356-26.199     c0.581-4.24,1.152-8.417,1.715-12.534c0.711-4.098,1.41-8.134,2.099-12.105c1.452-7.931,2.543-15.644,4.164-23.004     c1.566-7.361,3.075-14.457,4.525-21.276c3.397-13.532,6.404-25.968,9.862-37.016c6.478-22.202,13.058-39.175,18.041-50.521     c2.448-5.698,4.491-9.968,5.946-12.865c1.443-2.907,2.243-4.319,2.243-4.319l0.02-0.035c0.459-0.812,1.491-1.097,2.302-0.637     C2815.151,1289.906,2815.445,1290.861,2815.081,1291.651z"/>
		</g>
		<g>
			<path style="fill:#56b1b3;" d="M2511.117,2864.813c0,0,339.231,117.449,592.671-253.686     c238.069-348.625,95.021-784.516-10.013-1033.548c-5.471-12.972-24.532-10.56-26.624,3.362     c-31.512,209.668-178.09,1029.543-574.153,1283.221L2511.117,2864.813z"/>
			
				<linearGradient id="SVGID_00000135688851279938102820000014123433084546353848_" gradientUnits="userSpaceOnUse" x1="2545.1411" y1="2479.781" x2="3094.2432" y2="2479.781" fill="#56b1b3">
				<stop offset="0" style="stop-color:#56b1b3" fill="#56b1b3"/>
				<stop offset="1" style="stop-color:#ffffff" fill="#56b1b3"/>
			</linearGradient>
			<path style="fill:url(#SVGID_00000135688851279938102820000014123433084546353848_);" d="M2546.547,2869.534     c0,0,0.987-0.193,2.902-0.569c1.894-0.37,4.713-1,8.392-1.858c7.334-1.785,18.09-4.481,31.525-8.774     c6.771-1.948,14.127-4.588,22.185-7.246c7.951-3,16.644-5.954,25.685-9.775c18.245-7.198,38.343-16.517,59.687-27.688     c21.448-10.995,43.757-24.589,66.695-39.833c11.224-7.999,22.923-15.954,34.189-25.021c2.856-2.212,5.727-4.437,8.612-6.672     l4.336-3.362l4.188-3.592c5.595-4.798,11.244-9.64,16.94-14.522c22.182-20.181,44.326-41.952,64.468-66.146     c2.553-2.991,5.111-5.989,7.673-8.992l3.846-4.507l3.597-4.723c4.79-6.307,9.595-12.633,14.409-18.971     c4.978-6.217,9.257-12.961,13.734-19.569l13.365-19.882l12.25-20.598l6.129-10.279c1.002-1.722,2.084-3.397,3.02-5.156     l2.75-5.306c3.666-7.068,7.324-14.121,10.973-21.154c1.825-3.516,3.647-7.027,5.466-10.531c1.616-3.606,3.229-7.205,4.838-10.798     c3.206-7.188,6.4-14.35,9.577-21.474c1.546-3.582,3.274-7.073,4.658-10.701c1.37-3.633,2.736-7.256,4.099-10.869     c2.739-7.218,5.461-14.391,8.164-21.515c1.346-3.562,2.783-7.08,4.042-10.645c1.152-3.605,2.298-7.195,3.441-10.77     c2.287-7.152,4.554-14.243,6.8-21.268c2.203-7.04,4.652-13.933,6.282-20.989c3.717-13.986,7.353-27.669,10.893-40.99     c3.056-13.443,5.597-26.628,8.365-39.319c1.316-6.36,2.89-12.563,3.931-18.747c1.005-6.192,1.99-12.268,2.956-18.221     c1.915-11.91,3.785-23.325,5.673-34.179c1.454-10.909,2.559-21.299,3.748-31.053c1.219-9.759,2.36-18.892,3.414-27.338     c1.003-8.457,1.312-16.272,2.007-23.309c1.166-14.088,2.111-25.175,2.851-32.736c0.704-7.566,1.079-11.602,1.079-11.602     l0.007-0.079c0.087-0.929,0.91-1.612,1.839-1.526c0.865,0.081,1.517,0.809,1.533,1.658c0,0,0.058,4.055,0.167,11.661     c0.145,7.609,0.219,18.772,0.273,33.002c-0.016,7.112,0.186,15.005-0.185,23.569c-0.455,8.568-0.948,17.833-1.475,27.734     c-0.631,9.897-1.145,20.453-1.98,31.561c-1.202,11.069-2.581,22.703-4.057,34.848c-0.73,6.075-1.475,12.277-2.234,18.595     c-0.798,6.317-2.127,12.674-3.195,19.188c-2.367,12.986-4.706,26.443-7.45,40.213c-3.31,13.657-6.709,27.688-10.184,42.028     c-1.609,7.21-4.044,14.278-6.234,21.487c-2.237,7.2-4.493,14.468-6.77,21.794c-1.139,3.666-2.283,7.345-3.431,11.039     c-1.257,3.658-2.694,7.272-4.042,10.932c-2.773,7.291-5.566,14.634-8.377,22.022c-1.412,3.69-2.829,7.393-4.25,11.105     c-1.435,3.707-3.219,7.285-4.818,10.948c-3.289,7.289-6.594,14.616-9.913,21.971c-1.667,3.673-3.338,7.353-5.011,11.041     c-1.881,3.588-3.765,7.183-5.651,10.783c-3.775,7.2-7.56,14.419-11.354,21.654l-2.848,5.428     c-0.969,1.798-2.085,3.517-3.121,5.281l-6.336,10.529l-12.712,21.062l-13.992,20.247c-4.686,6.723-9.175,13.576-14.368,19.904     c-5.028,6.441-10.047,12.87-15.051,19.28l-3.758,4.796l-4.009,4.578c-2.67,3.049-5.336,6.091-7.996,9.129     c-20.92,24.628-44.197,46.421-67.349,66.572c-5.938,4.87-11.828,9.699-17.661,14.484l-4.364,3.575l-4.51,3.346     c-3,2.222-5.986,4.433-8.954,6.632c-11.685,9.054-23.94,16.754-35.616,24.574c-5.894,3.826-11.932,7.251-17.754,10.811     c-2.925,1.757-5.828,3.499-8.708,5.23c-2.907,1.683-5.867,3.22-8.759,4.818c-5.807,3.149-11.515,6.245-17.119,9.283     c-5.727,2.797-11.346,5.539-16.851,8.226c-22.156,10.435-42.908,19.013-61.68,25.525c-9.303,3.478-18.233,6.103-26.386,8.79     c-8.268,2.349-15.796,4.699-22.726,6.381c-13.794,3.579-24.806,5.679-32.312,7.065c-3.76,0.656-6.654,1.135-8.629,1.406     c-1.954,0.271-2.962,0.409-2.962,0.409c-0.925,0.129-1.778-0.518-1.905-1.442c-0.124-0.891,0.472-1.714,1.343-1.887     L2546.547,2869.534z"/>
		</g>
		<g>
			
				<linearGradient id="SVGID_00000039130498580565509670000006007883686012734881_" gradientUnits="userSpaceOnUse" x1="764.0419" y1="3307.1292" x2="2674.6836" y2="874.4835" fill="#56b1b3">
				<stop offset="0" style="stop-color:#1e6668" fill="#56b1b3"/>
				<stop offset="1" style="stop-color:#56b1b3" fill="#56b1b3"/>
			</linearGradient>
			<path style="fill:url(#SVGID_00000039130498580565509670000006007883686012734881_);" d="M1060.567,761.431l1451.616,24.733     c80.085,1.365,145.051,65.25,147.761,145.299l71.294,2106.4c2.119,62.641-48.049,114.595-110.727,114.666l-1664.251,1.894     c-58.894,0.066-106.39-48.19-105.386-107.075l36.086-2118.126C888.568,834.948,966.293,759.827,1060.567,761.431z"/>
			<path style="fill:#425454;" d="M1200.099,3122.192c-0.036,0-0.069,0-0.106,0l-186.121-5.58     c-61.908-1.858-111.42-53.751-110.364-115.676l4.791-281.072c0.033-1.848,1.538-3.323,3.379-3.323c0.02,0,0.036,0,0.056,0     c1.868,0.033,3.352,1.571,3.323,3.435l-4.791,281.072c-0.993,58.252,45.575,107.061,103.811,108.806l186.121,5.58     c1.864,0.056,3.329,1.614,3.277,3.481C1203.418,3120.747,1201.917,3122.192,1200.099,3122.192z"/>
			<path style="fill:#425454;" d="M913.16,2636.235c-0.02,0-0.036,0-0.056,0c-1.868-0.033-3.352-1.571-3.323-3.435l0.775-45.516     c0.033-1.867,1.683-3.385,3.435-3.323c1.868,0.033,3.352,1.571,3.323,3.435l-0.775,45.515     C916.506,2634.76,915.002,2636.235,913.16,2636.235z"/>
			<g>
				<path style="fill:#425454;" d="M1065.322,744.449c197.774,30.259,878.023,125.014,1442.354,91.353      c25.736-1.535,47.709,18.318,48.638,44.083l76.336,2115.868c1.047,29.011-21.51,53.421-50.514,54.642      c-237.275,9.989-1214.391,47.584-1561.964,5.181c-21.153-2.58-36.935-20.696-36.697-42.006l24.768-2220.627      C1008.578,762.779,1035.503,739.887,1065.322,744.449z"/>
				<path style="fill:#56b1b3;" d="M1085.62,799.646c190.326,29.121,844.96,120.309,1388.041,87.914      c24.766-1.478,45.913,17.629,46.808,42.424l73.459,2036.194c1.009,27.919-20.698,51.41-48.612,52.585      c-228.34,9.613-1168.663,45.792-1503.145,4.986c-20.358-2.484-35.546-19.918-35.317-40.425l23.836-2137.008      C1031.013,817.287,1056.923,795.256,1085.62,799.646z"/>
				<g style="opacity:0.6;">
					<path style="fill:none;" d="M2455.776,1066.047c7.432,0.127,13.216-5.844,12.852-13.269l-0.112-2.297       c-0.364-7.425-6.741-13.651-14.172-13.836l-1233.343-30.739c-7.431-0.185-9.804,4.485-5.274,10.378l14.069,18.3       c4.531,5.893,14.319,10.818,21.751,10.945L2455.776,1066.047z"/>
				</g>
				<g style="opacity:0.6;">
					<path style="fill:none;" d="M1219.616,1087.214c-7.431-0.185-9.804,4.485-5.274,10.378l14.069,18.301       c4.531,5.893,14.318,10.819,21.751,10.945l1204.228,20.517c7.432,0.127,13.216-5.844,12.853-13.269l-0.112-2.298       c-0.364-7.425-6.741-13.651-14.172-13.836L1219.616,1087.214z"/>
				</g>
				<path style="fill:none;" d="M1420.145,1829.775c-0.15,0.004-0.299,0.005-0.448,0.007l-163.397,0.938      c-23.546,0.133-43.227-15.777-45.78-37.008l-16.469-136.859c-0.978-8.143,1.432-16.239,6.784-22.806      c5.977-7.338,15.118-12.021,25.077-12.859l0,0c13.767-1.148,32.724-3.061,53.58-5.158c45.413-4.57,96.883-9.755,127.154-10.596      c0.226-0.004,0.446-0.014,0.668-0.017c21.658-0.331,40.498,12.589,45.957,31.6c9.011,31.392,9.175,90.994,8.529,154.5      C1461.585,1812.349,1442.944,1829.428,1420.145,1829.775z M1227.027,1634.479c-6.377,0.535-12.155,3.442-15.858,7.992      c-3.045,3.731-4.424,8.276-3.879,12.787l16.469,136.859c1.742,14.504,15.701,25.366,32.468,25.271l163.396-0.937      c0.104-0.002,0.215-0.005,0.322-0.005c15.62-0.24,28.385-11.426,28.527-25.061c0.637-62.478,0.5-121.018-8.016-150.693      c-3.775-13.134-18.127-22.716-33.435-21.93c-29.789,0.828-83.242,6.213-126.194,10.53      C1259.885,1631.403,1240.851,1633.317,1227.027,1634.479L1227.027,1634.479z"/>
				<path style="opacity:0.6;fill:none;" d="M1244.786,1647.963c34.283-2.872,108.761-11.59,144.132-12.573      c14.988-0.417,28.275,8.439,31.99,21.383c7.215,25.141,7.082,75.478,6.61,121.941c-0.141,13.916-12.746,25.216-28.348,25.305      l-130.575,0.749c-16.057,0.092-29.555-10.651-31.267-24.885l-13.158-109.363      C1222.809,1659.206,1232.077,1649.028,1244.786,1647.963z"/>
				<g style="opacity:0.6;">
					<path style="fill:none;" d="M1561.478,1685.332c-7.433-0.063-11.874,5.742-9.868,12.9l15.492,55.281       c2.006,7.158,9.728,12.921,17.161,12.807l822.401-12.614c7.433-0.114,13.288-6.285,13.011-13.713l-1.262-33.912       c-0.276-7.428-6.584-13.557-14.018-13.62L1561.478,1685.332z"/>
				</g>
				<path style="fill:none;" d="M1429.703,1462.929c-0.15,0.003-0.3,0.006-0.449,0.008l-163.396,0.938      c-23.547,0.132-43.228-15.777-45.78-37.009l-16.469-136.859c-0.978-8.142,1.432-16.239,6.784-22.806      c5.977-7.338,15.118-12.022,25.077-12.859l0,0c13.768-1.149,32.724-3.061,53.58-5.158c45.413-4.57,96.883-9.755,127.154-10.595      c0.226-0.004,0.446-0.014,0.668-0.018c21.658-0.331,40.498,12.589,45.957,31.601c9.01,31.392,9.174,90.994,8.528,154.5      C1471.142,1445.504,1452.502,1462.582,1429.703,1462.929z M1236.585,1267.633c-6.377,0.535-12.156,3.443-15.859,7.992      c-3.045,3.731-4.423,8.276-3.879,12.787l16.469,136.859c1.742,14.504,15.701,25.366,32.467,25.271l163.396-0.936      c0.104-0.002,0.215-0.004,0.322-0.005c15.62-0.24,28.385-11.425,28.527-25.061c0.637-62.478,0.501-121.018-8.016-150.692      c-3.775-13.134-18.127-22.717-33.435-21.93c-29.789,0.827-83.242,6.212-126.194,10.529      C1269.442,1264.557,1250.409,1266.471,1236.585,1267.633L1236.585,1267.633z"/>
				<path style="opacity:0.6;fill:none;" d="M1254.344,1281.117c34.283-2.872,108.761-11.591,144.132-12.574      c14.988-0.417,28.275,8.438,31.989,21.383c7.215,25.141,7.082,75.478,6.61,121.941c-0.141,13.916-12.746,25.216-28.348,25.305      l-130.574,0.75c-16.058,0.091-29.555-10.652-31.267-24.886l-13.157-109.364      C1232.366,1292.36,1241.635,1282.182,1254.344,1281.117z"/>
				<g style="opacity:0.6;">
					<path style="fill:none;" d="M1571.036,1318.486c-7.433-0.063-11.874,5.742-9.868,12.9l15.492,55.281       c2.006,7.158,9.728,12.921,17.161,12.807l822.401-12.614c7.433-0.114,13.288-6.285,13.011-13.713l-1.262-33.912       c-0.276-7.428-6.584-13.557-14.018-13.62L1571.036,1318.486z"/>
				</g>
				<path style="fill:none;" d="M1425.516,2179.921c-0.149,0.002-0.299,0.005-0.448,0.008l-163.396,0.936      c-23.547,0.133-43.229-15.776-45.781-37.007l-16.467-136.853c-0.979-8.149,1.431-16.246,6.781-22.812      c5.979-7.339,15.119-12.023,25.078-12.859l0,0c13.768-1.149,32.724-3.06,53.581-5.158c45.413-4.569,96.882-9.754,127.153-10.597      c0.224-0.002,0.446-0.013,0.666-0.016c21.659-0.332,40.501,12.589,45.958,31.607c9.011,31.387,9.176,90.995,8.527,154.494      C1466.956,2162.496,1448.314,2179.571,1425.516,2179.921z M1232.397,1984.625c-6.372,0.533-12.152,3.442-15.857,7.99      c-3.044,3.732-4.425,8.278-3.881,12.794l16.469,136.854c1.742,14.504,15.701,25.364,32.468,25.27l163.396-0.937      c0.104-0.002,0.214-0.002,0.322-0.005c15.618-0.238,28.383-11.424,28.525-25.06c0.637-62.478,0.502-121.019-8.013-150.686      c-3.777-13.147-18.126-22.556-33.437-21.935c-29.788,0.827-83.243,6.21-126.195,10.528      C1265.254,1981.549,1246.221,1983.461,1232.397,1984.625L1232.397,1984.625z"/>
				<path style="opacity:0.6;fill:none;" d="M1250.156,1998.11c34.283-2.874,108.762-11.59,144.133-12.574      c14.988-0.417,28.275,8.439,31.989,21.383c7.217,25.141,7.082,75.478,6.61,121.941c-0.142,13.916-12.747,25.216-28.348,25.305      l-130.575,0.748c-16.058,0.092-29.554-10.65-31.268-24.884l-13.157-109.363      C1228.179,2009.354,1237.447,1999.175,1250.156,1998.11z"/>
				<g style="opacity:0.6;">
					<path style="fill:none;" d="M1566.849,2035.48c-7.433-0.063-11.874,5.742-9.868,12.9l15.491,55.281       c2.006,7.158,9.728,12.921,17.161,12.807l822.403-12.615c7.433-0.114,13.287-6.285,13.011-13.713l-1.263-33.912       c-0.277-7.428-6.585-13.557-14.018-13.62L1566.849,2035.48z"/>
				</g>
				<path style="fill:none;" d="M1415.374,2516.385c-0.144,0.002-0.287,0.004-0.432,0.006l-163.401,0.93      c-23.542,0.142-43.225-15.769-45.78-37.007l-16.468-136.851c-0.977-8.144,1.432-16.242,6.781-22.807      c5.976-7.338,15.118-12.021,25.078-12.865l0,0c13.756-1.148,32.692-3.053,53.526-5.151      c43.185-4.347,96.929-9.755,127.213-10.596c21.494-0.435,41.104,12.371,46.622,31.583c9.01,31.393,9.174,90.993,8.528,154.494      C1456.829,2498.951,1438.175,2516.035,1415.374,2516.385z M1222.268,2321.081c-6.371,0.534-12.154,3.448-15.861,7.997      c-3.042,3.738-4.421,8.278-3.876,12.787l16.468,136.853c1.743,14.505,15.702,25.372,32.464,25.271l163.4-0.93      c15.396-0.509,28.703-11.344,28.848-25.072c0.637-62.478,0.501-121.012-8.015-150.687      c-3.775-13.138-18.123-22.385-33.435-21.928c-29.802,0.821-83.278,6.206-126.247,10.53      C1255.095,2318.007,1236.081,2319.919,1222.268,2321.081L1222.268,2321.081z"/>
				<path style="opacity:0.6;fill:none;" d="M1240.027,2334.568c34.285-2.871,108.762-11.588,144.133-12.571      c14.989-0.417,28.274,8.436,31.99,21.382c7.215,25.141,7.083,75.477,6.61,121.942c-0.142,13.916-12.748,25.214-28.349,25.303      l-130.575,0.749c-16.056,0.093-29.554-10.649-31.267-24.885l-13.158-109.363      C1218.051,2345.812,1227.318,2335.634,1240.027,2334.568z"/>
				<g style="opacity:0.6;">
					<path style="fill:none;" d="M1556.72,2371.939c-7.433-0.063-11.874,5.742-9.868,12.9l15.491,55.28       c2.006,7.158,9.728,12.921,17.161,12.807l822.402-12.612c7.433-0.114,13.288-6.285,13.011-13.713l-1.262-33.914       c-0.277-7.428-6.585-13.558-14.018-13.62L1556.72,2371.939z"/>
				</g>
				<path style="fill:none;" d="M1402.148,2863.399c-0.149,0.002-0.299,0.005-0.448,0.007l-163.398,0.936      c-23.547,0.135-43.228-15.775-45.779-37.007l-16.468-136.858c-0.978-8.143,1.43-16.24,6.781-22.806      c5.979-7.338,15.119-12.024,25.078-12.859l0,0c13.768-1.15,32.723-3.061,53.579-5.158c45.412-4.571,96.884-9.755,127.155-10.595      c22.197-0.048,41.111,12.377,46.623,31.583c9.012,31.392,9.178,91,8.529,154.5      C1443.587,2845.974,1424.946,2863.05,1402.148,2863.399z M1209.028,2668.102c-6.375,0.534-12.154,3.443-15.856,7.991      c-3.045,3.733-4.424,8.278-3.88,12.788l16.468,136.859c1.742,14.504,15.701,25.365,32.468,25.271l163.397-0.938      c0.103-0.002,0.215-0.003,0.322-0.006c15.617-0.239,28.382-11.424,28.525-25.06c0.637-62.478,0.5-121.018-8.014-150.693      c-3.776-13.139-18.121-22.216-33.436-21.928c-29.79,0.827-83.243,6.21-126.195,10.529      C1241.885,2665.027,1222.852,2666.941,1209.028,2668.102L1209.028,2668.102z"/>
				<path style="opacity:0.6;fill:none;" d="M1226.787,2681.586c34.284-2.871,108.762-11.59,144.133-12.573      c14.989-0.417,28.275,8.438,31.99,21.383c7.215,25.141,7.082,75.478,6.61,121.941c-0.142,13.916-12.747,25.216-28.349,25.305      l-130.575,0.749c-16.057,0.092-29.555-10.652-31.268-24.886l-13.158-109.364      C1204.811,2692.83,1214.079,2682.652,1226.787,2681.586z"/>
				<g style="opacity:0.6;">
					<path style="fill:none;" d="M1543.48,2718.956c-7.433-0.063-11.874,5.742-9.868,12.9l15.491,55.281       c2.006,7.158,9.728,12.921,17.161,12.807l822.403-12.614c7.433-0.114,13.288-6.285,13.011-13.713l-1.262-33.912       c-0.276-7.428-6.584-13.558-14.018-13.62L1543.48,2718.956z"/>
				</g>
			</g>
			
				<linearGradient id="SVGID_00000075143468753218516290000014399634367032816276_" gradientUnits="userSpaceOnUse" x1="1973.9624" y1="249.4088" x2="1305.7737" y2="1128.3953" gradientTransform="matrix(0.9997 0.026 -0.026 0.9997 83.0136 -24.1537)" fill="#56b1b3">
				<stop offset="0" style="stop-color:#1e6668" fill="#56b1b3"/>
				<stop offset="1" style="stop-color:#56b1b3" fill="#56b1b3"/>
			</linearGradient>
			<path style="fill:url(#SVGID_00000075143468753218516290000014399634367032816276_);" d="M1881.295,488.384     c-51.813-37.369-97.417-37.424-129.675-28.501c-29.424,8.14-48.88,36.082-46.614,66.53l11.266,151.311l164.454,17.422     C1880.727,695.146,1982.909,561.674,1881.295,488.384z M1806.788,609.031c-22.681-0.387-40.754-19.086-40.369-41.768     c0.387-22.681,19.087-40.756,41.769-40.369c22.68,0.387,40.756,19.087,40.369,41.768     C1848.169,591.344,1829.469,609.418,1806.788,609.031z"/>
			<g>
				<path style="fill:#425454;" d="M1730.946,618.093c-2.847-1.099-4.963-3.76-5.203-7.011l-1.793-24.1      c-0.335-4.492,3.035-8.403,7.527-8.737c4.488-0.342,8.412,3.025,8.744,7.532l1.792,24.099c0.335,4.493-3.036,8.403-7.528,8.735      C1733.242,618.705,1732.039,618.514,1730.946,618.093z M1727.432,570.87c-2.847-1.098-4.964-3.758-5.203-7.011l-1.364-18.297      c-2.306-30.991,17.659-59.466,47.474-67.718c20.409-5.646,41.361-6.154,62.265-1.499c4.326,1.035,7.173,5.336,6.187,9.739      c-0.978,4.396-5.337,7.173-9.736,6.192c-18.262-4.072-36.555-3.63-54.364,1.295c-22.332,6.177-37.284,27.53-35.554,50.785      l1.363,18.298c0.333,4.492-3.036,8.401-7.529,8.735C1729.727,571.482,1728.525,571.291,1727.432,570.87z"/>
			</g>
			
				<linearGradient id="SVGID_00000134229732726336904250000004422398262547044749_" gradientUnits="userSpaceOnUse" x1="1597.0642" y1="3305.4824" x2="929.3271" y2="4183.875" gradientTransform="matrix(0.9999 0.017 -0.017 0.9999 578.4978 -3000.9131)" fill="#56b1b3">
				<stop offset="0" style="stop-color:#1e6668" fill="#56b1b3"/>
				<stop offset="1" style="stop-color:#56b1b3" fill="#56b1b3"/>
			</linearGradient>
			<path style="fill:url(#SVGID_00000134229732726336904250000004422398262547044749_);" d="M1489.819,771.526l1.294-75.957     c0.445-26.22,22.535-46.85,48.725-45.505l523.378,26.864c23.228,1.192,41.737,19.859,42.733,43.094l3.133,73.057     L1489.819,771.526z"/>
			<path style="fill:#425454;" d="M1686.749,680.599c-0.02,0-0.036,0-0.056,0l-22.52-0.383c-1.868-0.033-3.352-1.571-3.323-3.435     c0.033-1.848,1.538-3.323,3.379-3.323c0.02,0,0.036,0,0.056,0l22.52,0.383c1.868,0.033,3.352,1.571,3.323,3.435     C1690.095,679.124,1688.59,680.599,1686.749,680.599z"/>
			<path style="fill:#425454;" d="M1515.702,751.797c-3.103-1.197-5.28-4.231-5.219-7.754l0.523-30.727     c0.213-12.617,5.327-24.393,14.403-33.164c9.074-8.771,21.021-13.488,33.641-13.274l82.797,1.415     c4.483,0.09,8.095,3.789,8.016,8.302c-0.077,4.505-3.791,8.094-8.298,8.02l-82.797-1.416     c-17.049-0.29-31.159,13.345-31.448,30.397l-0.525,30.729c-0.077,4.506-3.793,8.094-8.299,8.021     C1517.515,752.325,1516.572,752.133,1515.702,751.797z"/>
			
				<linearGradient id="SVGID_00000162342077550133515600000002218605109350375086_" gradientUnits="userSpaceOnUse" x1="1512.9106" y1="3359.2227" x2="1051.86" y2="4205.8057" gradientTransform="matrix(0.9999 0.017 -0.017 0.9999 578.4978 -3000.9131)" fill="#56b1b3">
				<stop offset="0" style="stop-color:#1e6668" fill="#56b1b3"/>
				<stop offset="1" style="stop-color:#56b1b3" fill="#56b1b3"/>
			</linearGradient>
			<path style="fill:url(#SVGID_00000162342077550133515600000002218605109350375086_);" d="M1326.203,740.931l915.759,15.578     c32.928,0.56,60.676,24.735,65.74,57.277l0.699,4.49c5.546,35.644-22.368,67.683-58.436,67.068l-939.516-16.008     c-21.585-0.366-38.478-18.706-37.076-40.249l2.738-42.017C1277.824,760.791,1299.87,740.484,1326.203,740.931z"/>
		</g>
		<g>
			<g>
				<g>
					
						<linearGradient id="SVGID_00000069389883559767794360000009401628994458566314_" gradientUnits="userSpaceOnUse" x1="1848.3027" y1="1599.8694" x2="2892.3142" y2="3292.5864" fill="#56b1b3">
						<stop offset="0" style="stop-color:#0d5b5b" fill="#56b1b3"/>
						<stop offset="1" style="stop-color:#328c8e" fill="#56b1b3"/>
					</linearGradient>
					<path style="fill:url(#SVGID_00000069389883559767794360000009401628994458566314_);" d="M1926.921,1976.545       c-5.87,209.625-24.906,932.7-15.819,1188.936c0.963,27.146,25.543,48.934,56.204,49.822       c151.647,4.394,707.577,15.53,955.62,6.316c51.664-1.92,92.749-38.968,93.821-84.739       c5.155-220.028,16.527-838.884-10.503-1122.382c-3.239-33.967-33.352-61.017-71.665-64.41       c-165.151-14.627-723.471-50.381-937.766-38.069C1958.165,1914.24,1927.88,1942.267,1926.921,1976.545z"/>
					
						<linearGradient id="SVGID_00000182524051103261608760000005897534061414014395_" gradientUnits="userSpaceOnUse" x1="2387.9629" y1="2471.8723" x2="2492.9958" y2="2036.4951" fill="#56b1b3">
						<stop offset="0" style="stop-color:#1e6668" fill="#56b1b3"/>
						<stop offset="1" style="stop-color:#56b1b3" fill="#56b1b3"/>
					</linearGradient>
					<path style="fill:url(#SVGID_00000182524051103261608760000005897534061414014395_);" d="M1994.586,2025.383       c-8.163,48.996-33.91,211.993-25.738,272.266c1.194,8.81,28.278,15.933,62.604,16.448c141.327,2.12,623.502,6.796,830.795,2.54       c37.327-0.766,66.618-8.505,68.632-18.092c10.505-49.986,40.667-201.759,32.833-261.357       c-1.25-9.507-29.976-17.272-66.934-18.123c-152.894-3.519-665.26-11.893-841.411-9.429       C2022.299,2010.099,1995.999,2016.901,1994.586,2025.383z"/>
					<path style="opacity:0.2;fill:none;" d="M2899.32,2067.95c-7.504-7.758-17.785-12.215-28.578-12.385l-794.207-12.619       c-21.233-0.338-39.147,15.721-41.127,36.862l-16.502,176.198c-1.352,14.427,22.383,26.574,52.643,26.941l780.815,9.461       c30.214,0.366,55.19-11.157,55.44-25.577l2.945-169.909C2910.936,2086.131,2906.825,2075.707,2899.32,2067.95z"/>
				</g>
				<g>
					
						<linearGradient id="SVGID_00000110441363438225633640000012755634393711527862_" gradientUnits="userSpaceOnUse" x1="2002.0786" y1="2489.8621" x2="2184.5366" y2="2489.8621" fill="#56b1b3">
						<stop offset="0" style="stop-color:#1e6668" fill="#56b1b3"/>
						<stop offset="1" style="stop-color:#56b1b3" fill="#56b1b3"/>
					</linearGradient>
					<path style="fill:url(#SVGID_00000110441363438225633640000012755634393711527862_);" d="M2184.537,2490.553       c0,31.342-25.407,56.749-56.749,56.749h-68.96c-31.342,0-56.749-25.407-56.749-56.749v-1.383       c0-31.342,25.407-56.749,56.749-56.749h68.96c31.342,0,56.749,25.407,56.749,56.749V2490.553z"/>
					
						<linearGradient id="SVGID_00000178897232082577664450000011464859301403084472_" gradientUnits="userSpaceOnUse" x1="2258.8713" y1="2489.8621" x2="2441.3293" y2="2489.8621" fill="#56b1b3">
						<stop offset="0" style="stop-color:#1e6668" fill="#56b1b3"/>
						<stop offset="1" style="stop-color:#56b1b3" fill="#56b1b3"/>
					</linearGradient>
					<path style="fill:url(#SVGID_00000178897232082577664450000011464859301403084472_);" d="M2441.329,2490.553       c0,31.342-25.407,56.749-56.749,56.749h-68.96c-31.342,0-56.749-25.407-56.749-56.749v-1.383       c0-31.342,25.407-56.749,56.749-56.749h68.96c31.342,0,56.749,25.407,56.749,56.749V2490.553z"/>
					
						<linearGradient id="SVGID_00000028294591132067001630000013119467980522449800_" gradientUnits="userSpaceOnUse" x1="2505.5276" y1="2489.8621" x2="2687.9856" y2="2489.8621" fill="#56b1b3">
						<stop offset="0" style="stop-color:#1e6668" fill="#56b1b3"/>
						<stop offset="1" style="stop-color:#56b1b3" fill="#56b1b3"/>
					</linearGradient>
					<path style="fill:url(#SVGID_00000028294591132067001630000013119467980522449800_);" d="M2687.986,2490.553       c0,31.342-25.407,56.749-56.749,56.749h-68.96c-31.342,0-56.749-25.407-56.749-56.749v-1.383       c0-31.342,25.407-56.749,56.749-56.749h68.96c31.342,0,56.749,25.407,56.749,56.749V2490.553z"/>
					
						<linearGradient id="SVGID_00000035525316382947449140000014760688811314352020_" gradientUnits="userSpaceOnUse" x1="2868.646" y1="1792.0062" x2="2838.2371" y2="2700.9177" fill="#56b1b3">
						<stop offset="0" style="stop-color:#f97415" fill="#56b1b3"/>
						<stop offset="1" style="stop-color:#f97415" fill="#56b1b3"/>
					</linearGradient>
					<path style="fill:url(#SVGID_00000035525316382947449140000014760688811314352020_);" d="M2936.123,2496.75       c0,31.85-25.819,57.668-57.668,57.668h-66.773c-31.85,0-57.668-25.819-57.668-57.668l0,0c0-31.849,25.819-57.668,57.668-57.668       h66.773C2910.304,2439.082,2936.123,2464.9,2936.123,2496.75L2936.123,2496.75z"/>
				</g>
				<g>
					
						<linearGradient id="SVGID_00000124152745824014504960000012815171446684589998_" gradientUnits="userSpaceOnUse" x1="2002.0786" y1="2668.9412" x2="2184.5366" y2="2668.9412" fill="#56b1b3">
						<stop offset="0" style="stop-color:#1e6668" fill="#56b1b3"/>
						<stop offset="1" style="stop-color:#56b1b3" fill="#56b1b3"/>
					</linearGradient>
					<path style="opacity:0.63;fill:url(#SVGID_00000124152745824014504960000012815171446684589998_);" d="M2184.537,2669.633       c0,31.342-25.407,56.749-56.749,56.749h-68.96c-31.342,0-56.749-25.407-56.749-56.749v-1.383       c0-31.342,25.407-56.749,56.749-56.749h68.96c31.342,0,56.749,25.407,56.749,56.749V2669.633z"/>
					
						<linearGradient id="SVGID_00000161605984195775534470000000098897318614445229_" gradientUnits="userSpaceOnUse" x1="2258.8713" y1="2668.9412" x2="2441.3293" y2="2668.9412" fill="#56b1b3">
						<stop offset="0" style="stop-color:#1e6668" fill="#56b1b3"/>
						<stop offset="1" style="stop-color:#56b1b3" fill="#56b1b3"/>
					</linearGradient>
					<path style="opacity:0.63;fill:url(#SVGID_00000161605984195775534470000000098897318614445229_);" d="M2441.329,2669.633       c0,31.342-25.407,56.749-56.749,56.749h-68.96c-31.342,0-56.749-25.407-56.749-56.749v-1.383       c0-31.342,25.407-56.749,56.749-56.749h68.96c31.342,0,56.749,25.407,56.749,56.749V2669.633z"/>
					
						<linearGradient id="SVGID_00000064355384694396065960000011636993216345532555_" gradientUnits="userSpaceOnUse" x1="2505.5276" y1="2668.9412" x2="2687.9856" y2="2668.9412" fill="#56b1b3">
						<stop offset="0" style="stop-color:#1e6668" fill="#56b1b3"/>
						<stop offset="1" style="stop-color:#56b1b3" fill="#56b1b3"/>
					</linearGradient>
					<path style="opacity:0.63;fill:url(#SVGID_00000064355384694396065960000011636993216345532555_);" d="M2687.986,2669.633       c0,31.342-25.407,56.749-56.749,56.749h-68.96c-31.342,0-56.749-25.407-56.749-56.749v-1.383       c0-31.342,25.407-56.749,56.749-56.749h68.96c31.342,0,56.749,25.407,56.749,56.749V2669.633z"/>
					
						<linearGradient id="SVGID_00000130616232220030406260000009966030314675819940_" gradientUnits="userSpaceOnUse" x1="2758.9414" y1="2668.9412" x2="2941.3997" y2="2668.9412" fill="#56b1b3">
						<stop offset="0" style="stop-color:#1e6668" fill="#56b1b3"/>
						<stop offset="1" style="stop-color:#56b1b3" fill="#56b1b3"/>
					</linearGradient>
					<path style="fill:url(#SVGID_00000130616232220030406260000009966030314675819940_);" d="M2941.4,2669.633       c0,31.342-25.407,56.749-56.749,56.749h-68.96c-31.342,0-56.749-25.407-56.749-56.749v-1.383       c0-31.342,25.407-56.749,56.749-56.749h68.96c31.342,0,56.749,25.407,56.749,56.749V2669.633z"/>
				</g>
				<g>
					
						<linearGradient id="SVGID_00000056407680458074574640000015594675076600849801_" gradientUnits="userSpaceOnUse" x1="2002.0786" y1="2834.5049" x2="2184.5366" y2="2834.5049" fill="#56b1b3">
						<stop offset="0" style="stop-color:#1e6668" fill="#56b1b3"/>
						<stop offset="1" style="stop-color:#56b1b3" fill="#56b1b3"/>
					</linearGradient>
					<path style="opacity:0.63;fill:url(#SVGID_00000056407680458074574640000015594675076600849801_);" d="M2184.537,2835.196       c0,31.342-25.407,56.749-56.749,56.749h-68.96c-31.342,0-56.749-25.407-56.749-56.749v-1.383       c0-31.342,25.407-56.749,56.749-56.749h68.96c31.342,0,56.749,25.407,56.749,56.749V2835.196z"/>
					
						<linearGradient id="SVGID_00000093898125262168006260000010503164833404600711_" gradientUnits="userSpaceOnUse" x1="2258.8713" y1="2834.5049" x2="2441.3293" y2="2834.5049" fill="#56b1b3">
						<stop offset="0" style="stop-color:#1e6668" fill="#56b1b3"/>
						<stop offset="1" style="stop-color:#56b1b3" fill="#56b1b3"/>
					</linearGradient>
					<path style="opacity:0.63;fill:url(#SVGID_00000093898125262168006260000010503164833404600711_);" d="M2441.329,2835.196       c0,31.342-25.407,56.749-56.749,56.749h-68.96c-31.342,0-56.749-25.407-56.749-56.749v-1.383       c0-31.342,25.407-56.749,56.749-56.749h68.96c31.342,0,56.749,25.407,56.749,56.749V2835.196z"/>
					
						<linearGradient id="SVGID_00000015322616945843383450000011502683847176764606_" gradientUnits="userSpaceOnUse" x1="2505.5276" y1="2834.5049" x2="2687.9856" y2="2834.5049" fill="#56b1b3">
						<stop offset="0" style="stop-color:#1e6668" fill="#56b1b3"/>
						<stop offset="1" style="stop-color:#56b1b3" fill="#56b1b3"/>
					</linearGradient>
					<path style="opacity:0.63;fill:url(#SVGID_00000015322616945843383450000011502683847176764606_);" d="M2687.986,2835.196       c0,31.342-25.407,56.749-56.749,56.749h-68.96c-31.342,0-56.749-25.407-56.749-56.749v-1.383       c0-31.342,25.407-56.749,56.749-56.749h68.96c31.342,0,56.749,25.407,56.749,56.749V2835.196z"/>
				</g>
				<g>
					
						<linearGradient id="SVGID_00000006699089026140781780000008236408414794056325_" gradientUnits="userSpaceOnUse" x1="2002.0786" y1="3006.8264" x2="2184.5366" y2="3006.8264" fill="#56b1b3">
						<stop offset="0" style="stop-color:#1e6668" fill="#56b1b3"/>
						<stop offset="1" style="stop-color:#56b1b3" fill="#56b1b3"/>
					</linearGradient>
					<path style="opacity:0.63;fill:url(#SVGID_00000006699089026140781780000008236408414794056325_);" d="M2184.537,3007.518       c0,31.342-25.407,56.749-56.749,56.749h-68.96c-31.342,0-56.749-25.407-56.749-56.749v-1.383       c0-31.342,25.407-56.749,56.749-56.749h68.96c31.342,0,56.749,25.407,56.749,56.749V3007.518z"/>
					
						<linearGradient id="SVGID_00000167362417322312510210000016418989756444667786_" gradientUnits="userSpaceOnUse" x1="2258.8713" y1="3006.8264" x2="2441.3293" y2="3006.8264" fill="#56b1b3">
						<stop offset="0" style="stop-color:#1e6668" fill="#56b1b3"/>
						<stop offset="1" style="stop-color:#56b1b3" fill="#56b1b3"/>
					</linearGradient>
					<path style="opacity:0.63;fill:url(#SVGID_00000167362417322312510210000016418989756444667786_);" d="M2441.329,3007.518       c0,31.342-25.407,56.749-56.749,56.749h-68.96c-31.342,0-56.749-25.407-56.749-56.749v-1.383       c0-31.342,25.407-56.749,56.749-56.749h68.96c31.342,0,56.749,25.407,56.749,56.749V3007.518z"/>
					
						<linearGradient id="SVGID_00000108290930534197406960000002268795973439576235_" gradientUnits="userSpaceOnUse" x1="2505.5276" y1="3006.8264" x2="2687.9856" y2="3006.8264" fill="#56b1b3">
						<stop offset="0" style="stop-color:#1e6668" fill="#56b1b3"/>
						<stop offset="1" style="stop-color:#56b1b3" fill="#56b1b3"/>
					</linearGradient>
					<path style="opacity:0.63;fill:url(#SVGID_00000108290930534197406960000002268795973439576235_);" d="M2687.986,3007.518       c0,31.342-25.407,56.749-56.749,56.749h-68.96c-31.342,0-56.749-25.407-56.749-56.749v-1.383       c0-31.342,25.407-56.749,56.749-56.749h68.96c31.342,0,56.749,25.407,56.749,56.749V3007.518z"/>
				</g>
				
					<linearGradient id="SVGID_00000106863731378134466630000005973219845611346361_" gradientUnits="userSpaceOnUse" x1="2769.0781" y1="2924.0444" x2="2917.7476" y2="2924.0444" fill="#56b1b3">
					<stop offset="0" style="stop-color:#1e6668" fill="#56b1b3"/>
					<stop offset="1" style="stop-color:#56b1b3" fill="#56b1b3"/>
				</linearGradient>
				<path style="fill:url(#SVGID_00000106863731378134466630000005973219845611346361_);" d="M2917.748,2992.435      c0,39.672-32.16,71.832-71.832,71.832h-5.005c-39.672,0-71.832-32.16-71.832-71.832v-136.781      c0-39.672,32.16-71.832,71.832-71.832h5.005c39.672,0,71.832,32.16,71.832,71.832V2992.435z"/>
			</g>
			<g style="opacity:0.7;">
				<path style="fill:#56b1b3;" d="M2819.761,2092.847c0,6.531-5.295,11.826-11.826,11.826h-37.167      c-6.531,0-11.826-5.295-11.826-11.826l0,0c0-6.531,5.295-11.826,11.826-11.826h37.167      C2814.466,2081.021,2819.761,2086.315,2819.761,2092.847L2819.761,2092.847z"/>
				<path style="fill:#56b1b3;" d="M2819.761,2261.79c0,6.531-5.295,11.826-11.826,11.826h-37.167      c-6.531,0-11.826-5.295-11.826-11.826l0,0c0-6.531,5.295-11.826,11.826-11.826h37.167      C2814.466,2249.963,2819.761,2255.258,2819.761,2261.79L2819.761,2261.79z"/>
				<path style="fill:#56b1b3;" d="M2765.699,2167.182c0,6.531-5.295,11.826-11.826,11.826l0,0c-6.531,0-11.826-5.295-11.826-11.826      v-37.167c0-6.531,5.294-11.826,11.826-11.826l0,0c6.531,0,11.826,5.295,11.826,11.826V2167.182z"/>
				<path style="fill:#56b1b3;" d="M2765.699,2234.759c0,6.531-5.295,11.826-11.826,11.826l0,0c-6.531,0-11.826-5.295-11.826-11.826      v-37.167c0-6.531,5.294-11.826,11.826-11.826l0,0c6.531,0,11.826,5.294,11.826,11.826V2234.759z"/>
				<path style="fill:#56b1b3;" d="M2846.792,2167.182c0,6.531-5.295,11.826-11.826,11.826l0,0c-6.531,0-11.826-5.295-11.826-11.826      v-37.167c0-6.531,5.295-11.826,11.826-11.826l0,0c6.531,0,11.826,5.295,11.826,11.826V2167.182z"/>
				<path style="fill:#56b1b3;" d="M2846.792,2234.759c0,6.531-5.295,11.826-11.826,11.826l0,0c-6.531,0-11.826-5.295-11.826-11.826      v-37.167c0-6.531,5.295-11.826,11.826-11.826l0,0c6.531,0,11.826,5.294,11.826,11.826V2234.759z"/>
			</g>
		</g>
		<g>
			<g>
				
					<linearGradient id="SVGID_00000026872062680282749880000009959354150634106496_" gradientUnits="userSpaceOnUse" x1="1559.1266" y1="1464.4435" x2="1721.2507" y2="1276.2639" fill="#56b1b3">
					<stop offset="0" style="stop-color:#E1473D" fill="#56b1b3"/>
					<stop offset="1" style="stop-color:#E9605A" fill="#56b1b3"/>
				</linearGradient>
				
					<circle style="fill:url(#SVGID_00000026872062680282749880000009959354150634106496_);" cx="1724.525" cy="1272.463" r="120.869"/>
				
					<linearGradient id="SVGID_00000174588607250327748260000006424549058299597987_" gradientUnits="userSpaceOnUse" x1="1812.8613" y1="1139.0126" x2="1333.4559" y2="1863.2576" fill="#56b1b3">
					<stop offset="0" style="stop-color:#f97415" fill="#56b1b3"/>
					<stop offset="1" style="stop-color:#f97415" fill="#56b1b3"/>
				</linearGradient>
				
					<circle style="fill:url(#SVGID_00000174588607250327748260000006424549058299597987_);" cx="1724.525" cy="1272.463" r="116.85"/>
				<path style="opacity:0.78;fill:none;" d="M1628.167,1227.303c-0.511,0-1.03-0.115-1.518-0.363      c-1.666-0.841-2.336-2.874-1.495-4.537c19.049-37.742,57.127-61.186,99.369-61.186c6.745,0,13.496,0.607,20.068,1.808      c1.835,0.333,3.052,2.092,2.716,3.93c-0.333,1.838-2.099,3.079-3.93,2.716c-6.174-1.125-12.516-1.696-18.854-1.696      c-39.678,0-75.443,22.022-93.338,57.47C1630.592,1226.623,1629.401,1227.303,1628.167,1227.303z"/>
				
					<ellipse transform="matrix(0.2298 -0.9732 0.9732 0.2298 89.3713 2662.9434)" style="opacity:0.78;fill:none;" cx="1727.071" cy="1275.009" rx="98.9" ry="98.899"/>
				<g>
					
						<linearGradient id="SVGID_00000183240263479649790660000012952202310730570401_" gradientUnits="userSpaceOnUse" x1="1798.5603" y1="1159.7645" x2="1543.2871" y2="1588.3259" fill="#56b1b3">
						<stop offset="0" style="stop-color:#f97415" fill="#56b1b3"/>
						<stop offset="1" style="stop-color:#f97415" fill="#56b1b3"/>
					</linearGradient>
					<path style="fill:url(#SVGID_00000183240263479649790660000012952202310730570401_);" d="M1717.366,1348.532v-10.759       c-11.216-0.449-22.311-3.096-30.191-6.546c-2.814-1.232-4.248-4.389-3.44-7.353l2.734-10.022       c1.003-3.677,5.001-5.578,8.516-4.106c7.817,3.277,17.468,5.87,27.876,5.87c10.803,0,18.86-3.663,18.86-11.171       c0-6.775-6.226-10.803-21.241-14.831c-21.424-5.86-36.806-15.199-36.806-34.06c0-17.03,12.452-30.031,34.059-33.51v-10.761       c0-3.462,2.807-6.269,6.269-6.269h6.322c3.462,0,6.269,2.807,6.269,6.269v9.662c10.379,0.416,17.934,2.19,23.93,4.297       c3.072,1.079,4.751,4.389,3.899,7.531l-2.514,9.269c-0.97,3.574-4.79,5.532-8.254,4.222c-5.52-2.088-13.325-4.262-23.47-4.262       c-12.818,0-16.48,5.311-16.48,10.072c0,5.859,7.69,9.887,24.354,15.016c23.805,7.141,33.693,17.029,33.693,34.791       c0,16.298-12.085,30.947-35.524,34.609v12.041c0,3.463-2.806,6.269-6.269,6.269h-6.322       C1720.173,1354.801,1717.366,1351.995,1717.366,1348.532z"/>
				</g>
			</g>
			<g>
				
					<linearGradient id="SVGID_00000065055868391319301730000001774418130263618439_" gradientUnits="userSpaceOnUse" x1="1780.6523" y1="1463.3308" x2="2062.8823" y2="1135.7429" fill="#56b1b3">
					<stop offset="0" style="stop-color:#E1473D" fill="#56b1b3"/>
					<stop offset="1" style="stop-color:#E9605A" fill="#56b1b3"/>
				</linearGradient>
				
					<circle style="fill:url(#SVGID_00000065055868391319301730000001774418130263618439_);" cx="2068.583" cy="1129.126" r="210.413"/>
				
					<linearGradient id="SVGID_00000059301706789142475050000013857953254816146584_" gradientUnits="userSpaceOnUse" x1="2222.3606" y1="896.8116" x2="1387.7986" y2="2157.5969" fill="#56b1b3">
					<stop offset="0" style="stop-color:#f97415" fill="#56b1b3"/>
					<stop offset="1" style="stop-color:#f97415" fill="#56b1b3"/>
				</linearGradient>
				
					<circle style="fill:url(#SVGID_00000059301706789142475050000013857953254816146584_);" cx="2068.583" cy="1129.126" r="203.416"/>
				<path style="opacity:0.78;fill:none;" d="M1900.844,1048.006c-0.511,0-1.03-0.115-1.518-0.363      c-1.666-0.841-2.336-2.874-1.495-4.537c32.733-64.848,98.162-105.134,170.751-105.134c11.595,0,23.197,1.043,34.485,3.102      c1.835,0.333,3.052,2.092,2.716,3.93c-0.337,1.835-2.082,3.079-3.93,2.716c-10.886-1.983-22.081-2.99-33.271-2.99      c-70.026,0-133.141,38.863-164.719,101.418C1903.27,1047.326,1902.078,1048.006,1900.844,1048.006z"/>
				
					<ellipse transform="matrix(0.7071 -0.7071 0.7071 0.7071 -194.3743 1797.8545)" style="opacity:0.78;fill:none;" cx="2073.015" cy="1133.558" rx="172.167" ry="172.167"/>
				<g>
					
						<linearGradient id="SVGID_00000178902414703234098640000008802139547384216715_" gradientUnits="userSpaceOnUse" x1="2197.4648" y1="932.9371" x2="1753.0776" y2="1678.9899" fill="#56b1b3">
						<stop offset="0" style="stop-color:#f97415" fill="#56b1b3"/>
						<stop offset="1" style="stop-color:#f97415" fill="#56b1b3"/>
					</linearGradient>
					<path style="fill:url(#SVGID_00000178902414703234098640000008802139547384216715_);" d="M2056.12,1261.549v-18.731       c-19.527-0.782-38.84-5.39-52.558-11.395c-4.898-2.144-7.395-7.641-5.988-12.8l4.759-17.448       c1.745-6.4,8.706-9.711,14.825-7.146c13.607,5.704,30.409,10.217,48.525,10.217c18.808,0,32.833-6.376,32.833-19.446       c0-11.794-10.838-18.806-36.977-25.818c-37.295-10.201-64.073-26.459-64.073-59.292c0-29.647,21.677-52.279,59.291-58.335       v-18.733c0-6.028,4.887-10.914,10.914-10.914h11.005c6.027,0,10.914,4.886,10.914,10.914v16.818       c18.068,0.724,31.221,3.813,41.658,7.481c5.348,1.879,8.27,7.64,6.787,13.11l-4.376,16.136       c-1.688,6.222-8.337,9.63-14.368,7.35c-9.61-3.634-23.197-7.418-40.858-7.418c-22.314,0-28.688,9.244-28.688,17.532       c0,10.2,13.388,17.213,42.395,26.139c41.44,12.432,58.653,29.645,58.653,60.566c0,28.371-21.038,53.872-61.84,60.248v20.962       c0,6.028-4.886,10.914-10.914,10.914h-11.006C2061.007,1272.463,2056.12,1267.577,2056.12,1261.549z"/>
				</g>
			</g>
			<g>
				
					<linearGradient id="SVGID_00000080172820538508197120000000950799945320248219_" gradientUnits="userSpaceOnUse" x1="1917.4197" y1="1942.9874" x2="2207.8308" y2="1605.9033" fill="#56b1b3">
					<stop offset="0" style="stop-color:#E1473D" fill="#56b1b3"/>
					<stop offset="1" style="stop-color:#E9605A" fill="#56b1b3"/>
				</linearGradient>
				
					<circle style="fill:url(#SVGID_00000080172820538508197120000000950799945320248219_);" cx="2213.697" cy="1599.094" r="216.512"/>
				
					<linearGradient id="SVGID_00000053512532763403868590000010037408998244100541_" gradientUnits="userSpaceOnUse" x1="2371.9321" y1="1360.0464" x2="1513.1788" y2="2657.3779" fill="#56b1b3">
					<stop offset="0" style="stop-color:#f97415" fill="#56b1b3"/>
					<stop offset="1" style="stop-color:#f97415" fill="#56b1b3"/>
				</linearGradient>
				
					<circle style="fill:url(#SVGID_00000053512532763403868590000010037408998244100541_);" cx="2213.697" cy="1599.094" r="209.313"/>
				<path style="opacity:0.78;fill:none;" d="M2041.097,1515.525c-0.511,0-1.029-0.115-1.518-0.363      c-1.666-0.841-2.336-2.874-1.495-4.537c33.663-66.696,100.956-108.13,175.615-108.13c11.915,0,23.847,1.076,35.465,3.194      c1.835,0.333,3.052,2.092,2.716,3.93c-0.333,1.835-2.102,3.072-3.93,2.716c-11.216-2.046-22.741-3.082-34.25-3.082      c-72.094,0-137.074,40.008-169.583,104.415C2043.522,1514.845,2042.331,1515.525,2041.097,1515.525z"/>
				
					<ellipse transform="matrix(0.7071 -0.7071 0.7071 0.7071 -484.243 2038.2449)" style="opacity:0.78;fill:none;" cx="2218.258" cy="1603.655" rx="177.158" ry="177.158"/>
				<g>
					
						<linearGradient id="SVGID_00000081643721672537451300000011226336041891399354_" gradientUnits="userSpaceOnUse" x1="2346.3149" y1="1397.2189" x2="1889.0461" y2="2164.8975" fill="#56b1b3">
						<stop offset="0" style="stop-color:#f97415" fill="#56b1b3"/>
						<stop offset="1" style="stop-color:#f97415" fill="#56b1b3"/>
					</linearGradient>
					<path style="fill:url(#SVGID_00000081643721672537451300000011226336041891399354_);" d="M2200.873,1735.357v-19.274       c-20.092-0.804-39.966-5.546-54.081-11.725c-5.04-2.206-7.61-7.863-6.161-13.171l4.896-17.953       c1.796-6.586,8.959-9.993,15.254-7.354c14.002,5.87,31.291,10.514,49.933,10.514c19.352,0,33.784-6.561,33.784-20.01       c0-12.135-11.152-19.351-38.049-26.566c-38.377-10.496-65.93-27.225-65.93-61.01c0-30.506,22.306-53.795,61.01-60.026v-19.276       c0-6.202,5.028-11.23,11.23-11.23h11.324c6.202,0,11.23,5.028,11.23,11.23v17.307c18.592,0.744,32.126,3.923,42.866,7.697       c5.502,1.933,8.51,7.861,6.983,13.49l-4.503,16.604c-1.736,6.403-8.579,9.91-14.784,7.563       c-9.888-3.739-23.869-7.633-42.042-7.633c-22.961,0-29.52,9.512-29.52,18.04c0,10.497,13.776,17.712,43.625,26.897       c42.641,12.793,60.354,30.504,60.354,62.322c0,29.193-21.648,55.434-63.633,61.995v21.57c0,6.202-5.028,11.23-11.23,11.23       h-11.325C2205.901,1746.587,2200.873,1741.559,2200.873,1735.357z"/>
				</g>
			</g>
			<g>
				
					<linearGradient id="SVGID_00000085939572064990373720000010457862698887370414_" gradientUnits="userSpaceOnUse" x1="2274.3733" y1="1556.1299" x2="2487.1555" y2="1309.151" fill="#56b1b3">
					<stop offset="0" style="stop-color:#E1473D" fill="#56b1b3"/>
					<stop offset="1" style="stop-color:#E9605A" fill="#56b1b3"/>
				</linearGradient>
				
					<circle style="fill:url(#SVGID_00000085939572064990373720000010457862698887370414_);" cx="2491.453" cy="1304.162" r="158.637"/>
				
					<linearGradient id="SVGID_00000173144934067602887660000018283994243510384023_" gradientUnits="userSpaceOnUse" x1="2607.3911" y1="1129.0134" x2="1978.1886" y2="2079.5591" fill="#56b1b3">
					<stop offset="0" style="stop-color:#f97415" fill="#56b1b3"/>
					<stop offset="1" style="stop-color:#f97415" fill="#56b1b3"/>
				</linearGradient>
				
					<circle style="fill:url(#SVGID_00000173144934067602887660000018283994243510384023_);" cx="2491.453" cy="1304.162" r="153.362"/>
				<path style="opacity:0.78;fill:none;" d="M2364.991,1243.834c-0.511,0-1.03-0.115-1.518-0.363      c-1.666-0.841-2.336-2.874-1.495-4.537c24.817-49.175,74.431-79.72,129.476-79.72c8.793,0,17.59,0.792,26.146,2.353      c1.835,0.333,3.052,2.092,2.716,3.93c-0.333,1.835-2.099,3.075-3.93,2.716c-8.153-1.485-16.544-2.241-24.932-2.241      c-52.481,0-99.782,29.123-123.444,76.004C2367.417,1243.155,2366.225,1243.834,2364.991,1243.834z"/>
				
					<ellipse transform="matrix(0.7071 -0.7071 0.7071 0.7071 -193.8364 2147.0454)" style="opacity:0.78;fill:none;" cx="2494.795" cy="1307.504" rx="129.802" ry="129.802"/>
				<g>
					
						<linearGradient id="SVGID_00000151508053782695348880000002327566084466962606_" gradientUnits="userSpaceOnUse" x1="2588.6216" y1="1156.2491" x2="2253.5837" y2="1718.722" fill="#56b1b3">
						<stop offset="0" style="stop-color:#f97415" fill="#56b1b3"/>
						<stop offset="1" style="stop-color:#f97415" fill="#56b1b3"/>
					</linearGradient>
					<path style="fill:url(#SVGID_00000151508053782695348880000002327566084466962606_);" d="M2482.057,1404v-14.122       c-14.721-0.589-29.282-4.064-39.625-8.591c-3.693-1.617-5.575-5.761-4.515-9.65l3.587-13.154       c1.316-4.826,6.564-7.321,11.177-5.388c10.26,4.301,22.927,7.704,36.586,7.704c14.179,0,24.754-4.808,24.754-14.661       c0-8.892-8.171-14.178-27.879-19.465c-28.117-7.691-48.306-19.948-48.306-44.702c0-22.352,16.343-39.414,44.702-43.98v-14.124       c0-4.544,3.683-8.229,8.228-8.229h8.297c4.545,0,8.229,3.684,8.229,8.229v12.68c13.622,0.545,23.538,2.874,31.407,5.64       c4.031,1.417,6.235,5.76,5.116,9.884l-3.299,12.166c-1.272,4.691-6.286,7.261-10.832,5.541       c-7.246-2.74-17.489-5.593-30.804-5.593c-16.823,0-21.629,6.969-21.629,13.218c0,7.69,10.093,12.977,31.963,19.707       c31.243,9.372,44.22,22.35,44.22,45.662c0,21.39-15.861,40.616-46.624,45.423V1404c0,4.544-3.684,8.228-8.228,8.228h-8.298       C2485.741,1412.229,2482.057,1408.545,2482.057,1404z"/>
				</g>
			</g>
		</g>
		<g>
			
				<linearGradient id="SVGID_00000067204769358188678700000012959802805664272809_" gradientUnits="userSpaceOnUse" x1="9997.4727" y1="3105.0527" x2="9408.5352" y2="3745.6523" gradientTransform="matrix(1 0 0 1 -8938.5107 0)" fill="#56b1b3">
				<stop offset="0" style="stop-color:#1e6668" fill="#56b1b3"/>
				<stop offset="1" style="stop-color:#56b1b3" fill="#56b1b3"/>
			</linearGradient>
			<path style="fill:url(#SVGID_00000067204769358188678700000012959802805664272809_);" d="M872.798,3152.774     c0,0-6.1,34.528-9.09,68.708c-1.169,13.358,9.13,24.956,22.528,25.515c45.516,1.895,142.88,5.582,177.817,4.022     c5.252-0.234,8.686-5.611,6.743-10.496c-1.629-4.093-4.771-7.403-8.773-9.242l-160.825-73.915L872.798,3152.774z"/>
			
				<linearGradient id="SVGID_00000082345398606506524990000016982164536867567542_" gradientUnits="userSpaceOnUse" x1="9806.3125" y1="3152.6309" x2="9858.625" y2="3152.6309" gradientTransform="matrix(1 0 0 1 -8938.5107 0)" fill="#56b1b3">
				<stop offset="0" style="stop-color:#f97415" fill="#56b1b3"/>
				<stop offset="1" style="stop-color:#feb3b1" fill="#56b1b3"/>
			</linearGradient>
			<path style="fill:url(#SVGID_00000082345398606506524990000016982164536867567542_);" d="M867.802,3132.486l4.901,41.3     c0,0,28.172,13.115,47.412-1.653l-11.667-46.026L867.802,3132.486z"/>
			
				<linearGradient id="SVGID_00000176743365013832443160000017349987237892959642_" gradientUnits="userSpaceOnUse" x1="919.4326" y1="2423.9312" x2="682.9124" y2="3333.9709" fill="#56b1b3">
				<stop offset="0" style="stop-color:#0d5b5b" fill="#56b1b3"/>
				<stop offset="1" style="stop-color:#328c8e" fill="#56b1b3"/>
			</linearGradient>
			<path style="fill:url(#SVGID_00000176743365013832443160000017349987237892959642_);" d="M871.484,2356.021     c-2.117,10.785-11.361,538.218,45.017,774.578c0.92,3.857-1.035,7.832-4.706,9.332c-8.647,3.533-25.599,8.649-45.916,9.331     c-6.292,0.211-11.933-3.877-13.708-9.917c-16.115-54.84-93.338-329.6-103.413-592.07c-11.256-293.285,0-9.986,0-9.986     l6.602-181.291L871.484,2356.021z"/>
			
				<linearGradient id="SVGID_00000000204906760799277160000005784789690195520689_" gradientUnits="userSpaceOnUse" x1="9865.3545" y1="2983.5889" x2="9276.416" y2="3624.1885" gradientTransform="matrix(1 0 0 1 -8938.5107 0)" fill="#56b1b3">
				<stop offset="0" style="stop-color:#1e6668" fill="#56b1b3"/>
				<stop offset="1" style="stop-color:#56b1b3" fill="#56b1b3"/>
			</linearGradient>
			<path style="fill:url(#SVGID_00000000204906760799277160000005784789690195520689_);" d="M687.795,3170.787     c0,0-9.708,17.431-19.108,63.75c-1.697,8.366,4.148,16.372,12.643,17.206c15.03,1.478,38.167,3.379,56.701,3.251     c8.544-0.059,15.212-7.498,14.182-15.98c-2.053-16.907-8.449-44.646-28.206-66.265L687.795,3170.787z"/>
			
				<linearGradient id="SVGID_00000181770098749532526530000007085851163589314218_" gradientUnits="userSpaceOnUse" x1="9617.7793" y1="3149.9485" x2="9662.9463" y2="3149.9485" gradientTransform="matrix(1 0 0 1 -8938.5107 0)" fill="#56b1b3">
				<stop offset="0" style="stop-color:#f97415" fill="#56b1b3"/>
				<stop offset="1" style="stop-color:#feb3b1" fill="#56b1b3"/>
			</linearGradient>
			<path style="fill:url(#SVGID_00000181770098749532526530000007085851163589314218_);" d="M679.268,3117.665l11.45,62.457     c0,0,11.321,8.422,33.716,2.317l-5.465-67.2L679.268,3117.665z"/>
			
				<linearGradient id="SVGID_00000016781406080130313220000015214821501957761678_" gradientUnits="userSpaceOnUse" x1="785.2243" y1="2389.051" x2="548.704" y2="3299.0911" fill="#56b1b3">
				<stop offset="0" style="stop-color:#0d5b5b" fill="#56b1b3"/>
				<stop offset="1" style="stop-color:#328c8e" fill="#56b1b3"/>
			</linearGradient>
			<path style="fill:url(#SVGID_00000016781406080130313220000015214821501957761678_);" d="M648.337,2372.206     c-46.111,278.278,10.002,687.787,28.926,767.937c1.158,4.907,5.119,8.667,10.093,9.491c8.447,1.4,22.354,2.542,36.066-1.439     c4.724-1.372,8.042-5.633,8.235-10.549c2.539-64.799-2.031-462.605,40.934-619.82c2.177-7.967,7.042-14.916,13.775-19.701     l83.39-59.283l6.393-95.826L648.337,2372.206z"/>
			<g>
				
					<linearGradient id="SVGID_00000182497968539430714560000003911619112409292977_" gradientUnits="userSpaceOnUse" x1="1116.2535" y1="1502.9969" x2="661.2365" y2="2352.2122" fill="#56b1b3">
					<stop offset="0" style="stop-color:#f97415" fill="#56b1b3"/>
					<stop offset="1" style="stop-color:#f97415" fill="#56b1b3"/>
				</linearGradient>
				<path style="fill:url(#SVGID_00000182497968539430714560000003911619112409292977_);" d="M942.151,1844.923      c-138.184-2.283-290.653,36.282-290.653,36.282c-41.19,240.34-7.203,517.555-7.203,517.555      c106.978,28.054,227.655-17.152,227.655-17.152c17.781-100.457,100.739-383.174,100.739-383.174      c67.516-8.379,123.134-27.859,168.937-53.612c-34.937-40.497-51.407-92.027-58.561-122.489      C1034.21,1837.517,984.772,1845.627,942.151,1844.923z"/>
				
					<linearGradient id="SVGID_00000102535708646413414580000012003402798364661906_" gradientUnits="userSpaceOnUse" x1="-5272.3379" y1="1476.4883" x2="-5180.04" y2="1740.198" gradientTransform="matrix(-1 0 0 1 -3963.2288 0)" fill="#56b1b3">
					<stop offset="0" style="stop-color:#f97415" fill="#56b1b3"/>
					<stop offset="1" style="stop-color:#feb3b1" fill="#56b1b3"/>
				</linearGradient>
				<path style="fill:url(#SVGID_00000102535708646413414580000012003402798364661906_);" d="M1350.32,1641.386      c-13.574-16.395-30.755-8.639-30.755-8.639c-20.335,85.897-126.958,155.543-236.499,189.587      c7.154,30.461,23.624,81.992,58.561,122.489C1323.42,1842.608,1350.32,1641.386,1350.32,1641.386z"/>
			</g>
			<g>
				
					<linearGradient id="SVGID_00000098202610669840527460000016354698562334999992_" gradientUnits="userSpaceOnUse" x1="1690.6868" y1="1486.8433" x2="1285.224" y2="1598.3458" fill="#56b1b3">
					<stop offset="0" style="stop-color:#f97415" fill="#56b1b3"/>
					<stop offset="1" style="stop-color:#feb3b1" fill="#56b1b3"/>
				</linearGradient>
				<path style="fill:url(#SVGID_00000098202610669840527460000016354698562334999992_);" d="M1347.026,1645.555      c1.421,4.516-15.028,11.391-24.712-7.076c-0.339-8.851-5.721-46.769-0.432-53.979c28.167-38.402,82.779-86.542,82.779-86.542      c9.23,9.107,1.626,18.053,1.626,18.053l-26.492,27.598c5.542,10.014,12.301,18.466,15.468,30.578      c2.4,9.173,0.932,18.975-3.701,27.323c-4.65,8.377-10.995,19.268-16.993,27.792      C1363.214,1645.434,1347.026,1645.555,1347.026,1645.555z"/>
				
					<linearGradient id="SVGID_00000080206697489164890300000007796473944333812361_" gradientUnits="userSpaceOnUse" x1="-5280.3218" y1="1672.5825" x2="-5349.8457" y2="1532.3357" gradientTransform="matrix(-1 0 0 1 -3963.2288 0)" fill="#56b1b3">
					<stop offset="0" style="stop-color:#f97415" fill="#56b1b3"/>
					<stop offset="1" style="stop-color:#feb3b1" fill="#56b1b3"/>
				</linearGradient>
				<path style="fill:url(#SVGID_00000080206697489164890300000007796473944333812361_);" d="M1368.206,1561.516l-24.143,20.466      l-7.58,20.376l21.526,23.88c0,0,7.237-40.431,12.616-49.181S1373.215,1564.075,1368.206,1561.516z"/>
			</g>
			
				<linearGradient id="SVGID_00000115476360058755855220000015469158116637649292_" gradientUnits="userSpaceOnUse" x1="940.0967" y1="1408.6119" x2="485.0782" y2="2257.8298" fill="#56b1b3">
				<stop offset="0" style="stop-color:#f97415" fill="#56b1b3"/>
				<stop offset="1" style="stop-color:#f97415" fill="#56b1b3"/>
			</linearGradient>
			<path style="fill:url(#SVGID_00000115476360058755855220000015469158116637649292_);" d="M704.5,2015.008l-53.001-133.802     c0,0-129.071,87.698-150.298,198.89c24.388,1.796,68.766,8.14,112.204,30.073C622.951,2057.665,704.5,2015.008,704.5,2015.008z"/>
			
				<linearGradient id="SVGID_00000183928856967150348130000017907231107002551996_" gradientUnits="userSpaceOnUse" x1="9436.7695" y1="2166.4263" x2="9774.9824" y2="2166.4263" gradientTransform="matrix(1 0 0 1 -8938.5107 0)" fill="#56b1b3">
				<stop offset="0" style="stop-color:#f97415" fill="#56b1b3"/>
				<stop offset="1" style="stop-color:#feb3b1" fill="#56b1b3"/>
			</linearGradient>
			<path style="fill:url(#SVGID_00000183928856967150348130000017907231107002551996_);" d="M817.293,2140.911     c0,0-144.914,81.898-193.81,11.967c-10.152-14.521-12.579-28.952-10.078-42.71c-43.438-21.933-87.816-28.277-112.204-30.073     c-6.4,33.521-3.016,69.172,16.681,105.205c85.65,156.677,318.589-8.658,318.589-8.658L817.293,2140.911z"/>
			<g>
				<path style="fill:#ededed;" d="M799.882,2244.521l79.089-276.196c0.897-3.135,3.572-5.422,6.812-5.8      c14.329-1.671,55.85-6.365,103.791-10.42c57.747-4.885,124.807-8.842,164.88-5.475c5.697,0.478,9.14,6.504,6.607,11.629      c-22.788,46.103-116.524,233.639-163.463,295.073c-1.556,2.036-3.961,3.225-6.522,3.201l-183.499-1.707      C802.236,2254.777,798.412,2249.654,799.882,2244.521z"/>
				
					<linearGradient id="SVGID_00000075159503879205894120000004557372087920046989_" gradientUnits="userSpaceOnUse" x1="990.8218" y1="1934.9507" x2="1059.915" y2="1934.9507" fill="#56b1b3">
					<stop offset="0" style="stop-color:#0d5b5b" fill="#56b1b3"/>
					<stop offset="1" style="stop-color:#328c8e" fill="#56b1b3"/>
				</linearGradient>
				<path style="fill:url(#SVGID_00000075159503879205894120000004557372087920046989_);" d="M997.777,1928.16l57.341-9.554      c3.054-0.508,5.555,2.409,4.585,5.349l-5.676,17.2c-0.495,1.497-1.8,2.58-3.363,2.789l-55.179,7.371      c-2.854,0.381-5.208-2.213-4.552-5.017l3.514-15.017C994.825,1929.665,996.139,1928.434,997.777,1928.16z"/>
				
					<linearGradient id="SVGID_00000008870003757269081500000010040081269931050373_" gradientUnits="userSpaceOnUse" x1="954.7383" y1="1959.5969" x2="1086.6576" y2="1959.5969" fill="#56b1b3">
					<stop offset="0" style="stop-color:#0d5b5b" fill="#56b1b3"/>
					<stop offset="1" style="stop-color:#328c8e" fill="#56b1b3"/>
				</linearGradient>
				<path style="fill:url(#SVGID_00000008870003757269081500000010040081269931050373_);" d="M954.842,1976.704l4.724-24.605      c0.474-2.468,2.511-4.332,5.011-4.586l115.815-11.752c3.898-0.396,7.02,3.177,6.105,6.986l-7.364,30.661      c-0.589,2.453-2.724,4.225-5.245,4.351l-113.175,5.698C957.03,1983.642,954.147,1980.326,954.842,1976.704z"/>
				
					<linearGradient id="SVGID_00000166661164305451323700000008083601395699066029_" gradientUnits="userSpaceOnUse" x1="9749.8711" y1="2130.9651" x2="9855.2383" y2="2130.9651" gradientTransform="matrix(1 0 0 1 -8938.5107 0)" fill="#56b1b3">
					<stop offset="0" style="stop-color:#f97415" fill="#56b1b3"/>
					<stop offset="1" style="stop-color:#feb3b1" fill="#56b1b3"/>
				</linearGradient>
				<path style="fill:url(#SVGID_00000166661164305451323700000008083601395699066029_);" d="M818.99,2177.792      c0,0-11.017-45.302-6.573-61.374c4.445-16.073,13.055-36.737,41.755-32.145c28.701,4.592,62.556,16.683,62.556,16.683      s-1.71,20.935-23.523,14.181l13.527,10.466c0,0-1.933,16.762-20.358,7.807l12.581,13.88c0,0-7.913,13.767-21.468,4.937      C863.93,2143.396,857.432,2183.248,818.99,2177.792z"/>
			</g>
			
				<linearGradient id="SVGID_00000004544088559279346540000017888901411439023802_" gradientUnits="userSpaceOnUse" x1="855.6606" y1="1650.782" x2="810.6094" y2="1889.5538" fill="#56b1b3">
				<stop offset="0" style="stop-color:#f97415" fill="#56b1b3"/>
				<stop offset="1" style="stop-color:#feb3b1" fill="#56b1b3"/>
			</linearGradient>
			<path style="fill:url(#SVGID_00000004544088559279346540000017888901411439023802_);" d="M802.183,1732.739l-43.968,127.152     c-0.728,2.106,0.137,4.438,2.088,5.517c11.985,6.627,55.165,25.78,107.201-7.212c5.421-3.437,9.111-9.042,9.934-15.408     l14.238-110.05H802.183z"/>
			<g>
				
					<linearGradient id="SVGID_00000179630381224489506980000010064684465653457848_" gradientUnits="userSpaceOnUse" x1="-1592.4578" y1="3039.2546" x2="-1761.3285" y2="3262.657" gradientTransform="matrix(0.8971 -0.4417 0.4417 0.8971 972.5545 -1794.4351)" fill="#56b1b3">
					<stop offset="0" style="stop-color:#f97415" fill="#56b1b3"/>
					<stop offset="1" style="stop-color:#feb3b1" fill="#56b1b3"/>
				</linearGradient>
				<path style="fill:url(#SVGID_00000179630381224489506980000010064684465653457848_);" d="M915.697,1619.955      c0.983,1.997,17.569,148.252,17.569,148.252l-83.71,7.695l-36.315-136.284C813.241,1639.619,899.234,1586.518,915.697,1619.955z      "/>
				
					<linearGradient id="SVGID_00000134209344456798089470000002037133700625181614_" gradientUnits="userSpaceOnUse" x1="928.9023" y1="1596.2361" x2="741.9388" y2="1902.5857" fill="#56b1b3">
					<stop offset="0" style="stop-color:#0d5b5b" fill="#56b1b3"/>
					<stop offset="1" style="stop-color:#328c8e" fill="#56b1b3"/>
				</linearGradient>
				<path style="fill:url(#SVGID_00000134209344456798089470000002037133700625181614_);" d="M840.479,1663.766l13.499,73.239      c0.173,0.939,0.463,1.828,0.884,2.686c2.575,5.248,12.758,22.654,29.931,11.149c15.582-10.439,29.958-19.734,41.907-19.942      c5.365-0.093,9.917,3.893,10.52,9.225c1.503,13.288,4.338,43.296,2.823,69.742c-0.307,5.367-4.711,9.563-10.084,9.727      c-16.19,0.495-50.365,0.583-77.874-5.786c-3.728-0.863-6.686-3.65-7.715-7.335c-5.012-17.968-20.45-72.521-27.103-87.057      c-6.245-13.644-26.402-16.482-34.952-17.07c-2.803-0.193-5.38-1.514-7.176-3.674c-6.352-7.634-17.774-26.364,5.102-42.995      c4.788-3.481,5.734-10.17,2.109-14.85c-7.216-9.317-14.045-24.894,2.861-40.193c17.184-15.551,35.691-9.711,46.633-3.633      c4.425,2.458,9.862,1.284,13.095-2.609c1.841-2.217,4.67-3.667,9.005-2.592c5.843,1.448,11.606-2.706,12.441-8.667      c1.604-11.452,7.979-25.233,28.766-28.26c36.887-5.372,53.428,32.062,51.585,57.748c-1.844,25.685-42.167,29.236-64.704,23.913      c-17.135-4.047-32.734,11.101-39.226,18.595C840.749,1657.5,839.91,1660.677,840.479,1663.766z"/>
				
					<linearGradient id="SVGID_00000049924325571791818160000011767597760916926879_" gradientUnits="userSpaceOnUse" x1="-1839.7867" y1="3216.1719" x2="-1704.339" y2="3077.2061" gradientTransform="matrix(0.8971 -0.4417 0.4417 0.8971 972.5545 -1794.4351)" fill="#56b1b3">
					<stop offset="0" style="stop-color:#f97415" fill="#56b1b3"/>
					<stop offset="1" style="stop-color:#feb3b1" fill="#56b1b3"/>
				</linearGradient>
				<path style="fill:url(#SVGID_00000049924325571791818160000011767597760916926879_);" d="M822.447,1746.031      c0,0,1.291-44.894-16.668-49.948c-17.96-5.055-38.156,7.163-23.873,34.739C799.671,1765.124,822.447,1746.031,822.447,1746.031z      "/>
			</g>
		</g>
	</g>
</g>
</svg>
