<?xml version="1.0"?>
<svg xmlns="http://www.w3.org/2000/svg" xmlns:xlink="http://www.w3.org/1999/xlink" version="1.1" x="0px" y="0px" viewBox="0 0 3710 3710" style="enable-;background-color:transparent;" xml:space="preserve">
<g id="Background">
	<g>
		<g>
			<rect style="fill:none;" width="3710" height="3710" fill="none"/>
		</g>
	</g>
</g>
<g id="Illustration">
	<g>
		<linearGradient id="SVGID_1_" gradientUnits="userSpaceOnUse" x1="3602.1582" y1="4057.5803" x2="1132.9254" y2="990.948" fill="none">
			<stop offset="0" style="stop-color:#74c8c9" fill="none"/>
			<stop offset="1" style="stop-color:#e0efef" fill="none"/>
		</linearGradient>
		<path style="fill:url(#SVGID_1_);" d="M2925.14,2846.63c-56.843,59.624-110.626,98.074-153.12,128.453    c-499.503,357.094-1090.549,253.003-1216.163,227.583c-185.492-37.537-544.044-110.096-803.271-413.831    c-392.189-459.526-331.119-1183.496-26.911-1661.399c55.644-87.417,349.574-572.599,946.985-650.407    c361.547-47.088,782.994,47.884,1088.195,302.65C3401.5,1314.455,3355.892,2394.8,2925.14,2846.63z"/>
		<g>
			<g>
				<path style="fill:#275f60;" d="M1264.994,2208.191c0,0,8.968-377.027-164.688-477.936      c-173.654-100.909-503.833-163.998-516.209-705.373c-7.246-316.945-15.088-455.519-20.345-515.943      c-2.05-23.571,18.895-42.596,42.146-38.217c164.465,30.983,698.742,158.509,810.758,523.177      C1549.451,1426.218,1264.994,2208.191,1264.994,2208.191z"/>
				<path style="opacity:0.6;fill:none;" d="M733.09,621.351c180.534,161.011,389.288,445.966,500.556,730.923      c14.283,46.962,56.06,146.833,74.203,324.277c16.204,147.992,8.149,304.374-11.5,407.891c-1.242,6.544-7.554,10.843-14.099,9.6      c-11.253-2.135-9.756-14.238-9.655-13.856c22.44-176.862,13.125-396.996-38.293-595.621      c-65.691-243.888-212.207-480.347-363.753-680.897l-15.595-19.748C737.544,633.136,712.826,632.025,723.802,621.514      C726.394,619.032,730.452,619.01,733.09,621.351z"/>
			</g>
			<g>
				<path style="fill:#56b1b3;" d="M1544.063,2933.076c23.495,11.521-222.425-297.726-299.461-783.42      c-36.3-228.872-36.775-515.629-167.15-626.135c-108.507-91.971-477.743-33.906-598.557-11.84      c-15.096,2.757-20.179,21.827-8.427,31.697c57.937,48.657,181.875,163.427,214.168,279.094      c42.564,152.458,187.51,249.429,317.272,275.673c129.762,26.243,201.946,51.712,265.163,259.23      C1330.287,2564.894,1477.305,2900.342,1544.063,2933.076z"/>
				<path style="opacity:0.6;fill:none;" d="M648.813,1576.097c154.14,6.456,319.598,76.769,403.561,208.663l7.925,12.586      c18.304,29.511,122.038,239.298,179.652,413.201c0.717,2.168-0.458,4.508-2.625,5.226c-3.682,1.219-5.527-2.833-5.175-2.475      c-40.141-98.242-97.793-222.797-143.71-315.941c-49.241-101.638-83.701-170.471-196.018-236.403      c-125.012-71.005-244.443-78.315-244.085-78.241c-1.823-0.186-3.15-1.815-2.964-3.637      C645.554,1577.322,647.077,1576.028,648.813,1576.097z"/>
			</g>
		</g>
		<g>
			
				<linearGradient id="SVGID_00000034080351789809116350000000616938529608491450_" gradientUnits="userSpaceOnUse" x1="2175.2659" y1="928.2537" x2="1716.6105" y2="2762.8806" fill="none">
				<stop offset="0" style="stop-color:#56b1b3" fill="none"/>
				<stop offset="1" style="stop-color:#093e3f" fill="none"/>
			</linearGradient>
			<path style="fill:url(#SVGID_00000034080351789809116350000000616938529608491450_);" d="M990.707,943.215     c0-92.824,75.249-168.072,168.073-168.072h1429.297c78.854,0,143.874,61.794,147.883,140.546l105.503,2072.214     c3.137,61.626-45.374,113.607-107.069,114.729l-1638.155,29.773c-57.97,1.053-105.532-45.651-105.532-103.631V943.215z"/>
			<path style="fill:#56b1b3;" d="M1335.66,3097.176h-0.052l-183.3-2.369c-61.292-0.795-111.155-51.308-111.155-112.602v-276.749     c0-2.163,1.752-3.913,3.913-3.913c2.161,0,3.913,1.75,3.913,3.913v276.749c0,57.033,46.397,104.034,103.43,104.775l183.298,2.37     c2.161,0.026,3.89,1.804,3.863,3.963C1339.543,3095.457,1337.796,3097.176,1335.66,3097.176z"/>
			<path style="fill:#56b1b3;" d="M1045.066,2623.645c-2.161,0-3.913-1.75-3.913-3.914v-44.819c0-2.163,1.752-3.913,3.913-3.913     c2.161,0,3.913,1.75,3.913,3.913v44.819C1048.979,2621.895,1047.227,2623.645,1045.066,2623.645z"/>
			<g>
				<path style="fill:#56b1b3;" d="M1107.803,807.038c-0.175-29.698,25.943-52.684,55.373-48.693      c195.183,26.469,866.369,108.332,1421.296,65.733c25.307-1.943,47.269,17.232,48.616,42.577l110.625,2081.451      c1.517,28.54-20.277,52.946-48.807,54.634c-233.392,13.812-1194.574,67.205-1537.414,31.296      c-20.866-2.186-36.705-19.753-36.828-40.733L1107.803,807.038z"/>
				<path style="opacity:0.6;fill:none;" d="M1130.794,859.198c-0.168-28.58,24.966-50.7,53.288-46.859      c187.834,25.472,833.745,104.253,1367.777,63.258c24.354-1.869,45.489,16.583,46.785,40.974l106.459,2003.073      c1.46,27.465-19.513,50.952-46.969,52.577c-224.604,13.292-1149.592,64.674-1479.521,30.117      c-20.08-2.103-35.323-19.009-35.441-39.199L1130.794,859.198z"/>
				<g>
					<g style="opacity:0.6;">
						<path style="fill:none;" d="M2486.213,1185.426c2.524,0,4.529-2.064,4.455-4.587l-0.574-19.639        c-0.074-2.523-2.198-4.624-4.722-4.669l-539.804-9.62c-2.523-0.045-3.902,1.866-3.064,4.246l10.545,29.939        c0.838,2.381,3.589,4.328,6.113,4.328H2486.213z"/>
					</g>
					<g style="opacity:0.79;">
						<path style="fill:none;" d="M2492.933,1044.336c2.524,0,4.546-2.065,4.493-4.588l-0.675-32.242        c-0.053-2.523-2.16-4.639-4.683-4.702l-556.582-13.835c-2.523-0.063-4.082,1.888-3.464,4.335l11.762,46.583        c0.618,2.447,3.188,4.449,5.712,4.449H2492.933z"/>
					</g>
					<g style="opacity:0.6;">
						<path style="fill:none;" d="M1945.567,1226.969c-2.523-0.045-3.902,1.866-3.064,4.246l10.545,29.939        c0.838,2.38,3.589,4.328,6.113,4.328h527.051c2.524,0,4.529-2.064,4.455-4.587l-0.574-19.639        c-0.074-2.523-2.198-4.624-4.722-4.669L1945.567,1226.969z"/>
					</g>
					<g style="opacity:0.6;">
						<path style="fill:none;" d="M1945.567,1308.191c-2.523-0.045-3.902,1.866-3.064,4.246l10.545,29.939        c0.838,2.38,3.589,4.328,6.113,4.328h527.051c2.524,0,4.529-2.064,4.455-4.587l-0.574-19.639        c-0.074-2.523-2.198-4.624-4.722-4.669L1945.567,1308.191z"/>
					</g>
				</g>
				<g>
					<g>
						<defs fill="none">
							<circle id="SVGID_00000104697571140700101250000017348699130635904899_" cx="1540.25" cy="1202.817" r="274.424" fill="none"/>
						</defs>
						<use xlink:href="#SVGID_00000104697571140700101250000017348699130635904899_" style="overflow:visible;fill:none;"/>
						<clipPath id="SVGID_00000182507728586949742450000011973042895411067520_" fill="none">
							<use xlink:href="#SVGID_00000104697571140700101250000017348699130635904899_" style="overflow:visible;" fill="none"/>
						</clipPath>
						<g style="clip-path:url(#SVGID_00000182507728586949742450000011973042895411067520_);">
							
								<linearGradient id="SVGID_00000103237127838917553120000017453522464536301442_" gradientUnits="userSpaceOnUse" x1="1546.334" y1="978.9129" x2="1517.3197" y2="1447.5988" fill="none">
								<stop offset="0" style="stop-color:#09005d" fill="none"/>
								<stop offset="1" style="stop-color:#0f917c" fill="none"/>
							</linearGradient>
							<path style="fill:url(#SVGID_00000103237127838917553120000017453522464536301442_);" d="M1479.406,1148.297         c-16.808,0-34.243,2.143-40.823-18.105c-12.389-38.132,8.422-95.14,42.547-115.898c11.415-6.944,24.723-9.982,37.823-12.611         c15.407-3.092,28.716-3.863,42.609,3.609c12.815,6.893,25.258-4.188,38.542,4.662c11.291,7.521,19.946,19.365,25.981,31.333         c7.88,15.628,11.975,32.86,15.41,50.022c0.778,3.887,1.525,7.913,0.656,11.781c-0.728,3.242-2.538,6.12-4.34,8.912         c-13.779,21.341-32.12,36.294-58.644,36.295C1579.168,1148.297,1479.848,1148.297,1479.406,1148.297z"/>
							
								<linearGradient id="SVGID_00000063596077843911663660000009895639192755605389_" gradientUnits="userSpaceOnUse" x1="1444.8123" y1="972.6284" x2="1415.7982" y2="1441.3119" fill="none">
								<stop offset="0" style="stop-color:#09005d" fill="none"/>
								<stop offset="1" style="stop-color:#0f917c" fill="none"/>
							</linearGradient>
							<path style="fill:url(#SVGID_00000063596077843911663660000009895639192755605389_);" d="M1476.032,1081.177         c0,0,3.04,6.365-16.754,16.312c-11.037,5.546-32.507,13.744-35.341,37.689c-1.463,12.362-6.292,42.884-18.053,44.771         c-29.293,4.7-68.833,22.983-72.521,58.526c-4.232,40.795,7.502,62.211,28.271,67.544c15.254,3.918,19.12,8.019,16.034,24.142         c-2.959,15.465,8.771,70.954,34.362,85.092c57.346,31.679,107.297-112.664,107.297-112.664l11.737-186.36L1476.032,1081.177z         "/>
							
								<linearGradient id="SVGID_00000110434919046693703300000015124728980621190537_" gradientUnits="userSpaceOnUse" x1="1663.2423" y1="986.1502" x2="1634.2281" y2="1454.8346" fill="none">
								<stop offset="0" style="stop-color:#09005d" fill="none"/>
								<stop offset="1" style="stop-color:#0f917c" fill="none"/>
							</linearGradient>
							<path style="fill:url(#SVGID_00000110434919046693703300000015124728980621190537_);" d="M1607.267,1064.882         c0,0-3.095,6.744,17.056,17.282c11.236,5.876,33.094,14.561,35.979,39.93c1.489,13.097,4.975,31.501,16.949,33.5         c29.822,4.98,64.383,34.037,71.736,90.449c5.613,43.059-6.64,89.241-27.783,94.891c-15.53,4.151-14.362-4.08-11.22,13.003         c3.012,16.384-4.057,10.06-30.11,25.038c-58.381,33.563-116.684-79.515-116.684-79.515l-11.949-197.443L1607.267,1064.882z"/>
							
								<linearGradient id="SVGID_00000065032175393523903610000008615046104248775833_" gradientUnits="userSpaceOnUse" x1="1606.4976" y1="1227.9752" x2="1566.0684" y2="1275.1427" fill="none">
								<stop offset="0" style="stop-color:#cb236d" fill="none"/>
								<stop offset="1" style="stop-color:#f97415" fill="none"/>
							</linearGradient>
							<path style="fill:url(#SVGID_00000065032175393523903610000008615046104248775833_);" d="M1529.223,1271.804         c0,0,44.317-11.42,53.729,2.699c4.706,23.476,7.126,46.801,7.126,46.801l-51.064,9.589l-33.77-7.775l-8.034-4.665         l-3.332-33.261C1493.878,1285.192,1511.149,1275.173,1529.223,1271.804z"/>
							
								<linearGradient id="SVGID_00000031178543981503838190000004984546806556762517_" gradientUnits="userSpaceOnUse" x1="1471.0857" y1="1148.2024" x2="1547.4088" y2="904.5045" fill="none">
								<stop offset="0" style="stop-color:#FEBBBA" fill="none"/>
								<stop offset="1" style="stop-color:#FF928E" fill="none"/>
							</linearGradient>
							<path style="fill:url(#SVGID_00000031178543981503838190000004984546806556762517_);" d="M1476.064,1153.364         c0,0-7.126-21.378-17.814-14.252c-10.689,7.126,16.042,52.603,16.042,52.603L1476.064,1153.364z"/>
							
								<linearGradient id="SVGID_00000155145643934906987520000016343431159381480594_" gradientUnits="userSpaceOnUse" x1="1583.798" y1="1183.5024" x2="1660.1211" y2="939.8044" fill="none">
								<stop offset="0" style="stop-color:#FEBBBA" fill="none"/>
								<stop offset="1" style="stop-color:#FF928E" fill="none"/>
							</linearGradient>
							<path style="fill:url(#SVGID_00000155145643934906987520000016343431159381480594_);" d="M1582.952,1153.364         c0,0,0-32.067,17.815-14.252c17.814,17.815-17.815,42.755-17.815,42.755V1153.364z"/>
							
								<linearGradient id="SVGID_00000040550004502916964530000008116224333093183393_" gradientUnits="userSpaceOnUse" x1="1769.9353" y1="1307.4739" x2="1907.7072" y2="1042.0105" fill="none">
								<stop offset="0" style="stop-color:#f97415" fill="none"/>
								<stop offset="1" style="stop-color:#FF928E" fill="none"/>
							</linearGradient>
							<path style="fill:url(#SVGID_00000040550004502916964530000008116224333093183393_);" d="M1750.751,1444.565         c-14.916-71.998-36.332-128.272-43.097-131.53l-40.449,100.072c0,0-8.166,29.821-7.508,66.845h62.208         C1740.556,1479.953,1754.534,1462.828,1750.751,1444.565z"/>
							
								<linearGradient id="SVGID_00000039097017131433263810000011210718919164155562_" gradientUnits="userSpaceOnUse" x1="1528.3674" y1="1182.1041" x2="1666.1393" y2="916.641" fill="none">
								<stop offset="0" style="stop-color:#f97415" fill="none"/>
								<stop offset="1" style="stop-color:#FF928E" fill="none"/>
							</linearGradient>
							<path style="fill:url(#SVGID_00000039097017131433263810000011210718919164155562_);" d="M1439.385,1479.953         c1.864-32.162,1.05-52.419,1.05-52.419l-57.007-92.548c0,0-7.126,28.372-14.252,103.193         c-0.331,3.477-0.647,7.014-0.948,10.603c-1.409,16.78,11.855,31.171,28.694,31.171H1439.385z"/>
							
								<linearGradient id="SVGID_00000118366044683373370760000015194054496618548634_" gradientUnits="userSpaceOnUse" x1="1532.6365" y1="1400.9358" x2="1567.8243" y2="1165.4489" fill="none">
								<stop offset="0" style="stop-color:#FEBBBA" fill="none"/>
								<stop offset="1" style="stop-color:#FF928E" fill="none"/>
							</linearGradient>
							<path style="fill:url(#SVGID_00000118366044683373370760000015194054496618548634_);" d="M1518.298,1480.153h62.072         l16.833-176.933c0,0-14.251-3.67-21.377-28.61c-7.126-24.94-10.69-74.874-10.69-74.874l-64.132,14.224         c0,0,7.126,67.896-7.126,99.962L1518.298,1480.153z"/>
							
								<linearGradient id="SVGID_00000156558736936091298790000011506668618558294660_" gradientUnits="userSpaceOnUse" x1="1515.5992" y1="1451.8494" x2="1532.5741" y2="1338.2491" fill="none">
								<stop offset="0" style="stop-color:#09005d" fill="none"/>
								<stop offset="1" style="stop-color:#0f917c" fill="none"/>
							</linearGradient>
							<path style="fill:url(#SVGID_00000156558736936091298790000011506668618558294660_);" d="M1613.871,1480.153l8.931-111.688         c-65.018,38.897-131.88,37.012-199.693,16.384l19.247,95.304H1613.871z"/>
							
								<linearGradient id="SVGID_00000136383608100162130340000009090748303902322598_" gradientUnits="userSpaceOnUse" x1="1565.4994" y1="1201.3752" x2="1703.2709" y2="935.9128" fill="none">
								<stop offset="0" style="stop-color:#f97415" fill="none"/>
								<stop offset="1" style="stop-color:#FF928E" fill="none"/>
							</linearGradient>
							<path style="fill:url(#SVGID_00000136383608100162130340000009090748303902322598_);" d="M1533.533,1479.953         c-19.267-92.931-39.654-194.648-39.654-194.648l-10.689,21.322l-99.762,28.587c4.885,22.795,19.798,85.535,34.794,144.739         H1533.533z"/>
							
								<linearGradient id="SVGID_00000129925975123719531930000006918433518944367757_" gradientUnits="userSpaceOnUse" x1="1687.8593" y1="1264.8773" x2="1825.6309" y2="999.4144" fill="none">
								<stop offset="0" style="stop-color:#f97415" fill="none"/>
								<stop offset="1" style="stop-color:#FF928E" fill="none"/>
							</linearGradient>
							<path style="fill:url(#SVGID_00000129925975123719531930000006918433518944367757_);" d="M1676.087,1479.953         c5.314-28.466,9.997-50.688,9.997-50.688l21.569-116.229c-6.788-6.788-113.301-21.394-113.301-21.394l-11.401-17.018         c0,0-14.223,103.393-26.38,205.33H1676.087z"/>
							
								<linearGradient id="SVGID_00000121996469221842924960000001728864989244618420_" gradientUnits="userSpaceOnUse" x1="1522.7366" y1="1164.3788" x2="1599.0601" y2="920.6797" fill="none">
								<stop offset="0" style="stop-color:#FEBBBA" fill="none"/>
								<stop offset="1" style="stop-color:#FF928E" fill="none"/>
							</linearGradient>
							<path style="fill:url(#SVGID_00000121996469221842924960000001728864989244618420_);" d="M1468.938,1103.483         c0,0-3.563,85.51,7.126,99.762c10.689,14.252,24.94,46.318,49.881,49.881c24.941,3.563,64.133-67.695,64.133-71.259         c0-3.563-3.563-96.199-3.563-96.199S1511.693,1025.099,1468.938,1103.483z"/>
							
								<linearGradient id="SVGID_00000095308076585332496000000007505805323959639967_" gradientUnits="userSpaceOnUse" x1="1444.7567" y1="967.1318" x2="1753.6781" y2="1459.5393" fill="none">
								<stop offset="0" style="stop-color:#09005d" fill="none"/>
								<stop offset="1" style="stop-color:#0f917c" fill="none"/>
							</linearGradient>
							<path style="fill:url(#SVGID_00000095308076585332496000000007505805323959639967_);" d="M1454.686,1089.231         c0,0-14.252,42.755,28.504,28.504c42.755-14.252,42.755-14.252,42.755-14.252s42.755-24.94,49.881-14.252         c7.126,10.689,14.252,37.012,14.252,37.012s14.251-37.012,0-58.389C1575.826,1046.476,1486.753,1028.662,1454.686,1089.231z"/>
						</g>
					</g>
				</g>
				<g>
					<g style="opacity:0.6;">
						<path style="fill:none;" d="M2506.041,1630.46c2.524,0,4.505-2.063,4.402-4.585l-1.298-31.882        c-0.103-2.522-2.251-4.611-4.775-4.644l-1080.995-13.821c-2.524-0.032-3.678,1.795-2.566,4.061l22.949,46.752        c1.112,2.266,4.087,4.119,6.611,4.119H2506.041z"/>
					</g>
					<g style="opacity:0.6;">
						<path style="fill:none;" d="M1423.375,1699.675c-2.524-0.032-3.678,1.795-2.566,4.061l22.949,46.752        c1.112,2.266,4.087,4.119,6.611,4.119h1055.672c2.524,0,4.505-2.063,4.402-4.585l-1.298-31.882        c-0.103-2.522-2.251-4.611-4.775-4.644L1423.375,1699.675z"/>
					</g>
					<g style="opacity:0.6;">
						<path style="fill:none;" d="M1430.095,1825.134c-2.524-0.037-3.771,1.829-2.772,4.147l20.067,46.563        c0.999,2.318,3.881,4.214,6.405,4.214h925.737c2.524,0,4.515-2.064,4.425-4.586l-1.139-31.88        c-0.09-2.522-2.229-4.616-4.752-4.653L1430.095,1825.134z"/>
					</g>
					
						<linearGradient id="SVGID_00000181783492902513745330000013476118527680851371_" gradientUnits="userSpaceOnUse" x1="1288.5941" y1="1511.8232" x2="1192.5786" y2="1954.5618" fill="none">
						<stop offset="0" style="stop-color:#f97415" fill="none"/>
						<stop offset="1" style="stop-color:#FF928E" fill="none"/>
					</linearGradient>
					
						<circle style="fill:url(#SVGID_00000181783492902513745330000013476118527680851371_);" cx="1268.435" cy="1604.778" r="48.01"/>
				</g>
				<g>
					<g style="opacity:0.6;">
						<path style="fill:none;" d="M2519.482,2100.901c2.524,0,4.505-2.063,4.402-4.585l-1.298-31.882        c-0.103-2.522-2.251-4.612-4.775-4.644l-1080.995-13.821c-2.524-0.032-3.678,1.795-2.566,4.061l22.949,46.752        c1.112,2.266,4.087,4.119,6.611,4.119H2519.482z"/>
					</g>
					<g style="opacity:0.6;">
						<path style="fill:none;" d="M1436.816,2176.846c-2.524-0.038-3.791,1.836-2.817,4.165l19.464,46.524        c0.974,2.328,3.836,4.233,6.36,4.233h898.366c2.524,0,4.517-2.064,4.43-4.586l-1.106-31.88        c-0.088-2.522-2.224-4.617-4.748-4.655L1436.816,2176.846z"/>
					</g>
					<g style="opacity:0.6;">
						<path style="fill:none;" d="M1441.296,2306.768c-2.524-0.032-3.683,1.797-2.577,4.065l22.803,46.743        c1.107,2.268,4.077,4.124,6.601,4.124h1049.118c2.524,0,4.505-2.063,4.403-4.585l-1.29-31.882        c-0.102-2.522-2.25-4.612-4.774-4.644L1441.296,2306.768z"/>
					</g>
					
						<ellipse transform="matrix(0.7071 -0.7071 0.7071 0.7071 -1097.3228 1502.386)" style="fill:#56b1b3;" cx="1264.879" cy="2075.779" rx="48.01" ry="48.01"/>
				</g>
				<g>
					<g style="opacity:0.6;">
						<path style="fill:none;" d="M2513.881,2615.025c2.524,0,4.505-2.063,4.402-4.585l-1.298-31.882        c-0.103-2.522-2.251-4.611-4.775-4.644l-1080.995-13.821c-2.524-0.032-3.678,1.795-2.566,4.061l22.949,46.752        c1.112,2.266,4.087,4.119,6.611,4.119H2513.881z"/>
					</g>
					<g style="opacity:0.6;">
						<path style="fill:none;" d="M1431.215,2684.251c-2.523-0.038-3.799,1.838-2.834,4.17l19.247,46.511        c0.965,2.332,3.82,4.24,6.344,4.24h888.534c2.524,0,4.518-2.064,4.431-4.586l-1.094-31.88        c-0.087-2.522-2.222-4.617-4.746-4.656L1431.215,2684.251z"/>
					</g>
					<g style="opacity:0.6;">
						<path style="fill:none;" d="M1437.935,2816.438c-2.523-0.047-3.926,1.871-3.118,4.262l15.662,46.297        c0.809,2.391,3.535,4.347,6.059,4.347h724.673c2.524,0,4.531-2.064,4.46-4.587l-0.894-31.878        c-0.071-2.523-2.193-4.625-4.717-4.672L1437.935,2816.438z"/>
					</g>
					
						<linearGradient id="SVGID_00000008115210763503229120000008683475298490964359_" gradientUnits="userSpaceOnUse" x1="1149.7026" y1="2502.3218" x2="1780.1379" y2="3006.2676" fill="none">
						<stop offset="0" style="stop-color:#56b1b3" fill="none"/>
						<stop offset="1" style="stop-color:#093e3f" fill="none"/>
					</linearGradient>
					
						<circle style="fill:url(#SVGID_00000008115210763503229120000008683475298490964359_);" cx="1258.952" cy="2589.651" r="48.01"/>
				</g>
			</g>
			
				<linearGradient id="SVGID_00000083810152735563555570000017086426657680468157_" gradientUnits="userSpaceOnUse" x1="1813.0734" y1="1112.5055" x2="1984.4402" y2="-6.4147" fill="none">
				<stop offset="0" style="stop-color:#09005d" fill="none"/>
				<stop offset="1" style="stop-color:#0f917c" fill="none"/>
			</linearGradient>
			<path style="fill:url(#SVGID_00000083810152735563555570000017086426657680468157_);" d="M1962.075,492.607     c-51.628-35.917-96.52-35.205-128.121-25.88c-28.828,8.506-47.512,36.338-44.77,66.269l13.628,148.753l162.171,14.392     C1964.984,696.14,2063.326,563.045,1962.075,492.607z M1890.758,612.614c-22.333,0-40.437-18.104-40.437-40.437     c0-22.333,18.104-40.438,40.437-40.438c22.333,0,40.437,18.104,40.437,40.438C1931.195,594.51,1913.091,612.614,1890.758,612.614     z"/>
			<g>
				<path style="fill:#56b1b3;" d="M1819.012,619.174c-2,0-3.707-1.525-3.892-3.558l-2.171-23.69      c-0.198-2.152,1.387-4.055,3.539-4.254c2.195-0.206,4.058,1.388,4.253,3.543l2.171,23.69c0.199,2.152-1.387,4.054-3.539,4.253      C1819.251,619.17,1819.131,619.174,1819.012,619.174z M1814.759,572.75c-2,0-3.707-1.525-3.892-3.558l-1.649-17.984      c-2.614-28.513,15.328-55.061,42.658-63.128c19.356-5.713,39.299-6.531,59.27-2.434c2.117,0.432,3.481,2.503,3.048,4.62      c-0.434,2.114-2.486,3.466-4.619,3.046c-18.708-3.829-37.372-3.069-55.485,2.274c-23.757,7.013-39.352,30.106-37.08,54.912      l1.649,17.984c0.199,2.152-1.387,4.055-3.539,4.254C1814.998,572.746,1814.877,572.75,1814.759,572.75z"/>
			</g>
			
				<linearGradient id="SVGID_00000165942230609199601140000001762966706272307347_" gradientUnits="userSpaceOnUse" x1="1912.0951" y1="493.5858" x2="1816.3308" y2="1431.0615" fill="none">
				<stop offset="0" style="stop-color:#09005d" fill="none"/>
				<stop offset="1" style="stop-color:#0f917c" fill="none"/>
			</linearGradient>
			<path style="fill:url(#SVGID_00000165942230609199601140000001762966706272307347_);" d="M1581.478,777.879v-74.788     c0-25.817,21.397-46.494,47.2-45.61l515.632,17.667c22.883,0.784,41.415,18.846,42.786,41.702l4.309,71.861L1581.478,777.879z"/>
			<path style="fill:#56b1b3;" d="M1773.744,685.661h-22.174c-2.161,0-3.913-1.75-3.913-3.913c0-2.163,1.752-3.913,3.913-3.913     h22.174c2.161,0,3.913,1.75,3.913,3.913C1777.658,683.911,1775.906,685.661,1773.744,685.661z"/>
			<path style="fill:#56b1b3;" d="M1609.387,754.395c-2.161,0-3.913-1.75-3.913-3.913v-30.255c0-23.376,19.018-42.392,42.394-42.392     h81.525c2.161,0,3.913,1.75,3.913,3.913c0,2.163-1.752,3.913-3.913,3.913h-81.525c-19.06,0-34.568,15.508-34.568,34.566v30.255     C1613.301,752.645,1611.548,754.395,1609.387,754.395z"/>
			
				<linearGradient id="SVGID_00000152243581893894758200000016632348268386241159_" gradientUnits="userSpaceOnUse" x1="2110.8079" y1="386.9782" x2="1656.8687" y2="1220.5029" fill="none">
				<stop offset="0" style="stop-color:#56b1b3" fill="none"/>
				<stop offset="1" style="stop-color:#093e3f" fill="none"/>
			</linearGradient>
			<path style="fill:url(#SVGID_00000152243581893894758200000016632348268386241159_);" d="M1371.38,796.765     c1.244-25.898,22.604-46.256,48.532-46.257l901.679-0.025c32.422-0.001,60.14,23.331,65.67,55.278l0.763,4.409     c6.058,34.992-20.883,66.997-56.396,66.997h-925.07c-21.253,0-38.189-17.77-37.169-38.998L1371.38,796.765z"/>
		</g>
		<g>
			<g>
				<g style="opacity:0.3;">
					<path style="fill:#275f60;" d="M2699.022,776.627c-1.219-4.866,1.412-9.967,6.228-11.723       c10.532-3.843,21.388-7.283,32.265-10.229c5.292-1.433,10.743,1.694,12.176,6.984c0.016,0.064,0.032,0.126,0.047,0.188       c1.31,5.231-1.805,10.571-7.033,11.987c-10.334,2.798-20.645,6.067-30.65,9.716c-5.148,1.879-10.848-0.772-12.726-5.923       C2699.206,777.297,2699.106,776.962,2699.022,776.627z M2783.049,756.244c-0.094-0.376-0.167-0.763-0.219-1.158       c-0.698-5.436,3.144-10.411,8.58-11.109c11.167-1.432,22.507-2.401,33.701-2.879c5.477-0.234,10.089,3.996,10.342,9.492       c0.233,5.477-4.02,10.105-9.492,10.338c-10.641,0.455-21.413,1.376-32.026,2.739       C2788.894,764.314,2784.253,761.055,2783.049,756.244z M2869.473,754.869c-0.269-1.072-0.361-2.208-0.249-3.37       c0.532-5.455,5.383-9.449,10.839-8.919c11.183,1.084,22.458,2.671,33.513,4.714c5.39,1,8.945,6.178,7.956,11.564       c-0.997,5.389-6.175,8.952-11.564,7.956c-10.498-1.941-21.202-3.447-31.823-4.478       C2873.853,761.919,2870.464,758.825,2869.473,754.869z M2954.053,772.857c-0.444-1.771-0.403-3.686,0.218-5.546       c1.736-5.199,7.359-8.005,12.557-6.27c10.664,3.564,21.302,7.63,31.618,12.086c5.025,2.177,7.343,8.015,5.174,13.048       c-2.174,5.03-8.016,7.347-13.048,5.174c-9.797-4.233-19.9-8.097-30.035-11.479       C2957.2,778.753,2954.849,776.037,2954.053,772.857z M3032.496,809.254c-0.622-2.484-0.288-5.206,1.147-7.565       c2.847-4.685,8.952-6.174,13.635-3.327c9.583,5.825,19.055,12.143,28.143,18.78c4.43,3.229,5.401,9.438,2.166,13.867       c-3.232,4.426-9.44,5.395-13.87,2.164c-8.638-6.309-17.64-12.314-26.747-17.85       C3034.646,813.911,3033.108,811.699,3032.496,809.254z M3100.929,862.094c-0.806-3.217,0.017-6.764,2.493-9.323       c3.814-3.939,10.095-4.041,14.034-0.23c8.071,7.813,15.91,16.07,23.292,24.543c3.602,4.135,3.169,10.403-0.965,14.004       c-4.13,3.6-10.401,3.168-14.002-0.964c-7.015-8.051-14.459-15.896-22.129-23.319       C3102.27,865.469,3101.364,863.83,3100.929,862.094z M3212.2,1209.141c-0.334-1.333-0.394-2.755-0.131-4.193       c1.921-10.489,3.41-21.203,4.423-31.843c0.52-5.456,5.364-9.459,10.818-8.938c5.457,0.517,9.46,5.362,8.94,10.82       c-1.066,11.206-2.633,22.491-4.655,33.536c-0.987,5.393-6.16,8.962-11.551,7.974       C3216.091,1215.774,3213.117,1212.8,3212.2,1209.141z M3155.915,928.742c-1-3.994,0.57-8.354,4.212-10.726       c4.594-2.993,10.742-1.695,13.734,2.897c6.134,9.413,11.932,19.207,17.234,29.111c2.564,4.843,0.77,10.847-4.065,13.435       c-4.832,2.587-10.847,0.766-13.436-4.067c-5.033-9.406-10.54-18.706-16.363-27.645       C3156.614,930.797,3156.176,929.782,3155.915,928.742z M3218.087,1122.884c-0.159-0.635-0.26-1.296-0.291-1.976       c-0.475-10.659-1.421-21.439-2.801-32.04c-0.706-5.437,3.126-10.417,8.56-11.124c5.435-0.705,10.44,3.117,11.124,8.561       c1.451,11.155,2.445,22.498,2.948,33.714c0.244,5.476-3.997,10.115-9.471,10.359       C3223.363,1130.593,3219.21,1127.366,3218.087,1122.884z M3194.635,1006.003c-1.217-4.859,1.404-9.954,6.21-11.716       c5.146-1.888,10.847,0.753,12.74,5.898c3.865,10.536,7.329,21.381,10.286,32.234c0.021,0.066,0.038,0.136,0.055,0.204       c1.308,5.223-1.796,10.557-7.015,11.982c-5.29,1.443-10.746-1.673-12.187-6.963c-2.813-10.308-6.104-20.608-9.778-30.619       C3194.826,1006.684,3194.72,1006.343,3194.635,1006.003z"/>
					<path style="fill:#275f60;" d="M3193.496,1276.275c-0.475-1.896-0.398-3.951,0.348-5.918c1.815-4.785,3.557-9.687,5.187-14.572       c1.731-5.199,7.354-8.012,12.552-6.279c5.201,1.731,8.02,7.354,6.277,12.554c-1.71,5.138-3.545,10.294-5.453,15.33       c-1.942,5.124-7.674,7.707-12.796,5.764C3196.449,1281.958,3194.259,1279.321,3193.496,1276.275z"/>
				</g>
				<g style="opacity:0.3;">
					<path style="fill:#275f60;" d="M2984.285,1494.881c-1.164-4.646,1.182-9.58,5.726-11.526c4.704-2.011,9.446-4.156,14.09-6.374       c4.948-2.362,10.872-0.267,13.234,4.679c2.371,4.967,0.265,10.872-4.679,13.234c-4.89,2.334-9.884,4.593-14.836,6.713       c-5.04,2.156-10.872-0.182-13.029-5.221C2984.578,1495.891,2984.412,1495.387,2984.285,1494.881z"/>
					<path style="fill:#275f60;" d="M2457.103,1233.891c-1.109-4.43-2.147-8.896-3.115-13.396c-1.15-5.359,2.26-10.637,7.618-11.79       c5.359-1.152,10.662,2.28,11.791,7.616c2.233,10.385,4.881,20.656,7.91,30.643c1.583,5.253-1.371,10.787-6.616,12.378       c-5.249,1.592-10.791-1.372-12.38-6.618C2460.437,1246.549,2458.686,1240.212,2457.103,1233.891z M2446.504,1168.635       c-0.135-0.538-0.226-1.096-0.27-1.669c-0.843-11.041-1.226-22.242-1.139-33.288c0.042-5.48,4.521-9.889,10-9.846       c5.482,0.044,9.906,4.529,9.847,10.003c-0.082,10.492,0.284,21.131,1.082,31.624c0.417,5.464-3.676,10.233-9.139,10.649       C2451.99,1176.48,2447.657,1173.24,2446.504,1168.635z M2480.897,1301.535c-1.137-4.539,1.074-9.387,5.478-11.415       c4.981-2.293,10.874-0.114,13.168,4.865c4.383,9.525,9.236,18.991,14.428,28.137c2.698,4.772,1.032,10.826-3.734,13.531       c-4.77,2.705-10.827,1.033-13.532-3.735c-5.466-9.632-10.576-19.603-15.194-29.632       C2481.248,1302.712,2481.045,1302.125,2480.897,1301.535z M2449.418,1083.579c-0.306-1.222-0.38-2.523-0.188-3.845       c1.603-10.947,3.693-21.957,6.212-32.723c1.249-5.336,6.587-8.649,11.923-7.4c5.34,1.249,8.655,6.583,7.403,11.924       c-2.391,10.223-4.377,20.677-5.898,31.074c-0.792,5.424-5.835,9.176-11.257,8.382       C2453.514,1090.391,2450.366,1087.364,2449.418,1083.579z M2524.794,1374.362c-0.932-3.723,0.353-7.814,3.596-10.297       c4.353-3.332,10.583-2.505,13.915,1.848c6.368,8.323,13.186,16.489,20.259,24.275c3.686,4.057,3.387,10.334-0.674,14.02       c-4.057,3.684-10.331,3.383-14.016-0.674c-7.448-8.196-14.625-16.794-21.332-25.557       C2525.694,1376.87,2525.113,1375.637,2524.794,1374.362z M2583.609,1435.795c-0.745-2.976-0.104-6.256,2.015-8.789       c3.52-4.203,9.779-4.757,13.982-1.238c8.061,6.748,16.499,13.235,25.08,19.281c4.486,3.151,5.56,9.34,2.4,13.829       c-3.158,4.482-9.348,5.554-13.831,2.399c-9.031-6.363-17.91-13.189-26.391-20.292       C2585.194,1439.588,2584.101,1437.758,2583.609,1435.795z M2654.418,1482.944c-0.567-2.264-0.343-4.734,0.816-6.97       c2.518-4.867,8.508-6.771,13.375-4.251c9.344,4.838,18.991,9.334,28.68,13.362c5.059,2.104,7.46,7.907,5.352,12.975       c-2.106,5.06-7.912,7.457-12.976,5.352c-10.194-4.241-20.351-8.971-30.182-14.061       C2656.852,1487.988,2655.086,1485.61,2654.418,1482.944z M2733.819,1513.526c-0.393-1.568-0.407-3.253,0.033-4.928       c1.394-5.301,6.82-8.466,12.121-7.072c10.17,2.676,20.566,4.947,30.905,6.75c5.399,0.942,9.015,6.089,8.074,11.48       c-0.941,5.401-6.083,9.015-11.482,8.073c-10.89-1.898-21.84-4.29-32.545-7.106       C2737.296,1519.767,2734.669,1516.924,2733.819,1513.526z M2818.029,1525.936c-0.221-0.882-0.322-1.81-0.288-2.764       c0.191-5.477,4.789-9.764,10.264-9.57c10.483,0.366,21.119,0.291,31.619-0.229c5.475-0.27,10.13,3.966,10.401,9.423       c0.272,5.475-3.949,10.133-9.425,10.403c-11.053,0.546-22.252,0.627-33.287,0.239       C2822.789,1533.28,2819.076,1530.118,2818.029,1525.936z M2902.85,1519.547c-0.05-0.198-0.092-0.399-0.131-0.601       c-1.005-5.387,2.548-10.571,7.936-11.575c7.606-1.419,15.256-3.089,22.748-4.966c2.711-0.679,5.411-1.389,8.093-2.123       c5.289-1.446,10.748,1.667,12.192,6.954c1.569,5.324-1.666,10.745-6.95,12.191c-2.824,0.773-5.659,1.517-8.513,2.232       c-7.879,1.973-15.931,3.73-23.93,5.222C2909.11,1527.851,2904.115,1524.596,2902.85,1519.547z"/>
					<path style="fill:#275f60;" d="M2471.082,1001.035c-0.479-1.914-0.395-3.987,0.364-5.966       c1.929-5.015,4.001-10.084,6.158-15.066c2.177-5.031,8.02-7.344,13.05-5.167c5.03,2.179,7.347,8.016,5.167,13.05       c-2.048,4.733-4.016,9.548-5.848,14.309c-1.965,5.114-7.708,7.667-12.824,5.7       C2474.012,1006.687,2471.84,1004.062,2471.082,1001.035z"/>
				</g>
				<g>
					<path style="fill:#275f60;" d="M2586.003,986.06c-1.183,1.586-1.23,3.749-0.116,5.384l31.774,46.667       c-10.531,24.171-17.284,50.195-19.605,77.229l-50.135,25.878c-1.759,0.908-2.748,2.831-2.463,4.79l9.746,67.014       c0.286,1.959,1.782,3.52,3.725,3.89l55.43,10.524c9.927,25.252,23.812,48.275,40.793,68.444l-17.164,53.785       c-0.601,1.885,0.059,3.944,1.645,5.127l54.278,40.494c1.587,1.184,3.75,1.23,5.385,0.116l46.666-31.774       c24.171,10.531,50.196,17.283,77.229,19.605l25.879,50.136c0.907,1.758,2.83,2.747,4.789,2.463l67.015-9.747       c1.958-0.285,3.52-1.781,3.889-3.725l10.524-55.431c25.253-9.926,48.275-23.811,68.444-40.792l53.786,17.164       c1.884,0.601,3.944-0.06,5.127-1.645l40.494-54.279c1.185-1.586,1.23-3.749,0.117-5.384l-31.775-46.666       c10.532-24.171,17.284-50.195,19.605-77.229l50.137-25.878c1.758-0.908,2.747-2.83,2.463-4.789l-9.748-67.015       c-0.284-1.959-1.78-3.52-3.725-3.889l-55.431-10.524c-9.925-25.253-23.812-48.275-40.793-68.444l17.164-53.784       c0.603-1.885-0.059-3.945-1.645-5.128l-54.279-40.494c-1.586-1.183-3.748-1.23-5.384-0.117l-46.666,31.774       c-24.171-10.531-50.196-17.283-77.229-19.605l-25.879-50.136c-0.907-1.758-2.831-2.747-4.79-2.462l-67.014,9.747       c-1.958,0.285-3.521,1.78-3.89,3.725l-10.524,55.43c-25.252,9.927-48.274,23.812-68.444,40.793l-53.785-17.164       c-1.885-0.602-3.944,0.059-5.128,1.645L2586.003,986.06z"/>
					
						<linearGradient id="SVGID_00000104684512709978745510000002839585347497737878_" gradientUnits="userSpaceOnUse" x1="2776.5002" y1="1136.7191" x2="2912.6804" y2="1136.7191" fill="none">
						<stop offset="0" style="stop-color:#74c8c9" fill="none"/>
						<stop offset="1" style="stop-color:#e0efef" fill="none"/>
					</linearGradient>
					<path style="fill:url(#SVGID_00000104684512709978745510000002839585347497737878_);" d="M2778.524,1153.213       c-8.061-32.188,8.497-66.37,40.058-79.408c34.694-14.33,74.572,2.236,88.903,36.927c6.947,16.806,6.924,35.31-0.05,52.097       c-6.973,16.791-20.07,29.863-36.876,36.803c-34.694,14.33-74.572-2.236-88.903-36.927       C2780.366,1159.578,2779.323,1156.404,2778.524,1153.213z M2895.234,1124.145c-0.623-2.486-1.429-4.939-2.425-7.352       c-10.986-26.598-41.566-39.298-68.162-28.313c-26.599,10.987-39.313,41.562-28.314,68.164       c10.985,26.598,41.566,39.298,68.162,28.313c12.887-5.323,22.927-15.343,28.275-28.219       C2897.115,1146.275,2897.937,1134.94,2895.234,1124.145z"/>
					
						<linearGradient id="SVGID_00000170980617378770364380000012234823319206132102_" gradientUnits="userSpaceOnUse" x1="2678.3972" y1="1137.4916" x2="3013.2021" y2="1137.4916" fill="none">
						<stop offset="0" style="stop-color:#74c8c9" fill="none"/>
						<stop offset="1" style="stop-color:#e0efef" fill="none"/>
					</linearGradient>
					<path style="fill:url(#SVGID_00000170980617378770364380000012234823319206132102_);" d="M2683.491,1178.447       c-1.385-5.528-2.499-11.158-3.331-16.874l0,0c-0.262-1.799-0.495-3.603-0.699-5.41c-1.005-8.911-1.298-17.887-0.878-26.791       c0.006-0.121,0.011-0.243,0.017-0.364c0.018-0.344,0.036-0.688,0.057-1.033c0.036-0.67,0.08-1.341,0.124-2.009       c0.119-1.76,1.367-3.174,2.991-3.583c0.395-0.099,0.813-0.138,1.24-0.109c2.187,0.148,3.833,2.046,3.689,4.23       c-0.766,11.256-0.322,22.669,1.318,33.924c8.122,55.91,44.51,100.861,92.563,122.495       c26.726,12.037,57.064,16.857,88.159,12.332c5.453-0.792,10.826-1.854,16.098-3.176c35.485-8.891,66.574-29.543,88.742-59.26       c25.467-34.134,36.116-76.143,29.986-118.284c-12.668-87.034-93.729-147.481-180.722-134.828       c-5.364,0.78-10.669,1.829-15.892,3.139c-22.635,5.673-43.777,16.235-61.872,31.003c-0.468,0.381-0.995,0.639-1.544,0.775       c-1.444,0.362-3.037-0.109-4.04-1.341c-1.382-1.704-1.139-4.199,0.567-5.587c18.997-15.504,41.194-26.596,64.957-32.551       c5.482-1.375,11.05-2.475,16.679-3.296c91.335-13.286,176.445,50.239,189.726,141.541c6.436,44.243-4.746,88.341-31.48,124.175       c-23.272,31.198-55.91,52.878-93.162,62.213c-5.536,1.386-11.176,2.501-16.898,3.335       c-44.245,6.434-88.345-4.745-124.179-31.478C2714.503,1248.358,2692.823,1215.708,2683.491,1178.447z"/>
				</g>
			</g>
			<g>
				<g style="opacity:0.3;">
					<path style="fill:#275f60;" d="M2363.033,511.625c-0.644-2.572,0.44-5.362,2.845-6.773c4.487-2.635,9.116-5.171,13.757-7.534       c3.016-1.536,6.704-0.337,8.244,2.681c1.551,3.015,0.334,6.707-2.681,8.244c-4.422,2.252-8.834,4.668-13.117,7.182       c-2.916,1.714-6.671,0.736-8.39-2.182C2363.388,512.724,2363.172,512.18,2363.033,511.625z"/>
					<path style="fill:#275f60;" d="M2405.716,491.583c-0.755-3.013,0.88-6.169,3.863-7.246c8.426-3.048,17.105-5.697,25.792-7.873       c1.829-0.458,3.669-0.897,5.52-1.32c3.305-0.75,6.509,1.52,7.345,4.613c0.753,3.301-1.313,6.586-4.61,7.341       c-1.769,0.403-3.528,0.822-5.276,1.259c-8.287,2.075-16.565,4.602-24.6,7.506c-3.185,1.153-6.697-0.495-7.851-3.677       C2405.829,491.984,2405.766,491.784,2405.716,491.583z M2467.771,477.431c-0.07-0.281-0.125-0.573-0.156-0.868       c-0.344-3.37,2.105-6.381,5.474-6.728c10.805-1.113,21.775-1.565,32.6-1.342c3.386,0.068,6.067,2.887,6.003,6.254       c-0.071,3.387-2.867,6.071-6.253,6.003c-10.328-0.212-20.791,0.22-31.097,1.28       C2471.272,482.346,2468.5,480.34,2467.771,477.431z M2531.404,478.75c-0.189-0.754-0.235-1.557-0.119-2.374       c0.488-3.349,3.605-5.667,6.954-5.178c10.73,1.571,21.484,3.827,31.951,6.716c3.268,0.9,5.179,4.267,4.277,7.541       c-0.899,3.262-4.276,5.178-7.537,4.279c-9.983-2.754-20.23-4.909-30.466-6.403       C2533.932,482.958,2531.989,481.087,2531.404,478.75z M2592.768,495.673c-0.308-1.232-0.236-2.567,0.282-3.829       c1.297-3.127,4.885-4.615,8.012-3.318c10.039,4.16,19.904,8.978,29.327,14.325c2.943,1.673,3.968,5.418,2.302,8.356       c-1.669,2.945-5.409,3.977-8.358,2.306c-8.979-5.098-18.393-9.695-27.964-13.661       C2594.503,499.079,2593.223,497.493,2592.768,495.673z M2648.135,527.068c-0.431-1.719-0.115-3.612,1.025-5.148       c2.016-2.717,5.854-3.283,8.575-1.268c8.711,6.471,17.109,13.537,24.953,21.009c2.461,2.334,2.55,6.215,0.214,8.666       c-2.336,2.452-6.218,2.547-8.666,0.214c-7.488-7.128-15.495-13.871-23.811-20.042       C2649.243,529.62,2648.468,528.395,2648.135,527.068z M2694.199,570.945c-0.558-2.227,0.168-4.68,2.062-6.234       c2.616-2.145,6.477-1.76,8.625,0.855c6.878,8.392,13.298,17.294,19.073,26.455c1.801,2.878,0.943,6.65-1.918,8.457       c-2.862,1.805-6.65,0.946-8.453-1.916c-5.508-8.738-11.625-17.222-18.183-25.222       C2694.81,572.616,2694.413,571.796,2694.199,570.945z M2728.129,624.739c-0.698-2.787,0.647-5.768,3.342-7.032       c3.065-1.437,6.716-0.118,8.156,2.947c4.594,9.791,8.631,19.999,12.005,30.342c0.997,3.243-0.715,6.683-3.933,7.729       c-3.218,1.05-6.676-0.71-7.729-3.927c-3.212-9.869-7.064-19.604-11.444-28.94       C2728.354,625.492,2728.223,625.117,2728.129,624.739z M2752.004,716.871c-0.086-0.343-0.145-0.701-0.169-1.069       c-0.622-8.915-1.743-17.953-3.333-26.864c-0.234-1.351-0.479-2.675-0.74-3.992c-0.647-3.325,1.514-6.544,4.838-7.195       c3.329-0.657,6.648,1.51,7.197,4.835c0.272,1.407,0.537,2.812,0.781,4.229c1.659,9.31,2.834,18.785,3.485,28.134       c0.235,3.379-2.309,6.305-5.687,6.54C2755.367,721.701,2752.713,719.702,2752.004,716.871z"/>
				</g>
				<g style="opacity:0.3;">
					<path style="fill:#275f60;" d="M2244.004,801.038c-0.813-3.246,1.136-6.554,4.382-7.414c3.27-0.865,6.629,1.086,7.491,4.36       c2.604,9.854,5.831,19.633,9.593,29.064c1.218,3.136-0.275,6.712-3.423,7.966c-3.147,1.254-6.711-0.282-7.966-3.423       c-3.94-9.893-7.328-20.143-10.056-30.472C2244.018,801.094,2244.011,801.065,2244.004,801.038z M2237.829,770.292       c-0.054-0.215-0.095-0.43-0.126-0.653c-1.475-10.569-2.319-21.336-2.515-32c-0.058-3.386,2.63-6.179,6.015-6.24       c3.39-0.065,6.175,2.65,6.245,6.014c0.185,10.176,0.993,20.449,2.396,30.536c0.469,3.351-1.872,6.449-5.223,6.915       C2241.483,775.301,2238.579,773.288,2237.829,770.292z M2267.202,859.171c-0.66-2.637,0.502-5.488,2.997-6.86       c2.962-1.628,6.688-0.546,8.32,2.421c4.916,8.936,10.411,17.646,16.346,25.892c1.969,2.762,1.351,6.579-1.4,8.555       c-2.745,1.977-6.579,1.352-8.557-1.396c-6.219-8.644-11.981-17.778-17.129-27.146       C2267.518,860.162,2267.327,859.67,2267.202,859.171z M2236.724,707.676c-0.169-0.676-0.226-1.393-0.151-2.128       c1.111-10.621,2.891-21.28,5.292-31.678c0.76-3.3,4.052-5.356,7.353-4.596c3.289,0.763,5.347,4.054,4.593,7.35       c-2.286,9.916-3.982,20.075-5.044,30.203c-0.354,3.366-3.37,5.811-6.736,5.457       C2239.4,712.007,2237.332,710.103,2236.724,707.676z M2303.762,909.967c-0.527-2.105,0.082-4.427,1.787-5.998       c2.491-2.3,6.369-2.141,8.664,0.345c6.896,7.478,14.322,14.609,22.082,21.197c2.586,2.194,2.895,6.063,0.701,8.643       c-2.192,2.58-6.063,2.895-8.643,0.702c-8.13-6.912-15.92-14.387-23.153-22.225       C2304.48,911.849,2304.003,910.928,2303.762,909.967z M2351.442,950.512c-0.404-1.611-0.155-3.377,0.83-4.87       c1.866-2.825,5.669-3.604,8.494-1.738c8.511,5.619,17.435,10.771,26.52,15.312c3.033,1.515,4.259,5.2,2.745,8.224       c-1.512,3.029-5.191,4.256-8.218,2.743c-9.529-4.76-18.885-10.159-27.802-16.047       C2352.679,953.257,2351.801,951.946,2351.442,950.512z M2407.467,978.469c-0.283-1.132-0.251-2.356,0.175-3.539       c1.133-3.191,4.64-4.856,7.831-3.721c9.602,3.424,19.501,6.283,29.417,8.499c3.296,0.742,5.382,4.018,4.641,7.32       c-0.74,3.304-4.014,5.383-7.322,4.644c-10.395-2.328-20.779-5.324-30.853-8.911       C2409.35,982.046,2407.948,980.391,2407.467,978.469z"/>
					<path style="fill:#275f60;" d="M2250.878,646.383c-0.287-1.147-0.246-2.388,0.189-3.584c1.795-4.93,3.747-9.828,5.795-14.562       c1.346-3.105,4.955-4.536,8.063-3.192c3.097,1.351,4.53,4.954,3.191,8.063c-1.955,4.513-3.815,9.187-5.531,13.891       c-1.159,3.181-4.68,4.819-7.858,3.659C2252.742,649.933,2251.355,648.29,2250.878,646.383z"/>
				</g>
				<g>
					<path style="fill:#275f60;" d="M2328.932,632.088c-0.792,1.061-0.823,2.508-0.078,3.602l21.262,31.227       c-7.047,16.174-11.566,33.588-13.119,51.678l-33.548,17.317c-1.177,0.607-1.838,1.894-1.648,3.204l6.522,44.843       c0.191,1.311,1.192,2.355,2.492,2.603l37.092,7.042c6.642,16.898,15.934,32.303,27.297,45.8l-11.486,35.99       c-0.402,1.262,0.04,2.64,1.101,3.432l36.321,27.097c1.062,0.792,2.509,0.823,3.603,0.078l31.227-21.262       c16.174,7.047,33.589,11.566,51.678,13.119l17.316,33.549c0.608,1.177,1.894,1.839,3.205,1.648l44.844-6.523       c1.311-0.19,2.356-1.192,2.603-2.492l7.042-37.092c16.898-6.642,32.303-15.934,45.799-27.297l35.991,11.485       c1.261,0.402,2.639-0.04,3.431-1.101l27.097-36.321c0.792-1.061,0.823-2.508,0.078-3.602l-21.262-31.227       c7.048-16.173,11.566-33.588,13.119-51.678l33.549-17.317c1.176-0.607,1.839-1.894,1.648-3.205l-6.523-44.844       c-0.19-1.31-1.191-2.355-2.492-2.602l-37.092-7.042c-6.642-16.898-15.934-32.304-27.297-45.8l11.485-35.989       c0.403-1.262-0.04-2.64-1.101-3.432l-36.321-27.097c-1.062-0.791-2.508-0.823-3.603-0.078l-31.227,21.261       c-16.174-7.047-33.589-11.565-51.678-13.118l-17.316-33.549c-0.607-1.176-1.894-1.838-3.205-1.647l-44.843,6.522       c-1.311,0.191-2.356,1.192-2.603,2.493l-7.042,37.092c-16.897,6.642-32.303,15.934-45.799,27.296l-35.99-11.485       c-1.262-0.403-2.639,0.04-3.432,1.101L2328.932,632.088z"/>
					
						<linearGradient id="SVGID_00000157298393913825665270000016509254322250553988_" gradientUnits="userSpaceOnUse" x1="2455.5635" y1="732.915" x2="2548.3098" y2="732.915" fill="none">
						<stop offset="0" style="stop-color:#74c8c9" fill="none"/>
						<stop offset="1" style="stop-color:#e0efef" fill="none"/>
					</linearGradient>
					<path style="fill:url(#SVGID_00000157298393913825665270000016509254322250553988_);" d="M2456.945,744.073       c-2.402-9.592-1.672-19.662,2.189-28.959c4.751-11.437,13.673-20.339,25.121-25.067c23.622-9.76,50.787,1.521,60.554,25.15       c9.732,23.679-1.527,50.801-25.156,60.559c-11.448,4.73-24.052,4.718-35.486-0.034c-11.44-4.75-20.344-13.671-25.07-25.123       C2458.217,748.461,2457.497,746.277,2456.945,744.073z M2535.047,724.634c-0.401-1.6-0.922-3.188-1.568-4.757       c-7.185-17.38-27.165-25.678-44.547-18.499c-8.416,3.478-14.984,10.026-18.475,18.437c-3.495,8.417-3.495,17.682-0.028,26.108       l0,0c3.479,8.419,10.029,14.984,18.439,18.478c8.417,3.495,17.687,3.504,26.11,0.024       C2530.788,757.895,2539.087,740.763,2535.047,724.634z"/>
					
						<linearGradient id="SVGID_00000096048196159344803950000015487732844363760287_" gradientUnits="userSpaceOnUse" x1="2387.2854" y1="733.4047" x2="2618.2671" y2="733.4047" fill="none">
						<stop offset="0" style="stop-color:#74c8c9" fill="none"/>
						<stop offset="1" style="stop-color:#e0efef" fill="none"/>
					</linearGradient>
					<path style="fill:url(#SVGID_00000096048196159344803950000015487732844363760287_);" d="M2390.774,761.552       c-0.942-3.763-1.7-7.603-2.274-11.52c-1.134-7.779-1.477-15.681-1.018-23.506c0.023-0.352,0.046-0.703,0.07-1.054       c0.183-2.718,2.111-4.901,4.619-5.532c0.609-0.153,1.255-0.213,1.914-0.168c3.377,0.228,5.914,3.16,5.696,6.531       c-0.498,7.302-0.209,14.69,0.852,21.959l0.001,0.003c0.057,0.399,0.12,0.799,0.182,1.195       c2.667,17.182,9.517,33.048,19.799,46.508c5.582,7.306,12.184,13.904,19.691,19.611c0.061,0.047,0.122,0.093,0.183,0.139       c0.19,0.141,0.374,0.283,0.562,0.421c22.099,16.484,49.293,23.38,76.575,19.411c3.531-0.511,7.007-1.199,10.421-2.054       c22.971-5.756,43.097-19.127,57.453-38.366c16.484-22.099,23.374-49.292,19.406-76.571       c-3.976-27.262-18.324-51.386-40.417-67.875c-22.098-16.484-49.293-23.38-76.575-19.411c-3.472,0.502-6.906,1.183-10.285,2.03       c-14.656,3.673-28.341,10.51-40.053,20.071c-0.723,0.589-1.536,0.987-2.385,1.196c-2.23,0.558-4.689-0.168-6.239-2.069       c-2.133-2.629-1.753-6.482,0.876-8.628c13.106-10.697,28.42-18.349,44.811-22.46c3.786-0.948,7.625-1.709,11.508-2.274       c30.527-4.439,60.951,3.274,85.675,21.72c24.719,18.444,40.798,45.391,45.219,75.932c4.441,30.523-3.269,60.946-21.718,85.669       c-16.054,21.525-38.573,36.482-64.273,42.922c-3.815,0.955-7.707,1.727-11.654,2.301       C2460.298,856.275,2404.981,818.279,2390.774,761.552z"/>
				</g>
			</g>
		</g>
		<g>
			<g>
				<g>
					
						<linearGradient id="SVGID_00000104688159269063608220000014101021653711298699_" gradientUnits="userSpaceOnUse" x1="2569.927" y1="2115.1018" x2="1931.472" y2="2417.5281" fill="none">
						<stop offset="0" style="stop-color:#09005d" fill="none"/>
						<stop offset="1" style="stop-color:#0f917c" fill="none"/>
					</linearGradient>
					<path style="fill:url(#SVGID_00000104688159269063608220000014101021653711298699_);" d="M3199.01,2339.414L1890.816,1726.85       l-90.89,192.173L3106.352,2545c27.748,13.295,60.975,4.728,78.942-20.25c18.455-25.657,37.683-66.673,44.736-130.207       C3232.594,2371.445,3220.058,2349.27,3199.01,2339.414z"/>
					<g>
						
							<linearGradient id="SVGID_00000103961451980107985560000007433367075982703273_" gradientUnits="userSpaceOnUse" x1="-494.3401" y1="1735.272" x2="-234.3253" y2="1509.2589" gradientTransform="matrix(-0.9954 -0.0961 -0.0961 0.9954 1448.7313 109.2454)" fill="none">
							<stop offset="0" style="stop-color:#09005d" fill="none"/>
							<stop offset="1" style="stop-color:#0f917c" fill="none"/>
						</linearGradient>
						<path style="fill:url(#SVGID_00000103961451980107985560000007433367075982703273_);" d="M1476.68,1634.939l184.911,41.038        c-2.683,25.736-14.334,58.243-46.571,93.713l-146.326-118.174C1460.927,1645.242,1466.932,1632.776,1476.68,1634.939z"/>
						
							<linearGradient id="SVGID_00000070118978670320040070000009824496354938324098_" gradientUnits="userSpaceOnUse" x1="-267.0085" y1="1403.5449" x2="-1229.7318" y2="2392.937" gradientTransform="matrix(-0.9954 -0.0961 -0.0961 0.9954 1448.7313 109.2454)" fill="none">
							<stop offset="0" style="stop-color:#f97415" fill="none"/>
							<stop offset="1" style="stop-color:#FF928E" fill="none"/>
						</linearGradient>
						<path style="fill:url(#SVGID_00000070118978670320040070000009824496354938324098_);" d="M1890.816,1726.85        c-3.471,125.598-90.89,192.173-90.89,192.173l-184.905-149.332c32.237-35.47,43.888-67.977,46.571-93.713L1890.816,1726.85z"/>
					</g>
				</g>
				<path style="fill:#56b1b3;" d="M3176.312,2398.843c1.641,0.158,3.275-0.712,4.009-2.294c0.935-2.001,0.066-4.381-1.936-5.313      l-1251.873-583.15c-2.01-0.932-4.385-0.066-5.313,1.936c-0.935,2.002-0.066,4.382,1.936,5.313l1251.873,583.15      C3175.433,2398.684,3175.873,2398.801,3176.312,2398.843z"/>
				<path style="fill:#56b1b3;" d="M3146.414,2474.793c1.641,0.158,3.275-0.712,4.009-2.294c0.935-2.001,0.066-4.382-1.937-5.313      l-1251.872-583.153c-2.01-0.932-4.381-0.07-5.312,1.936c-0.935,2.002-0.066,4.381,1.936,5.312l1251.872,583.154      C3145.534,2474.634,3145.975,2474.751,3146.414,2474.793z"/>
			</g>
			<g>
				
					<linearGradient id="SVGID_00000007403874302269441910000006175304724127325336_" gradientUnits="userSpaceOnUse" x1="2427.5532" y1="3252.0872" x2="2770.2849" y2="2702.708" fill="none">
					<stop offset="0" style="stop-color:#FEBBBA" fill="none"/>
					<stop offset="1" style="stop-color:#FF928E" fill="none"/>
				</linearGradient>
				<path style="fill:url(#SVGID_00000007403874302269441910000006175304724127325336_);" d="M2580.946,2590.771l95.744,23.936      l-23.935,179.521c0,0,35.904,35.905,47.872,83.777c11.968,47.872,23.003,248.881,23.003,248.881l22.718,13.735l2.763,11.465      l-66.096,88.871l10.961-70.734c1.74-11.228-1.274-34-0.325-34.477c-35.905-95.745-112.705-365.454-112.705-365.454V2590.771z"/>
				
					<linearGradient id="SVGID_00000008114858120021623840000013979828065776165055_" gradientUnits="userSpaceOnUse" x1="2578.4578" y1="2560.2446" x2="2573.4175" y2="3260.8306" fill="none">
					<stop offset="0" style="stop-color:#FEBBBA" fill="none"/>
					<stop offset="1" style="stop-color:#FF928E" fill="none"/>
				</linearGradient>
				<path style="fill:url(#SVGID_00000008114858120021623840000013979828065776165055_);" d="M2552.97,3153.316      c1.036-0.017,2.054,0.066,3.096,0.001c-4.626-57.719-25.771-311.749-46.929-406.961      c-23.936-107.713,35.904-323.139,35.904-323.139l107.714,107.714l-59.841,203.457c41.009,61.512-6.689,421.743-5.661,421.586      l-0.066,0.801l15.614,21.469l-1.899,11.64l-95.385,56.287l37.531-60.948C2549.005,3175.548,2552.297,3164.58,2552.97,3153.316z"/>
				
					<linearGradient id="SVGID_00000165932255007576611140000001848795787676347581_" gradientUnits="userSpaceOnUse" x1="-2376.7908" y1="2124.281" x2="-2262.2146" y2="2124.281" gradientTransform="matrix(-1 0 0 1 390.5403 0)" fill="none">
					<stop offset="0" style="stop-color:#FEBBBA" fill="none"/>
					<stop offset="1" style="stop-color:#FF928E" fill="none"/>
				</linearGradient>
				<path style="fill:url(#SVGID_00000165932255007576611140000001848795787676347581_);" d="M2674.123,1945.504      c0,0,209.719,236.364,0,357.554l-21.368-15.472c0,0,104.118-99.702,0-221.752L2674.123,1945.504z"/>
				
					<linearGradient id="SVGID_00000118359706618701362490000009766380241269519281_" gradientUnits="userSpaceOnUse" x1="2509.5059" y1="3033.2295" x2="2409.2458" y2="3202.9006" gradientTransform="matrix(1 0 0 1 164.4937 0)" fill="none">
					<stop offset="0" style="stop-color:#09005d" fill="none"/>
					<stop offset="1" style="stop-color:#0f917c" fill="none"/>
				</linearGradient>
				<path style="fill:url(#SVGID_00000118359706618701362490000009766380241269519281_);" d="M2499.234,3255h30.44      c5.698,0,11.071-2.616,14.546-7.131c9.489-12.331,29.149-36.388,38.551-37.015c12.656-0.846,11.036,44.146,11.036,44.146h7.094      l8.986-55.907c2.261-14.066-4.734-28.002-17.366-34.592l0,0c0,0-2.893,21.395-18.579,30.858      c-15.686,9.464-63.833,43.354-63.833,43.354s-5.897-0.841-12.372,0.329C2488.133,3240.778,2489.475,3255,2499.234,3255z"/>
				
					<linearGradient id="SVGID_00000034781887633370769910000003374031570139919794_" gradientUnits="userSpaceOnUse" x1="729.3909" y1="3573.2612" x2="629.1363" y2="3742.9229" gradientTransform="matrix(0.9218 -0.3878 0.3878 0.9218 697.678 -31.6312)" fill="none">
					<stop offset="0" style="stop-color:#09005d" fill="none"/>
					<stop offset="1" style="stop-color:#0f917c" fill="none"/>
				</linearGradient>
				<path style="fill:url(#SVGID_00000034781887633370769910000003374031570139919794_);" d="M2680.649,3251.531l28.057-11.804      c5.251-2.209,9.19-6.704,10.643-12.214c3.966-15.045,12.759-44.843,21.181-49.068c11.337-5.687,27.292,36.413,27.292,36.413      l6.539-2.751l-13.397-55.017c-3.37-13.844-15.222-23.975-29.421-25.152l0,0c0,0,5.629,20.843-5.16,35.648      c-10.789,14.805-42.027,64.715-42.027,64.715s-5.762,1.511-11.276,5.1C2664.901,3242.725,2671.653,3255.315,2680.649,3251.531z"/>
				
					<linearGradient id="SVGID_00000154427797616546528640000017252010606273418882_" gradientUnits="userSpaceOnUse" x1="2858.7085" y1="1898.0048" x2="2576.416" y2="2502.9167" fill="none">
					<stop offset="0" style="stop-color:#09005d" fill="none"/>
					<stop offset="1" style="stop-color:#0f917c" fill="none"/>
				</linearGradient>
				<path style="fill:url(#SVGID_00000154427797616546528640000017252010606273418882_);" d="M2517.611,2241.087      c0,0,3.521,21.573-1.637,80.879c-5.157,59.307-29.808,198.546-24.789,331.77c0,0,70.078,16.331,191.83,8.595      c0,0,51.383-208.001,38.864-287.075c-12.517-79.075-80.418-135.802-80.418-135.802L2517.611,2241.087z"/>
				
					<linearGradient id="SVGID_00000051366063732585257640000004974314586044986026_" gradientUnits="userSpaceOnUse" x1="-2251.6616" y1="1868.6366" x2="-2170.2859" y2="1868.6366" gradientTransform="matrix(-1 0 0 1 390.5403 0)" fill="none">
					<stop offset="0" style="stop-color:#FEBBBA" fill="none"/>
					<stop offset="1" style="stop-color:#FF928E" fill="none"/>
				</linearGradient>
				<polygon style="fill:url(#SVGID_00000051366063732585257640000004974314586044986026_);" points="2569.392,1844.789       2560.826,1945.504 2642.202,1945.504 2621.969,1791.77     "/>
				
					<linearGradient id="SVGID_00000135652913757988391230000004994067254398105518_" gradientUnits="userSpaceOnUse" x1="-2105.051" y1="1956.803" x2="-2535.9653" y2="2509.6199" gradientTransform="matrix(-1 0 0 1 390.5403 0)" fill="none">
					<stop offset="0" style="stop-color:#f97415" fill="none"/>
					<stop offset="1" style="stop-color:#FF928E" fill="none"/>
				</linearGradient>
				<path style="fill:url(#SVGID_00000135652913757988391230000004994067254398105518_);" d="M2666.308,1931.578      c-28.085-1.549-90.875-4.415-135.358-1.991c-23.42,1.276-43.039,18.079-47.83,41.04l-10.849,51.993      c-4.042,19.366-3.437,39.414,1.763,58.501l43.577,159.967c0,0,38.76,23.292,123.851-1.633c0,0,74.728-178.198,44.139-292.192      C2683.225,1938.409,2675.461,1932.082,2666.308,1931.578z"/>
				
					<linearGradient id="SVGID_00000012471220825785402730000001350973739415193020_" gradientUnits="userSpaceOnUse" x1="-1774.2214" y1="1915.0306" x2="-2478.0171" y2="2318.2222" gradientTransform="matrix(-1 0 0 1 390.5403 0)" fill="none">
					<stop offset="0" style="stop-color:#FEBBBA" fill="none"/>
					<stop offset="1" style="stop-color:#FF928E" fill="none"/>
				</linearGradient>
				<path style="fill:url(#SVGID_00000012471220825785402730000001350973739415193020_);" d="M2485.246,1961.299      c-11.986,31.575-22.812,64.684-34.443,95.692c-5.914,15.519-11.912,30.733-18.33,44.706c-3.246,6.958-6.812,13.352-10.084,19.15      c-3.276,5.739-6.965,10.512-8.887,12.71c-0.377,0.326,0.886,0.575,1.308,0.595c0.255,0.032-8.103,1.371-10.667,1.801      l-10.018-0.06c-14.358-0.739-30.62-3.27-46.931-6.439c-32.901-6.134-67.108-14.748-102.232-21.264l-0.27-0.05      c-6.72-1.247-13.179,3.191-14.427,9.912c-0.822,4.433,0.846,8.763,3.992,11.548c14.162,12.466,29.174,22.707,44.746,32.675      c7.838,4.792,15.813,9.49,23.919,14.001c8.266,4.213,16.555,8.46,25.165,12.387c17.334,7.553,35.241,14.51,55.868,18.979      c5.422,0.907,10.772,1.858,16.35,2.606c6.256,0.217,11.938,0.771,18.77,0.376c3.629-0.36,7.275-0.804,10.912-1.334      c1.939-0.342,3.364-0.378,5.713-1.026c2.492-0.748,4.979-1.585,7.43-2.506c5.123-1.838,8.434-4.063,12.595-6.378      c3.455-2.278,6.607-4.66,9.661-7.102c11.278-9.606,18.281-19.14,24.452-28.293c6.155-9.145,11.034-18.307,15.413-27.288      c8.784-17.936,15.645-35.708,21.21-53.605c11.279-35.862,18.922-71.108,22.147-108.546c1.545-17.932-11.74-33.721-29.673-35.266      c-14.842-1.279-28.216,7.602-33.26,20.868L2485.246,1961.299z"/>
				
					<linearGradient id="SVGID_00000069376734334827697130000018230332205846127264_" gradientUnits="userSpaceOnUse" x1="-1704.2911" y1="2037.099" x2="-2408.0857" y2="2440.29" gradientTransform="matrix(-1 0 0 1 390.5403 0)" fill="none">
					<stop offset="0" style="stop-color:#FEBBBA" fill="none"/>
					<stop offset="1" style="stop-color:#FF928E" fill="none"/>
				</linearGradient>
				<path style="fill:url(#SVGID_00000069376734334827697130000018230332205846127264_);" d="M2256.019,2124.281l-14.521-34.47      l-76.429-19.044c0,0-6.115,13.249,25.986,19.044c0,0-11.465,12.674-5.35,27.577      C2191.819,2132.292,2256.783,2147.223,2256.019,2124.281z"/>
				
					<linearGradient id="SVGID_00000137111298779554565630000012613294169070052513_" gradientUnits="userSpaceOnUse" x1="2660.406" y1="1631.6779" x2="2383.1956" y2="2075.2144" fill="none">
					<stop offset="0" style="stop-color:#FEBBBA" fill="none"/>
					<stop offset="1" style="stop-color:#FF928E" fill="none"/>
				</linearGradient>
				<path style="fill:url(#SVGID_00000137111298779554565630000012613294169070052513_);" d="M2534.938,1728.475      c-2.906,1.714-25.8,82.46-6.615,116.314c19.184,33.854,77.769-4.066,93.646-53.02      C2637.845,1742.816,2612.337,1682.829,2534.938,1728.475z"/>
				
					<linearGradient id="SVGID_00000003801887331851914020000004443509772947352232_" gradientUnits="userSpaceOnUse" x1="2733.4443" y1="1683.877" x2="2847.6934" y2="2349.2126" fill="none">
					<stop offset="0" style="stop-color:#09005d" fill="none"/>
					<stop offset="1" style="stop-color:#0f917c" fill="none"/>
				</linearGradient>
				<path style="fill:url(#SVGID_00000003801887331851914020000004443509772947352232_);" d="M2686.777,1791.77      c13.141,64.382,56.681,46.762,87.518,75.406c49.98,46.424,121.479-1.433,190.988,42.56      c50.18,31.759,74.358,113.013,50.277,178.615c-33.354,90.861-147.333,128.227-206.4,100.553      c-56.452-26.448-48.413-105.662-124.368-136.276c-32.246-12.997-48.165-4.552-67.477-23.815      c-33.806-33.721-24.684-99.159-21.17-124.369c7.626-54.701,25.967-64.604,17.2-88.645c-17.049-46.76-96.572-37.112-103.2-70.123      c-6.034-30.061,51.605-87.04,105.846-78.062C2699.917,1681.506,2680.923,1763.087,2686.777,1791.77z"/>
				<path style="fill:#275f60;" d="M2990.497,2072.963c0.995,0,1.892-0.674,2.137-1.682c10.745-44.607,5.87-81.19-14.496-108.735      c-33.797-45.713-99.482-50.237-100.143-50.276c-1.034-0.171-2.249,0.846-2.326,2.061c-0.073,1.209,0.845,2.252,2.059,2.325      c0.64,0.039,64.338,4.459,96.896,48.529c19.542,26.447,24.164,61.798,13.736,105.067c-0.284,1.18,0.442,2.368,1.622,2.652      C2990.153,2072.941,2990.33,2072.963,2990.497,2072.963z"/>
				<path style="fill:#275f60;" d="M2775.362,2113.798c0.09,0,0.185-0.013,0.279-0.034c0.584-0.155,0.936-0.755,0.786-1.344      c-10.467-40.157-28.833-68.045-54.582-82.898c-18.73-10.805-36.273-11.809-51.746-12.697      c-14.921-0.859-27.807-1.601-38.179-10.823c-21.439-19.065-20.198-64.904,3.691-136.245c0.193-0.575-0.121-1.198-0.695-1.391      c-0.579-0.193-1.198,0.12-1.391,0.695c-24.194,72.251-25.224,118.875-3.064,138.58c10.942,9.733,24.18,10.497,39.513,11.376      c15.229,0.876,32.493,1.867,50.774,12.41c25.219,14.543,43.237,41.981,53.549,81.55      C2774.426,2113.471,2774.872,2113.798,2775.362,2113.798z"/>
				<path style="fill:#275f60;" d="M2655.689,1775.792c0.116,0,0.231-0.016,0.352-0.055c0.575-0.193,0.884-0.819,0.69-1.394      c-8.319-24.752-32.291-21.075-57.69-17.17c-16.074,2.472-32.694,5.017-46.792,0.845c-10.518-3.119-16.765-7.951-18.572-14.366      c-3.086-10.921,7.72-23.099,7.827-23.224c0.407-0.45,0.369-1.145-0.081-1.549c-0.446-0.408-1.146-0.369-1.55,0.081      c-0.48,0.532-11.719,13.187-8.315,25.284c2.025,7.188,8.775,12.531,20.065,15.878c14.577,4.317,31.438,1.729,47.752-0.776      c25.495-3.913,47.538-7.308,55.271,15.702C2654.8,1775.505,2655.23,1775.792,2655.689,1775.792z"/>
			</g>
		</g>
	</g>
</g>
</svg>
