<?xml version="1.0"?>
<svg xmlns="http://www.w3.org/2000/svg" xmlns:xlink="http://www.w3.org/1999/xlink" version="1.1" x="0px" y="0px" viewBox="0 0 3710 3710" style="enable-;background-color:transparent;" xml:space="preserve">
<g id="Background">
	<g>
		<g>
			<rect style="fill:none;" width="3710" height="3710" fill="none"/>
		</g>
	</g>
</g>
<g id="Illustration">
	<g>
		<linearGradient id="SVGID_1_" gradientUnits="userSpaceOnUse" x1="3405.7478" y1="3589.8894" x2="1367.115" y2="1389.46" fill="#000000">
			<stop offset="0" style="stop-color:#56b1b3" fill="#000000"/>
			<stop offset="1" style="stop-color:#f8ffff" fill="#000000"/>
		</linearGradient>
		<path style="fill:url(#SVGID_1_);" d="M3121.651,2335.947c-280.123,654.755-1019.558,935.987-1598.916,888.037    c-158.188-13.092-476.467-39.435-724.982-274.447C320.499,2498.211,394,1554.816,850.87,999.396    c58.835-71.526,466.086-550.747,1100.708-544.332c464.636,4.697,790.76,267.163,830.416,299.862    c50.095,41.307,160.586,139.465,260.164,295.186C3276.133,1416.004,3296.7,1926.791,3121.651,2335.947z"/>
		<g>
			<g>
				<path style="fill:#56b1b3;" d="M1042.964,1629.399c0,0,6.008-252.589-110.332-320.193      c-116.339-67.604-337.543-109.87-345.834-472.564c-4.855-212.337-10.108-305.174-13.63-345.655      c-1.374-15.791,12.659-28.537,28.235-25.603c110.183,20.757,468.122,106.193,543.166,350.502      C1233.536,1105.517,1042.964,1629.399,1042.964,1629.399z"/>
				<path style="fill:#a2cfd1;" d="M686.616,566.297c120.948,107.869,260.803,298.774,335.347,489.681      c9.569,31.462,37.558,98.371,49.712,217.249c10.856,99.147,5.459,203.915-7.704,273.266c-0.832,4.385-5.061,7.264-9.445,6.432      c-7.539-1.43-6.536-9.539-6.468-9.283c15.033-118.488,8.793-265.967-25.654-399.036      c-44.01-163.393-142.168-321.808-243.696-456.166l-10.448-13.23c-78.66-101.018-95.219-101.762-87.866-108.803      C682.13,564.744,684.849,564.729,686.616,566.297z"/>
			</g>
			<g>
				<path style="fill:#a2cfd1;" d="M912.177,2119.101c12.938,11.83-86.972-233.293-45.083-560.077      c19.74-153.989,73.41-338.453,10.383-434.044c-52.455-79.558-300.789-111.724-382.622-120.277      c-10.225-1.069-17.083,10.236-11.385,18.794c28.093,42.19,86.178,139.311,85.169,219.759      c-1.329,106.037,73.613,195.668,152.106,236.967c78.493,41.298,120.111,71.26,121.696,216.586      C844.028,1842.135,875.415,2085.489,912.177,2119.101z"/>
				
					<linearGradient id="SVGID_00000167357503970346598740000013452059260007121831_" gradientUnits="userSpaceOnUse" x1="-3120.5955" y1="463.7275" x2="-4412.0928" y2="1467.6437" gradientTransform="matrix(-0.9597 -0.281 -0.281 0.9597 -2247.1912 -185.5367)" fill="#000000">
					<stop offset="0" style="stop-color:#56b1b3" fill="#000000"/>
					<stop offset="1" style="stop-color:#f8ffff" fill="#000000"/>
				</linearGradient>
				<path style="fill:url(#SVGID_00000167357503970346598740000013452059260007121831_);" d="M591.982,1078.103      c97.891,33.164,191.04,109.516,220.199,210.123l2.727,9.584c6.214,22.42,33.424,176.831,37.735,299.489      c0.053,1.529-1.143,2.812-2.672,2.866c-2.597,0.091-3.02-2.862-2.862-2.565c-7.317-70.722-20.941-161.658-32.932-230.188      c-12.529-74.618-21.73-125.362-81.535-188.894c-67.013-69.184-142.427-96.364-142.211-96.25      c-1.137-0.463-1.684-1.76-1.221-2.896C589.655,1078.277,590.878,1077.732,591.982,1078.103z"/>
			</g>
		</g>
		<g>
			<g>
				
					<linearGradient id="SVGID_00000043456111134446144900000005972150525605691796_" gradientUnits="userSpaceOnUse" x1="2147.7988" y1="953.7739" x2="262.3463" y2="3964.4128" gradientTransform="matrix(0.9994 0.0355 -0.0355 0.9994 163.0132 9.1797)" fill="#000000">
					<stop offset="0" style="stop-color:#176e70" fill="#000000"/>
					<stop offset="1" style="stop-color:#0c4344" fill="#000000"/>
				</linearGradient>
				<path style="fill:url(#SVGID_00000043456111134446144900000005972150525605691796_);" d="M936.481,795.045l1394.713,36.954      c76.945,2.039,138.795,64.019,140.671,140.968l49.375,2024.803c1.468,60.215-47.214,109.684-107.445,109.183l-1599.287-13.299      c-56.596-0.471-101.799-47.275-100.299-103.852l53.92-2035.095C770.528,864.129,845.902,792.646,936.481,795.045z"/>
				<path style="fill:#a2cfd1;" d="M1049.147,3064.98c-0.046,0-0.091,0-0.133-0.003l-178.802-7.052      c-59.523-2.346-106.665-52.701-105.087-112.248l7.155-270.053c0.049-1.809,1.533-3.244,3.329-3.244c0.032,0,0.062,0,0.091,0.002      c1.838,0.049,3.293,1.58,3.244,3.418l-7.155,270.053c-1.484,55.923,42.786,103.211,98.684,105.416l178.802,7.052      c1.838,0.072,3.27,1.62,3.198,3.46C1052.401,3063.573,1050.927,3064.98,1049.147,3064.98z"/>
				<path style="fill:#a2cfd1;" d="M777.83,2595.393c-0.032,0-0.062,0-0.091-0.001c-1.838-0.049-3.293-1.58-3.244-3.418      l1.158-43.732c0.049-1.843,1.698-3.338,3.42-3.242c1.838,0.049,3.293,1.58,3.244,3.418l-1.158,43.733      C781.11,2593.958,779.626,2595.393,777.83,2595.393z"/>
				<g>
					
						<linearGradient id="SVGID_00000053522054979656400040000011441957673785006778_" gradientUnits="userSpaceOnUse" x1="2618.7698" y1="498.4891" x2="-280.1588" y2="4696.9302" fill="#000000">
						<stop offset="0" style="stop-color:#56b1b3" fill="#000000"/>
						<stop offset="1" style="stop-color:#56b1b3" fill="#000000"/>
					</linearGradient>
					<path style="fill:url(#SVGID_00000053522054979656400040000011441957673785006778_);" d="M941.203,778.768       c189.778,30.875,842.605,128.111,1385.207,100.89c24.745-1.242,45.68,18.037,46.339,42.804l54.133,2033.947       c0.743,27.888-21.155,51.14-49.038,52.05c-228.101,7.444-1167.407,34.694-1501.024-9.21       c-20.304-2.672-35.304-20.224-34.882-40.7l43.975-2133.697C886.509,795.867,912.59,774.113,941.203,778.768z"/>
				</g>
				<g>
					<path style="fill:#a2cfd1;" d="M993.983,885.069c176.968,28.791,785.733,119.464,1291.712,94.081       c23.075-1.158,42.596,16.819,43.211,39.914l50.479,1896.666c0.693,26.006-19.728,47.688-45.729,48.537       c-212.705,6.942-1088.612,32.352-1399.712-8.589c-18.933-2.491-32.922-18.859-32.528-37.953l41.007-1989.683       C942.981,901.014,967.302,880.729,993.983,885.069z"/>
				</g>
				
					<linearGradient id="SVGID_00000027564288075239148360000007100875593021136573_" gradientUnits="userSpaceOnUse" x1="1288.9702" y1="3265.5581" x2="647.2555" y2="4109.7188" gradientTransform="matrix(0.9997 0.0265 -0.0265 0.9997 686.7247 -2962.6826)" fill="#000000">
					<stop offset="0" style="stop-color:#176e70" fill="#000000"/>
					<stop offset="1" style="stop-color:#0c4344" fill="#000000"/>
				</linearGradient>
				<path style="fill:url(#SVGID_00000027564288075239148360000007100875593021136573_);" d="M1727.643,540.114      c-49.45-36.381-93.274-36.848-124.353-28.566c-28.349,7.556-47.3,34.23-45.398,63.509l9.452,145.506l157.874,18.235      C1725.219,738.798,1824.624,611.467,1727.643,540.114z M1654.949,655.373c-21.792-0.577-38.99-18.711-38.413-40.503      c0.578-21.793,18.712-38.991,40.504-38.414c21.791,0.578,38.991,18.712,38.413,40.504      C1694.875,638.754,1676.742,655.952,1654.949,655.373z"/>
				<g>
					<path style="fill:#a2cfd1;" d="M1581.986,663.393c-2.726-1.082-4.735-3.658-4.937-6.784l-1.503-23.175       c-0.281-4.32,2.993-8.047,7.313-8.328c4.316-0.289,8.056,2.983,8.335,7.317l1.503,23.174c0.281,4.32-2.994,8.047-7.314,8.326       C1584.187,664.002,1583.033,663.807,1581.986,663.393z M1579.038,617.982c-2.726-1.081-4.736-3.656-4.936-6.784l-1.144-17.595       c-1.935-29.803,17.51-56.984,46.236-64.642c19.663-5.24,39.802-5.538,59.847-0.875c4.148,1.035,6.844,5.194,5.857,9.415       c-0.98,4.215-5.194,6.844-9.413,5.862c-17.512-4.079-35.095-3.821-52.252,0.751c-21.517,5.733-36.079,26.116-34.627,48.479       l1.144,17.596c0.279,4.32-2.994,8.045-7.314,8.326C1581.239,618.591,1580.084,618.397,1579.038,617.982z"/>
				</g>
				
					<linearGradient id="SVGID_00000036943042546012419680000003504753385453699215_" gradientUnits="userSpaceOnUse" x1="1359.3649" y1="3319.0632" x2="717.6456" y2="4163.2295" gradientTransform="matrix(0.9997 0.0265 -0.0265 0.9997 686.7247 -2962.6826)" fill="#000000">
					<stop offset="0" style="stop-color:#176e70" fill="#000000"/>
					<stop offset="1" style="stop-color:#0c4344" fill="#000000"/>
				</linearGradient>
				<path style="fill:url(#SVGID_00000036943042546012419680000003504753385453699215_);" d="M1348.88,808.645l1.934-72.979      c0.665-25.192,22.081-44.816,47.235-43.285l502.699,30.569c22.31,1.357,39.927,19.463,40.672,41.801l2.347,70.233      L1348.88,808.645z"/>
				<path style="fill:#a2cfd1;" d="M1517.341,719.237l21.639,0.573L1517.341,719.237z"/>
				<path style="fill:#a2cfd1;" d="M1373.932,789.922c-2.971-1.178-5.035-4.114-4.945-7.498l0.781-29.524      c0.319-12.122,5.34-23.391,14.141-31.738c8.8-8.345,20.323-12.77,32.448-12.45l79.552,2.111      c4.307,0.128,7.745,3.714,7.627,8.051c-0.115,4.329-3.717,7.743-8.047,7.632l-79.551-2.113      c-16.38-0.433-30.064,12.54-30.496,28.925l-0.783,29.524c-0.115,4.329-3.718,7.743-8.047,7.632      C1375.669,790.445,1374.765,790.252,1373.932,789.922z"/>
				
					<linearGradient id="SVGID_00000098940188464803445200000010264277134940721815_" gradientUnits="userSpaceOnUse" x1="1278.4995" y1="3370.697" x2="835.4036" y2="4184.3115" gradientTransform="matrix(0.9997 0.0265 -0.0265 0.9997 686.7247 -2962.6826)" fill="#000000">
					<stop offset="0" style="stop-color:#176e70" fill="#000000"/>
					<stop offset="1" style="stop-color:#0c4344" fill="#000000"/>
				</linearGradient>
				<path style="fill:url(#SVGID_00000098940188464803445200000010264277134940721815_);" d="M1191.931,777.758l879.862,23.29      c31.637,0.837,58.082,24.32,62.653,55.637l0.631,4.321c5.005,34.302-22.11,64.837-56.764,63.918l-902.687-23.918      c-20.74-0.548-36.806-18.326-35.263-39.015l3.013-40.352C1145.26,796.402,1166.63,777.089,1191.931,777.758z"/>
			</g>
			<path style="opacity:0.57;fill:none;" d="M2280.087,2721.454c-0.146,15.014-10.392,27.221-22.895,27.269l-1229.583,4.687     c-13.75,0.053-24.889-12.682-24.867-28.447l0.003-2.384c0.022-15.769,11.201-28.572,24.957-28.594l1230.033-1.958     c12.508-0.02,22.519,12.14,22.373,27.157L2280.087,2721.454z"/>
			<path style="opacity:0.57;fill:none;" d="M2280.087,2849.203c-0.146,15.014-10.392,27.221-22.895,27.269l-1229.583,4.687     c-13.75,0.053-24.889-12.682-24.867-28.447l0.003-2.384c0.022-15.769,11.201-28.572,24.957-28.594l1230.033-1.958     c12.508-0.02,22.519,12.14,22.373,27.157L2280.087,2849.203z"/>
			<path style="opacity:0.57;fill:none;" d="M2284.796,1802.719c-0.146,15.014-10.391,27.221-22.895,27.269l-1229.583,4.687     c-13.75,0.053-24.889-12.682-24.867-28.447l0.003-2.384c0.022-15.768,11.201-28.572,24.957-28.594l1230.033-1.958     c12.507-0.02,22.519,12.14,22.373,27.157L2284.796,1802.719z"/>
			<path style="opacity:0.57;fill:none;" d="M2284.796,1930.469c-0.146,15.014-10.391,27.221-22.895,27.269l-1229.583,4.687     c-13.75,0.053-24.889-12.682-24.867-28.447l0.003-2.384c0.022-15.768,11.201-28.572,24.957-28.594l1230.033-1.958     c12.507-0.02,22.519,12.14,22.373,27.157L2284.796,1930.469z"/>
			<path style="opacity:0.57;fill:none;" d="M2258.57,2248.221c-0.146,15.014-5.021,27.274-10.893,27.386l-577.498,11.037     c-6.458,0.124-11.624-12.553-11.532-28.317l0.014-2.384c0.092-15.768,5.408-28.628,11.869-28.722l577.695-8.31     c5.874-0.084,10.513,12.023,10.367,27.04L2258.57,2248.221z"/>
			<path style="opacity:0.57;fill:none;" d="M2259.56,2374.592c-0.146,15.014-5.021,27.273-10.894,27.386l-577.497,11.037     c-6.458,0.124-11.624-12.553-11.532-28.317l0.014-2.384c0.092-15.768,5.408-28.628,11.869-28.722l577.695-8.311     c5.874-0.084,10.513,12.023,10.367,27.04L2259.56,2374.592z"/>
			<path style="opacity:0.57;fill:none;" d="M2258.9,2492.476c-0.146,15.014-5.021,27.273-10.894,27.386l-577.497,11.037     c-6.458,0.124-11.624-12.553-11.532-28.317l0.014-2.384c0.092-15.768,5.408-28.628,11.869-28.722l577.695-8.311     c5.874-0.084,10.513,12.023,10.367,27.04L2258.9,2492.476z"/>
			<g style="opacity:0.57;">
				<rect x="1240.044" y="1463.281" style="fill:none;" width="56.87" height="158.977"/>
				<rect x="1335.069" y="1257.536" style="fill:none;" width="56.87" height="364.722"/>
				<rect x="1430.094" y="1534.638" style="fill:none;" width="56.871" height="87.62"/>
				<rect x="1525.119" y="1306.296" style="fill:none;" width="56.87" height="315.962"/>
				<rect x="1620.144" y="1361.003" style="fill:none;" width="56.871" height="261.255"/>
				<rect x="1715.169" y="1420.467" style="fill:none;" width="56.871" height="201.791"/>
				<rect x="1810.194" y="1183.8" style="fill:none;" width="56.87" height="438.458"/>
				<rect x="1905.22" y="1230.182" style="fill:none;" width="56.87" height="392.076"/>
				<rect x="2000.244" y="1300.35" style="fill:none;" width="56.87" height="321.908"/>
				<rect x="2095.27" y="1542.77" style="fill:none;" width="56.87" height="79.488"/>
				<rect x="2190.295" y="1388.356" style="fill:none;" width="56.87" height="233.902"/>
			</g>
			<path style="opacity:0.57;fill:none;" d="M1562.637,2582.335h-529.243c-9.389,0-17-7.611-17-17v-451.129     c0-9.389,7.611-17,17-17h529.243c9.389,0,17,7.611,17,17v451.129C1579.637,2574.724,1572.026,2582.335,1562.637,2582.335z"/>
			<path style="opacity:0.57;fill:none;" d="M1172.165,1628.831h-157.924c-5.641,0-10.214-4.573-10.214-10.214v-457.488     c0-5.641,4.573-10.214,10.214-10.214h157.924c5.641,0,10.214,4.573,10.214,10.214v457.488     C1182.379,1624.258,1177.806,1628.831,1172.165,1628.831z"/>
		</g>
		<g>
			<g>
				<g>
					
						<linearGradient id="SVGID_00000025441561978272185370000004025668443131057545_" gradientUnits="userSpaceOnUse" x1="1881.2927" y1="2527.6313" x2="3067.1262" y2="2527.6313" fill="#000000">
						<stop offset="0" style="stop-color:#176e70" fill="#000000"/>
						<stop offset="1" style="stop-color:#0c4344" fill="#000000"/>
					</linearGradient>
					<path style="fill:url(#SVGID_00000025441561978272185370000004025668443131057545_);" d="M1900.69,1899.253       c-6.244,222.965-26.492,992.057-16.826,1264.6c1.024,28.873,27.168,52.048,59.78,52.993       c161.298,4.673,752.607,16.518,1016.436,6.718c54.952-2.042,98.652-41.448,99.791-90.132       c5.483-234.031,17.579-892.271-11.171-1193.81c-3.446-36.129-35.475-64.9-76.226-68.509       c-175.661-15.558-769.513-53.587-997.446-40.492C1933.922,1832.983,1901.71,1862.794,1900.69,1899.253z"/>
					<path style="fill:#56b1b3;" d="M1947.017,1997.559v188.955c0,36.235,29.374,65.61,65.609,65.61h902.785       c36.235,0,65.609-29.375,65.609-65.61v-188.955c0-36.235-29.375-65.609-65.609-65.609h-902.785       C1976.391,1931.949,1947.017,1961.324,1947.017,1997.559z"/>
					<path style="opacity:0.2;fill:none;" d="M2934.973,1996.475c-7.981-8.252-18.917-12.993-30.397-13.174l-844.75-13.422       c-22.584-0.36-41.638,16.721-43.745,39.208l-17.552,187.411c-1.438,15.346,23.807,28.265,55.993,28.656l830.506,10.063       c32.136,0.389,58.703-11.867,58.969-27.204l3.132-180.722C2947.328,2015.813,2942.955,2004.725,2934.973,1996.475z"/>
				</g>
				
					<linearGradient id="SVGID_00000040552422212287238550000007490452462029032328_" gradientUnits="userSpaceOnUse" x1="1776.353" y1="2731.8076" x2="2571.5039" y2="1966.2906" fill="#000000">
					<stop offset="0" style="stop-color:#56b1b3" fill="#000000"/>
					<stop offset="1" style="stop-color:#56b1b3" fill="#000000"/>
				</linearGradient>
				<path style="fill:url(#SVGID_00000040552422212287238550000007490452462029032328_);" d="M2172.713,2443.702      c0,33.337-27.024,60.361-60.361,60.361h-73.483c-33.336,0-60.361-27.024-60.361-60.361l0,0      c0-33.336,27.024-60.361,60.361-60.361h73.483C2145.688,2383.342,2172.713,2410.366,2172.713,2443.702L2172.713,2443.702z"/>
				
					<linearGradient id="SVGID_00000157275762731685531170000006759365098770235286_" gradientUnits="userSpaceOnUse" x1="1907.6398" y1="2868.1765" x2="2702.7908" y2="2102.6597" fill="#000000">
					<stop offset="0" style="stop-color:#56b1b3" fill="#000000"/>
					<stop offset="1" style="stop-color:#56b1b3" fill="#000000"/>
				</linearGradient>
				<path style="fill:url(#SVGID_00000157275762731685531170000006759365098770235286_);" d="M2445.647,2443.702      c0,33.337-27.024,60.361-60.361,60.361h-73.482c-33.336,0-60.361-27.024-60.361-60.361l0,0      c0-33.336,27.024-60.361,60.361-60.361h73.482C2418.623,2383.342,2445.647,2410.366,2445.647,2443.702L2445.647,2443.702z"/>
				
					<linearGradient id="SVGID_00000165220304612650589490000001180148008671764907_" gradientUnits="userSpaceOnUse" x1="2033.8763" y1="2999.3018" x2="2829.0273" y2="2233.7844" fill="#000000">
					<stop offset="0" style="stop-color:#56b1b3" fill="#000000"/>
					<stop offset="1" style="stop-color:#56b1b3" fill="#000000"/>
				</linearGradient>
				<path style="fill:url(#SVGID_00000165220304612650589490000001180148008671764907_);" d="M2708.085,2443.702      c0,33.337-27.024,60.361-60.361,60.361h-73.482c-33.337,0-60.361-27.024-60.361-60.361l0,0      c0-33.336,27.024-60.361,60.361-60.361h73.482C2681.061,2383.342,2708.085,2410.366,2708.085,2443.702L2708.085,2443.702z"/>
				
					<linearGradient id="SVGID_00000139267873669208312760000018149233160825495689_" gradientUnits="userSpaceOnUse" x1="3498.552" y1="1766.731" x2="2985.4617" y2="2333.1289" fill="#000000">
					<stop offset="0" style="stop-color:#f97415" fill="#000000"/>
					<stop offset="1" style="stop-color:#f97415" fill="#000000"/>
				</linearGradient>
				<path style="fill:url(#SVGID_00000139267873669208312760000018149233160825495689_);" d="M2974.117,2452.563      c0,33.876-27.462,61.339-61.338,61.339h-71.023c-33.876,0-61.339-27.462-61.339-61.339l0,0      c0-33.876,27.462-61.338,61.339-61.338h71.023C2946.655,2391.225,2974.117,2418.688,2974.117,2452.563L2974.117,2452.563z"/>
				
					<linearGradient id="SVGID_00000036959940221200069010000013155371197383351984_" gradientUnits="userSpaceOnUse" x1="1870.7618" y1="2829.8723" x2="2665.9121" y2="2064.356" fill="#000000">
					<stop offset="0" style="stop-color:#56b1b3" fill="#000000"/>
					<stop offset="1" style="stop-color:#56b1b3" fill="#000000"/>
				</linearGradient>
				<path style="fill:url(#SVGID_00000036959940221200069010000013155371197383351984_);" d="M2172.713,2632.658      c0,33.336-27.024,60.36-60.361,60.36h-73.483c-33.336,0-60.361-27.024-60.361-60.36l0,0c0-33.337,27.024-60.361,60.361-60.361      h73.483C2145.688,2572.297,2172.713,2599.321,2172.713,2632.658L2172.713,2632.658z"/>
				
					<linearGradient id="SVGID_00000137102298505725991500000004451338276465711490_" gradientUnits="userSpaceOnUse" x1="2002.0487" y1="2966.2412" x2="2797.199" y2="2200.7249" fill="#000000">
					<stop offset="0" style="stop-color:#56b1b3" fill="#000000"/>
					<stop offset="1" style="stop-color:#56b1b3" fill="#000000"/>
				</linearGradient>
				<path style="fill:url(#SVGID_00000137102298505725991500000004451338276465711490_);" d="M2445.647,2632.658      c0,33.336-27.024,60.36-60.361,60.36h-73.482c-33.336,0-60.361-27.024-60.361-60.36l0,0c0-33.337,27.024-60.361,60.361-60.361      h73.482C2418.623,2572.297,2445.647,2599.321,2445.647,2632.658L2445.647,2632.658z"/>
				
					<linearGradient id="SVGID_00000163047477039854455740000013036367675320262565_" gradientUnits="userSpaceOnUse" x1="2128.2866" y1="3097.365" x2="2923.437" y2="2331.8484" fill="#000000">
					<stop offset="0" style="stop-color:#56b1b3" fill="#000000"/>
					<stop offset="1" style="stop-color:#56b1b3" fill="#000000"/>
				</linearGradient>
				<path style="fill:url(#SVGID_00000163047477039854455740000013036367675320262565_);" d="M2708.085,2632.658      c0,33.336-27.024,60.36-60.361,60.36h-73.482c-33.337,0-60.361-27.024-60.361-60.36l0,0c0-33.337,27.024-60.361,60.361-60.361      h73.482C2681.061,2572.297,2708.085,2599.321,2708.085,2632.658L2708.085,2632.658z"/>
				
					<linearGradient id="SVGID_00000058573378258745075130000006318482199732910238_" gradientUnits="userSpaceOnUse" x1="2259.5735" y1="3233.7336" x2="3054.7239" y2="2468.2173" fill="#000000">
					<stop offset="0" style="stop-color:#56b1b3" fill="#000000"/>
					<stop offset="1" style="stop-color:#56b1b3" fill="#000000"/>
				</linearGradient>
				<path style="fill:url(#SVGID_00000058573378258745075130000006318482199732910238_);" d="M2981.02,2632.658      c0,33.336-27.024,60.36-60.361,60.36h-73.482c-33.336,0-60.361-27.024-60.361-60.36l0,0c0-33.337,27.024-60.361,60.361-60.361      h73.482C2953.996,2572.297,2981.02,2599.321,2981.02,2632.658L2981.02,2632.658z"/>
				<g>
					
						<linearGradient id="SVGID_00000125573027185562269690000002861491868574755981_" gradientUnits="userSpaceOnUse" x1="1954.3741" y1="2916.7209" x2="2749.5251" y2="2151.2041" fill="#000000">
						<stop offset="0" style="stop-color:#56b1b3" fill="#000000"/>
						<stop offset="1" style="stop-color:#56b1b3" fill="#000000"/>
					</linearGradient>
					<path style="fill:url(#SVGID_00000125573027185562269690000002861491868574755981_);" d="M2172.713,2800.002       c0,33.337-27.024,60.361-60.361,60.361h-73.483c-33.336,0-60.361-27.024-60.361-60.361l0,0       c0-33.336,27.024-60.361,60.361-60.361h73.483C2145.688,2739.642,2172.713,2766.666,2172.713,2800.002L2172.713,2800.002z"/>
					
						<linearGradient id="SVGID_00000147205615373475438950000014853739340876801941_" gradientUnits="userSpaceOnUse" x1="2085.6606" y1="3053.0903" x2="2880.8115" y2="2287.5735" fill="#000000">
						<stop offset="0" style="stop-color:#56b1b3" fill="#000000"/>
						<stop offset="1" style="stop-color:#56b1b3" fill="#000000"/>
					</linearGradient>
					<path style="fill:url(#SVGID_00000147205615373475438950000014853739340876801941_);" d="M2445.647,2800.002       c0,33.337-27.024,60.361-60.361,60.361h-73.482c-33.336,0-60.361-27.024-60.361-60.361l0,0       c0-33.336,27.024-60.361,60.361-60.361h73.482C2418.623,2739.642,2445.647,2766.666,2445.647,2800.002L2445.647,2800.002z"/>
					
						<linearGradient id="SVGID_00000179647422249835305810000013492012920422306987_" gradientUnits="userSpaceOnUse" x1="2211.8984" y1="3184.2141" x2="3007.0496" y2="2418.697" fill="#000000">
						<stop offset="0" style="stop-color:#56b1b3" fill="#000000"/>
						<stop offset="1" style="stop-color:#56b1b3" fill="#000000"/>
					</linearGradient>
					<path style="fill:url(#SVGID_00000179647422249835305810000013492012920422306987_);" d="M2708.085,2800.002       c0,33.337-27.024,60.361-60.361,60.361h-73.482c-33.337,0-60.361-27.024-60.361-60.361l0,0       c0-33.336,27.024-60.361,60.361-60.361h73.482C2681.061,2739.642,2708.085,2766.666,2708.085,2800.002L2708.085,2800.002z"/>
				</g>
				<g>
					
						<linearGradient id="SVGID_00000103226536184511655510000002729460195766591658_" gradientUnits="userSpaceOnUse" x1="2046.1611" y1="3012.061" x2="2841.312" y2="2246.5439" fill="#000000">
						<stop offset="0" style="stop-color:#56b1b3" fill="#000000"/>
						<stop offset="1" style="stop-color:#56b1b3" fill="#000000"/>
					</linearGradient>
					<path style="opacity:0.63;fill:url(#SVGID_00000103226536184511655510000002729460195766591658_);" d="M2172.713,2983.709       c0,33.337-27.024,60.361-60.361,60.361h-73.483c-33.336,0-60.361-27.024-60.361-60.361l0,0       c0-33.336,27.024-60.361,60.361-60.361h73.483C2145.688,2923.348,2172.713,2950.373,2172.713,2983.709L2172.713,2983.709z"/>
					
						<linearGradient id="SVGID_00000030448723995509909270000003488224674891330693_" gradientUnits="userSpaceOnUse" x1="2177.4478" y1="3148.4302" x2="2972.5989" y2="2382.9131" fill="#000000">
						<stop offset="0" style="stop-color:#56b1b3" fill="#000000"/>
						<stop offset="1" style="stop-color:#56b1b3" fill="#000000"/>
					</linearGradient>
					<path style="opacity:0.63;fill:url(#SVGID_00000030448723995509909270000003488224674891330693_);" d="M2445.647,2983.709       c0,33.337-27.024,60.361-60.361,60.361h-73.482c-33.336,0-60.361-27.024-60.361-60.361l0,0       c0-33.336,27.024-60.361,60.361-60.361h73.482C2418.623,2923.348,2445.647,2950.373,2445.647,2983.709L2445.647,2983.709z"/>
					
						<linearGradient id="SVGID_00000052802531733533303190000009845724709822042795_" gradientUnits="userSpaceOnUse" x1="2303.6848" y1="3279.5547" x2="3098.8359" y2="2514.0376" fill="#000000">
						<stop offset="0" style="stop-color:#56b1b3" fill="#000000"/>
						<stop offset="1" style="stop-color:#56b1b3" fill="#000000"/>
					</linearGradient>
					<path style="opacity:0.63;fill:url(#SVGID_00000052802531733533303190000009845724709822042795_);" d="M2708.085,2983.709       c0,33.337-27.024,60.361-60.361,60.361h-73.482c-33.337,0-60.361-27.024-60.361-60.361l0,0       c0-33.336,27.024-60.361,60.361-60.361h73.482C2681.061,2923.348,2708.085,2950.373,2708.085,2983.709L2708.085,2983.709z"/>
				</g>
				<path style="fill:#56b1b3;" d="M2954.776,2978.779c0,42.196-34.207,76.403-76.403,76.403h-4.656      c-42.196,0-76.403-34.207-76.403-76.403v-146.372c0-42.197,34.207-76.404,76.403-76.404h4.656      c42.196,0,76.403,34.207,76.403,76.404V2978.779z"/>
			</g>
		</g>
		<g>
			<g>
				
					<linearGradient id="SVGID_00000170975664108966893860000003472689823087381411_" gradientUnits="userSpaceOnUse" x1="2566.4192" y1="2010.0521" x2="2886.7874" y2="1638.1964" fill="#000000">
					<stop offset="0" style="stop-color:#f97415" fill="#000000"/>
					<stop offset="1" style="stop-color:#e9605a" fill="#000000"/>
				</linearGradient>
				
					<circle style="fill:url(#SVGID_00000170975664108966893860000003472689823087381411_);" cx="2893.259" cy="1630.685" r="238.847"/>
				
					<linearGradient id="SVGID_00000028321354508191905520000015665268817423647112_" gradientUnits="userSpaceOnUse" x1="3067.8162" y1="1366.9785" x2="2120.4792" y2="2798.1345" fill="#000000">
					<stop offset="0" style="stop-color:#f97415" fill="#000000"/>
					<stop offset="1" style="stop-color:#f97415" fill="#000000"/>
				</linearGradient>
				
					<circle style="fill:url(#SVGID_00000028321354508191905520000015665268817423647112_);" cx="2893.259" cy="1630.685" r="230.904"/>
				<path style="opacity:0.74;fill:none;" d="M2702.854,1538.098c-0.504,0-1.015-0.114-1.497-0.358      c-1.643-0.828-2.304-2.832-1.474-4.475c37.073-73.44,111.168-119.062,193.375-119.062c13.112,0,26.251,1.181,39.047,3.512      c1.812,0.33,3.013,2.064,2.681,3.875c-0.329,1.811-2.073,3.003-3.872,2.681c-12.406-2.26-25.144-3.405-37.856-3.405      c-79.676,0-151.494,44.219-187.428,115.401C2705.246,1537.429,2704.071,1538.098,2702.854,1538.098z"/>
				<circle style="opacity:0.78;fill:none;" cx="2898.29" cy="1635.716" r="195.432"/>
				<g>
					
						<linearGradient id="SVGID_00000112612277915176616580000018062770728829383043_" gradientUnits="userSpaceOnUse" x1="3039.5564" y1="1407.9852" x2="2535.1182" y2="2254.8535" fill="#000000">
						<stop offset="0" style="stop-color:#f97415" fill="#000000"/>
						<stop offset="1" style="stop-color:#f97415" fill="#000000"/>
					</linearGradient>
					<path style="fill:url(#SVGID_00000112612277915176616580000018062770728829383043_);" d="M2879.111,1781.003v-21.262       c-22.164-0.888-44.088-6.119-59.66-12.935c-5.56-2.433-8.395-8.674-6.798-14.53l5.402-19.804       c1.981-7.266,9.883-11.023,16.828-8.113c15.446,6.475,34.518,11.599,55.083,11.599c21.349,0,37.27-7.238,37.27-22.074       c0-13.388-12.302-21.348-41.973-29.307c-42.335-11.58-72.731-30.035-72.731-67.304c0-33.654,24.606-59.344,67.303-66.217       v-21.265c0-6.842,5.547-12.389,12.389-12.389h12.493c6.841,0,12.389,5.546,12.389,12.389v19.092       c20.51,0.821,35.439,4.328,47.287,8.492c6.071,2.132,9.388,8.671,7.703,14.882l-4.967,18.316       c-1.915,7.064-9.464,10.932-16.309,8.343c-10.909-4.125-26.331-8.42-46.379-8.42c-25.33,0-32.566,10.492-32.566,19.901       c0,11.579,15.198,19.539,48.124,29.673c47.041,14.11,66.58,33.649,66.58,68.749c0,32.205-23.881,61.152-70.197,68.39v23.795       c0,6.842-5.547,12.389-12.388,12.389H2891.5C2884.658,1793.392,2879.111,1787.845,2879.111,1781.003z"/>
				</g>
			</g>
			<g>
				
					<linearGradient id="SVGID_00000098200178021747591060000012802785640006714281_" gradientUnits="userSpaceOnUse" x1="2311.9348" y1="2010.0521" x2="2632.303" y2="1638.1965" fill="#000000">
					<stop offset="0" style="stop-color:#f97415" fill="#000000"/>
					<stop offset="1" style="stop-color:#e9605a" fill="#000000"/>
				</linearGradient>
				
					<circle style="fill:url(#SVGID_00000098200178021747591060000012802785640006714281_);" cx="2638.774" cy="1630.685" r="238.846"/>
				
					<linearGradient id="SVGID_00000025402988922605920040000003171640021112542616_" gradientUnits="userSpaceOnUse" x1="2813.332" y1="1366.9785" x2="1865.9948" y2="2798.1348" fill="#000000">
					<stop offset="0" style="stop-color:#f97415" fill="#000000"/>
					<stop offset="1" style="stop-color:#f97415" fill="#000000"/>
				</linearGradient>
				
					<circle style="fill:url(#SVGID_00000025402988922605920040000003171640021112542616_);" cx="2638.774" cy="1630.685" r="230.904"/>
				<path style="opacity:0.74;fill:none;" d="M2448.368,1538.098c-0.504,0-1.015-0.114-1.497-0.358      c-1.643-0.828-2.304-2.832-1.474-4.475c37.072-73.44,111.168-119.062,193.375-119.062c13.109,0,26.251,1.181,39.051,3.512      c1.812,0.33,3.013,2.064,2.681,3.875c-0.329,1.811-2.066,3.003-3.872,2.681c-12.41-2.26-25.148-3.405-37.86-3.405      c-79.676,0-151.494,44.219-187.428,115.401C2450.76,1537.429,2449.585,1538.098,2448.368,1538.098z"/>
				<circle style="opacity:0.78;fill:none;" cx="2643.805" cy="1635.716" r="195.432"/>
				<g>
					
						<linearGradient id="SVGID_00000145767189364715985480000009199764492731611556_" gradientUnits="userSpaceOnUse" x1="2785.0718" y1="1407.9855" x2="2280.634" y2="2254.8533" fill="#000000">
						<stop offset="0" style="stop-color:#f97415" fill="#000000"/>
						<stop offset="1" style="stop-color:#f97415" fill="#000000"/>
					</linearGradient>
					<path style="fill:url(#SVGID_00000145767189364715985480000009199764492731611556_);" d="M2624.627,1781.003v-21.262       c-22.165-0.888-44.089-6.119-59.66-12.935c-5.56-2.433-8.395-8.674-6.797-14.53l5.402-19.804       c1.981-7.266,9.882-11.023,16.828-8.113c15.446,6.475,34.519,11.599,55.083,11.599c21.348,0,37.27-7.238,37.27-22.074       c0-13.388-12.302-21.348-41.973-29.307c-42.335-11.58-72.732-30.035-72.732-67.304c0-33.654,24.607-59.344,67.303-66.217       v-21.265c0-6.842,5.547-12.389,12.389-12.389h12.492c6.841,0,12.388,5.546,12.388,12.389v19.092       c20.51,0.821,35.439,4.328,47.288,8.492c6.07,2.132,9.387,8.671,7.703,14.882l-4.968,18.316       c-1.915,7.064-9.463,10.932-16.308,8.343c-10.909-4.125-26.332-8.42-46.38-8.42c-25.329,0-32.566,10.492-32.566,19.901       c0,11.579,15.198,19.539,48.125,29.673c47.041,14.11,66.58,33.649,66.58,68.749c0,32.205-23.881,61.152-70.197,68.39v23.795       c0,6.842-5.547,12.389-12.389,12.389h-12.494C2630.174,1793.392,2624.627,1787.845,2624.627,1781.003z"/>
				</g>
			</g>
			<g>
				
					<linearGradient id="SVGID_00000120528748724349586640000018201350616464814729_" gradientUnits="userSpaceOnUse" x1="2057.4502" y1="2010.0521" x2="2377.8184" y2="1638.1965" fill="#000000">
					<stop offset="0" style="stop-color:#f97415" fill="#000000"/>
					<stop offset="1" style="stop-color:#e9605a" fill="#000000"/>
				</linearGradient>
				
					<circle style="fill:url(#SVGID_00000120528748724349586640000018201350616464814729_);" cx="2384.289" cy="1630.685" r="238.846"/>
				
					<linearGradient id="SVGID_00000083089902454389970590000003440535573833118099_" gradientUnits="userSpaceOnUse" x1="2558.8472" y1="1366.9785" x2="1611.51" y2="2798.1348" fill="#000000">
					<stop offset="0" style="stop-color:#f97415" fill="#000000"/>
					<stop offset="1" style="stop-color:#f97415" fill="#000000"/>
				</linearGradient>
				
					<circle style="fill:url(#SVGID_00000083089902454389970590000003440535573833118099_);" cx="2384.289" cy="1630.685" r="230.904"/>
				<path style="opacity:0.74;fill:none;" d="M2193.886,1538.098c-0.504,0-1.015-0.114-1.497-0.358      c-1.643-0.828-2.303-2.832-1.474-4.475c37.069-73.44,111.165-119.062,193.375-119.062c13.112,0,26.251,1.181,39.047,3.512      c1.812,0.33,3.013,2.064,2.681,3.875c-0.329,1.811-2.06,3.003-3.872,2.681c-12.406-2.26-25.145-3.405-37.857-3.405      c-79.679,0-151.497,44.219-187.427,115.401C2196.277,1537.429,2195.103,1538.098,2193.886,1538.098z"/>
				<circle style="opacity:0.78;fill:none;" cx="2389.321" cy="1635.716" r="195.432"/>
				<g>
					
						<linearGradient id="SVGID_00000039130333649602087320000013733498957769181864_" gradientUnits="userSpaceOnUse" x1="2530.5872" y1="1407.9854" x2="2026.1492" y2="2254.8533" fill="#000000">
						<stop offset="0" style="stop-color:#f97415" fill="#000000"/>
						<stop offset="1" style="stop-color:#f97415" fill="#000000"/>
					</linearGradient>
					<path style="fill:url(#SVGID_00000039130333649602087320000013733498957769181864_);" d="M2370.142,1781.003v-21.262       c-22.165-0.888-44.089-6.119-59.66-12.935c-5.56-2.433-8.395-8.674-6.797-14.53l5.401-19.804       c1.982-7.266,9.883-11.023,16.829-8.113c15.446,6.475,34.518,11.599,55.083,11.599c21.348,0,37.27-7.238,37.27-22.074       c0-13.388-12.302-21.348-41.974-29.307c-42.335-11.58-72.731-30.035-72.731-67.304c0-33.654,24.606-59.344,67.303-66.217       v-21.265c0-6.842,5.547-12.389,12.388-12.389h12.492c6.842,0,12.389,5.546,12.389,12.389v19.092       c20.51,0.821,35.44,4.328,47.288,8.492c6.071,2.132,9.388,8.671,7.704,14.882l-4.968,18.316       c-1.915,7.064-9.464,10.932-16.309,8.343c-10.908-4.125-26.331-8.42-46.379-8.42c-25.329,0-32.565,10.492-32.565,19.901       c0,11.579,15.197,19.539,48.124,29.673c47.041,14.11,66.58,33.649,66.58,68.749c0,32.205-23.881,61.152-70.197,68.39v23.795       c0,6.842-5.547,12.389-12.388,12.389h-12.495C2375.689,1793.392,2370.142,1787.845,2370.142,1781.003z"/>
				</g>
			</g>
			<g>
				
					<linearGradient id="SVGID_00000122689440691772441090000013080038340024899002_" gradientUnits="userSpaceOnUse" x1="1626.8453" y1="2053.8013" x2="2046.9568" y2="1566.1726" fill="#000000">
					<stop offset="0" style="stop-color:#f97415" fill="#000000"/>
					<stop offset="1" style="stop-color:#e9605a" fill="#000000"/>
				</linearGradient>
				
					<circle style="fill:url(#SVGID_00000122689440691772441090000013080038340024899002_);" cx="2055.442" cy="1556.323" r="313.209"/>
				
					<linearGradient id="SVGID_00000042002474567695036170000011187221222689049993_" gradientUnits="userSpaceOnUse" x1="2284.3469" y1="1210.5139" x2="1042.0667" y2="3087.2454" fill="#000000">
					<stop offset="0" style="stop-color:#f97415" fill="#000000"/>
					<stop offset="1" style="stop-color:#f97415" fill="#000000"/>
				</linearGradient>
				
					<circle style="fill:url(#SVGID_00000042002474567695036170000011187221222689049993_);" cx="2055.442" cy="1556.323" r="302.794"/>
				<path style="opacity:0.74;fill:none;" d="M1805.759,1433.873c-0.504,0-1.015-0.114-1.497-0.358      c-1.643-0.828-2.304-2.832-1.474-4.475c48.434-95.954,145.247-155.561,252.654-155.561c17.144,0,34.31,1.544,51.024,4.589      c1.809,0.33,3.01,2.064,2.678,3.875c-0.329,1.811-2.043,3.006-3.875,2.681c-16.321-2.974-33.083-4.482-49.827-4.482      c-104.879,0-199.411,58.205-246.706,151.901C1808.15,1433.204,1806.975,1433.873,1805.759,1433.873z"/>
				
					<ellipse transform="matrix(0.7071 -0.7071 0.7071 0.7071 -501.1942 1915.8513)" style="opacity:0.78;fill:none;" cx="2062.04" cy="1562.921" rx="256.278" ry="256.278"/>
				<g>
					
						<linearGradient id="SVGID_00000081647269004924190270000014936856327861189761_" gradientUnits="userSpaceOnUse" x1="2247.2888" y1="1264.2874" x2="1585.7988" y2="2374.8193" fill="#000000">
						<stop offset="0" style="stop-color:#f97415" fill="#000000"/>
						<stop offset="1" style="stop-color:#f97415" fill="#000000"/>
					</linearGradient>
					<path style="fill:url(#SVGID_00000081647269004924190270000014936856327861189761_);" d="M2036.891,1753.44v-27.881       c-29.065-1.164-57.815-8.024-78.234-16.963c-7.291-3.191-11.008-11.374-8.914-19.053l7.084-25.971       c2.598-9.527,12.959-14.455,22.068-10.638c20.255,8.491,45.265,15.21,72.233,15.21c27.995,0,48.873-9.492,48.873-28.946       c0-17.557-16.132-27.994-55.041-38.432c-55.516-15.185-95.376-39.386-95.376-88.259c0-44.13,32.268-77.819,88.258-86.833       v-27.885c0-8.972,7.274-16.246,16.246-16.246h16.382c8.972,0,16.246,7.274,16.246,16.246v25.036       c26.895,1.077,46.473,5.676,62.01,11.136c7.96,2.796,12.31,11.371,10.102,19.515l-6.515,24.018       c-2.511,9.263-12.41,14.335-21.386,10.941c-14.305-5.409-34.53-11.041-60.819-11.041c-33.216,0-42.704,13.758-42.704,26.096       c0,15.184,19.928,25.622,63.107,38.911c61.687,18.504,87.309,44.127,87.309,90.153c0,42.231-31.317,80.192-92.052,89.683       v31.203c0,8.973-7.274,16.247-16.245,16.247h-16.384C2044.164,1769.687,2036.891,1762.413,2036.891,1753.44z"/>
				</g>
			</g>
		</g>
		<g>
			
				<linearGradient id="SVGID_00000101794073910725850470000004394270065490730414_" gradientUnits="userSpaceOnUse" x1="7929.7568" y1="3078.5872" x2="7363.3711" y2="3694.656" gradientTransform="matrix(1 0 0 1 -6555.2432 0)" fill="#000000">
				<stop offset="0" style="stop-color:#176e70" fill="#000000"/>
				<stop offset="1" style="stop-color:#0c4344" fill="#000000"/>
			</linearGradient>
			<path style="fill:url(#SVGID_00000101794073910725850470000004394270065490730414_);" d="M1195.478,3124.481     c0,0-5.866,33.206-8.742,66.077c-1.124,12.846,8.78,24,21.665,24.537c43.773,1.823,137.408,5.368,171.007,3.869     c5.051-0.225,8.354-5.396,6.484-10.094c-1.567-3.936-4.588-7.119-8.437-8.888l-154.667-71.085L1195.478,3124.481z"/>
			
				<linearGradient id="SVGID_00000024705233245570971260000016212910250609926832_" gradientUnits="userSpaceOnUse" x1="7745.916" y1="3124.3435" x2="7796.2251" y2="3124.3435" gradientTransform="matrix(1 0 0 1 -6555.2432 0)" fill="#000000">
				<stop offset="0" style="stop-color:#febbba" fill="#000000"/>
				<stop offset="1" style="stop-color:#f97415" fill="#000000"/>
			</linearGradient>
			<path style="fill:url(#SVGID_00000024705233245570971260000016212910250609926832_);" d="M1190.673,3104.97l4.713,39.719     c0,0,27.093,12.613,45.596-1.59l-11.22-44.264L1190.673,3104.97z"/>
			
				<linearGradient id="SVGID_00000044151330720100392720000008972931860272673691_" gradientUnits="userSpaceOnUse" x1="990.8961" y1="3067.4478" x2="1307.412" y2="2441.0784" fill="#000000">
				<stop offset="0" style="stop-color:#176e70" fill="#000000"/>
				<stop offset="1" style="stop-color:#0c4344" fill="#000000"/>
			</linearGradient>
			<path style="fill:url(#SVGID_00000044151330720100392720000008972931860272673691_);" d="M1194.215,2358.238     c-2.036,10.372-10.926,517.608,43.293,744.917c0.885,3.709-0.996,7.532-4.526,8.975c-8.316,3.398-24.619,8.318-44.157,8.974     c-6.051,0.203-11.476-3.729-13.183-9.537c-15.498-52.74-89.764-316.979-99.453-569.398c-10.825-282.054,0-9.604,0-9.604     l6.35-174.349L1194.215,2358.238z"/>
			
				<linearGradient id="SVGID_00000022556949360836679070000006038854931369090950_" gradientUnits="userSpaceOnUse" x1="7802.6968" y1="2961.7749" x2="7236.312" y2="3577.8433" gradientTransform="matrix(1 0 0 1 -6555.2432 0)" fill="#000000">
				<stop offset="0" style="stop-color:#176e70" fill="#000000"/>
				<stop offset="1" style="stop-color:#0c4344" fill="#000000"/>
			</linearGradient>
			<path style="fill:url(#SVGID_00000022556949360836679070000006038854931369090950_);" d="M1017.56,3141.804     c0,0-9.337,16.764-18.377,61.309c-1.632,8.045,3.989,15.745,12.158,16.547c14.454,1.422,36.706,3.25,54.53,3.127     c8.217-0.056,14.629-7.211,13.639-15.368c-1.974-16.26-8.125-42.936-27.126-63.728L1017.56,3141.804z"/>
			
				<linearGradient id="SVGID_00000119106812599258262270000017243896988054522005_" gradientUnits="userSpaceOnUse" x1="7564.6025" y1="3121.7639" x2="7608.0396" y2="3121.7639" gradientTransform="matrix(1 0 0 1 -6555.2432 0)" fill="#000000">
				<stop offset="0" style="stop-color:#febbba" fill="#000000"/>
				<stop offset="1" style="stop-color:#f97415" fill="#000000"/>
			</linearGradient>
			<path style="fill:url(#SVGID_00000119106812599258262270000017243896988054522005_);" d="M1009.359,3090.716l11.012,60.065     c0,0,10.888,8.099,32.425,2.228l-5.256-64.627L1009.359,3090.716z"/>
			
				<linearGradient id="SVGID_00000085929412387169990330000004349490019460402053_" gradientUnits="userSpaceOnUse" x1="883.2104" y1="3013.0327" x2="1199.7271" y2="2386.6619" fill="#000000">
				<stop offset="0" style="stop-color:#176e70" fill="#000000"/>
				<stop offset="1" style="stop-color:#0c4344" fill="#000000"/>
			</linearGradient>
			<path style="fill:url(#SVGID_00000085929412387169990330000004349490019460402053_);" d="M979.612,2373.803     c-44.345,267.622,9.619,661.45,27.819,738.531c1.114,4.719,4.923,8.335,9.706,9.128c8.124,1.346,21.499,2.445,34.684-1.385     c4.543-1.319,7.735-5.417,7.92-10.145c2.442-62.318-1.953-444.891,39.366-596.085c2.094-7.662,6.773-14.344,13.247-18.947     l80.197-57.013l6.148-92.157L979.612,2373.803z"/>
			<g>
				
					<linearGradient id="SVGID_00000109713806796695665620000017403706496146332336_" gradientUnits="userSpaceOnUse" x1="717.7553" y1="2698.5784" x2="1057.5951" y2="2188.8193" fill="#000000">
					<stop offset="0" style="stop-color:#f97415" fill="#000000"/>
					<stop offset="1" style="stop-color:#f97415" fill="#000000"/>
				</linearGradient>
				<path style="fill:url(#SVGID_00000109713806796695665620000017403706496146332336_);" d="M1262.175,1866.711      c-132.892-2.195-279.523,34.893-279.523,34.893c-39.613,231.137-6.927,497.737-6.927,497.737      c102.881,26.98,218.938-16.495,218.938-16.495c17.1-96.61,96.882-368.501,96.882-368.501      c64.931-8.058,118.419-26.792,162.468-51.559c-33.599-38.946-49.439-88.503-56.318-117.798      C1350.709,1859.589,1303.164,1867.389,1262.175,1866.711z"/>
				
					<linearGradient id="SVGID_00000065045316548762279200000000918548588826353030_" gradientUnits="userSpaceOnUse" x1="1251.9049" y1="2000.0266" x2="1736.6506" y2="1685.1918" fill="#000000">
					<stop offset="0" style="stop-color:#febbba" fill="#000000"/>
					<stop offset="1" style="stop-color:#f97415" fill="#000000"/>
				</linearGradient>
				<path style="fill:url(#SVGID_00000065045316548762279200000000918548588826353030_);" d="M1654.714,1670.969      c-13.055-15.767-29.577-8.308-29.577-8.308c-19.556,82.608-122.097,149.587-227.443,182.327      c6.88,29.295,22.719,78.852,56.318,117.798C1628.845,1864.485,1654.714,1670.969,1654.714,1670.969z"/>
			</g>
			<g>
				
					<linearGradient id="SVGID_00000103962084983202112310000006565819130395627673_" gradientUnits="userSpaceOnUse" x1="1279.4742" y1="1818.2632" x2="1749.2524" y2="1568.3809" fill="#000000">
					<stop offset="0" style="stop-color:#febbba" fill="#000000"/>
					<stop offset="1" style="stop-color:#f97415" fill="#000000"/>
				</linearGradient>
				<path style="fill:url(#SVGID_00000103962084983202112310000006565819130395627673_);" d="M1651.546,1674.978      c1.366,4.343-14.452,10.955-23.766-6.805c-0.326-8.512-5.502-44.978-0.416-51.912c27.089-36.932,79.609-83.228,79.609-83.228      c8.876,8.758,1.564,17.362,1.564,17.362l-25.478,26.542c5.329,9.63,11.83,17.759,14.876,29.408      c2.308,8.821,0.896,18.248-3.56,26.277c-4.472,8.057-10.574,18.531-16.343,26.728      C1667.115,1674.862,1651.546,1674.978,1651.546,1674.978z"/>
				
					<linearGradient id="SVGID_00000036945716378786318820000008462871322206242748_" gradientUnits="userSpaceOnUse" x1="-3202.7207" y1="1700.9702" x2="-3269.5823" y2="1566.0941" gradientTransform="matrix(-1 0 0 1 -1579.9612 0)" fill="#000000">
					<stop offset="0" style="stop-color:#febbba" fill="#000000"/>
					<stop offset="1" style="stop-color:#f97415" fill="#000000"/>
				</linearGradient>
				<path style="fill:url(#SVGID_00000036945716378786318820000008462871322206242748_);" d="M1671.915,1594.157l-23.218,19.682      l-7.29,19.596l20.701,22.965c0,0,6.96-38.883,12.133-47.298S1676.732,1596.618,1671.915,1594.157z"/>
			</g>
			
				<linearGradient id="SVGID_00000152951178408039605060000002204688519039934086_" gradientUnits="userSpaceOnUse" x1="568.2111" y1="2598.8833" x2="908.0502" y2="2089.1252" fill="#000000">
				<stop offset="0" style="stop-color:#f97415" fill="#000000"/>
				<stop offset="1" style="stop-color:#f97415" fill="#000000"/>
			</linearGradient>
			<path style="fill:url(#SVGID_00000152951178408039605060000002204688519039934086_);" d="M1033.625,2030.283l-50.972-128.679     c0,0-124.129,84.34-144.542,191.274c23.454,1.727,66.133,7.828,107.907,28.922     C955.198,2071.306,1033.625,2030.283,1033.625,2030.283z"/>
			
				<linearGradient id="SVGID_00000048475352171097660090000010141464468664597420_" gradientUnits="userSpaceOnUse" x1="7390.5239" y1="2175.9036" x2="7715.7856" y2="2175.9036" gradientTransform="matrix(1 0 0 1 -6555.2432 0)" fill="#000000">
				<stop offset="0" style="stop-color:#febbba" fill="#000000"/>
				<stop offset="1" style="stop-color:#f97415" fill="#000000"/>
			</linearGradient>
			<path style="fill:url(#SVGID_00000048475352171097660090000010141464468664597420_);" d="M1142.099,2151.365     c0,0-139.364,78.762-186.389,11.509c-9.763-13.965-12.097-27.843-9.692-41.074c-41.775-21.093-84.453-27.195-107.907-28.922     c-6.155,32.238-2.901,66.523,16.042,101.176c82.37,150.677,306.39-8.327,306.39-8.327L1142.099,2151.365z"/>
			<g>
				
					<linearGradient id="SVGID_00000105408434972651755610000009608171625680709523_" gradientUnits="userSpaceOnUse" x1="7814.189" y1="1944.6527" x2="7993.0386" y2="2689.8616" gradientTransform="matrix(1 0 0 1 -6555.2432 0)" fill="#000000">
					<stop offset="0" style="stop-color:#176e70" fill="#000000"/>
					<stop offset="1" style="stop-color:#0c4344" fill="#000000"/>
				</linearGradient>
				<path style="fill:url(#SVGID_00000105408434972651755610000009608171625680709523_);" d="M1125.354,2251.008l76.061-265.619      c0.863-3.015,3.435-5.214,6.551-5.578c13.781-1.607,53.711-6.121,99.816-10.021c55.535-4.698,120.027-8.504,158.566-5.266      c5.479,0.46,8.79,6.255,6.354,11.184c-21.916,44.337-112.062,224.692-157.203,283.774c-1.497,1.958-3.809,3.101-6.272,3.079      l-176.472-1.642C1127.618,2260.871,1123.94,2255.944,1125.354,2251.008z"/>
				
					<linearGradient id="SVGID_00000006698323609282715810000014586314627937505688_" gradientUnits="userSpaceOnUse" x1="-109.9653" y1="13296.7021" x2="21.03" y2="13111.125" gradientTransform="matrix(1 0 0 1 -6555.2432 0)" fill="#000000">
					<stop offset="0" style="stop-color:#53D8FF" fill="#000000"/>
					<stop offset="1" style="stop-color:#ffffff" fill="#000000"/>
				</linearGradient>
				<path style="fill:url(#SVGID_00000006698323609282715810000014586314627937505688_);" d="M1315.672,1946.761l55.145-9.188      c2.937-0.489,5.343,2.317,4.409,5.145l-5.459,16.542c-0.476,1.44-1.731,2.482-3.234,2.682l-53.066,7.089      c-2.745,0.366-5.008-2.128-4.377-4.825l3.379-14.442C1312.832,1948.208,1314.096,1947.025,1315.672,1946.761z"/>
				
					<linearGradient id="SVGID_00000078750584284376839650000005202279630765085627_" gradientUnits="userSpaceOnUse" x1="-101.0772" y1="13302.9873" x2="29.9178" y2="13117.4111" gradientTransform="matrix(1 0 0 1 -6555.2432 0)" fill="#000000">
					<stop offset="0" style="stop-color:#53D8FF" fill="#000000"/>
					<stop offset="1" style="stop-color:#ffffff" fill="#000000"/>
				</linearGradient>
				<path style="fill:url(#SVGID_00000078750584284376839650000005202279630765085627_);" d="M1274.38,1993.446l4.543-23.663      c0.456-2.373,2.415-4.166,4.819-4.411l111.38-11.302c3.749-0.381,6.751,3.055,5.871,6.719l-7.082,29.487      c-0.567,2.359-2.62,4.063-5.044,4.185l-108.841,5.479C1276.485,2000.119,1273.712,1996.93,1274.38,1993.446z"/>
				
					<linearGradient id="SVGID_00000023279284800161497150000007847449830395967914_" gradientUnits="userSpaceOnUse" x1="7691.6362" y1="2141.8" x2="7792.9683" y2="2141.8" gradientTransform="matrix(1 0 0 1 -6555.2432 0)" fill="#000000">
					<stop offset="0" style="stop-color:#febbba" fill="#000000"/>
					<stop offset="1" style="stop-color:#f97415" fill="#000000"/>
				</linearGradient>
				<path style="fill:url(#SVGID_00000023279284800161497150000007847449830395967914_);" d="M1143.73,2186.834      c0,0-10.595-43.567-6.322-59.024c4.275-15.457,12.555-35.33,40.156-30.914c27.602,4.416,60.161,16.044,60.161,16.044      s-1.645,20.134-22.622,13.638l13.009,10.065c0,0-1.859,16.12-19.579,7.508l12.099,13.349c0,0-7.61,13.24-20.646,4.748      C1186.95,2153.755,1180.7,2192.081,1143.73,2186.834z"/>
			</g>
			
				<linearGradient id="SVGID_00000018940968360522552600000005915150236936253351_" gradientUnits="userSpaceOnUse" x1="1054.7257" y1="2061.0991" x2="1174.6688" y2="1787.8947" fill="#000000">
				<stop offset="0" style="stop-color:#febbba" fill="#000000"/>
				<stop offset="1" style="stop-color:#f97415" fill="#000000"/>
			</linearGradient>
			<path style="fill:url(#SVGID_00000018940968360522552600000005915150236936253351_);" d="M1127.567,1758.824l-42.284,122.283     c-0.7,2.025,0.132,4.268,2.008,5.306c11.526,6.373,53.053,24.793,103.096-6.935c5.213-3.305,8.762-8.696,9.554-14.818     l13.693-105.836H1127.567z"/>
			<g>
				
					<linearGradient id="SVGID_00000005268635017072862370000016201890214530069405_" gradientUnits="userSpaceOnUse" x1="296.4325" y1="3682.218" x2="248.377" y2="3523.7195" gradientTransform="matrix(0.746 -0.6659 0.6659 0.746 -1428.908 -803.1727)" fill="#000000">
					<stop offset="0" style="stop-color:#febbba" fill="#000000"/>
					<stop offset="1" style="stop-color:#f97415" fill="#000000"/>
				</linearGradient>
				<path style="fill:url(#SVGID_00000005268635017072862370000016201890214530069405_);" d="M1219.571,1645.586      c0,0,46.432,87.404,40.481,122.711c-5.952,35.306-63.498,32.771-113.748,4.096l-35.114-94.377L1219.571,1645.586z"/>
				
					<linearGradient id="SVGID_00000094576995093483769850000002487877604580566404_" gradientUnits="userSpaceOnUse" x1="253.0767" y1="3406.0579" x2="293.2749" y2="3635.3364" gradientTransform="matrix(0.746 -0.6659 0.6659 0.746 -1428.908 -803.1727)" fill="#000000">
					<stop offset="0" style="stop-color:#176e70" fill="#000000"/>
					<stop offset="1" style="stop-color:#0c4344" fill="#000000"/>
				</linearGradient>
				<path style="fill:url(#SVGID_00000094576995093483769850000002487877604580566404_);" d="M1148.525,1726.046      c2.042-0.905,2.795-3.404,1.572-5.272c-3.72-5.683-10.694-17.277-12.918-27.427c0,0-8.347-5.347,21.245-12.429      c29.592-7.084,73.722-18.078,82.998-43.266c9.044-24.558-14.718-86.318-52.627-37.108c-1.442,1.872-4.268,1.913-5.708,0.039      c-6.215-8.089-22.553-24.877-45.237-14.699c-21.228,9.525-23.618,25.079-23.327,32.92c0.085,2.306-1.977,4.099-4.244,3.667      c-10.732-2.047-36.487-3.805-48.508,22.615c-9.902,21.762-3.466,34.081,2.395,40.106c1.9,1.952,1.067,5.167-1.537,5.963      c-7.053,2.16-16.161,8.14-15.25,24.666c1.261,22.846,26.803,20.833,34.075,19.792c1.192-0.171,2.393,0.238,3.2,1.13      c6.235,6.901,34.33,36.201,64.737,39.733c2.633,0.305,4.674-2.294,3.812-4.801l-13.159-38.252      c-0.611-1.776,0.239-3.725,1.956-4.486L1148.525,1726.046z"/>
				
					<linearGradient id="SVGID_00000069363665424786047670000015884328123124889985_" gradientUnits="userSpaceOnUse" x1="247.3081" y1="3681.4797" x2="204.072" y2="3538.8765" gradientTransform="matrix(0.746 -0.6659 0.6659 0.746 -1428.908 -803.1727)" fill="#000000">
					<stop offset="0" style="stop-color:#febbba" fill="#000000"/>
					<stop offset="1" style="stop-color:#f97415" fill="#000000"/>
				</linearGradient>
				<path style="fill:url(#SVGID_00000069363665424786047670000015884328123124889985_);" d="M1153.814,1731.475      c0,0-33.06-22.683-35.476-3.581c-2.415,19.101,29.771,27.668,45.713,20.547L1153.814,1731.475z"/>
			</g>
		</g>
	</g>
</g>
</svg>
